<?xml version="1.0" standalone="no"?>
<!DOCTYPE svg PUBLIC "-//W3C//DTD SVG 1.1//EN" "http://www.w3.org/Graphics/SVG/1.1/DTD/svg11.dtd">
<svg xmlns="http://www.w3.org/2000/svg">
<defs >
<font id="Epilogue" horiz-adv-x="1008" ><font-face
    font-family="Epilogue ExtraLight"
    units-per-em="2000"
    panose-1="0 0 0 0 0 0 0 0 0 0"
    ascent="1580"
    descent="-470"
    alphabetic="0" />
<glyph unicode=" " horiz-adv-x="500" />
<glyph unicode="!" horiz-adv-x="561" d="M264 1473L254 303H195L185 1473H264ZM224 -24Q189 -24 165 0T140 60Q140 95 164 119T224 144Q259 144 283 120T308 60Q308 25 284 1T224 -24Z" />
<glyph unicode="&quot;" horiz-adv-x="720" d="M232 1475L215 1116H161L146 1475H232ZM488 1475L472 1116H418L402 1475H488Z" />
<glyph unicode="#" horiz-adv-x="1677" d="M690 1475H765L399 0H324L690 1475ZM1191 1475H1267L901 0H826L1191 1475ZM174 980H1516L1503 925H161L174 980ZM87 549H1429L1416 493H74L87 549Z" />
<glyph unicode="$" horiz-adv-x="1058" d="M492 1475H554V0H492V1475ZM529 201Q432 201 356 220T227 277T144 368T111 490Q110 500 110 511T110 530H188Q188 522 188 512T189 492Q194 387 282 329T529 271Q632 271 708 296T828 369T871 484Q871 594 782 641T522
718Q436 734 364 755T240 811T158 895T128 1016Q128 1106 182 1168T328 1262T527 1295Q637 1295 728 1264T873 1166T928 995Q928 990 928 984T928 972H850Q850 977 850 982T850 993Q850 1079 805 1130T687 1203T530 1225Q445 1225 371 1203T251 1135T205 1018Q205
945 248 901T368 830T547 785Q641 768 715 745T841 689T920 606T948 487Q948 418 917 365T830 276T698 220T529 201Z" />
<glyph unicode="%" horiz-adv-x="1131" d="M1107 1410L47 64L9 97L1070 1443L1107 1410ZM322 974Q258 974 201 1001T107 1081T70 1209Q70 1285 106 1337T200 1418T322 1446Q387 1446 445 1418T541 1338T578 1209Q578 1134 541 1082T446 1002T322 974ZM322 1017Q372
1017 419 1039T498 1104T529 1209Q529 1272 498 1315T420 1380T322 1402Q272 1402 226 1380T149 1315T119 1209Q119 1147 149 1104T225 1039T322 1017ZM808 34Q744 34 687 61T593 141T556 269Q556 345 592 397T686 477T808 505Q873 505 931 478T1027 398T1064 269Q1064
194 1027 141T932 61T808 34ZM808 77Q858 77 905 99T984 163T1015 269Q1015 332 984 375T906 440T808 462Q758 462 712 440T635 375T605 269Q605 206 635 164T711 99T808 77Z" />
<glyph unicode="&amp;" horiz-adv-x="1369" d="M547 -16Q414 -16 311 28T149 153T89 346Q89 450 142 534T294 693T524 844Q663 924 734 1017T806 1221Q806 1295 773 1341T690 1409T583 1431Q530 1431 475 1410T384 1342T348 1222Q348 1131 398 1045T544 832L1083
134Q1119 86 1144 71T1187 56Q1200 56 1210 57T1223 61V2Q1219 0 1207 -2T1175 -5Q1145 -5 1114 13T1041 83L488 796Q432 869 384 938T307 1077T278 1225Q278 1310 322 1369T436 1458T583 1489Q660 1489 726 1459T833 1370T874 1223Q874 1133 835 1057T725 915T558
795Q373 688 268 587T162 349Q162 259 212 191T350 83T546 44Q712 44 816 87T988 203Q1070 294 1104 417T1139 664H1208Q1208 562 1188 469T1129 296T1033 156Q965 83 849 34T547 -16Z" />
<glyph unicode="&apos;" horiz-adv-x="277" d="M184 1475L166 1116H109L93 1475H184Z" />
<glyph unicode="(" horiz-adv-x="711" d="M576 -467Q547 -444 500 -392T399 -255T299 -52T222 221T191 567Q191 760 221 915T299 1190T399 1394T499 1530T576 1601L621 1554Q584 1527 525 1454T405 1259T303 965T261 567Q261 342 302 171T404 -121T524 -315T621
-420L576 -467Z" />
<glyph unicode=")" horiz-adv-x="714" d="M142 -467L98 -420Q134 -389 193 -316T313 -121T415 171T457 567Q457 793 416 965T314 1258T194 1453T98 1554L142 1601Q171 1582 218 1531T319 1394T419 1190T496 916T527 567Q527 376 497 222T419 -51T319 -254T219
-391T142 -467Z" />
<glyph unicode="*" horiz-adv-x="941" d="M481 1214L651 1006L608 977L434 1196L260 977L216 1006L387 1214L141 1301L166 1345L409 1254L407 1486H461L459 1254L701 1345L727 1301L481 1214Z" />
<glyph unicode="+" horiz-adv-x="1131" d="M929 497H593V222H535V497H198V554H535V830H593V554H929V497Z" />
<glyph unicode="," horiz-adv-x="490" d="M170 -235L152 -204Q181 -189 212 -157T265 -83T287 0Q287 5 287 11T284 22H310Q303 0 282 -11T234 -23Q198 -23 172 -3T145 59Q145 99 172 121T241 143Q287 143 313 115T340 32Q340 -23 314 -78T248 -175T170 -235Z" />
<glyph unicode="-" horiz-adv-x="965" d="M98 539V593H772V539H98Z" />
<glyph unicode="." horiz-adv-x="467" d="M234 -24Q199 -24 175 0T150 60Q150 95 174 119T234 144Q269 144 293 120T318 60Q318 25 294 1T234 -24Z" />
<glyph unicode="/" horiz-adv-x="911" d="M804 1563L125 -155H52L732 1563H804Z" />
<glyph unicode="0" horiz-adv-x="1099" d="M542 -18Q433 -18 357 39T232 198T162 437T140 734Q140 893 162 1030T232 1271T356 1432T542 1490Q650 1490 726 1432T851 1271T921 1031T944 734Q944 574 922 437T851 198T727 39T542 -18ZM542 51Q654 51 725 137T830
377T865 734Q865 938 831 1092T725 1333T542 1420Q431 1420 359 1334T253 1093T218 734Q218 530 252 377T359 137T542 51Z" />
<glyph unicode="1" horiz-adv-x="771" d="M494 1482V0H416V1388Q409 1378 373 1361T281 1327T155 1301V1371Q223 1382 277 1401T369 1442T420 1482H494Z" />
<glyph unicode="2" horiz-adv-x="1072" d="M150 0V68Q153 136 183 207T262 347T369 481T486 601Q562 672 635 749T758 913T807 1094Q807 1246 736 1333T529 1420Q419 1420 353 1370T257 1233T227 1038H148Q148 1169 187 1271T310 1431T529 1490Q647 1490 726 1442T845
1304T885 1094Q885 1016 855 943T775 803T670 679T560 570Q477 493 404 409T285 239T235 70H908V0H150Z" />
<glyph unicode="3" horiz-adv-x="1072" d="M652 776Q746 773 800 726T877 602T901 435Q901 302 861 200T739 40T535 -18Q437 -18 365 9T246 92T175 232T152 432Q152 434 152 435T152 437H231Q231 436 231 435T231 432Q231 292 267 208T371 88T536 51Q671 51 746
152T822 436Q822 489 812 543T774 641T690 713T545 741H488V806H545Q632 806 686 832T770 902T811 996T822 1098Q822 1258 747 1339T538 1420Q395 1420 313 1335T231 1057H152Q152 1160 177 1240T250 1376T371 1461T537 1490Q658 1490 738 1442T860 1307T901 1101Q901
1019 878 946T800 827T652 776Z" />
<glyph unicode="4" horiz-adv-x="1044" d="M651 0V364H92V428L623 1482H727V433H941V364H727V0H651ZM161 394L134 433H651V1417L670 1412L161 394Z" />
<glyph unicode="5" horiz-adv-x="1075" d="M858 1407H308L247 771Q250 784 271 811T331 869T427 921T559 943Q721 943 812 821T904 468Q904 300 856 192T721 33T521 -18Q430 -18 360 9T242 90T170 220T145 397Q145 398 145 398T145 399H223Q223 398 223 398T223
397Q223 216 304 134T521 51Q609 51 678 94T786 229T826 467Q826 669 751 771T550 873Q465 873 401 837T295 751T236 658L159 678L238 1475H858V1407Z" />
<glyph unicode="6" horiz-adv-x="1078" d="M533 -18Q410 -18 326 53T200 253T158 560Q158 827 187 1006T269 1292T393 1444T548 1490Q638 1490 697 1453T790 1360T838 1242T853 1132Q853 1131 853 1131T853 1129H778Q778 1130 778 1130T778 1132Q778 1175 767
1225T729 1319T659 1392T547 1420Q461 1420 393 1347T284 1105T236 647L200 627Q209 718 257 786T384 893T557 932Q670 932 749 872T869 708T910 469Q910 324 866 215T738 44T533 -18ZM533 51Q631 51 697 104T797 250T831 464Q831 576 800 666T706 810T552 863Q459
863 388 818T277 693T237 507Q237 380 269 277T367 112T533 51Z" />
<glyph unicode="7" horiz-adv-x="964" d="M793 1407V1405H108V1475H888V1408Q762 1316 680 1186T549 905T477 594T447 282T440 0H362Q362 138 370 294T403 610T476 919T601 1194T793 1407Z" />
<glyph unicode="8" horiz-adv-x="1156" d="M575 -18Q450 -18 356 31T208 172T154 395Q154 512 195 592T302 719T440 778Q379 790 321 831T226 945T189 1127Q189 1244 242 1325T382 1448T575 1490Q680 1490 767 1448T908 1325T961 1127Q961 1019 924 946T829 832T710
778Q783 765 848 719T954 593T996 395Q996 265 943 173T795 31T575 -18ZM575 51Q669 51 746 88T869 202T916 392Q916 495 874 574T755 699T575 744Q472 744 396 699T277 575T234 392Q234 278 280 202T404 89T575 51ZM575 812Q719 812 802 898T885 1121Q885 1225
840 1290T725 1388T575 1420Q496 1420 426 1388T310 1291T265 1121Q265 985 347 899T575 812Z" />
<glyph unicode="9" horiz-adv-x="1073" d="M517 -17Q428 -17 369 20T275 113T227 231T212 341Q212 343 212 343T212 344H286Q286 343 286 343T286 341Q286 298 297 248T335 154T406 81T517 53Q604 53 672 126T781 368T829 826L865 846Q856 756 807 687T681 580T508
541Q395 541 316 601T196 765T155 1004Q155 1149 199 1258T327 1429T532 1491Q656 1491 739 1421T864 1220T907 913Q907 646 878 467T795 181T671 29T517 -17ZM513 610Q607 610 677 655T787 780T827 966Q827 1094 795 1197T698 1361T532 1422Q434 1422 368 1369T268
1223T234 1009Q234 897 265 807T359 663T513 610Z" />
<glyph unicode=":" horiz-adv-x="468" d="M234 -24Q199 -24 175 0T150 60Q150 95 174 119T234 144Q269 144 293 120T318 60Q318 25 294 1T234 -24ZM235 820Q200 820 176 844T151 904Q151 939 175 963T235 988Q270 988 294 964T319 904Q319 869 295 845T235 820Z" />
<glyph unicode=";" horiz-adv-x="496" d="M176 20L158 51Q187 66 218 98T271 172T293 255Q293 260 293 266T290 277H316Q309 255 288 244T240 232Q204 232 178 252T151 314Q151 354 178 376T247 398Q293 398 319 370T346 287Q346 232 320 177T254 80T176 20ZM234
820Q199 820 175 844T150 904Q150 939 174 963T234 988Q269 988 293 964T318 904Q318 869 294 845T234 820Z" />
<glyph unicode="&lt;" horiz-adv-x="1131" d="M864 44L263 495V567L864 1019V940L312 530V532L864 124V44Z" />
<glyph unicode="=" horiz-adv-x="1131" d="M905 663H224V718H905V663ZM905 341H224V396H905V341Z" />
<glyph unicode="&gt;" horiz-adv-x="1131" d="M264 1019L865 567V495L264 44V124L816 532V530L264 940V1019Z" />
<glyph unicode="?" horiz-adv-x="1083" d="M443 303Q443 391 470 459T540 584T630 694Q676 746 717 800T784 920T810 1070Q810 1234 731 1326T494 1418Q336 1418 256 1323T175 1059H103Q103 1198 151 1293T288 1437T495 1486Q614 1486 700 1438T835 1296T883 1067Q883
971 854 899T780 768T687 656Q621 581 567 501T513 303H443ZM485 -24Q450 -24 426 0T401 60Q401 95 425 119T485 144Q521 144 545 120T569 60Q569 25 545 1T485 -24Z" />
<glyph unicode="@" horiz-adv-x="1903" d="M1500 131Q1417 86 1314 56T1095 11T857 -4Q622 -4 454 81T196 320T106 681Q106 844 169 988T352 1242T636 1416T1004 1479Q1163 1479 1293 1433T1517 1302T1662 1102T1713 849Q1713 739 1684 640T1593 466T1437 346T1210
302Q1174 302 1133 309T1064 340T1035 411Q1035 412 1035 414T1035 417Q1006 361 942 336T795 310Q702 310 638 351T541 469T508 655Q508 802 566 913T726 1087T952 1150Q1043 1150 1102 1112T1162 1026L1188 1128H1250L1091 464Q1090 458 1089 452T1088 441Q1088
389 1131 371T1221 352Q1348 352 1431 397T1561 517T1628 679T1647 851Q1647 1025 1564 1155T1334 1357T996 1429Q810 1429 659 1370T399 1207T231 968T172 681Q172 488 256 345T494 124T858 46Q969 46 1077 59T1283 101T1465 175L1500 131ZM808 360Q909 360 966
401T1043 527Q1044 529 1053 568T1075 665T1102 779T1126 877T1136 922Q1140 942 1140 959Q1140 1022 1094 1061T952 1101Q847 1101 761 1043T623 883T572 654Q572 514 634 437T808 360Z" />
<glyph unicode="A" horiz-adv-x="1181" d="M103 0L534 1481H650L1078 0H997L591 1422H593L184 0H103ZM277 431V500H907V431H277Z" />
<glyph unicode="B" horiz-adv-x="1186" d="M592 1475Q717 1475 809 1441T954 1331T1006 1128Q1006 1011 958 935T832 820T671 777Q765 775 848 738T983 618T1035 401Q1035 266 982 177T826 44T580 0H164V1475H592ZM241 781L212 808H521Q710 808 819 883T928 1119Q928
1231 883 1293T758 1380T576 1406H206L241 1448V781ZM565 69Q743 69 849 148T956 404Q956 509 920 575T822 677T683 726T523 740H212L241 767V27L206 69H565Z" />
<glyph unicode="C" horiz-adv-x="1265" d="M1155 487Q1155 403 1124 315T1031 151T876 29T658 -18Q486 -18 364 77T176 342T110 737Q110 963 175 1132T363 1395T658 1490Q804 1490 907 1427T1070 1267T1147 1068Q1155 1026 1155 987H1077Q1077 1015 1072 1052Q1059
1143 1007 1227T868 1365T658 1419Q516 1419 411 1337T248 1102T190 737Q190 525 247 372T410 135T658 52Q761 52 839 91T970 194T1050 335T1077 487H1155Z" />
<glyph unicode="D" horiz-adv-x="1204" d="M164 0V1475H462Q606 1475 722 1426T922 1282T1049 1050T1094 737Q1094 560 1050 424T922 193T723 49T462 0H164ZM243 27L208 69H456Q624 69 750 148T945 377T1015 737Q1015 947 946 1097T750 1326T456 1406H208L243 1448V27Z" />
<glyph unicode="E" horiz-adv-x="1073" d="M206 1406L241 1448V745L217 774H838V706H217L241 735V27L206 69H909V0H164V1475H909V1406H206Z" />
<glyph unicode="F" horiz-adv-x="1003" d="M205 1406L240 1448V739L213 766H805V697H213L240 726V0H164V1475H894V1406H205Z" />
<glyph unicode="G" horiz-adv-x="1315" d="M668 -18Q506 -18 381 74T183 335T110 737Q110 970 184 1138T388 1398T683 1490Q813 1490 902 1443T1047 1322T1126 1164T1151 1002Q1151 999 1151 996T1151 990H1076Q1076 993 1076 996T1076 1002Q1076 1072 1055 1144T987
1279T865 1380T683 1418Q540 1418 429 1336T253 1101T188 737Q188 578 223 452T323 236T475 99T669 52Q801 52 886 93T1016 193T1076 304V601H669V668H1148V0H1084L1081 186Q1073 162 1044 128T964 60T840 4T668 -18Z" />
<glyph unicode="H" horiz-adv-x="1224" d="M1061 1475V0H984V737L1019 700H206L241 737V0H164V1475H241V730L206 769H1019L984 730V1475H1061Z" />
<glyph unicode="I" horiz-adv-x="448" d="M186 0V1475H262V0H186Z" />
<glyph unicode="J" horiz-adv-x="1048" d="M495 -18Q363 -18 277 40T150 204T109 452Q109 465 109 477T109 503H184Q184 493 184 483T184 461Q184 340 216 248T318 104T495 52Q602 52 671 103T773 250T807 474V1475H884V467Q884 358 862 269T792 116T671 17T495 -18Z" />
<glyph unicode="K" horiz-adv-x="1094" d="M410 768V829L1000 0H911L361 766L402 761L229 541L241 595V0H164V1475H241V634L225 647L868 1475H955L410 768Z" />
<glyph unicode="L" horiz-adv-x="951" d="M164 0V1475H241V27L206 69H845V0H164Z" />
<glyph unicode="M" horiz-adv-x="1510" d="M1197 1475H1327V0H1253V1413L1258 1412L813 0H696L252 1412L257 1413V0H183V1475H313L757 54H751L1197 1475Z" />
<glyph unicode="N" horiz-adv-x="1273" d="M239 0H164V1475H289L1042 46L1034 41V1475H1109V0H981L231 1428L239 1431V0Z" />
<glyph unicode="O" horiz-adv-x="1346" d="M673 -18Q550 -18 447 33T269 183T152 422T110 739Q110 916 152 1055T270 1291T448 1439T673 1490Q795 1490 898 1439T1077 1292T1194 1056T1236 739Q1236 562 1195 422T1078 184T899 34T673 -18ZM673 52Q815 52 924
134T1095 371T1157 739Q1157 953 1095 1105T923 1338T673 1419Q533 1419 424 1339T252 1106T189 739Q189 525 251 371T423 135T673 52Z" />
<glyph unicode="P" horiz-adv-x="1099" d="M241 0H164V1475H517Q689 1475 797 1413T956 1247T1007 1018Q1007 893 954 787T793 618T517 554H241V0ZM241 585L206 623H504Q652 623 746 675T884 816T929 1018Q929 1130 887 1218T751 1356T504 1406H206L241 1448V585Z" />
<glyph unicode="Q" horiz-adv-x="1346" d="M636 -6H708Q708 -76 745 -124T835 -204T935 -252T1004 -273L976 -330Q956 -326 916 -314T829 -279T737 -220T665 -131T636 -6ZM673 -18Q550 -18 447 33T269 183T152 422T110 739Q110 916 152 1055T270 1291T448 1439T673
1490Q795 1490 898 1439T1077 1292T1194 1056T1236 739Q1236 562 1195 422T1078 184T899 34T673 -18ZM673 52Q815 52 924 134T1095 371T1157 739Q1157 953 1095 1105T923 1338T673 1419Q533 1419 424 1339T252 1106T189 739Q189 525 251 371T423 135T673 52Z" />
<glyph unicode="R" horiz-adv-x="1153" d="M164 0V1475H619Q803 1475 903 1386T1003 1099Q1003 979 958 895T850 766T739 713Q788 709 839 685T926 610T961 474Q961 384 961 288T961 101Q961 62 968 35T980 0H901Q897 8 891 34T884 101Q884 188 884 282T884 463Q884
575 811 626T616 677H214L239 708V0H164ZM239 712L214 745H616Q699 745 769 788T881 909T924 1095Q924 1261 842 1333T601 1406H213L239 1440V712Z" />
<glyph unicode="S" horiz-adv-x="1117" d="M560 -18Q412 -18 312 29T161 171T110 410Q110 433 110 447T110 485H188Q188 462 188 448T188 411Q188 225 283 139T556 52Q743 52 836 128T930 351Q930 453 884 518T754 629T556 712Q426 755 328 810T176 945T122 1144Q122
1257 173 1334T320 1450T548 1490Q689 1490 789 1447T942 1314T996 1086Q996 1060 996 1044T996 1001H918Q918 1026 918 1042T918 1084Q918 1262 822 1341T550 1420Q383 1420 291 1351T199 1144Q199 1041 250 974T392 861T597 776Q727 733 818 680T958 550T1007
354Q1007 237 956 154T805 27T560 -18Z" />
<glyph unicode="T" horiz-adv-x="1088" d="M986 1406H560L583 1448V0H505V1448L531 1406H103V1475H986V1406Z" />
<glyph unicode="U" horiz-adv-x="1278" d="M1115 551Q1115 259 990 121T639 -18Q414 -18 289 120T164 551Q164 599 164 653T164 768V1475H241V772Q241 711 241 658T241 560Q241 294 345 173T639 52Q830 52 934 173T1038 560V1475H1115V551Z" />
<glyph unicode="V" horiz-adv-x="1157" d="M528 -11L103 1475H186L586 52H576L970 1475H1054L634 -11H528Z" />
<glyph unicode="W" horiz-adv-x="1634" d="M376 0L105 1475H186L438 45H424L768 1475H866L1208 45H1195L1448 1475H1529L1256 0H1145L811 1400H823L488 0H376Z" />
<glyph unicode="X" horiz-adv-x="1115" d="M531 762V698L88 1475H174L581 754H534L938 1475H1024L584 698V762L1039 0H953L533 706H582L162 0H76L531 762Z" />
<glyph unicode="Y" horiz-adv-x="1072" d="M970 1475L575 516V0H497V516L103 1475H185L552 569H520L887 1475H970Z" />
<glyph unicode="Z" horiz-adv-x="1079" d="M213 69H944V0H125V63L868 1407L870 1406H171V1475H954V1414L213 72V69Z" />
<glyph unicode="[" horiz-adv-x="759" d="M571 1619V1560H279V-377H571V-437H207V1619H571Z" />
<glyph unicode="\" horiz-adv-x="949" d="M52 1563H125L804 -155H732L52 1563Z" />
<glyph unicode="]" horiz-adv-x="759" d="M162 1619H525V-436H162V-376H453V1560H162V1619Z" />
<glyph unicode="^" horiz-adv-x="1131" d="M85 932L536 1533H608L1060 932H981L571 1484H573L165 932H85Z" />
<glyph unicode="_" horiz-adv-x="1391" d="M54 -166V-111H1286V-166H54Z" />
<glyph unicode="`" horiz-adv-x="627" d="M463 1251H389L140 1475H244L463 1251Z" />
<glyph unicode="a" horiz-adv-x="1201" d="M547 -18Q422 -18 332 18T192 123T143 293Q143 392 193 457T338 559T567 609Q777 630 871 654T965 729Q965 736 965 742T965 755Q965 869 872 937T610 1005Q435 1005 336 930T237 715H160Q160 828 215 908T372 1032T610
1076Q734 1076 831 1038T985 928T1042 752Q1042 732 1042 711T1042 670V176Q1042 144 1045 115T1055 63Q1063 37 1071 22T1085 0H1008Q1003 4 995 19T980 59Q971 88 968 120T965 207L977 196Q946 132 883 84T734 9T547 -18ZM558 52Q671 52 763 91T910 201T965 369V656L980
627Q929 594 824 575T588 543Q409 526 315 471T220 295Q220 179 307 116T558 52Z" />
<glyph unicode="b" horiz-adv-x="1230" d="M648 -18Q527 -18 427 39T266 193T205 405Q205 407 205 409T205 413L265 414Q265 413 265 411T265 406Q265 312 317 232T454 103T640 54Q807 54 912 176T1018 530Q1018 761 913 883T640 1005Q540 1005 455 957T317 829T265
654L205 655Q205 772 265 867T426 1019T648 1076Q778 1076 879 1012T1038 826T1097 530Q1097 355 1039 233T880 46T648 -18ZM188 0V1563H265V0H188Z" />
<glyph unicode="c" horiz-adv-x="1243" d="M652 -18Q514 -18 395 46T205 233T133 530Q133 705 204 827T395 1012T652 1076Q760 1076 845 1043T989 955T1079 838T1111 715Q1111 714 1111 712T1111 708H1034Q1034 713 1034 719T1032 732Q1021 810 969 871T835 969T652
1005Q537 1005 437 952T274 792T211 530Q211 374 273 268T436 108T652 53Q781 53 865 97T990 208T1034 344H1111Q1111 281 1082 218T995 101T852 15T652 -18Z" />
<glyph unicode="d" horiz-adv-x="1217" d="M582 -18Q452 -18 351 46T191 232T133 530Q133 704 191 826T351 1012T582 1076Q703 1076 803 1019T964 867T1025 655Q1025 652 1025 648T1025 639L964 640Q964 644 964 647T964 654Q964 749 913 828T776 956T590 1005Q422
1005 317 883T212 530Q212 299 317 177T590 54Q690 54 775 102T912 232T964 414L1025 413Q1025 291 964 193T803 39T582 -18ZM964 0V1563H1042V0H964Z" />
<glyph unicode="e" horiz-adv-x="1274" d="M180 496V565H1079L1060 547Q1060 553 1060 557T1060 565Q1060 680 1011 780T871 943T651 1006Q522 1006 422 943T265 772T208 529Q208 390 265 283T422 114T651 52Q751 52 824 80T945 153T1018 245T1048 333H1126Q1121
279 1089 218T998 104T852 16T650 -18Q501 -18 385 51T201 244T133 527Q133 688 200 811T385 1005T651 1076Q801 1076 911 1004T1081 810T1142 543Q1142 533 1142 518T1140 496H180Z" />
<glyph unicode="f" horiz-adv-x="747" d="M290 0V993H51V1062H290V1220Q290 1269 298 1319T326 1416T380 1499T466 1557T590 1578Q628 1578 654 1573T691 1563V1494Q679 1499 653 1503T596 1508Q521 1508 476 1482T407 1411T376 1315T367 1209V1062H687V993H367V0H290Z" />
<glyph unicode="g" horiz-adv-x="1193" d="M811 25Q889 19 949 -3T1043 -69T1078 -182Q1078 -255 1027 -316T865 -413T580 -449Q339 -449 225 -374T110 -184Q110 -142 120 -112T141 -62L214 -75Q205 -89 196 -116T187 -180Q187 -277 290 -330T587 -384Q735 -384
827 -356T961 -283T1004 -185Q1004 -107 942 -77T785 -40L380 -10Q285 -3 228 40T171 151Q171 195 192 230T243 287T296 314L360 280Q330 274 290 243T249 162Q249 119 286 90T415 54L811 25ZM978 1062H1052L1030 637Q1024 519 971 422T820 268T585 210Q442 210
342 268T190 424T138 640Q138 759 193 858T349 1017T583 1076Q710 1076 798 1029T935 913T993 783L966 787L978 1062ZM584 279Q702 279 785 326T911 455T955 644Q955 745 911 827T785 958T586 1007Q475 1007 392 957T261 824T214 640Q214 537 258 456T384 327T584
279Z" />
<glyph unicode="h" horiz-adv-x="1210" d="M956 0V407Q956 439 956 480T956 562T956 637Q956 811 877 907T639 1003Q532 1003 447 957T313 835T264 673L208 688Q208 789 264 877T420 1021T650 1076Q839 1076 936 961T1033 642Q1033 589 1033 523T1033 393V0H956ZM188
0V1563H264V0H188Z" />
<glyph unicode="i" horiz-adv-x="467" d="M195 0V1062H271V0H195ZM234 1353Q204 1353 183 1372T161 1421Q161 1450 182 1469T234 1488Q264 1488 285 1469T306 1421Q306 1391 285 1372T234 1353Z" />
<glyph unicode="j" horiz-adv-x="511" d="M9 -442Q-18 -442 -40 -440T-73 -434V-370Q-61 -374 -39 -377T9 -381Q88 -381 133 -356T198 -288T223 -196T228 -97V1062H305V-104Q305 -170 296 -230T257 -338T168 -414T9 -442ZM271 1353Q240 1353 219 1372T197 1421Q197
1450 218 1469T271 1488Q300 1488 321 1469T343 1421Q343 1391 322 1372T271 1353Z" />
<glyph unicode="k" horiz-adv-x="1037" d="M188 0V1563H262V563L239 572L835 1062H937L412 625L428 669L950 0H862L372 629L401 614L245 486L262 529V0H188Z" />
<glyph unicode="l" horiz-adv-x="471" d="M279 1563V0H203V1563H279Z" />
<glyph unicode="m" horiz-adv-x="1733" d="M834 0V507Q834 572 834 619T834 697Q834 736 828 788T799 889T726 970T588 1003Q496 1003 434 966T334 871T280 751T264 638L214 657Q214 766 260 862T392 1017T599 1076Q713 1076 781 1032T879 906T910 714Q910 676
910 621T910 499V0H834ZM188 0V1062H264V0H188ZM1479 0V508Q1479 580 1479 625T1479 703Q1479 739 1474 790T1447 889T1373 970T1228 1003Q1134 1003 1073 966T976 873T925 760T910 660L860 675Q860 777 904 868T1033 1018T1239 1076Q1344 1076 1414 1038T1520
924T1556 738Q1556 698 1556 642T1556 524V0H1479Z" />
<glyph unicode="n" horiz-adv-x="1209" d="M954 0V547Q954 599 954 628T954 685Q954 779 919 851T814 963T637 1003Q544 1003 458 958T318 835T264 657L213 677Q213 794 276 884T439 1025T647 1076Q765 1076 851 1033T984 905T1031 700Q1031 661 1031 616T1031
540V0H954ZM188 0V1062H264V0H188Z" />
<glyph unicode="o" horiz-adv-x="1304" d="M652 -18Q500 -18 383 54T200 251T133 533Q133 690 199 812T383 1005T652 1076Q804 1076 921 1006T1104 813T1171 533Q1171 376 1105 252T921 55T652 -18ZM652 53Q781 53 880 116T1037 287T1094 533Q1094 669 1037 776T881
944T652 1005Q523 1005 424 944T267 776T210 533Q210 396 267 288T423 116T652 53Z" />
<glyph unicode="p" horiz-adv-x="1229" d="M188 -437V1062H264V-437H188ZM647 -18Q526 -18 426 39T265 193T204 405Q204 407 204 409T204 413L265 414Q265 413 265 411T265 406Q265 312 316 232T453 103T639 54Q806 54 911 176T1017 530Q1017 761 912 883T639
1005Q539 1005 454 957T317 829T265 654L204 655Q204 772 264 867T425 1019T647 1076Q777 1076 878 1012T1038 826T1096 530Q1096 355 1038 233T879 46T647 -18Z" />
<glyph unicode="q" horiz-adv-x="1216" d="M582 -18Q452 -18 351 46T191 232T133 530Q133 704 191 826T351 1012T582 1076Q703 1076 803 1019T964 867T1025 655Q1025 652 1025 648T1025 639L964 640Q964 644 964 647T964 654Q964 749 913 828T776 956T590 1005Q422
1005 317 883T212 530Q212 299 317 177T590 54Q690 54 775 102T912 232T964 414L1025 413Q1025 291 964 193T803 39T582 -18ZM964 -437V1062H1041V-437H964Z" />
<glyph unicode="r" horiz-adv-x="773" d="M188 0V1062H264V763L233 769Q240 810 262 862T325 963T431 1044T584 1076Q647 1076 685 1065T733 1046L709 973Q699 980 668 991T576 1002Q491 1002 432 968T335 879T281 765T264 655V0H188Z" />
<glyph unicode="s" horiz-adv-x="1103" d="M551 -18Q454 -18 378 1T249 58T166 149T133 271Q133 281 133 292T133 311H210Q210 303 210 293T211 273Q216 168 304 110T551 52Q654 52 731 77T850 150T893 265Q893 375 804 422T544 499Q459 515 387 536T262 592T180
676T151 797Q151 887 205 949T350 1043T549 1076Q659 1076 750 1045T895 947T950 776Q950 771 950 765T950 753H873Q873 758 873 763T873 774Q873 860 828 911T710 984T552 1006Q467 1006 393 984T273 916T227 799Q227 726 270 682T390 611T570 566Q663 549 737
526T863 470T942 387T970 268Q970 199 939 146T852 57T720 1T551 -18Z" />
<glyph unicode="t" horiz-adv-x="793" d="M510 -17Q469 -17 432 -5T365 34T319 109T302 229Q302 249 302 271T302 320V993H51V1062H251Q270 1062 280 1063T295 1069T301 1086T302 1120V1395H380V1062H728V993H380V347Q380 321 380 298T380 256Q380 159 412 106T520
53Q548 53 576 57T618 70V1Q603 -7 573 -12T510 -17Z" />
<glyph unicode="u" horiz-adv-x="1181" d="M556 -18Q440 -18 368 23T257 129T203 264T188 397Q188 435 188 476T188 558V1062H265V562Q265 523 265 485T265 411Q265 320 292 238T386 105T566 53Q670 53 751 106T879 242T926 418L978 397Q978 326 950 253T868 119T736
20T556 -18ZM926 0V1062H1003V0H926Z" />
<glyph unicode="v" horiz-adv-x="1039" d="M949 1062L569 0H476L90 1062H170L529 56H516L869 1062H949Z" />
<glyph unicode="w" horiz-adv-x="1466" d="M1024 0L704 1062H775L1083 46H1067L1295 1062H1376L1126 0H1024ZM342 0L90 1062H171L401 46H385L690 1062H761L444 0H342Z" />
<glyph unicode="x" horiz-adv-x="1026" d="M486 548L485 510L96 1062H181L540 557L493 558L844 1062H929L546 519L550 546L939 0H851L491 503L538 507L169 0H85L486 548Z" />
<glyph unicode="y" horiz-adv-x="1011" d="M171 -441Q138 -441 109 -436T74 -427V-357Q86 -364 114 -368T169 -372Q242 -372 289 -336T366 -242T418 -121L461 -1L82 1062H162L508 75H497L841 1062H921L501 -117Q474 -194 436 -268T336 -392T171 -441Z" />
<glyph unicode="z" horiz-adv-x="976" d="M185 71H875V0H102V69L778 994L779 991H141V1062H862V993L186 67L185 71Z" />
<glyph unicode="{" horiz-adv-x="788" d="M665 1536Q558 1536 487 1468T415 1286V813Q415 741 400 691T350 609T252 561V565Q315 549 350 517T400 435T415 312Q415 255 415 183T415 37Q415 -23 415 -80T415 -185Q415 -299 486 -352T665 -405V-467Q580 -467 506
-442T387 -358T342 -202Q342 -153 342 -95T342 26Q342 102 342 175T342 307Q342 378 330 419T287 487T196 534V590Q256 611 287 637T330 705T342 817V1300Q342 1398 387 1464T506 1564T665 1598V1536Z" />
<glyph unicode="|" horiz-adv-x="551" d="M196 -280V1554H260V-280H196Z" />
<glyph unicode="}" horiz-adv-x="788" d="M126 1536V1598Q211 1598 285 1565T404 1465T450 1300Q450 1242 450 1184T450 1067Q450 1005 450 943T450 817Q450 748 461 706T504 637T595 590V534Q536 513 505 487T462 420T450 307V-202Q450 -300 405 -358T285 -441T126
-467V-405Q233 -405 305 -352T377 -185V312Q377 384 391 434T441 517T540 565V561Q477 578 442 609T392 690T377 813Q377 874 377 935T377 1058Q377 1116 377 1172T377 1286Q377 1400 305 1468T126 1536Z" />
<glyph unicode="~" horiz-adv-x="1131" d="M819 719Q817 700 806 673T766 625T688 603Q647 603 616 620T560 657Q540 674 518 687T463 700Q417 700 400 677T381 632H325Q327 654 341 682T386 730T464 751Q506 751 533 735T585 699Q609 680 633 667T687 653Q735
653 748 676T763 719H819Z" />
<glyph unicode="&#xa0;" horiz-adv-x="500" />
<glyph unicode="&#xa1;" horiz-adv-x="561" d="M245 -419L255 751H314L324 -419H245ZM285 1078Q321 1078 345 1054T370 994Q370 959 346 935T285 910Q251 910 226 934T201 994Q201 1030 226 1054T285 1078Z" />
<glyph unicode="&#xa2;" horiz-adv-x="1243" d="M612 1475H664V0H612V1475ZM652 194Q514 194 395 258T205 445T133 742Q133 917 204 1039T395 1224T652 1288Q760 1288 845 1255T989 1167T1079 1050T1111 927Q1111 926 1111 924T1111 920H1034Q1034 925 1034 931T1032
944Q1021 1022 969 1083T835 1181T652 1217Q537 1217 437 1164T274 1004T211 742Q211 586 273 480T436 320T652 265Q781 265 865 309T990 420T1034 556H1111Q1111 493 1082 430T995 313T852 227T652 194Z" />
<glyph unicode="&#xa3;" horiz-adv-x="1062" d="M55 612V666H730V612H55ZM875 1223Q852 1279 811 1326T707 1402T552 1431Q445 1431 374 1387T269 1271T234 1120Q234 1026 259 951T317 800T375 629T401 403Q401 324 381 261T328 149T261 66T197 11T153 -17L118
33Q138 41 172 68T244 143T307 256T333 404Q333 522 308 611T249 778T190 939T164 1127Q164 1229 211 1311T344 1442T548 1491Q633 1491 696 1471T803 1417T878 1342T928 1256L875 1223ZM962 14Q943 4 890 -11T770 -26Q697 -26 640 -7T527 31T404 50Q346 50 294
36T204 6T153 -17L163 17Q172 21 189 32T231 56T284 82T348 103T418 111Q491 111 543 92T648 54T770 35Q826 35 871 48T933 71L962 14Z" />
<glyph unicode="&#xa4;" horiz-adv-x="1292" d="M1234 1288L1277 1244L1066 1034L1023 1077L1234 1288ZM1234 112L1023 322L1066 366L1277 156L1234 112ZM122 1288L333 1077L289 1034L78 1244L122 1288ZM122 112L78 156L289 366L333 322L122 112ZM685 153Q533
153 416 225T232 422T165 704Q165 861 231 983T415 1176T685 1247Q837 1247 954 1177T1137 984T1204 704Q1204 547 1138 423T954 226T685 153ZM685 224Q814 224 913 287T1069 458T1126 704Q1126 840 1070 947T914 1115T685 1176Q556 1176 457 1115T300 947T243
704Q243 567 300 459T456 287T685 224Z" />
<glyph unicode="&#xa5;" horiz-adv-x="1072" d="M171 511V564H878V511H171ZM172 302V355H879V302H172ZM970 1475L575 516V0H497V516L103 1475H185L552 569H520L887 1475H970Z" />
<glyph unicode="&#xa6;" horiz-adv-x="551" d="M196 -258V507H260V-258H196ZM196 791V1554H260V791H196Z" />
<glyph unicode="&#xa7;" horiz-adv-x="1305" d="M822 201L766 227Q827 247 884 283T979 377T1016 514Q1016 600 960 660T813 767T623 854Q520 898 426 945T271 1052T211 1196Q211 1291 260 1355T394 1453T586 1486Q693 1486 778 1456T914 1361T965 1196Q965 1189
965 1183T965 1170H895Q895 1177 895 1183T895 1196Q895 1276 863 1324T781 1397T678 1430T585 1438Q454 1438 368 1378T281 1200Q281 1130 332 1079T464 988T637 910Q718 877 796 841T937 760T1039 655T1077 516Q1077 453 1056 402T998 312T916 246T822 201ZM622
-304Q516 -304 430 -274T294 -179T244 -14Q244 -7 244 -1T244 12H314Q314 5 314 -1T314 -14Q314 -94 346 -142T428 -215T530 -248T623 -256Q754 -256 840 -196T927 -18Q927 53 877 103T745 194T571 272Q490 305 412 341T271 423T169 527T131 666Q131 729 152 780T211
870T293 936T386 981L442 955Q381 936 324 899T230 806T193 668Q193 583 249 522T396 415T586 328Q689 285 783 238T937 130T997 -14Q997 -109 948 -173T814 -271T622 -304Z" />
<glyph unicode="&#xa8;" horiz-adv-x="666" d="M170 1355Q141 1355 121 1373T100 1420Q100 1448 120 1466T170 1484Q198 1484 219 1466T240 1420Q240 1391 219 1373T170 1355ZM497 1355Q468 1355 448 1373T427 1420Q427 1448 447 1466T497 1484Q525 1484 546 1466T567
1420Q567 1391 546 1373T497 1355Z" />
<glyph unicode="&#xa9;" horiz-adv-x="1792" d="M836 28Q631 28 468 115T210 362T115 741Q115 959 209 1118T467 1364T836 1451Q1040 1451 1202 1364T1459 1118T1554 741Q1554 523 1460 363T1203 115T836 28ZM836 70Q1026 70 1177 152T1418 385T1508 741Q1508
945 1419 1095T1178 1327T836 1410Q646 1410 493 1328T251 1095T162 741Q162 536 251 386T493 153T836 70ZM838 262Q718 262 624 316T475 479T420 747Q420 900 470 1005T613 1165T838 1220Q947 1220 1019 1182T1133 1089T1193 979T1211 890Q1211 889 1211 887T1211
882H1147Q1147 883 1147 884T1147 887Q1147 913 1134 959T1087 1052T993 1133T838 1167Q670 1167 578 1059T485 749Q485 608 531 512T657 366T838 316Q927 316 996 354T1106 457T1147 600H1211Q1211 502 1162 426T1029 306T838 262Z" />
<glyph unicode="&#xaa;" horiz-adv-x="647" d="M537 1015H490Q485 1031 481 1056T477 1109V1326Q477 1331 477 1336T477 1345Q477 1392 444 1419T333 1447Q253 1447 210 1416T167 1328H122Q122 1403 178 1445T333 1487Q421 1487 472 1451T523 1343Q523 1339 523
1335T523 1326V1115Q523 1085 527 1057T537 1015ZM293 1008Q206 1008 158 1042T110 1136Q110 1177 132 1205T197 1250T305 1279Q413 1297 445 1310T477 1341L513 1318Q511 1297 460 1278T314 1243Q232 1229 195 1205T158 1137Q158 1094 195 1071T303 1048Q366 1048
422 1084T478 1181L509 1165Q509 1118 480 1083T402 1028T293 1008Z" />
<glyph unicode="&#xab;" horiz-adv-x="684" d="M417 885L90 565L417 251H361L38 565L361 885H417ZM647 885L322 565L646 251H590L267 565L591 885H647Z" />
<glyph unicode="&#xac;" horiz-adv-x="1131" d="M836 365V667L872 631H210V684H890V365H836Z" />
<glyph unicode="&#xad;" horiz-adv-x="768" d="M98 539V593H575V539H98Z" />
<glyph unicode="&#xae;" horiz-adv-x="1247" d="M611 493Q465 493 349 554T164 727T96 990Q96 1140 164 1251T348 1424T611 1485Q756 1485 872 1424T1055 1252T1123 990Q1123 839 1056 728T872 555T611 493ZM611 530Q746 530 852 586T1019 745T1080 990Q1080 1131
1019 1233T852 1392T611 1448Q475 1448 369 1392T201 1234T139 990Q139 848 200 745T368 586T611 530ZM420 686V1310H623Q724 1310 776 1274T828 1147Q828 1078 788 1041T677 998Q750 993 779 961T808 872Q808 845 808 816T808 759Q808 722 812 706T819 686H773Q773
689 769 705T764 759Q764 785 764 810T764 862Q764 920 736 943T667 972T588 977H466V686H420ZM466 1014H591Q689 1014 737 1049T785 1147Q785 1223 743 1248T632 1273H466V1014Z" />
<glyph unicode="&#xaf;" horiz-adv-x="725" d="M138 1339V1382H586V1339H138Z" />
<glyph unicode="&#xb0;" horiz-adv-x="673" d="M304 1202Q355 1202 391 1237T428 1325Q428 1377 392 1412T304 1448Q253 1448 217 1413T181 1325Q181 1273 217 1238T304 1202ZM304 1156Q258 1156 220 1179T158 1240T135 1325Q135 1372 158 1410T219 1471T304 1494Q351
1494 389 1472T450 1411T473 1325Q473 1279 450 1241T389 1179T304 1156Z" />
<glyph unicode="&#xb1;" horiz-adv-x="1131" d="M205 230V286H918V230H205ZM929 673H593V397H535V673H198V729H535V1005H593V729H929V673Z" />
<glyph unicode="&#xb2;" horiz-adv-x="839" d="M120 590V651Q122 699 160 753T255 860T374 955Q432 995 488 1041T582 1138T620 1248Q620 1334 568 1380T414 1427Q292 1427 241 1363T190 1205H119Q119 1328 188 1406T415 1484Q506 1484 567 1456T660 1375T691
1248Q691 1180 651 1123T552 1018T437 931Q378 889 325 840T239 741T205 646H707V590H120Z" />
<glyph unicode="&#xb3;" horiz-adv-x="841" d="M520 1056Q627 1052 665 992T703 851Q703 772 672 711T578 614T420 578Q343 578 287 596T195 649T141 735T123 854Q123 855 123 855T123 857H195Q195 856 195 856T195 854Q195 735 254 686T420 636Q519 636 575 694T632
856Q632 896 617 935T558 1001T429 1028H387V1079H429Q511 1079 555 1104T615 1167T632 1245Q632 1334 576 1380T422 1427Q316 1427 256 1378T195 1220H123Q123 1301 156 1360T256 1452T421 1484Q515 1484 577 1455T671 1374T703 1250Q703 1177 664 1118T520 1056Z"
/>
<glyph unicode="&#xb4;" horiz-adv-x="608" d="M120 1251L339 1475H443L194 1251H120Z" />
<glyph unicode="&#xb5;" horiz-adv-x="1117" d="M876 0V1062H953V0H876ZM876 398L915 377Q915 310 890 241T814 113T688 19T515 -17Q391 -17 329 33T242 152V-437H164V1062H242V475Q242 459 242 443T242 411Q242 320 263 237T343 102T516 49Q620 49 701 98T829
226T876 398Z" />
<glyph unicode="&#xb6;" horiz-adv-x="1039" d="M637 -170V623H615Q489 623 400 659T255 757T173 895T146 1051Q146 1128 170 1202T248 1338T392 1436T615 1473H890V-170H827V1420H698V-170H637Z" />
<glyph unicode="&#xb7;" horiz-adv-x="467" d="M234 651Q199 651 175 675T150 735Q150 771 174 795T234 819Q269 819 293 795T318 735Q318 700 294 676T234 651Z" />
<glyph unicode="&#xb8;" horiz-adv-x="782" d="M437 -129Q470 -129 498 -142T544 -186T561 -265Q561 -319 533 -356T459 -412T358 -431Q306 -431 269 -420T220 -400L242 -358Q252 -365 282 -376T363 -388Q425 -388 469 -356T514 -264Q514 -213 490 -191T424 -168Q398
-168 370 -179T325 -208L280 -192L347 0H397L334 -184L324 -175Q332 -156 366 -143T437 -129Z" />
<glyph unicode="&#xb9;" horiz-adv-x="611" d="M345 1478V590H273V1404Q268 1398 237 1380T160 1345T61 1322V1377Q111 1383 156 1402T233 1443T276 1478H345Z" />
<glyph unicode="&#xba;" horiz-adv-x="802" d="M392 1017Q329 1017 273 1044T181 1122T145 1248Q145 1323 180 1374T272 1453T392 1480Q456 1480 513 1453T606 1375T643 1248Q643 1174 607 1123T513 1044T392 1017ZM392 1059Q442 1059 488 1080T565 1144T596 1248Q596
1310 566 1352T489 1416T392 1438Q343 1438 297 1417T222 1353T192 1248Q192 1186 221 1144T297 1081T392 1059Z" />
<glyph unicode="&#xbb;" horiz-adv-x="658" d="M239 885H295L621 565L295 251H239L568 565L239 885ZM38 885H94L420 565L95 251H39L365 565L38 885Z" />
<glyph unicode="&#xbc;" horiz-adv-x="1570" d="M345 1478V590H273V1404Q268 1398 237 1380T160 1345T61 1322V1377Q111 1383 156 1402T233 1443T276 1478H345ZM178 0L1118 1475H1184L245 0H178ZM1246 0V212H860V261L1226 888H1317V265H1476V212H1317V0H1246ZM916
235L894 265H1246V834L1259 830L916 235Z" />
<glyph unicode="&#xbd;" horiz-adv-x="1590" d="M345 1478V590H273V1404Q268 1398 237 1380T160 1345T61 1322V1377Q111 1383 156 1402T233 1443T276 1478H345ZM178 0L1118 1475H1184L245 0H178ZM872 0V61Q874 109 912 163T1007 270T1126 365Q1184 405 1240 450T1334
548T1372 658Q1372 744 1320 790T1166 837Q1044 837 993 773T942 615H871Q871 738 940 816T1167 894Q1258 894 1319 866T1412 785T1443 658Q1443 590 1403 533T1304 428T1189 341Q1130 299 1077 250T991 151T957 56H1459V0H872Z" />
<glyph unicode="&#xbe;" horiz-adv-x="1800" d="M520 1056Q627 1052 665 992T703 851Q703 772 672 711T578 614T420 578Q343 578 287 596T195 649T141 735T123 854Q123 855 123 855T123 857H195Q195 856 195 856T195 854Q195 735 254 686T420 636Q519 636 575
694T632 856Q632 896 617 935T558 1001T429 1028H387V1079H429Q511 1079 555 1104T615 1167T632 1245Q632 1334 576 1380T422 1427Q316 1427 256 1378T195 1220H123Q123 1301 156 1360T256 1452T421 1484Q515 1484 577 1455T671 1374T703 1250Q703 1177 664 1118T520
1056ZM408 0L1348 1475H1414L475 0H408ZM1476 0V212H1090V261L1456 888H1547V265H1706V212H1547V0H1476ZM1146 235L1124 265H1476V834L1489 830L1146 235Z" />
<glyph unicode="&#xbf;" horiz-adv-x="1083" d="M587 751Q587 664 560 596T490 471T400 360Q355 309 314 254T246 134T220 -16Q220 -180 299 -272T536 -364Q694 -364 774 -268T855 -5H927Q927 -143 879 -238T742 -383T535 -432Q417 -432 330 -384T196 -241T148
-13Q148 84 177 156T250 286T343 398Q411 473 464 554T518 751H587ZM545 1078Q581 1078 605 1054T629 994Q629 959 605 935T545 910Q510 910 486 934T461 994Q461 1030 485 1054T545 1078Z" />
<glyph unicode="&#xc0;" horiz-adv-x="1181" d="M103 0L534 1481H650L1078 0H997L591 1422H593L184 0H103ZM277 431V500H907V431H277ZM684 1546H591L303 1710H417L684 1546Z" />
<glyph unicode="&#xc1;" horiz-adv-x="1181" d="M103 0L534 1481H650L1078 0H997L591 1422H593L184 0H103ZM277 431V500H907V431H277ZM511 1546L778 1710H891L604 1546H511Z" />
<glyph unicode="&#xc2;" horiz-adv-x="1181" d="M103 0L534 1481H650L1078 0H997L591 1422H593L184 0H103ZM277 431V500H907V431H277ZM352 1544L547 1704H634L830 1544H747L577 1687H606L433 1544H352Z" />
<glyph unicode="&#xc3;" horiz-adv-x="1181" d="M103 0L534 1481H650L1078 0H997L591 1422H593L184 0H103ZM277 431V500H907V431H277ZM842 1659Q840 1641 829 1614T789 1565T711 1544Q670 1544 639 1560T583 1598Q563 1614 541 1627T486 1641Q440 1641 423 1618T404
1573H348Q350 1595 364 1622T409 1670T487 1691Q529 1691 556 1675T608 1640Q632 1620 656 1607T710 1594Q758 1594 771 1617T786 1659H842Z" />
<glyph unicode="&#xc4;" horiz-adv-x="1181" d="M103 0L534 1481H650L1078 0H997L591 1422H593L184 0H103ZM277 431V500H907V431H277ZM429 1574Q400 1574 380 1592T359 1639Q359 1667 379 1685T429 1703Q457 1703 478 1685T499 1639Q499 1610 478 1592T429 1574ZM756
1574Q727 1574 707 1592T686 1639Q686 1667 706 1685T756 1703Q784 1703 805 1685T826 1639Q826 1610 805 1592T756 1574Z" />
<glyph unicode="&#xc5;" horiz-adv-x="1181" d="M103 0L534 1481H650L1078 0H997L591 1422H593L184 0H103ZM277 431V500H907V431H277ZM591 1569Q643 1569 679 1604T715 1692Q715 1744 679 1779T591 1815Q540 1815 504 1780T468 1692Q468 1640 504 1605T591 1569ZM591
1523Q545 1523 507 1546T445 1607T422 1692Q422 1739 445 1777T506 1838T591 1861Q639 1861 677 1839T737 1778T760 1692Q760 1646 738 1608T677 1546T591 1523Z" />
<glyph unicode="&#xc6;" horiz-adv-x="1810" d="M10 0L878 1475H1647V1406H947L976 1435V748L950 774H1536V706H951L976 731V42L950 69H1647V0H901V1395L910 1390L96 0H10ZM290 366L308 435H938V366H290Z" />
<glyph unicode="&#xc7;" horiz-adv-x="1265" d="M1155 487Q1155 403 1124 315T1031 151T876 29T658 -18Q529 -18 428 36T255 191T147 429T110 737Q110 906 147 1044T255 1282T427 1436T658 1490Q804 1490 907 1427T1070 1267T1147 1068Q1155 1026 1155 987H1077Q1077
1015 1072 1052Q1059 1143 1007 1227T868 1365T658 1419Q516 1419 411 1337T248 1102T190 737Q190 525 247 372T410 135T658 52Q761 52 839 91T970 194T1050 335T1077 487H1155ZM721 -129Q754 -129 782 -142T828 -186T845 -265Q845 -319 817 -356T743 -412T642
-431Q590 -431 553 -420T504 -400L526 -358Q536 -365 566 -376T647 -388Q709 -388 753 -356T798 -264Q798 -213 774 -191T708 -168Q682 -168 654 -179T609 -208L566 -192L633 0H680L616 -184L611 -175Q619 -156 652 -143T721 -129Z" />
<glyph unicode="&#xc8;" horiz-adv-x="1073" d="M206 1406L241 1448V745L217 774H838V706H217L241 735V27L206 69H909V0H164V1475H909V1406H206ZM639 1546H546L258 1710H372L639 1546Z" />
<glyph unicode="&#xc9;" horiz-adv-x="1073" d="M206 1406L241 1448V745L217 774H838V706H217L241 735V27L206 69H909V0H164V1475H909V1406H206ZM466 1546L733 1710H846L559 1546H466Z" />
<glyph unicode="&#xca;" horiz-adv-x="1073" d="M206 1406L241 1448V745L217 774H838V706H217L241 735V27L206 69H909V0H164V1475H909V1406H206ZM307 1544L502 1704H589L785 1544H702L532 1687H561L388 1544H307Z" />
<glyph unicode="&#xcb;" horiz-adv-x="1073" d="M206 1406L241 1448V745L217 774H838V706H217L241 735V27L206 69H909V0H164V1475H909V1406H206ZM384 1574Q355 1574 335 1592T314 1639Q314 1667 334 1685T384 1703Q412 1703 433 1685T454 1639Q454 1610 433 1592T384
1574ZM711 1574Q682 1574 662 1592T641 1639Q641 1667 661 1685T711 1703Q739 1703 760 1685T781 1639Q781 1610 760 1592T711 1574Z" />
<glyph unicode="&#xcc;" horiz-adv-x="448" d="M186 0V1475H262V0H186ZM317 1546H224L-64 1710H50L317 1546Z" />
<glyph unicode="&#xcd;" horiz-adv-x="448" d="M186 0V1475H262V0H186ZM143 1546L410 1710H523L236 1546H143Z" />
<glyph unicode="&#xce;" horiz-adv-x="448" d="M186 0V1475H262V0H186ZM-15 1544L180 1704H267L463 1544H380L210 1687H239L66 1544H-15Z" />
<glyph unicode="&#xcf;" horiz-adv-x="448" d="M186 0V1475H262V0H186ZM376 1577Q348 1577 327 1595T306 1642Q306 1670 327 1688T376 1707Q404 1707 425 1689T446 1642Q446 1614 425 1596T376 1577ZM585 1577Q556 1577 536 1595T515 1642Q515 1670 535 1688T585
1707Q613 1707 634 1689T655 1642Q655 1614 634 1596T585 1577Z" />
<glyph unicode="&#xd0;" horiz-adv-x="1204" d="M7 715V760H681V715H7ZM164 0V1475H462Q606 1475 722 1426T922 1282T1049 1050T1094 737Q1094 560 1050 424T922 193T723 49T462 0H164ZM243 27L208 69H456Q624 69 750 148T945 377T1015 737Q1015 947 946 1097T750
1326T456 1406H208L243 1448V27Z" />
<glyph unicode="&#xd1;" horiz-adv-x="1273" d="M239 0H164V1475H289L1042 46L1034 41V1475H1109V0H981L231 1428L239 1431V0ZM890 1659Q888 1641 877 1614T837 1565T759 1544Q718 1544 687 1560T631 1598Q611 1614 589 1627T534 1641Q488 1641 471 1618T452 1573H396Q398
1595 412 1622T457 1670T535 1691Q577 1691 604 1675T656 1640Q680 1620 704 1607T758 1594Q806 1594 819 1617T834 1659H890Z" />
<glyph unicode="&#xd2;" horiz-adv-x="1346" d="M673 -18Q550 -18 447 33T269 183T152 422T110 739Q110 916 152 1055T270 1291T448 1439T673 1490Q795 1490 898 1439T1077 1292T1194 1056T1236 739Q1236 562 1195 422T1078 184T899 34T673 -18ZM673 52Q815 52
924 134T1095 371T1157 739Q1157 953 1095 1105T923 1338T673 1419Q533 1419 424 1339T252 1106T189 739Q189 525 251 371T423 135T673 52ZM765 1546H672L384 1710H498L765 1546Z" />
<glyph unicode="&#xd3;" horiz-adv-x="1346" d="M673 -18Q550 -18 447 33T269 183T152 422T110 739Q110 916 152 1055T270 1291T448 1439T673 1490Q795 1490 898 1439T1077 1292T1194 1056T1236 739Q1236 562 1195 422T1078 184T899 34T673 -18ZM673 52Q815 52
924 134T1095 371T1157 739Q1157 953 1095 1105T923 1338T673 1419Q533 1419 424 1339T252 1106T189 739Q189 525 251 371T423 135T673 52ZM592 1546L859 1710H972L685 1546H592Z" />
<glyph unicode="&#xd4;" horiz-adv-x="1346" d="M673 -18Q550 -18 447 33T269 183T152 422T110 739Q110 916 152 1055T270 1291T448 1439T673 1490Q795 1490 898 1439T1077 1292T1194 1056T1236 739Q1236 562 1195 422T1078 184T899 34T673 -18ZM673 52Q815 52
924 134T1095 371T1157 739Q1157 953 1095 1105T923 1338T673 1419Q533 1419 424 1339T252 1106T189 739Q189 525 251 371T423 135T673 52ZM434 1544L629 1704H716L912 1544H829L659 1687H688L515 1544H434Z" />
<glyph unicode="&#xd5;" horiz-adv-x="1346" d="M673 -18Q550 -18 447 33T269 183T152 422T110 739Q110 916 152 1055T270 1291T448 1439T673 1490Q795 1490 898 1439T1077 1292T1194 1056T1236 739Q1236 562 1195 422T1078 184T899 34T673 -18ZM673 52Q815 52
924 134T1095 371T1157 739Q1157 953 1095 1105T923 1338T673 1419Q533 1419 424 1339T252 1106T189 739Q189 525 251 371T423 135T673 52ZM923 1659Q921 1641 910 1614T870 1565T792 1544Q751 1544 720 1560T664 1598Q644 1614 622 1627T567 1641Q521 1641 504
1618T485 1573H429Q431 1595 445 1622T490 1670T568 1691Q610 1691 637 1675T689 1640Q713 1620 737 1607T791 1594Q839 1594 852 1617T867 1659H923Z" />
<glyph unicode="&#xd6;" horiz-adv-x="1346" d="M673 -18Q550 -18 447 33T269 183T152 422T110 739Q110 916 152 1055T270 1291T448 1439T673 1490Q795 1490 898 1439T1077 1292T1194 1056T1236 739Q1236 562 1195 422T1078 184T899 34T673 -18ZM673 52Q815 52
924 134T1095 371T1157 739Q1157 953 1095 1105T923 1338T673 1419Q533 1419 424 1339T252 1106T189 739Q189 525 251 371T423 135T673 52ZM510 1574Q481 1574 461 1592T440 1639Q440 1667 460 1685T510 1703Q538 1703 559 1685T580 1639Q580 1610 559 1592T510
1574ZM837 1574Q808 1574 788 1592T767 1639Q767 1667 787 1685T837 1703Q865 1703 886 1685T907 1639Q907 1610 886 1592T837 1574Z" />
<glyph unicode="&#xd7;" horiz-adv-x="1131" d="M306 254L267 292L823 789L864 750L306 254ZM864 292L823 253L265 750L305 789L864 292Z" />
<glyph unicode="&#xd8;" horiz-adv-x="1346" d="M1161 1510L234 -61L185 -34L1110 1536L1161 1510ZM673 -18Q550 -18 447 33T269 183T152 422T110 739Q110 916 152 1055T270 1291T448 1439T673 1490Q795 1490 898 1439T1077 1292T1194 1056T1236 739Q1236 562
1195 422T1078 184T899 34T673 -18ZM673 52Q815 52 924 134T1095 371T1157 739Q1157 953 1095 1105T923 1338T673 1419Q533 1419 424 1339T252 1106T189 739Q189 525 251 371T423 135T673 52Z" />
<glyph unicode="&#xd9;" horiz-adv-x="1278" d="M1115 551Q1115 259 990 121T639 -18Q414 -18 289 120T164 551Q164 599 164 653T164 768V1475H241V772Q241 711 241 658T241 560Q241 294 345 173T639 52Q830 52 934 173T1038 560V1475H1115V551ZM731 1546H638L350
1710H464L731 1546Z" />
<glyph unicode="&#xda;" horiz-adv-x="1278" d="M1115 551Q1115 259 990 121T639 -18Q414 -18 289 120T164 551Q164 599 164 653T164 768V1475H241V772Q241 711 241 658T241 560Q241 294 345 173T639 52Q830 52 934 173T1038 560V1475H1115V551ZM557 1546L824
1710H937L650 1546H557Z" />
<glyph unicode="&#xdb;" horiz-adv-x="1278" d="M1115 551Q1115 259 990 121T639 -18Q414 -18 289 120T164 551Q164 599 164 653T164 768V1475H241V772Q241 711 241 658T241 560Q241 294 345 173T639 52Q830 52 934 173T1038 560V1475H1115V551ZM399 1544L594
1704H681L877 1544H794L624 1687H653L480 1544H399Z" />
<glyph unicode="&#xdc;" horiz-adv-x="1278" d="M1115 551Q1115 259 990 121T639 -18Q414 -18 289 120T164 551Q164 599 164 653T164 768V1475H241V772Q241 711 241 658T241 560Q241 294 345 173T639 52Q830 52 934 173T1038 560V1475H1115V551ZM475 1574Q446
1574 426 1592T405 1639Q405 1667 425 1685T475 1703Q503 1703 524 1685T545 1639Q545 1610 524 1592T475 1574ZM802 1574Q773 1574 753 1592T732 1639Q732 1667 752 1685T802 1703Q830 1703 851 1685T872 1639Q872 1610 851 1592T802 1574Z" />
<glyph unicode="&#xdd;" horiz-adv-x="1072" d="M970 1475L575 516V0H497V516L103 1475H185L552 569H520L887 1475H970ZM455 1546L722 1710H835L548 1546H455Z" />
<glyph unicode="&#xde;" horiz-adv-x="1055" d="M164 0V1473H240V1117L213 1144H498Q628 1144 729 1096T887 955T945 729Q945 594 887 502T727 362T498 314H213L240 341V0H164ZM240 352L216 382H493Q600 382 685 422T819 539T869 729Q869 842 819 919T684 1035T493
1075H215L240 1107V352Z" />
<glyph unicode="&#xdf;" horiz-adv-x="1161" d="M156 0V1021Q156 1122 174 1199T228 1333T313 1426T425 1479T561 1496Q659 1496 733 1459T850 1355T892 1201Q892 1100 847 1040T756 942Q724 916 703 890T682 829Q682 792 724 757T825 683Q874 653 920 610T997
506T1028 363Q1028 246 977 162T829 33T600 -13Q536 -13 486 -3T412 16L431 88Q449 80 496 69T598 57Q753 57 851 133T950 357Q950 427 922 478T851 569T763 636Q701 677 652 723T603 828Q603 875 627 909T683 967Q733 1006 775 1060T817 1201Q817 1259 791 1310T708
1394T557 1426Q402 1426 318 1330T233 1018V0H156Z" />
<glyph unicode="&#xe0;" horiz-adv-x="1201" d="M547 -18Q422 -18 332 18T192 123T143 293Q143 392 193 457T338 559T567 609Q777 630 871 654T965 729Q965 736 965 742T965 755Q965 869 872 937T610 1005Q435 1005 336 930T237 715H160Q160 828 215 908T372 1032T610
1076Q734 1076 831 1038T985 928T1042 752Q1042 732 1042 711T1042 670V176Q1042 144 1045 115T1055 63Q1063 37 1071 22T1085 0H1008Q1003 4 995 19T980 59Q971 88 968 120T965 207L977 196Q946 132 883 84T734 9T547 -18ZM558 52Q671 52 763 91T910 201T965 369V656L980
627Q929 594 824 575T588 543Q409 526 315 471T220 295Q220 179 307 116T558 52ZM681 1251H607L358 1475H462L681 1251Z" />
<glyph unicode="&#xe1;" horiz-adv-x="1201" d="M547 -18Q422 -18 332 18T192 123T143 293Q143 392 193 457T338 559T567 609Q777 630 871 654T965 729Q965 736 965 742T965 755Q965 869 872 937T610 1005Q435 1005 336 930T237 715H160Q160 828 215 908T372 1032T610
1076Q734 1076 831 1038T985 928T1042 752Q1042 732 1042 711T1042 670V176Q1042 144 1045 115T1055 63Q1063 37 1071 22T1085 0H1008Q1003 4 995 19T980 59Q971 88 968 120T965 207L977 196Q946 132 883 84T734 9T547 -18ZM558 52Q671 52 763 91T910 201T965 369V656L980
627Q929 594 824 575T588 543Q409 526 315 471T220 295Q220 179 307 116T558 52ZM547 1251L766 1475H870L621 1251H547Z" />
<glyph unicode="&#xe2;" horiz-adv-x="1201" d="M547 -18Q422 -18 332 18T192 123T143 293Q143 392 193 457T338 559T567 609Q777 630 871 654T965 729Q965 736 965 742T965 755Q965 869 872 937T610 1005Q435 1005 336 930T237 715H160Q160 828 215 908T372 1032T610
1076Q734 1076 831 1038T985 928T1042 752Q1042 732 1042 711T1042 670V176Q1042 144 1045 115T1055 63Q1063 37 1071 22T1085 0H1008Q1003 4 995 19T980 59Q971 88 968 120T965 207L977 196Q946 132 883 84T734 9T547 -18ZM558 52Q671 52 763 91T910 201T965 369V656L980
627Q929 594 824 575T588 543Q409 526 315 471T220 295Q220 179 307 116T558 52ZM383 1251L575 1475H650L844 1251H769L599 1456H629L456 1251H383Z" />
<glyph unicode="&#xe3;" horiz-adv-x="1201" d="M547 -18Q422 -18 332 18T192 123T143 293Q143 392 193 457T338 559T567 609Q777 630 871 654T965 729Q965 736 965 742T965 755Q965 869 872 937T610 1005Q435 1005 336 930T237 715H160Q160 828 215 908T372 1032T610
1076Q734 1076 831 1038T985 928T1042 752Q1042 732 1042 711T1042 670V176Q1042 144 1045 115T1055 63Q1063 37 1071 22T1085 0H1008Q1003 4 995 19T980 59Q971 88 968 120T965 207L977 196Q946 132 883 84T734 9T547 -18ZM558 52Q671 52 763 91T910 201T965 369V656L980
627Q929 594 824 575T588 543Q409 526 315 471T220 295Q220 179 307 116T558 52ZM861 1448Q859 1429 848 1402T808 1354T730 1332Q689 1332 658 1349T602 1386Q582 1403 560 1416T505 1429Q459 1429 442 1406T423 1361H367Q369 1383 383 1411T428 1459T506 1480Q548
1480 575 1464T627 1428Q651 1409 675 1396T729 1382Q777 1382 790 1405T805 1448H861Z" />
<glyph unicode="&#xe4;" horiz-adv-x="1201" d="M547 -18Q422 -18 332 18T192 123T143 293Q143 392 193 457T338 559T567 609Q777 630 871 654T965 729Q965 736 965 742T965 755Q965 869 872 937T610 1005Q435 1005 336 930T237 715H160Q160 828 215 908T372 1032T610
1076Q734 1076 831 1038T985 928T1042 752Q1042 732 1042 711T1042 670V176Q1042 144 1045 115T1055 63Q1063 37 1071 22T1085 0H1008Q1003 4 995 19T980 59Q971 88 968 120T965 207L977 196Q946 132 883 84T734 9T547 -18ZM558 52Q671 52 763 91T910 201T965 369V656L980
627Q929 594 824 575T588 543Q409 526 315 471T220 295Q220 179 307 116T558 52ZM450 1355Q421 1355 401 1373T380 1420Q380 1448 400 1466T450 1484Q478 1484 499 1466T520 1420Q520 1391 499 1373T450 1355ZM777 1355Q748 1355 728 1373T707 1420Q707 1448 727
1466T777 1484Q805 1484 826 1466T847 1420Q847 1391 826 1373T777 1355Z" />
<glyph unicode="&#xe5;" horiz-adv-x="1201" d="M547 -18Q422 -18 332 18T192 123T143 293Q143 392 193 457T338 559T567 609Q777 630 871 654T965 729Q965 736 965 742T965 755Q965 869 872 937T610 1005Q435 1005 336 930T237 715H160Q160 828 215 908T372 1032T610
1076Q734 1076 831 1038T985 928T1042 752Q1042 732 1042 711T1042 670V176Q1042 144 1045 115T1055 63Q1063 37 1071 22T1085 0H1008Q1003 4 995 19T980 59Q971 88 968 120T965 207L977 196Q946 132 883 84T734 9T547 -18ZM558 52Q671 52 763 91T910 201T965 369V656L980
627Q929 594 824 575T588 543Q409 526 315 471T220 295Q220 179 307 116T558 52ZM613 1204Q665 1204 701 1240T737 1328Q737 1379 701 1415T613 1451Q562 1451 526 1415T490 1328Q490 1276 526 1240T613 1204ZM613 1159Q567 1159 529 1181T467 1242T444 1328Q444
1375 467 1413T528 1474T613 1497Q661 1497 699 1474T759 1413T782 1328Q782 1281 760 1243T699 1182T613 1159Z" />
<glyph unicode="&#xe6;" horiz-adv-x="2165" d="M569 -17Q379 -17 261 70T143 309Q143 388 175 443T268 533T414 584T604 600Q773 600 863 603T987 621T1021 671Q1021 679 1021 687T1021 703Q1021 852 924 930T658 1008Q542 1008 452 973T310 873T258 715H180Q180
800 216 867T316 980T468 1051T658 1076Q825 1076 941 1001T1080 766Q1081 762 1082 758T1085 749L1067 751Q1124 899 1249 987T1541 1076Q1691 1076 1801 1003T1971 808T2032 539Q2032 529 2032 517T2031 496H1065L1099 522Q1099 517 1099 513T1099 504Q1104 372
1162 269T1319 108T1542 49Q1641 49 1714 78T1835 152T1909 246T1939 333H2016Q2012 281 1980 221T1889 106T1743 17T1540 -18Q1423 -18 1325 26T1156 153T1053 345L1072 349Q1043 211 967 131T787 17T569 -17ZM575 51Q658 51 737 72T881 146T983 295T1022 540Q1022
555 1022 570T1022 601L1036 568Q986 545 883 540T623 535Q436 535 329 489T222 310Q222 190 320 121T575 51ZM1101 565H1954Q1954 569 1954 574T1953 585Q1949 695 1898 792T1757 949T1542 1009Q1419 1009 1322 951T1167 792T1101 565Z" />
<glyph unicode="&#xe7;" horiz-adv-x="1243" d="M713 -129Q746 -129 774 -142T820 -186T838 -265Q838 -319 810 -356T735 -412T634 -431Q583 -431 545 -420T496 -400L518 -358Q528 -365 559 -376T639 -388Q702 -388 746 -356T790 -264Q790 -213 766 -191T701 -168Q674
-168 646 -179T602 -208L557 -192L624 0H673L610 -184L600 -175Q608 -156 642 -143T713 -129ZM652 -18Q514 -18 395 46T205 233T133 530Q133 705 204 827T395 1012T652 1076Q760 1076 845 1043T989 955T1079 838T1111 715Q1111 714 1111 712T1111 708H1034Q1034
713 1034 719T1032 732Q1021 810 969 871T835 969T652 1005Q537 1005 437 952T274 792T211 530Q211 374 273 268T436 108T652 53Q781 53 865 97T990 208T1034 344H1111Q1111 281 1082 218T995 101T852 15T652 -18Z" />
<glyph unicode="&#xe8;" horiz-adv-x="1274" d="M180 496V565H1079L1060 547Q1060 553 1060 557T1060 565Q1060 680 1011 780T871 943T651 1006Q522 1006 422 943T265 772T208 529Q208 390 265 283T422 114T651 52Q751 52 824 80T945 153T1018 245T1048 333H1126Q1121
279 1089 218T998 104T852 16T650 -18Q501 -18 385 51T201 244T133 527Q133 688 200 811T385 1005T651 1076Q801 1076 911 1004T1081 810T1142 543Q1142 533 1142 518T1140 496H180ZM718 1251H644L395 1475H499L718 1251Z" />
<glyph unicode="&#xe9;" horiz-adv-x="1274" d="M180 496V565H1079L1060 547Q1060 553 1060 557T1060 565Q1060 680 1011 780T871 943T651 1006Q522 1006 422 943T265 772T208 529Q208 390 265 283T422 114T651 52Q751 52 824 80T945 153T1018 245T1048 333H1126Q1121
279 1089 218T998 104T852 16T650 -18Q501 -18 385 51T201 244T133 527Q133 688 200 811T385 1005T651 1076Q801 1076 911 1004T1081 810T1142 543Q1142 533 1142 518T1140 496H180ZM584 1251L803 1475H907L658 1251H584Z" />
<glyph unicode="&#xea;" horiz-adv-x="1274" d="M180 496V565H1079L1060 547Q1060 553 1060 557T1060 565Q1060 680 1011 780T871 943T651 1006Q522 1006 422 943T265 772T208 529Q208 390 265 283T422 114T651 52Q751 52 824 80T945 153T1018 245T1048 333H1126Q1121
279 1089 218T998 104T852 16T650 -18Q501 -18 385 51T201 244T133 527Q133 688 200 811T385 1005T651 1076Q801 1076 911 1004T1081 810T1142 543Q1142 533 1142 518T1140 496H180ZM420 1251L612 1475H687L881 1251H806L636 1456H666L493 1251H420Z" />
<glyph unicode="&#xeb;" horiz-adv-x="1274" d="M180 496V565H1079L1060 547Q1060 553 1060 557T1060 565Q1060 680 1011 780T871 943T651 1006Q522 1006 422 943T265 772T208 529Q208 390 265 283T422 114T651 52Q751 52 824 80T945 153T1018 245T1048 333H1126Q1121
279 1089 218T998 104T852 16T650 -18Q501 -18 385 51T201 244T133 527Q133 688 200 811T385 1005T651 1076Q801 1076 911 1004T1081 810T1142 543Q1142 533 1142 518T1140 496H180ZM487 1355Q458 1355 438 1373T417 1420Q417 1448 437 1466T487 1484Q515 1484
536 1466T557 1420Q557 1391 536 1373T487 1355ZM814 1355Q785 1355 765 1373T744 1420Q744 1448 764 1466T814 1484Q842 1484 863 1466T884 1420Q884 1391 863 1373T814 1355Z" />
<glyph unicode="&#xec;" horiz-adv-x="466" d="M195 0V1062H271V0H195ZM300 1251H226L-23 1475H81L300 1251Z" />
<glyph unicode="&#xed;" horiz-adv-x="466" d="M195 0V1062H271V0H195ZM166 1251L385 1475H489L240 1251H166Z" />
<glyph unicode="&#xee;" horiz-adv-x="466" d="M195 0V1062H271V0H195ZM2 1251L194 1475H269L463 1251H388L218 1456H248L75 1251H2Z" />
<glyph unicode="&#xef;" horiz-adv-x="466" d="M195 0V1062H271V0H195ZM384 1355Q356 1355 335 1373T314 1420Q314 1448 335 1466T384 1484Q412 1484 433 1466T454 1420Q454 1391 433 1373T384 1355ZM593 1355Q564 1355 544 1373T523 1420Q523 1448 543 1466T593
1484Q621 1484 642 1466T663 1420Q663 1391 642 1373T593 1355Z" />
<glyph unicode="&#xf0;" horiz-adv-x="1347" d="M648 1336L897 1538L957 1501L709 1300L648 1336ZM1097 533Q1097 773 1052 942T928 1225T744 1405T519 1506L571 1557Q699 1517 808 1443T999 1248T1126 952T1171 533H1097ZM652 -16Q500 -16 383 55T200 251T133
533Q133 690 199 812T383 1004T652 1074Q804 1074 921 1004T1104 812T1171 533Q1171 376 1105 252T921 56T652 -16ZM652 53Q781 53 880 116T1037 287T1094 533Q1094 669 1037 776T881 944T652 1005Q523 1005 424 944T267 776T210 533Q210 396 267 288T423 116T652
53Z" />
<glyph unicode="&#xf1;" horiz-adv-x="1209" d="M954 0V547Q954 599 954 628T954 685Q954 779 919 851T814 963T637 1003Q544 1003 458 958T318 835T264 657L213 677Q213 794 276 884T439 1025T647 1076Q765 1076 851 1033T984 905T1031 700Q1031 661 1031 616T1031
540V0H954ZM188 0V1062H264V0H188ZM876 1448Q874 1429 863 1402T823 1354T745 1332Q704 1332 673 1349T617 1386Q597 1403 575 1416T520 1429Q474 1429 457 1406T438 1361H382Q384 1383 398 1411T443 1459T521 1480Q563 1480 590 1464T642 1428Q666 1409 690 1396T744
1382Q792 1382 805 1405T820 1448H876Z" />
<glyph unicode="&#xf2;" horiz-adv-x="1304" d="M652 -18Q500 -18 383 54T200 251T133 533Q133 690 199 812T383 1005T652 1076Q804 1076 921 1006T1104 813T1171 533Q1171 376 1105 252T921 55T652 -18ZM652 53Q781 53 880 116T1037 287T1094 533Q1094 669 1037
776T881 944T652 1005Q523 1005 424 944T267 776T210 533Q210 396 267 288T423 116T652 53ZM720 1251H646L397 1475H501L720 1251Z" />
<glyph unicode="&#xf3;" horiz-adv-x="1304" d="M652 -18Q500 -18 383 54T200 251T133 533Q133 690 199 812T383 1005T652 1076Q804 1076 921 1006T1104 813T1171 533Q1171 376 1105 252T921 55T652 -18ZM652 53Q781 53 880 116T1037 287T1094 533Q1094 669 1037
776T881 944T652 1005Q523 1005 424 944T267 776T210 533Q210 396 267 288T423 116T652 53ZM586 1251L805 1475H909L660 1251H586Z" />
<glyph unicode="&#xf4;" horiz-adv-x="1304" d="M652 -18Q500 -18 383 54T200 251T133 533Q133 690 199 812T383 1005T652 1076Q804 1076 921 1006T1104 813T1171 533Q1171 376 1105 252T921 55T652 -18ZM652 53Q781 53 880 116T1037 287T1094 533Q1094 669 1037
776T881 944T652 1005Q523 1005 424 944T267 776T210 533Q210 396 267 288T423 116T652 53ZM422 1251L614 1475H689L883 1251H808L638 1456H668L495 1251H422Z" />
<glyph unicode="&#xf5;" horiz-adv-x="1304" d="M652 -18Q500 -18 383 54T200 251T133 533Q133 690 199 812T383 1005T652 1076Q804 1076 921 1006T1104 813T1171 533Q1171 376 1105 252T921 55T652 -18ZM652 53Q781 53 880 116T1037 287T1094 533Q1094 669 1037
776T881 944T652 1005Q523 1005 424 944T267 776T210 533Q210 396 267 288T423 116T652 53ZM899 1448Q897 1429 886 1402T846 1354T768 1332Q727 1332 696 1349T640 1386Q620 1403 598 1416T543 1429Q497 1429 480 1406T461 1361H405Q407 1383 421 1411T466 1459T544
1480Q586 1480 613 1464T665 1428Q689 1409 713 1396T767 1382Q815 1382 828 1405T843 1448H899Z" />
<glyph unicode="&#xf6;" horiz-adv-x="1304" d="M652 -18Q500 -18 383 54T200 251T133 533Q133 690 199 812T383 1005T652 1076Q804 1076 921 1006T1104 813T1171 533Q1171 376 1105 252T921 55T652 -18ZM652 53Q781 53 880 116T1037 287T1094 533Q1094 669 1037
776T881 944T652 1005Q523 1005 424 944T267 776T210 533Q210 396 267 288T423 116T652 53ZM489 1355Q460 1355 440 1373T419 1420Q419 1448 439 1466T489 1484Q517 1484 538 1466T559 1420Q559 1391 538 1373T489 1355ZM816 1355Q787 1355 767 1373T746 1420Q746
1448 766 1466T816 1484Q844 1484 865 1466T886 1420Q886 1391 865 1373T816 1355Z" />
<glyph unicode="&#xf7;" horiz-adv-x="1131" d="M230 493V550H904V493H230ZM562 793Q536 793 518 809T500 851Q500 876 518 892T562 909Q589 909 606 893T624 851Q624 826 607 810T562 793ZM562 144Q536 144 518 160T500 201Q500 226 518 242T562 259Q589 259
606 243T624 201Q624 177 607 161T562 144Z" />
<glyph unicode="&#xf8;" horiz-adv-x="1304" d="M989 1062L358 -31L310 -1L941 1092L989 1062ZM652 -18Q500 -18 383 54T200 251T133 533Q133 690 199 812T383 1005T652 1076Q804 1076 921 1006T1104 813T1171 533Q1171 376 1105 252T921 55T652 -18ZM652 53Q781
53 880 116T1037 287T1094 533Q1094 669 1037 776T881 944T652 1005Q523 1005 424 944T267 776T210 533Q210 396 267 288T423 116T652 53Z" />
<glyph unicode="&#xf9;" horiz-adv-x="1181" d="M556 -18Q440 -18 368 23T257 129T203 264T188 397Q188 435 188 476T188 558V1062H265V562Q265 523 265 485T265 411Q265 320 292 238T386 105T566 53Q670 53 751 106T879 242T926 418L978 397Q978 326 950 253T868
119T736 20T556 -18ZM926 0V1062H1003V0H926ZM658 1251H584L335 1475H439L658 1251Z" />
<glyph unicode="&#xfa;" horiz-adv-x="1181" d="M556 -18Q440 -18 368 23T257 129T203 264T188 397Q188 435 188 476T188 558V1062H265V562Q265 523 265 485T265 411Q265 320 292 238T386 105T566 53Q670 53 751 106T879 242T926 418L978 397Q978 326 950 253T868
119T736 20T556 -18ZM926 0V1062H1003V0H926ZM524 1251L743 1475H847L598 1251H524Z" />
<glyph unicode="&#xfb;" horiz-adv-x="1181" d="M556 -18Q440 -18 368 23T257 129T203 264T188 397Q188 435 188 476T188 558V1062H265V562Q265 523 265 485T265 411Q265 320 292 238T386 105T566 53Q670 53 751 106T879 242T926 418L978 397Q978 326 950 253T868
119T736 20T556 -18ZM926 0V1062H1003V0H926ZM360 1251L552 1475H627L821 1251H746L576 1456H606L433 1251H360Z" />
<glyph unicode="&#xfc;" horiz-adv-x="1181" d="M556 -18Q440 -18 368 23T257 129T203 264T188 397Q188 435 188 476T188 558V1062H265V562Q265 523 265 485T265 411Q265 320 292 238T386 105T566 53Q670 53 751 106T879 242T926 418L978 397Q978 326 950 253T868
119T736 20T556 -18ZM926 0V1062H1003V0H926ZM427 1355Q398 1355 378 1373T357 1420Q357 1448 377 1466T427 1484Q455 1484 476 1466T497 1420Q497 1391 476 1373T427 1355ZM754 1355Q725 1355 705 1373T684 1420Q684 1448 704 1466T754 1484Q782 1484 803 1466T824
1420Q824 1391 803 1373T754 1355Z" />
<glyph unicode="&#xfd;" horiz-adv-x="1011" d="M171 -441Q138 -441 109 -436T74 -427V-357Q86 -364 114 -368T169 -372Q242 -372 289 -336T366 -242T418 -121L461 -1L82 1062H162L508 75H497L841 1062H921L501 -117Q474 -194 436 -268T336 -392T171 -441ZM425
1251L644 1475H748L499 1251H425Z" />
<glyph unicode="&#xfe;" horiz-adv-x="1229" d="M648 -18Q527 -18 426 39T265 193T204 405Q204 407 204 409T204 413L265 414Q265 413 265 411T265 406Q265 312 317 232T454 103T640 54Q807 54 912 176T1018 530Q1018 761 913 883T640 1005Q539 1005 454 957T317
829T265 654L204 655Q204 772 264 867T426 1019T648 1076Q777 1076 878 1012T1038 826T1097 530Q1097 355 1039 233T880 46T648 -18ZM188 -437V1563H266V-437H188Z" />
<glyph unicode="&#xff;" horiz-adv-x="1011" d="M171 -441Q138 -441 109 -436T74 -427V-357Q86 -364 114 -368T169 -372Q242 -372 289 -336T366 -242T418 -121L461 -1L82 1062H162L508 75H497L841 1062H921L501 -117Q474 -194 436 -268T336 -392T171 -441ZM329
1355Q300 1355 280 1373T259 1420Q259 1448 279 1466T329 1484Q357 1484 378 1466T399 1420Q399 1391 378 1373T329 1355ZM656 1355Q627 1355 607 1373T586 1420Q586 1448 606 1466T656 1484Q684 1484 705 1466T726 1420Q726 1391 705 1373T656 1355Z" />
<glyph unicode="&#x2013;" horiz-adv-x="1067" d="M98 539V593H875V539H98Z" />
<glyph unicode="&#x2014;" horiz-adv-x="1256" d="M98 539V593H1063V539H98Z" />
<glyph unicode="&#x2018;" horiz-adv-x="458" d="M242 1355Q280 1355 301 1333T322 1277Q322 1244 300 1221T234 1198Q186 1198 163 1231T139 1312Q139 1359 159 1397T213 1463T287 1505L300 1474Q269 1464 245 1443T206 1393T191 1332Q195 1341 209 1348T242 1355Z" />
<glyph unicode="&#x2019;" horiz-adv-x="458" d="M216 1354Q178 1354 157 1376T136 1432Q136 1465 158 1488T224 1511Q272 1511 295 1478T319 1397Q319 1350 299 1312T245 1246T171 1204L158 1235Q190 1245 214 1266T253 1316T267 1377Q263 1368 249 1361T216 1354Z" />
<glyph unicode="&#x201a;" horiz-adv-x="458" d="M216 -18Q178 -18 157 4T136 60Q136 93 158 116T224 139Q272 139 295 106T319 25Q319 -22 299 -60T245 -126T171 -168L158 -137Q190 -127 214 -106T253 -56T267 5Q263 -4 249 -11T216 -18Z" />
<glyph unicode="&#x201c;" horiz-adv-x="650" d="M469 1355Q507 1355 528 1333T549 1277Q549 1244 527 1221T461 1198Q413 1198 390 1231T366 1312Q366 1359 386 1397T440 1463T514 1505L527 1474Q496 1464 472 1443T433 1393T418 1332Q422 1341 436 1348T469
1355ZM461 1355Q499 1355 520 1333T541 1277Q541 1244 519 1221T453 1198Q405 1198 382 1231T358 1312Q358 1359 378 1397T432 1463T506 1505L519 1474Q488 1464 464 1443T425 1393T410 1332Q414 1341 428 1348T461 1355Z" />
<glyph unicode="&#x201d;" horiz-adv-x="650" d="M427 1337Q389 1337 368 1359T347 1414Q347 1448 369 1471T435 1494Q483 1494 506 1461T530 1380Q530 1333 510 1295T456 1228T382 1187L369 1217Q400 1228 424 1249T463 1299T478 1359Q474 1351 460 1344T427
1337ZM179 1337Q141 1337 120 1359T99 1414Q99 1448 121 1471T188 1494Q235 1494 258 1461T282 1380Q282 1333 262 1295T208 1228T134 1187L121 1217Q153 1228 177 1249T216 1299T230 1359Q226 1351 212 1344T179 1337Z" />
<glyph unicode="&#x201e;" horiz-adv-x="650" d="M427 -12Q389 -12 368 10T347 65Q347 99 369 122T435 145Q483 145 506 112T530 31Q530 -16 510 -54T456 -121T382 -162L369 -132Q400 -121 424 -100T463 -50T478 10Q474 2 460 -5T427 -12ZM179 -12Q141 -12 120
10T99 65Q99 99 121 122T188 145Q235 145 258 112T282 31Q282 -16 262 -54T208 -121T134 -162L121 -132Q153 -121 177 -100T216 -50T230 10Q226 2 212 -5T179 -12Z" />
<glyph unicode="&#x2022;" horiz-adv-x="705" d="M293 586Q256 586 226 604T177 652T159 720Q159 757 177 787T225 835T292 853Q330 853 360 835T408 787T426 720Q426 683 408 653T360 604T293 586Z" />
<glyph unicode="&#x2039;" horiz-adv-x="489" d="M441 885L100 565L441 251H385L48 565L385 885H441Z" />
<glyph unicode="&#x203a;" horiz-adv-x="489" d="M48 885H104L441 565L104 251H48L388 565L48 885Z" />
</font>
</defs>
</svg>
