<?xml version="1.0" standalone="no"?>
<!DOCTYPE svg PUBLIC "-//W3C//DTD SVG 1.1//EN" "http://www.w3.org/Graphics/SVG/1.1/DTD/svg11.dtd">
<svg xmlns="http://www.w3.org/2000/svg">
<defs >
<font id="Epilogue" horiz-adv-x="1073" ><font-face
    font-family="Epilogue Medium"
    units-per-em="2000"
    panose-1="0 0 0 0 0 0 0 0 0 0"
    ascent="1580"
    descent="-470"
    alphabetic="0" />
<glyph unicode=" " horiz-adv-x="500" />
<glyph unicode="!" horiz-adv-x="599" d="M566 1473L282 369H148L347 1473H566ZM169 -27Q114 -27 75 11T36 105Q36 160 75 198T169 237Q224 237 262 199T301 105Q301 49 263 11T169 -27Z" />
<glyph unicode="&quot;" horiz-adv-x="776" d="M492 1475L375 1034H252L324 1475H492ZM815 1475L698 1034H575L647 1475H815Z" />
<glyph unicode="#" horiz-adv-x="1682" d="M822 1475H1016L338 0H144L822 1475ZM1363 1475H1557L880 0H686L1363 1475ZM278 1029H1671L1609 892H219L278 1029ZM98 582H1489L1428 444H36L98 582Z" />
<glyph unicode="$" horiz-adv-x="1087" d="M671 1475H794L481 0H357L671 1475ZM482 198Q397 198 322 216T190 268T101 352T68 463Q68 483 72 508T81 547H297Q295 538 293 523T290 499Q290 440 348 410T512 379Q578 379 641 393T747 440T789 531Q789 591 732 620T544
670Q449 685 368 716T237 804T187 949Q187 1038 229 1104T343 1213T504 1277T689 1298Q795 1298 885 1265T1030 1172T1085 1028Q1085 1002 1083 985T1075 953H860Q864 965 865 974T866 994Q866 1037 838 1064T765 1105T666 1118Q604 1118 544 1104T443 1059T403
977Q403 916 465 887T639 836Q709 823 774 804T891 754T973 676T1004 561Q1004 464 960 395T841 283T673 219T482 198Z" />
<glyph unicode="%" horiz-adv-x="1225" d="M1370 1383L-1 48L-69 116L1304 1452L1370 1383ZM473 966Q403 966 342 995T242 1080T203 1214Q203 1293 241 1348T341 1433T473 1463Q544 1463 607 1434T709 1349T748 1214Q748 1136 709 1081T607 996T473 966ZM473 1057Q515
1057 554 1074T619 1126T645 1214Q645 1267 620 1302T555 1354T473 1372Q431 1372 393 1355T331 1302T306 1214Q306 1161 330 1126T393 1074T473 1057ZM842 18Q772 18 711 47T611 133T572 266Q572 345 610 400T710 486T842 516Q913 516 976 486T1078 401T1117 266Q1117
189 1078 133T976 48T842 18ZM842 110Q884 110 923 127T988 179T1014 266Q1014 320 989 355T924 407T842 424Q800 424 762 407T700 355T675 266Q675 214 699 179T762 127T842 110Z" />
<glyph unicode="&amp;" horiz-adv-x="1435" d="M466 -20Q322 -20 224 21T77 133T27 294Q27 426 104 525T311 707T599 874Q695 925 769 979T887 1094T930 1225Q930 1281 893 1313T790 1345Q758 1345 721 1334T648 1299T592 1235T570 1138Q570 1097 580 1058T613
971T675 859L1061 214Q1089 168 1115 155T1161 142Q1180 142 1199 146T1227 154L1194 0Q1189 -3 1165 -8T1106 -14Q1055 -14 1009 7T929 84L519 763Q463 856 425 941T387 1120Q387 1210 423 1278T521 1394T656 1465T806 1489Q958 1489 1036 1424T1114 1252Q1114
1144 1052 1052T889 882T668 742Q541 673 444 610T293 479T238 330Q238 278 266 234T351 163T494 136Q622 136 734 169T923 270Q1009 345 1066 449T1150 677H1329Q1296 520 1216 388T1026 161Q925 73 784 27T466 -20Z" />
<glyph unicode="&apos;" horiz-adv-x="324" d="M453 1475L334 1034H208L278 1475H453Z" />
<glyph unicode="(" horiz-adv-x="802" d="M385 -467Q363 -448 322 -391T238 -241T164 -19T133 273Q133 487 180 692T317 1078T532 1404T812 1640L911 1514Q783 1431 676 1302T489 1010T365 664T321 288Q321 156 343 48T397 -141T461 -273T515 -346L385 -467Z" />
<glyph unicode=")" horiz-adv-x="802" d="M-25 -467L-114 -346Q29 -252 139 -106T324 214T438 572T477 927Q477 1059 455 1161T401 1337T337 1456T283 1519L423 1640Q445 1622 485 1570T566 1428T636 1214T665 924Q665 765 637 602T553 281T414 -18T222 -274T-25 -467Z" />
<glyph unicode="*" horiz-adv-x="918" d="M665 1197L779 1022L678 960L570 1158L379 960L294 1022L484 1197L278 1272L347 1364L539 1283L577 1486H693L645 1283L872 1364L902 1272L665 1197Z" />
<glyph unicode="+" horiz-adv-x="1225" d="M977 456H664L612 206H471L525 456H213L239 595H551L606 846H747L692 595H1003L977 456Z" />
<glyph unicode="," horiz-adv-x="561" d="M-3 -288L-22 -231Q25 -211 79 -169T171 -77T210 7Q210 17 208 25T202 39H259Q239 7 214 -10T152 -27Q99 -27 63 -1T26 83Q26 157 73 196T189 235Q253 235 290 199T328 100Q328 18 277 -60T150 -198T-3 -288Z" />
<glyph unicode="-" horiz-adv-x="936" d="M73 498L100 634H807L780 498H73Z" />
<glyph unicode="." horiz-adv-x="532" d="M171 -27Q115 -27 77 11T39 105Q39 160 77 198T171 237Q226 237 264 199T303 105Q303 49 265 11T171 -27Z" />
<glyph unicode="/" horiz-adv-x="865" d="M1021 1563L70 -155H-114L838 1563H1021Z" />
<glyph unicode="0" horiz-adv-x="1156" d="M453 -21Q327 -21 249 37T135 197T99 429Q99 577 128 728T213 1017T349 1262T531 1432T755 1494Q882 1494 960 1435T1073 1272T1109 1038Q1109 890 1080 740T995 453T859 209T677 41T453 -21ZM481 159Q557 159 621 219T737
380T824 600T879 841T899 1065Q899 1191 856 1251T727 1311Q651 1311 587 1250T471 1089T383 868T328 625T308 402Q308 277 352 218T481 159Z" />
<glyph unicode="1" horiz-adv-x="806" d="M767 1479L453 0H237L505 1259Q493 1248 448 1231T339 1199T207 1176L247 1360Q314 1370 378 1390T490 1434T556 1479H767Z" />
<glyph unicode="2" horiz-adv-x="1169" d="M-11 0L29 183Q44 220 96 273T220 389T370 512T517 624Q615 698 706 775T854 941T912 1140Q912 1223 868 1267T729 1312Q637 1312 574 1273T471 1164T412 999H195Q227 1148 299 1259T486 1432T757 1494Q885 1494 967
1452T1090 1333T1130 1156Q1130 1016 1067 905T902 703T689 528Q589 454 505 389T364 271T289 182H939L900 0H-11Z" />
<glyph unicode="3" horiz-adv-x="1178" d="M854 773Q919 770 959 739T1018 655T1037 536Q1037 416 999 315T888 138T717 22T496 -19Q356 -19 270 21T143 134T103 307Q103 366 110 407T122 461H339Q337 455 330 415T323 336Q323 234 376 197T523 159Q596 159 652
187T745 266T800 381T819 520Q819 570 802 607T741 666T620 688H566L601 853H655Q749 853 816 889T918 993T954 1148Q954 1234 907 1273T771 1312Q658 1312 576 1252T461 1034H244Q272 1166 339 1269T518 1432T792 1492Q929 1492 1013 1450T1136 1334T1175 1167Q1175
1062 1135 974T1023 831T854 773Z" />
<glyph unicode="4" horiz-adv-x="1144" d="M539 0L606 316H3L38 479L776 1479H1065L856 494H1048L1010 316H818L751 0H539ZM204 388L152 494H644L822 1334L879 1322L204 388Z" />
<glyph unicode="5" horiz-adv-x="1165" d="M1132 1298H549L403 845Q408 857 428 876T485 914T574 947T695 961Q852 961 925 869T999 621Q999 484 962 367T853 163T677 28T439 -21Q306 -21 224 23T103 144T64 316Q64 353 68 386T75 427H290Q288 415 285 390T282
340Q282 247 328 203T469 159Q548 159 606 196T703 297T761 438T780 599Q780 691 742 739T621 787Q554 787 498 761T401 697T340 625L146 678L402 1475H1170L1132 1298Z" />
<glyph unicode="6" horiz-adv-x="1184" d="M476 -21Q293 -21 212 96T130 410Q130 529 149 654T205 901T299 1130T428 1319T593 1447T793 1494Q891 1494 954 1465T1051 1389T1099 1288T1112 1182Q1112 1166 1111 1141T1106 1103H903Q905 1114 906 1131T907 1158Q907
1196 896 1232T853 1291T762 1314Q704 1314 649 1278T543 1162T445 951T357 628L284 627Q305 719 367 791T519 904T714 946Q825 946 895 902T1000 778T1034 594Q1034 464 995 352T881 157T705 26T476 -21ZM504 159Q581 159 639 192T735 282T793 412T813 566Q813
660 774 716T649 772Q547 772 475 722T365 585T327 391Q327 289 373 224T504 159Z" />
<glyph unicode="7" horiz-adv-x="1037" d="M876 1296V1294H230L269 1475H1164L1128 1305Q1000 1224 900 1111T723 862T589 581T490 286T419 0H201Q241 185 297 373T432 736T621 1055T876 1296Z" />
<glyph unicode="8" horiz-adv-x="1246" d="M513 -21Q378 -21 286 23T148 146T101 328Q101 440 147 535T274 697T459 788Q416 798 377 828T314 911T289 1046Q289 1151 330 1234T444 1375T611 1463T813 1494Q930 1494 1016 1455T1150 1343T1198 1172Q1198 1079 1160
994T1054 850T900 772Q949 760 992 729T1062 645T1089 511Q1089 393 1046 295T924 127T741 18T513 -21ZM540 159Q636 159 708 199T822 312T864 480Q864 575 810 632T653 690Q560 690 487 646T370 527T327 357Q327 257 385 208T540 159ZM690 865Q772 865 838 901T944
1000T983 1144Q983 1234 927 1273T785 1312Q701 1312 636 1281T533 1191T495 1048Q495 964 545 915T690 865Z" />
<glyph unicode="9" horiz-adv-x="1163" d="M460 -21Q364 -21 301 7T201 80T151 179T136 284Q136 301 139 330T146 370H349Q347 362 344 338T340 301Q340 266 353 234T399 180T489 159Q547 159 602 195T709 311T807 522T894 845L968 846Q948 755 886 683T733 569T537
527Q428 527 357 571T251 695T217 879Q217 1009 257 1121T371 1316T547 1447T775 1494Q956 1494 1042 1383T1129 1079Q1129 964 1108 838T1047 589T948 356T816 161T652 28T460 -21ZM602 701Q700 701 772 755T884 898T924 1089Q924 1189 879 1251T747 1314Q670
1314 613 1281T516 1191T458 1061T438 907Q438 813 478 757T602 701Z" />
<glyph unicode=":" horiz-adv-x="533" d="M171 -27Q115 -27 77 11T39 105Q39 160 77 198T171 237Q226 237 264 199T303 105Q303 49 265 11T171 -27ZM339 763Q283 763 245 801T207 895Q207 950 245 988T339 1027Q394 1027 432 989T471 895Q471 839 433 801T339 763Z" />
<glyph unicode=";" horiz-adv-x="571" d="M7 -36L-12 21Q35 41 89 83T181 175T220 259Q220 269 218 277T212 291H269Q249 259 224 242T162 225Q109 225 73 251T36 335Q36 409 83 448T199 487Q263 487 300 451T338 352Q338 270 287 192T160 54T7 -36ZM346 763Q290
763 252 801T214 895Q214 950 252 988T346 1027Q401 1027 439 989T478 895Q478 839 440 801T346 763Z" />
<glyph unicode="&lt;" horiz-adv-x="1225" d="M802 44L249 454L282 608L1010 1019L969 824L349 501L359 545L841 221L802 44Z" />
<glyph unicode="=" horiz-adv-x="1225" d="M999 633H269L298 770H1027L999 633ZM925 288H196L225 426H954L925 288Z" />
<glyph unicode="&gt;" horiz-adv-x="1225" d="M393 1019L946 608L913 454L185 44L226 238L846 562L835 514L353 839L393 1019Z" />
<glyph unicode="?" horiz-adv-x="1114" d="M398 364Q418 466 463 540T565 672T680 781Q737 831 787 884T868 1000T899 1144Q899 1236 852 1278T706 1321Q584 1321 504 1250T393 1034H201Q234 1188 308 1288T489 1437T722 1486Q832 1486 915 1451T1045 1344T1092
1166Q1092 1048 1053 967T952 825T821 709Q765 664 713 616T622 507T567 364H398ZM446 -27Q391 -27 352 11T313 105Q313 160 352 198T446 237Q501 237 539 199T578 105Q578 49 540 11T446 -27Z" />
<glyph unicode="@" horiz-adv-x="1951" d="M1461 117Q1379 77 1268 47T1030 2T770 -14Q554 -14 403 53T172 243T92 531Q92 743 181 918T427 1222T784 1420T1210 1490Q1372 1490 1495 1449T1700 1337T1824 1175T1866 980Q1866 839 1811 716T1659 501T1436 356T1167
303Q1128 303 1093 311T1037 343T1015 412Q1015 414 1015 415T1016 418Q981 369 916 340T767 310Q680 310 625 342T545 432T519 560Q519 676 562 782T683 971T863 1102T1082 1150Q1150 1150 1204 1123T1258 1045L1298 1128H1446L1170 523Q1166 513 1162 499T1157
474Q1157 439 1180 429T1239 418Q1341 418 1426 465T1575 592T1673 773T1708 981Q1708 1098 1647 1187T1471 1326T1189 1376Q997 1376 828 1315T528 1140T324 874T250 536Q250 327 391 213T780 99Q891 99 996 113T1197 153T1371 215L1461 117ZM809 423Q886 423
939 455T1023 547Q1025 551 1040 584T1077 664T1121 760T1160 846T1182 895Q1189 911 1194 929T1199 962Q1199 996 1170 1018T1080 1041Q1000 1041 927 999T798 887T709 736T677 571Q677 503 709 463T809 423Z" />
<glyph unicode="A" horiz-adv-x="1266" d="M-42 0L666 1478H1007L1083 0H869L816 1341H818L191 0H-42ZM268 375L303 555H976L940 375H268Z" />
<glyph unicode="B" horiz-adv-x="1242" d="M854 1475Q991 1475 1072 1441T1189 1348T1225 1210Q1225 1110 1192 1031T1102 895T976 807T837 771Q911 769 972 736T1070 640T1107 485Q1107 340 1038 231T840 61T536 0H22L336 1475H854ZM397 785L311 847H637Q745
847 826 882T952 984T998 1148Q998 1235 942 1273T768 1311H411L531 1407L397 785ZM529 164Q688 164 786 245T885 477Q885 553 854 598T764 664T621 684H278L387 740L245 69L168 164H529Z" />
<glyph unicode="C" horiz-adv-x="1320" d="M1237 522Q1218 430 1166 335T1030 159T833 29T578 -21Q414 -21 309 50T154 245T104 527Q104 717 157 890T311 1200T553 1415T871 1494Q1038 1494 1140 1429T1289 1261T1336 1050Q1336 1022 1333 998T1325 953H1107Q1110
969 1113 994T1117 1040Q1117 1116 1088 1176T1000 1272T847 1308Q720 1308 622 1239T458 1056T358 802T324 522Q324 349 393 257T601 164Q683 164 753 194T878 275T969 391T1019 522H1237Z" />
<glyph unicode="D" horiz-adv-x="1271" d="M22 0L336 1475H736Q919 1475 1032 1404T1198 1211T1251 939Q1251 729 1184 557T1002 260T739 68T432 0H22ZM255 68L177 168H436Q549 168 655 225T846 384T980 624T1030 923Q1030 1033 995 1119T884 1256T682 1307H422L540
1407L255 68Z" />
<glyph unicode="E" horiz-adv-x="1106" d="M417 1295L539 1409L402 761L364 830H923L886 650H327L393 719L254 66L180 180H896L858 0H22L336 1475H1172L1134 1295H417Z" />
<glyph unicode="F" horiz-adv-x="1065" d="M416 1295L538 1409L398 753L343 815H942L904 635H305L387 701L238 0H22L336 1475H1172L1133 1295H416Z" />
<glyph unicode="G" horiz-adv-x="1377" d="M582 -21Q442 -21 334 46T164 236T103 531Q103 721 160 894T322 1202T574 1416T900 1494Q1023 1494 1108 1457T1247 1359T1324 1226T1349 1082Q1349 1059 1346 1030T1338 984H1127Q1131 998 1133 1023T1136 1066Q1136
1129 1110 1184T1026 1273T876 1307Q743 1307 640 1240T466 1060T359 810T322 533Q322 410 361 328T468 205T622 164Q731 164 812 209T947 317T1023 436L1045 541H707L744 711H1276L1124 0H985L1005 164Q990 142 941 98T804 16T582 -21Z" />
<glyph unicode="H" horiz-adv-x="1322" d="M1388 1475L1074 0H857L1016 748L1093 645H280L398 748L239 0H22L336 1475H553L392 720L314 826H1128L1010 720L1171 1475H1388Z" />
<glyph unicode="I" horiz-adv-x="494" d="M24 0L337 1475H553L240 0H24Z" />
<glyph unicode="J" horiz-adv-x="1113" d="M428 -21Q232 -21 137 70T41 312Q41 366 51 424T74 530H289Q280 488 272 442T263 348Q263 257 307 210T452 163Q579 163 649 253T755 507L960 1475H1177L967 478Q945 372 905 281T802 123T648 17T428 -21Z" />
<glyph unicode="K" horiz-adv-x="1214" d="M608 737L647 904L1043 0H812L497 736L586 722L314 439L362 578L240 0H22L336 1475H553L383 679L333 714L1078 1475H1324L608 737Z" />
<glyph unicode="L" horiz-adv-x="1005" d="M22 0L336 1475H553L254 66L181 184H849L810 0H22Z" />
<glyph unicode="M" horiz-adv-x="1697" d="M1370 1475H1747L1433 0H1226L1508 1323L1512 1321L885 0H587L519 1322L525 1325L243 0H37L351 1475H716L764 140H754L1370 1475Z" />
<glyph unicode="N" horiz-adv-x="1384" d="M233 0H22L336 1475H690L962 103L944 93L1238 1475H1450L1136 0H777L507 1370L526 1379L233 0Z" />
<glyph unicode="O" horiz-adv-x="1423" d="M608 -21Q459 -21 346 44T170 237T106 546Q106 733 162 904T323 1208T574 1417T899 1494Q1049 1494 1162 1430T1338 1240T1401 933Q1401 745 1345 574T1183 268T933 57T608 -21ZM631 164Q764 164 867 231T1040 410T1146
658T1183 933Q1183 1062 1144 1145T1035 1268T874 1308Q741 1308 638 1242T466 1065T360 820T324 545Q324 349 409 257T631 164Z" />
<glyph unicode="P" horiz-adv-x="1180" d="M239 0H22L336 1475H772Q924 1475 1018 1422T1156 1280T1201 1081Q1201 948 1156 842T1027 659T830 542T581 501H346L239 0ZM362 575L287 681H586Q707 681 796 730T935 868T984 1072Q984 1144 956 1193T869 1269T717
1295H417L539 1408L362 575Z" />
<glyph unicode="Q" horiz-adv-x="1423" d="M497 12L684 10Q684 -48 711 -87T779 -149T855 -183T912 -198L823 -345Q807 -343 769 -335T684 -306T595 -246T525 -144T497 12ZM608 -21Q459 -21 346 44T170 237T106 546Q106 733 162 904T323 1208T574 1417T899 1494Q1049
1494 1162 1430T1338 1240T1401 933Q1401 745 1345 574T1183 268T933 57T608 -21ZM631 164Q764 164 867 231T1040 410T1146 658T1183 933Q1183 1062 1144 1145T1035 1268T874 1308Q741 1308 638 1242T466 1065T360 820T324 545Q324 349 409 257T631 164Z" />
<glyph unicode="R" horiz-adv-x="1218" d="M22 0L336 1475H865Q1052 1475 1140 1394T1229 1178Q1229 1099 1204 1018T1132 869T1021 756T881 704Q929 700 969 682T1035 624T1060 521Q1060 493 1051 446T1030 342T1005 229T983 124T974 47Q974 31 976 19T982 0H763Q757
15 757 44Q757 71 765 115T785 210T808 312T828 406T836 475Q836 546 786 579T646 612H268L379 681L234 0H22ZM389 726L303 792H688Q774 792 844 835T957 950T999 1110Q999 1195 950 1245T791 1295H415L533 1408L389 726Z" />
<glyph unicode="S" horiz-adv-x="1170" d="M477 -21Q347 -21 249 16T97 128T42 311Q42 359 49 398T69 488H285Q273 442 268 409T263 344Q263 248 323 206T501 164Q598 164 675 190T798 271T843 412Q843 500 766 558T558 660Q461 694 380 743T252 863T204 1031Q204
1141 247 1227T368 1372T547 1463T766 1494Q897 1494 994 1457T1146 1349T1200 1173Q1200 1130 1193 1088T1176 1002H959Q968 1041 973 1074T979 1142Q979 1233 919 1271T742 1309Q649 1309 576 1285T460 1208T418 1072Q418 977 498 922T711 818Q817 780 895 730T1017
612T1061 450Q1061 300 984 195T774 34T477 -21Z" />
<glyph unicode="T" horiz-adv-x="1123" d="M1211 1295H734L856 1408L557 0H340L639 1408L714 1295H238L276 1475H1250L1211 1295Z" />
<glyph unicode="U" horiz-adv-x="1318" d="M1185 540Q1125 256 962 118T565 -21Q351 -21 237 74T123 364Q123 440 136 520T177 730L339 1475H557L391 706Q373 625 362 570T346 473T341 386Q341 264 400 214T579 164Q732 164 828 252T968 541L1166 1475H1383L1185 540Z" />
<glyph unicode="V" horiz-adv-x="1235" d="M346 -6L272 1475H506L542 146H531L1121 1475H1366L666 -6H346Z" />
<glyph unicode="W" horiz-adv-x="1779" d="M192 0L278 1475H497L383 71L349 72L941 1475H1220L1214 72L1184 71L1667 1475H1897L1353 0H1019L1039 1307H1063L527 0H192Z" />
<glyph unicode="X" horiz-adv-x="1233" d="M604 818L584 649L282 1475H516L742 796L613 788L1126 1475H1379L736 641L769 826L1071 0H836L606 679L727 671L199 0H-54L604 818Z" />
<glyph unicode="Y" horiz-adv-x="1191" d="M1323 1475L700 511L591 0H374L483 511L272 1475H496L657 634H566L1086 1475H1323Z" />
<glyph unicode="Z" horiz-adv-x="1125" d="M276 180H940L902 0H-16L18 159L935 1296L937 1295H305L344 1475H1226L1192 1319L277 183L276 180Z" />
<glyph unicode="[" horiz-adv-x="832" d="M905 1638L872 1480H572L197 -279H497L464 -437H-31L410 1638H905Z" />
<glyph unicode="\" horiz-adv-x="969" d="M256 1563H431L732 -155H557L256 1563Z" />
<glyph unicode="]" horiz-adv-x="832" d="M362 1638H857L416 -436H-79L-45 -278H254L629 1480H328L362 1638Z" />
<glyph unicode="^" horiz-adv-x="1225" d="M199 891L745 1533H899L1174 891H994L788 1442H832L391 891H199Z" />
<glyph unicode="_" horiz-adv-x="1355" d="M-130 -256L-101 -111H1154L1125 -256H-130Z" />
<glyph unicode="`" horiz-adv-x="684" d="M717 1222H557L294 1475H478L717 1222Z" />
<glyph unicode="a" horiz-adv-x="1303" d="M513 -21Q396 -21 301 26T148 170T91 416Q91 557 138 677T269 888T469 1028T721 1079Q828 1079 912 1038T1045 916T1094 718Q1094 689 1090 648T1077 578L968 577Q973 593 975 619T978 662Q978 737 945 787T856 863T732
889Q636 889 560 856T431 761T349 619T320 441Q320 347 354 287T447 198T581 169Q661 169 737 204T869 309T947 476L1066 467Q1032 306 948 197T751 34T513 -21ZM1062 0H845L1070 1062H1287L1062 0Z" />
<glyph unicode="b" horiz-adv-x="1285" d="M596 -21Q489 -21 403 27T266 160T215 357Q215 391 219 418T230 472L347 475Q343 460 341 442T339 408Q339 340 371 288T459 206T583 176Q677 176 748 213T870 314T945 461T971 638Q971 766 908 827T735 889Q657 889
581 852T448 750T374 602L242 607Q272 746 358 852T563 1019T805 1079Q977 1079 1085 968T1194 651Q1194 513 1151 391T1028 177T839 32T596 -21ZM29 0L362 1563H579L247 0H29Z" />
<glyph unicode="c" horiz-adv-x="1265" d="M552 -21Q339 -21 216 98T93 426Q93 570 143 689T284 896T497 1031T763 1079Q908 1079 1004 1026T1149 889T1197 718Q1197 699 1196 685T1193 663H977Q978 668 978 674T979 688Q979 750 952 796T871 867T734 892Q638
892 561 858T427 762T342 618T312 437Q312 304 383 235T578 166Q681 166 750 196T861 278T920 390H1135Q1122 314 1077 240T958 108T781 14T552 -21Z" />
<glyph unicode="d" horiz-adv-x="1279" d="M473 -21Q301 -21 195 87T89 403Q89 541 133 663T257 878T448 1025T690 1079Q798 1079 884 1033T1020 904T1070 711Q1070 685 1066 652T1055 593L936 589Q940 603 942 624T945 659Q945 727 913 779T825 860T701 889Q609
889 537 853T415 753T339 606T313 430Q313 302 377 239T549 176Q630 176 706 214T838 320T912 473L1045 468Q1016 330 930 219T724 44T473 -21ZM810 0L1143 1563H1360L1028 0H810Z" />
<glyph unicode="e" horiz-adv-x="1298" d="M203 455L238 624H1020L989 574Q994 595 997 615T1001 670Q1001 734 973 786T887 868T737 899Q636 899 556 864T418 764T330 613T300 426Q300 343 330 284T422 192T582 160Q662 160 722 175T823 217T889 273T924 334H1141Q1125
269 1078 206T956 91T780 9T554 -22Q408 -22 305 34T146 191T91 424Q91 565 142 684T285 892T496 1030T756 1079Q900 1079 1001 1024T1155 871T1209 649Q1209 605 1200 548T1179 455H203Z" />
<glyph unicode="f" horiz-adv-x="836" d="M161 0L348 882H120L158 1062H387L411 1178Q434 1281 481 1356T593 1481T737 1554T899 1578Q950 1578 980 1572T1022 1560L983 1379Q972 1383 944 1388T883 1393Q797 1393 745 1360T665 1272T623 1152L603 1062H905L867
882H565L377 0H161Z" />
<glyph unicode="g" horiz-adv-x="1302" d="M469 -452Q387 -452 304 -436T151 -385T39 -295T-3 -161Q-3 -140 0 -122T7 -84H223Q221 -97 220 -107T218 -127Q218 -180 253 -215T349 -266T482 -283Q567 -283 641 -255T770 -160T850 24L1070 1062H1287L1067 24Q1039
-111 981 -202T841 -349T665 -428T469 -452ZM521 -21Q404 -21 307 26T150 171T91 418Q91 558 138 678T270 888T469 1028T720 1079Q827 1079 913 1038T1050 916T1101 718Q1101 689 1096 649T1084 579L968 578Q973 594 976 620T979 663Q979 738 946 788T857 864T732
890Q636 890 560 856T431 761T349 618T320 440Q320 346 354 286T448 198T581 170Q661 170 737 205T870 310T947 477L1068 468Q1034 307 952 198T758 34T521 -21Z" />
<glyph unicode="h" horiz-adv-x="1248" d="M784 0L876 411Q892 479 903 535T921 637T927 715Q927 756 915 787T877 840T814 872T724 883Q635 883 562 848T441 752T375 613L274 655Q300 776 381 871T578 1023T827 1079Q909 1079 971 1058T1074 998T1135 906T1156
786Q1156 723 1141 636T1092 402L1001 0H784ZM29 0L361 1563H578L246 0H29Z" />
<glyph unicode="i" horiz-adv-x="510" d="M34 0L259 1062H474L249 0H34ZM430 1282Q378 1282 340 1310T302 1387Q302 1427 322 1454T377 1496T449 1511Q501 1511 538 1483T576 1406Q576 1367 556 1340T502 1297T430 1282Z" />
<glyph unicode="j" horiz-adv-x="521" d="M-232 -450Q-263 -450 -286 -447T-325 -439L-288 -279Q-272 -283 -251 -286T-199 -290Q-121 -290 -75 -258T-5 -180T28 -87L273 1062H490L244 -96Q230 -161 202 -224T121 -338T-17 -419T-232 -450ZM439 1282Q386 1282
349 1310T311 1387Q311 1427 331 1454T386 1496T458 1511Q510 1511 548 1483T586 1406Q586 1367 565 1340T511 1297T439 1282Z" />
<glyph unicode="k" horiz-adv-x="1067" d="M29 0L361 1563H567L368 626L303 657L861 1062H1159L542 607L612 701L917 0H696L456 579L495 572L301 424L347 523L235 0H29Z" />
<glyph unicode="l" horiz-adv-x="515" d="M592 1563L260 0H44L376 1563H592Z" />
<glyph unicode="m" horiz-adv-x="1804" d="M686 0L783 449Q808 562 820 631T833 739Q833 777 821 809T775 862T680 883Q612 883 559 856T468 785T405 686T368 576L286 626Q313 751 381 853T551 1017T774 1079Q875 1079 938 1045T1030 951T1060 810Q1060 774 1052
723T1030 599T993 428L901 0H686ZM29 0L255 1062H472L246 0H29ZM1340 0L1441 448Q1460 538 1470 593T1484 682T1488 742Q1488 780 1476 812T1429 863T1331 883Q1262 883 1210 857T1120 787T1060 691T1025 588L944 636Q969 756 1036 857T1202 1018T1426 1079Q1524
1079 1588 1046T1684 953T1716 812Q1716 773 1710 724T1691 606T1657 437L1556 0H1340Z" />
<glyph unicode="n" horiz-adv-x="1247" d="M785 0L892 490Q911 575 920 627T930 720Q930 794 880 838T723 883Q642 883 568 843T440 735T368 579L278 625Q299 722 352 804T482 948T647 1044T828 1079Q985 1079 1072 1005T1160 797Q1160 740 1146 663T1105 469L1002
0H785ZM29 0L255 1062H472L246 0H29Z" />
<glyph unicode="o" horiz-adv-x="1311" d="M557 -21Q413 -21 309 34T148 189T91 419Q91 561 141 682T282 891T493 1029T753 1079Q898 1079 1002 1023T1163 869T1219 642Q1219 496 1168 375T1025 164T814 27T557 -21ZM577 162Q697 162 792 220T943 383T999 625Q999
709 969 770T880 863T734 896Q641 896 564 861T431 764T343 619T312 437Q312 307 379 235T577 162Z" />
<glyph unicode="p" horiz-adv-x="1285" d="M-63 -437L255 1062H472L153 -437H-63ZM596 -21Q489 -21 403 27T266 160T215 357Q215 399 219 429T229 472L347 475Q344 462 341 441T338 408Q338 340 370 288T458 206T583 176Q677 176 748 213T870 314T945 461T971
638Q971 766 908 827T735 889Q657 889 581 852T448 750T374 602L242 607Q272 746 358 852T563 1019T805 1079Q977 1079 1085 968T1194 651Q1194 513 1151 391T1028 177T839 32T596 -21Z" />
<glyph unicode="q" horiz-adv-x="1278" d="M473 -21Q301 -21 195 87T89 403Q89 541 133 663T257 878T448 1025T690 1079Q798 1079 884 1033T1020 904T1070 711Q1070 685 1066 652T1055 593L936 589Q940 603 942 624T945 659Q945 727 913 779T825 860T701 889Q609
889 537 853T415 753T339 606T313 430Q313 302 377 239T549 176Q630 176 706 214T838 320T912 473L1044 468Q1016 330 930 219T724 44T473 -21ZM717 -437L1036 1062H1253L934 -437H717Z" />
<glyph unicode="r" horiz-adv-x="843" d="M30 0L255 1062H472L400 723L339 749Q361 814 400 873T495 978T621 1052T777 1079Q841 1079 878 1069T923 1053L832 849Q825 856 796 867T714 878Q632 878 572 849T470 772T402 668T365 555L246 0H30Z" />
<glyph unicode="s" horiz-adv-x="1126" d="M457 -21Q372 -21 297 -3T165 49T76 133T44 244Q44 264 48 289T56 328H272Q270 319 268 304T265 280Q265 221 323 191T487 160Q553 160 616 174T722 221T765 312Q765 372 707 401T519 451Q424 466 343 497T212 585T162
730Q162 819 204 885T318 994T479 1058T664 1079Q770 1079 860 1046T1005 953T1060 809Q1060 783 1058 766T1051 734H836Q839 746 840 755T841 775Q841 818 813 845T740 886T641 899Q579 899 519 885T418 840T378 758Q378 697 440 668T614 617Q684 604 749 585T867
535T949 457T979 342Q979 245 935 176T816 64T648 0T457 -21Z" />
<glyph unicode="t" horiz-adv-x="906" d="M487 -18Q441 -18 397 -11T315 18T256 77T234 177Q234 211 241 254T261 353L375 882H120L158 1062H299Q340 1062 364 1067T402 1086T425 1132T445 1215L487 1413H704L631 1062H955L916 882H592L492 411Q479 350 472 309T464
241Q464 203 480 183T540 162Q570 162 602 167T649 178L612 1Q592 -6 561 -12T487 -18Z" />
<glyph unicode="u" horiz-adv-x="1216" d="M422 -19Q304 -19 235 22T135 131T104 275Q104 328 113 384T142 531L255 1062H473L368 570Q350 486 340 431T330 333Q330 263 373 218T513 173Q598 173 672 223T799 351T867 507L960 456Q941 364 893 279T772 127T611
20T422 -19ZM758 0L984 1062H1201L975 0H758Z" />
<glyph unicode="v" horiz-adv-x="1082" d="M1152 1062L576 0H288L156 1062H382L464 91H429L919 1062H1152Z" />
<glyph unicode="w" horiz-adv-x="1559" d="M880 0L834 1062H1003L1055 79H1020L1399 1062H1629L1179 0H880ZM155 0L156 1062H374L336 79H299L767 1062H950L456 0H155Z" />
<glyph unicode="x" horiz-adv-x="1117" d="M501 600L465 495L170 1062H402L649 571L525 611L924 1062H1169L616 469L663 560L947 0H714L475 485L585 449L168 0H-79L501 600Z" />
<glyph unicode="y" horiz-adv-x="1059" d="M-12 -452Q-55 -452 -92 -448T-137 -440L-98 -261Q-87 -268 -58 -272T5 -276Q64 -276 111 -250T196 -182T261 -89L306 -9L166 1062H387L475 162H442L898 1062H1128L505 -79Q447 -186 381 -270T221 -403T-12 -452Z" />
<glyph unicode="z" horiz-adv-x="989" d="M246 185H848L809 0H-41L-3 177L740 886L742 877H170L209 1062H1025L987 885L249 178L246 185Z" />
<glyph unicode="{" horiz-adv-x="828" d="M910 1481Q846 1481 796 1457T711 1384T661 1262L571 838Q553 754 514 702T420 623T303 588L306 598Q351 592 390 575T454 523T478 435Q478 397 461 315T422 139Q400 43 382 -46T363 -177Q363 -246 407 -276T530 -307L496
-467Q396 -467 317 -446T191 -376T145 -242Q145 -194 165 -99T209 94Q231 186 247 267T264 389Q264 446 236 476T139 523L169 661Q235 677 275 703T339 773T378 889L471 1325Q495 1438 562 1507T728 1609T944 1641L910 1481Z" />
<glyph unicode="|" horiz-adv-x="600" d="M5 -280L396 1554H569L177 -280H5Z" />
<glyph unicode="}" horiz-adv-x="828" d="M333 1481L367 1641Q468 1641 546 1617T669 1540T714 1402Q714 1365 698 1282T658 1103Q637 1008 619 922T600 796Q600 739 629 709T726 661L696 523Q630 508 590 482T526 412T487 296L387 -169Q363 -282 296 -347T131
-439T-81 -467L-47 -307Q47 -307 110 -262T197 -107L293 347Q311 431 351 483T445 563T562 598L559 588Q514 595 475 612T411 662T386 750Q386 781 402 862T441 1035Q462 1130 479 1215T497 1335Q497 1406 454 1443T333 1481Z" />
<glyph unicode="~" horiz-adv-x="1225" d="M953 724Q949 687 926 645T861 572T758 541Q710 541 679 560T625 599Q606 616 584 630T530 644Q491 644 474 620T452 566H332Q339 605 364 648T434 721T538 751Q585 751 614 733T665 696Q686 677 709 662T760 647Q798
647 814 670T835 724H953Z" />
<glyph unicode="&#xa0;" horiz-adv-x="500" />
<glyph unicode="&#xa1;" horiz-adv-x="599" d="M-5 -419L280 685H414L214 -419H-5ZM392 1081Q448 1081 486 1043T525 949Q525 894 487 856T392 817Q338 817 299 855T260 949Q260 1005 299 1043T392 1081Z" />
<glyph unicode="&#xa2;" horiz-adv-x="1265" d="M799 1475H904L590 0H485L799 1475ZM597 191Q384 191 261 310T138 638Q138 782 188 901T329 1108T542 1243T808 1291Q953 1291 1049 1238T1194 1101T1242 930Q1242 911 1241 897T1238 875H1022Q1023 880 1023 886T1024
900Q1024 962 997 1008T916 1079T779 1104Q683 1104 606 1070T472 974T387 830T357 649Q357 516 428 447T623 378Q726 378 795 408T906 490T965 602H1180Q1167 526 1122 452T1003 320T826 226T597 191Z" />
<glyph unicode="&#xa3;" horiz-adv-x="1124" d="M41 583L68 719H775L749 583H41ZM982 1158Q972 1200 946 1240T871 1306T742 1333Q644 1333 570 1292T453 1174T411 997Q411 942 421 891T443 783T454 651Q454 551 424 448T338 251T203 88T26 -17L-34 110Q33 138
88 189T182 306T243 446T265 593Q265 663 253 725T230 851T218 987Q218 1141 286 1254T473 1429T744 1491Q844 1491 913 1468T1027 1408T1097 1329T1133 1248L982 1158ZM905 22Q884 12 819 -7T671 -26Q595 -26 539 -7T429 30T304 49Q244 49 186 36T84 6T26 -17L42
17Q54 22 79 43T139 92T216 148T305 193T402 211Q456 211 492 201T559 177T622 152T702 141Q758 141 803 156T864 179L905 22Z" />
<glyph unicode="&#xa4;" horiz-adv-x="1335" d="M1384 1299L1466 1194L1185 962L1102 1066L1384 1299ZM1140 104L957 336L1070 428L1253 197L1140 104ZM323 1299L505 1066L392 974L209 1206L323 1299ZM75 92L-9 197L274 430L356 324L75 92ZM633 150Q489 150 385
205T224 360T167 590Q167 732 217 853T358 1062T569 1200T829 1250Q974 1250 1078 1194T1239 1040T1295 813Q1295 667 1244 546T1102 335T891 198T633 150ZM653 333Q773 333 868 391T1019 554T1075 796Q1075 880 1045 941T956 1034T810 1067Q717 1067 640 1032T507
935T419 790T388 608Q388 478 455 406T653 333Z" />
<glyph unicode="&#xa5;" horiz-adv-x="1191" d="M167 505L202 640H1040L1005 505H167ZM103 239L139 374H976L942 239H103ZM1323 1475L700 511L591 0H374L483 511L272 1475H496L657 634H566L1086 1475H1323Z" />
<glyph unicode="&#xa6;" horiz-adv-x="600" d="M11 -258L173 507H346L184 -258H11ZM234 791L396 1554H569L407 791H234Z" />
<glyph unicode="&#xa7;" horiz-adv-x="1287" d="M773 201L636 252Q706 272 775 315T892 418T939 550Q939 607 904 652T808 735T672 810Q585 853 504 902T372 1012T320 1149Q320 1257 386 1332T559 1446T786 1486Q949 1486 1048 1425T1147 1242Q1147 1223 1143
1195T1134 1146H949Q954 1167 958 1192T962 1233Q962 1277 944 1304T897 1347T834 1367T769 1372Q699 1372 639 1347T543 1276T507 1168Q507 1115 544 1074T641 999T768 932Q852 893 929 848T1055 741T1105 594Q1105 503 1058 425T935 288T773 201ZM449 -304Q286
-304 187 -243T87 -59Q87 -40 91 -12T101 37H286Q282 16 278 -9T274 -51Q274 -95 292 -122T339 -164T401 -184T465 -190Q536 -190 596 -165T692 -94T728 13Q728 68 691 110T593 187T467 251Q383 290 306 335T180 442T130 589Q130 680 177 758T300 894T462 981L598
930Q530 911 460 868T342 765T295 633Q295 576 330 530T426 446T563 372Q652 330 732 281T863 171T915 31Q915 -75 852 -150T684 -264T449 -304Z" />
<glyph unicode="&#xa8;" horiz-adv-x="789" d="M360 1279Q311 1279 276 1305T241 1376Q241 1431 282 1461T377 1491Q425 1491 460 1466T495 1394Q495 1339 454 1309T360 1279ZM780 1279Q732 1279 697 1305T662 1376Q662 1431 703 1461T797 1491Q845 1491 880 1466T916
1394Q916 1339 875 1309T780 1279Z" />
<glyph unicode="&#xa9;" horiz-adv-x="1733" d="M769 28Q592 28 458 95T250 285T175 577Q175 760 242 918T431 1197T711 1384T1055 1451Q1232 1451 1365 1384T1573 1195T1648 903Q1648 722 1580 563T1392 284T1112 96T769 28ZM778 109Q941 109 1083 170T1333 341T1502
591T1564 891Q1564 1041 1499 1148T1317 1313T1047 1371Q884 1371 742 1311T491 1143T321 895T259 593Q259 443 324 335T506 168T778 109ZM823 262Q719 262 638 302T509 422T462 619Q462 743 501 852T613 1043T786 1173T1009 1220Q1104 1220 1170 1191T1276 1116T1334
1019T1353 923Q1353 904 1351 889T1344 857H1184Q1186 864 1188 878T1190 906Q1190 931 1181 963T1149 1024T1087 1073T988 1093Q872 1093 791 1027T667 853T624 623Q624 508 681 449T840 389Q917 389 979 423T1081 512T1135 625H1295Q1273 520 1204 438T1037 309T823
262Z" />
<glyph unicode="&#xaa;" horiz-adv-x="670" d="M673 1019H575Q575 1039 577 1068T584 1117L628 1314Q629 1320 632 1333T636 1353Q636 1383 611 1396T531 1410Q466 1410 426 1390T375 1324H284Q301 1403 370 1445T540 1487Q622 1487 676 1458T730 1364Q730 1353
728 1338T724 1312L678 1087Q676 1074 675 1055T673 1019ZM401 1013Q322 1013 276 1043T230 1132Q230 1182 262 1212T349 1258T467 1282Q562 1295 596 1307T633 1338L676 1291Q669 1273 611 1251T468 1217Q400 1207 365 1194T330 1142Q330 1114 357 1103T431 1091Q467
1091 504 1104T570 1144T606 1207L653 1174Q638 1100 564 1057T401 1013Z" />
<glyph unicode="&#xab;" horiz-adv-x="817" d="M557 885L164 565L419 251H291L37 565L423 885H557ZM861 885L471 565L722 251H594L341 565L728 885H861Z" />
<glyph unicode="&#xac;" horiz-adv-x="1225" d="M778 325L855 684L933 585H243L271 720H998L914 325H778Z" />
<glyph unicode="&#xad;" horiz-adv-x="727" d="M71 498L101 634H600L571 498H71Z" />
<glyph unicode="&#xae;" horiz-adv-x="1218" d="M598 496Q471 496 375 546T224 685T169 890Q169 1013 219 1120T355 1309T554 1436T793 1482Q921 1482 1017 1432T1167 1294T1221 1087Q1221 964 1172 857T1037 669T837 542T598 496ZM606 565Q720 565 818 605T989
717T1104 885T1145 1090Q1145 1238 1049 1325T786 1412Q672 1412 574 1372T402 1260T287 1093T246 887Q246 739 342 652T606 565ZM441 698L567 1291H769Q852 1291 897 1263T943 1175Q943 1106 901 1053T787 995Q829 991 849 972T869 921Q869 900 860 862T842 785T833
719Q833 702 836 698H749Q749 700 749 704T748 716Q748 743 756 776T771 842T779 894Q779 924 764 937T722 953T666 956H583L528 698H441ZM597 1027H691Q769 1027 813 1062T858 1158Q858 1194 834 1208T761 1223H640L597 1027Z" />
<glyph unicode="&#xaf;" horiz-adv-x="800" d="M286 1308L306 1402H859L839 1308H286Z" />
<glyph unicode="&#xb0;" horiz-adv-x="662" d="M461 1218Q506 1218 549 1253T592 1349Q592 1379 572 1405T507 1431Q461 1431 418 1395T375 1303Q375 1271 396 1245T461 1218ZM449 1120Q364 1120 319 1169T274 1286Q274 1355 310 1410T403 1497T519 1530Q603 1530
648 1480T693 1362Q693 1293 656 1238T562 1152T449 1120Z" />
<glyph unicode="&#xb1;" horiz-adv-x="1225" d="M161 173L188 310H936L907 173H161ZM1017 646H704L652 395H511L565 646H253L279 784H591L646 1036H787L732 784H1043L1017 646Z" />
<glyph unicode="&#xb2;" horiz-adv-x="934" d="M104 590L135 738Q149 768 204 808T334 891T483 971Q549 1007 617 1048T731 1140T777 1249Q777 1297 741 1324T630 1351Q523 1351 471 1301T402 1175H223Q254 1319 362 1403T654 1488Q809 1488 884 1427T959 1269Q959
1180 909 1116T783 1003T626 913Q568 882 512 848T417 782T367 722H849L822 590H104Z" />
<glyph unicode="&#xb3;" horiz-adv-x="940" d="M760 1056Q843 1054 877 1015T911 916Q911 813 857 736T709 617T500 575Q384 575 314 605T213 686T182 800Q182 828 185 848T190 876H370Q368 871 366 857T363 822Q363 760 405 736T523 712Q584 712 631 737T705
805T733 903Q733 944 696 968T584 992H548L573 1109H609Q663 1109 708 1126T781 1175T809 1254Q809 1304 770 1328T661 1352Q577 1352 517 1318T438 1202H260Q276 1280 326 1344T464 1448T679 1488Q788 1488 857 1462T960 1392T994 1291Q994 1193 928 1126T760
1056Z" />
<glyph unicode="&#xb4;" horiz-adv-x="603" d="M243 1222L482 1475H666L404 1222H243Z" />
<glyph unicode="&#xb5;" horiz-adv-x="1192" d="M729 0L954 1062H1170L945 0H729ZM827 459L886 408Q869 329 831 253T734 116T602 18T440 -18Q346 -18 307 18T258 101L144 -437H-74L244 1062H462L335 465Q329 433 324 396T318 330Q318 258 353 210T483 161Q569
161 640 203T761 313T827 459Z" />
<glyph unicode="&#xb6;" horiz-adv-x="1229" d="M496 -170L660 596H642Q488 596 398 647T269 783T230 962Q230 1124 305 1238T512 1413T818 1473H1279L929 -170H776L1099 1338H970L647 -170H496Z" />
<glyph unicode="&#xb7;" horiz-adv-x="533" d="M306 607Q250 607 212 645T174 739Q174 794 212 832T306 871Q361 871 399 833T438 739Q438 684 400 646T306 607Z" />
<glyph unicode="&#xb8;" horiz-adv-x="859" d="M347 -91Q394 -91 434 -120T474 -214Q474 -283 435 -329T335 -398T204 -422Q166 -422 128 -416T61 -399T19 -380L76 -295Q90 -305 129 -320T219 -335Q282 -335 327 -306T373 -220Q373 -188 355 -174T306 -160Q282
-160 254 -170T211 -197L125 -171L218 0H322L240 -151L216 -146Q228 -125 266 -108T347 -91Z" />
<glyph unicode="&#xb9;" horiz-adv-x="651" d="M616 1476L428 590H250L403 1311Q395 1304 360 1288T274 1258T172 1241L199 1370Q251 1375 301 1393T389 1434T442 1476H616Z" />
<glyph unicode="&#xba;" horiz-adv-x="790" d="M538 1017Q473 1017 416 1044T322 1124T286 1248Q286 1322 322 1373T415 1452T538 1480Q604 1480 662 1453T756 1374T793 1248Q793 1176 757 1124T662 1045T538 1017ZM538 1101Q577 1101 614 1117T674 1166T698 1248Q698
1298 675 1331T614 1380T538 1396Q499 1396 463 1380T404 1331T381 1248Q381 1199 404 1167T463 1118T538 1101Z" />
<glyph unicode="&#xbb;" horiz-adv-x="789" d="M382 885H511L766 565L379 251H246L638 567L382 885ZM105 885H235L490 565L104 251H-28L361 567L105 885Z" />
<glyph unicode="&#xbc;" horiz-adv-x="1809" d="M616 1476L428 590H250L403 1311Q395 1304 360 1288T274 1258T172 1241L199 1370Q251 1375 301 1393T389 1434T442 1476H616ZM67 0L1403 1475H1565L229 0H67ZM1283 0L1321 180H896L921 293L1423 886H1650L1526 303H1673L1647
180H1500L1462 0H1283ZM1041 230L1007 303H1347L1447 770L1481 760L1041 230Z" />
<glyph unicode="&#xbd;" horiz-adv-x="1827" d="M616 1476L428 590H250L403 1311Q395 1304 360 1288T274 1258T172 1241L199 1370Q251 1375 301 1393T389 1434T442 1476H616ZM67 0L1403 1475H1565L229 0H67ZM868 0L899 148Q913 178 968 218T1098 301T1247 381Q1313
417 1381 458T1495 550T1541 659Q1541 707 1505 734T1394 761Q1287 761 1235 711T1166 585H987Q1018 729 1126 813T1418 898Q1573 898 1648 837T1723 679Q1723 590 1673 526T1547 413T1390 323Q1332 292 1276 258T1181 192T1131 132H1613L1586 0H868Z" />
<glyph unicode="&#xbe;" horiz-adv-x="2098" d="M760 1056Q843 1054 877 1015T911 916Q911 813 857 736T709 617T500 575Q384 575 314 605T213 686T182 800Q182 828 185 848T190 876H370Q368 871 366 857T363 822Q363 760 405 736T523 712Q584 712 631 737T705
805T733 903Q733 944 696 968T584 992H548L573 1109H609Q663 1109 708 1126T781 1175T809 1254Q809 1304 770 1328T661 1352Q577 1352 517 1318T438 1202H260Q276 1280 326 1344T464 1448T679 1488Q788 1488 857 1462T960 1392T994 1291Q994 1193 928 1126T760
1056ZM356 0L1692 1475H1854L518 0H356ZM1572 0L1610 180H1185L1210 293L1712 886H1939L1815 303H1962L1936 180H1789L1751 0H1572ZM1330 230L1296 303H1636L1736 770L1770 760L1330 230Z" />
<glyph unicode="&#xbf;" horiz-adv-x="1114" d="M714 690Q695 588 650 514T548 382T432 273Q375 223 325 172T244 58T213 -90Q213 -181 260 -224T406 -267Q528 -267 608 -195T719 20H911Q879 -134 804 -234T623 -383T390 -432Q280 -432 197 -396T67 -290T20 -112Q20
6 59 87T161 230T291 345Q347 390 399 438T490 548T545 690H714ZM666 1081Q721 1081 760 1043T799 949Q799 894 760 856T666 817Q611 817 573 855T534 949Q534 1005 572 1043T666 1081Z" />
<glyph unicode="&#xc0;" horiz-adv-x="1266" d="M-42 0L666 1478H1007L1083 0H869L816 1341H818L191 0H-42ZM268 375L303 555H976L940 375H268ZM984 1555H809L511 1745H705L984 1555Z" />
<glyph unicode="&#xc1;" horiz-adv-x="1266" d="M-42 0L666 1478H1007L1083 0H869L816 1341H818L191 0H-42ZM268 375L303 555H976L940 375H268ZM715 1553L994 1743H1188L891 1553H715Z" />
<glyph unicode="&#xc2;" horiz-adv-x="1266" d="M-42 0L666 1478H1007L1083 0H869L816 1341H818L191 0H-42ZM268 375L303 555H976L940 375H268ZM564 1552L806 1740H962L1165 1552H1014L852 1706H913L717 1552H564Z" />
<glyph unicode="&#xc3;" horiz-adv-x="1266" d="M-42 0L666 1478H1007L1083 0H869L816 1341H818L191 0H-42ZM268 375L303 555H976L940 375H268ZM1182 1726Q1177 1689 1154 1647T1090 1575T986 1544Q938 1544 907 1563T854 1601Q834 1619 812 1633T759 1647Q720
1647 703 1623T680 1569H561Q567 1608 592 1651T662 1724T767 1754Q814 1754 843 1736T893 1698Q914 1680 938 1665T989 1650Q1026 1650 1042 1673T1063 1726H1182Z" />
<glyph unicode="&#xc4;" horiz-adv-x="1266" d="M-42 0L666 1478H1007L1083 0H869L816 1341H818L191 0H-42ZM268 375L303 555H976L940 375H268ZM659 1555Q610 1555 575 1581T540 1652Q540 1707 581 1737T676 1767Q724 1767 759 1742T794 1670Q794 1615 753 1585T659
1555ZM1079 1555Q1031 1555 996 1581T961 1652Q961 1707 1002 1737T1096 1767Q1144 1767 1179 1742T1215 1670Q1215 1615 1174 1585T1079 1555Z" />
<glyph unicode="&#xc5;" horiz-adv-x="1266" d="M-42 0L666 1478H1007L1083 0H869L816 1341H818L191 0H-42ZM268 375L303 555H976L940 375H268ZM883 1618Q928 1618 959 1649T990 1725Q990 1769 959 1800T883 1831Q840 1831 809 1800T777 1725Q777 1680 808 1649T883
1618ZM883 1520Q827 1520 781 1547T706 1622T678 1725Q678 1781 706 1827T780 1902T883 1930Q940 1930 986 1902T1060 1828T1088 1725Q1088 1669 1061 1622T987 1548T883 1520Z" />
<glyph unicode="&#xc6;" horiz-adv-x="1883" d="M-100 0L1008 1475H1949L1911 1295H1211L1298 1368L1169 760L1120 830H1701L1663 650H1087L1160 715L1032 116L982 180H1674L1635 0H799L1074 1290L1089 1277L144 0H-100ZM285 313L366 490H1003L966 313H285Z" />
<glyph unicode="&#xc7;" horiz-adv-x="1320" d="M1237 522Q1218 430 1166 335T1030 159T833 29T578 -21Q414 -21 309 50T154 245T104 527Q104 717 157 890T311 1200T553 1415T871 1494Q1038 1494 1140 1429T1289 1261T1336 1050Q1336 1022 1333 998T1325 953H1107Q1110
969 1113 994T1117 1040Q1117 1116 1088 1176T1000 1272T847 1308Q720 1308 622 1239T458 1056T358 802T324 522Q324 349 393 257T601 164Q683 164 753 194T878 275T969 391T1019 522H1237ZM649 -102Q696 -102 736 -132T776 -225Q776 -294 738 -340T638 -409T507
-433Q468 -433 430 -427T363 -411T322 -391L378 -306Q392 -316 431 -331T521 -347Q584 -347 630 -317T676 -231Q676 -199 657 -186T609 -172Q584 -172 557 -181T513 -208L430 -182L523 -11H621L540 -162L526 -157Q539 -136 573 -119T649 -102Z" />
<glyph unicode="&#xc8;" horiz-adv-x="1106" d="M417 1295L539 1409L402 761L364 830H923L886 650H327L393 719L254 66L180 180H896L858 0H22L336 1475H1172L1134 1295H417ZM919 1555H744L446 1745H640L919 1555Z" />
<glyph unicode="&#xc9;" horiz-adv-x="1106" d="M417 1295L539 1409L402 761L364 830H923L886 650H327L393 719L254 66L180 180H896L858 0H22L336 1475H1172L1134 1295H417ZM650 1553L929 1743H1123L826 1553H650Z" />
<glyph unicode="&#xca;" horiz-adv-x="1106" d="M417 1295L539 1409L402 761L364 830H923L886 650H327L393 719L254 66L180 180H896L858 0H22L336 1475H1172L1134 1295H417ZM499 1552L741 1740H897L1100 1552H949L787 1706H848L652 1552H499Z" />
<glyph unicode="&#xcb;" horiz-adv-x="1106" d="M417 1295L539 1409L402 761L364 830H923L886 650H327L393 719L254 66L180 180H896L858 0H22L336 1475H1172L1134 1295H417ZM595 1555Q546 1555 511 1581T476 1652Q476 1707 517 1737T612 1767Q660 1767 695 1742T730
1670Q730 1615 689 1585T595 1555ZM1015 1555Q967 1555 932 1581T897 1652Q897 1707 938 1737T1032 1767Q1080 1767 1115 1742T1151 1670Q1151 1615 1110 1585T1015 1555Z" />
<glyph unicode="&#xcc;" horiz-adv-x="494" d="M24 0L337 1475H553L240 0H24ZM595 1555H420L122 1745H316L595 1555Z" />
<glyph unicode="&#xcd;" horiz-adv-x="494" d="M24 0L337 1475H553L240 0H24ZM326 1553L605 1743H799L502 1553H326Z" />
<glyph unicode="&#xce;" horiz-adv-x="494" d="M24 0L337 1475H553L240 0H24ZM175 1552L417 1740H573L776 1552H625L463 1706H524L328 1552H175Z" />
<glyph unicode="&#xcf;" horiz-adv-x="494" d="M24 0L337 1475H553L240 0H24ZM582 1562Q534 1562 499 1588T464 1659Q464 1714 505 1744T599 1774Q648 1774 683 1749T718 1677Q718 1622 677 1592T582 1562ZM889 1562Q841 1562 806 1588T771 1659Q771 1714 812
1744T907 1774Q955 1774 990 1749T1025 1677Q1025 1622 984 1592T889 1562Z" />
<glyph unicode="&#xd0;" horiz-adv-x="1271" d="M33 686L55 788H761L740 686H33ZM22 0L336 1475H736Q919 1475 1032 1404T1198 1211T1251 939Q1251 729 1184 557T1002 260T739 68T432 0H22ZM255 68L177 168H436Q549 168 655 225T846 384T980 624T1030 923Q1030
1033 995 1119T884 1256T682 1307H422L540 1407L255 68Z" />
<glyph unicode="&#xd1;" horiz-adv-x="1384" d="M233 0H22L336 1475H690L962 103L944 93L1238 1475H1450L1136 0H777L507 1370L526 1379L233 0ZM1261 1726Q1256 1689 1233 1647T1169 1575T1065 1544Q1017 1544 986 1563T933 1601Q913 1619 891 1633T838 1647Q799
1647 782 1623T759 1569H640Q646 1608 671 1651T741 1724T846 1754Q893 1754 922 1736T972 1698Q993 1680 1017 1665T1068 1650Q1105 1650 1121 1673T1142 1726H1261Z" />
<glyph unicode="&#xd2;" horiz-adv-x="1423" d="M608 -21Q459 -21 346 44T170 237T106 546Q106 733 162 904T323 1208T574 1417T899 1494Q1049 1494 1162 1430T1338 1240T1401 933Q1401 745 1345 574T1183 268T933 57T608 -21ZM631 164Q764 164 867 231T1040 410T1146
658T1183 933Q1183 1062 1144 1145T1035 1268T874 1308Q741 1308 638 1242T466 1065T360 820T324 545Q324 349 409 257T631 164ZM1053 1555H878L580 1745H774L1053 1555Z" />
<glyph unicode="&#xd3;" horiz-adv-x="1423" d="M608 -21Q459 -21 346 44T170 237T106 546Q106 733 162 904T323 1208T574 1417T899 1494Q1049 1494 1162 1430T1338 1240T1401 933Q1401 745 1345 574T1183 268T933 57T608 -21ZM631 164Q764 164 867 231T1040 410T1146
658T1183 933Q1183 1062 1144 1145T1035 1268T874 1308Q741 1308 638 1242T466 1065T360 820T324 545Q324 349 409 257T631 164ZM784 1553L1063 1743H1257L960 1553H784Z" />
<glyph unicode="&#xd4;" horiz-adv-x="1423" d="M608 -21Q459 -21 346 44T170 237T106 546Q106 733 162 904T323 1208T574 1417T899 1494Q1049 1494 1162 1430T1338 1240T1401 933Q1401 745 1345 574T1183 268T933 57T608 -21ZM631 164Q764 164 867 231T1040 410T1146
658T1183 933Q1183 1062 1144 1145T1035 1268T874 1308Q741 1308 638 1242T466 1065T360 820T324 545Q324 349 409 257T631 164ZM633 1552L875 1740H1031L1234 1552H1083L921 1706H982L786 1552H633Z" />
<glyph unicode="&#xd5;" horiz-adv-x="1423" d="M608 -21Q459 -21 346 44T170 237T106 546Q106 733 162 904T323 1208T574 1417T899 1494Q1049 1494 1162 1430T1338 1240T1401 933Q1401 745 1345 574T1183 268T933 57T608 -21ZM631 164Q764 164 867 231T1040 410T1146
658T1183 933Q1183 1062 1144 1145T1035 1268T874 1308Q741 1308 638 1242T466 1065T360 820T324 545Q324 349 409 257T631 164ZM1251 1726Q1246 1689 1223 1647T1159 1575T1055 1544Q1007 1544 976 1563T923 1601Q903 1619 881 1633T828 1647Q789 1647 772 1623T749
1569H630Q636 1608 661 1651T731 1724T836 1754Q883 1754 912 1736T962 1698Q983 1680 1007 1665T1058 1650Q1095 1650 1111 1673T1132 1726H1251Z" />
<glyph unicode="&#xd6;" horiz-adv-x="1423" d="M608 -21Q459 -21 346 44T170 237T106 546Q106 733 162 904T323 1208T574 1417T899 1494Q1049 1494 1162 1430T1338 1240T1401 933Q1401 745 1345 574T1183 268T933 57T608 -21ZM631 164Q764 164 867 231T1040 410T1146
658T1183 933Q1183 1062 1144 1145T1035 1268T874 1308Q741 1308 638 1242T466 1065T360 820T324 545Q324 349 409 257T631 164ZM728 1555Q679 1555 644 1581T609 1652Q609 1707 650 1737T745 1767Q793 1767 828 1742T863 1670Q863 1615 822 1585T728 1555ZM1148
1555Q1100 1555 1065 1581T1030 1652Q1030 1707 1071 1737T1165 1767Q1213 1767 1248 1742T1284 1670Q1284 1615 1243 1585T1148 1555Z" />
<glyph unicode="&#xd7;" horiz-adv-x="1225" d="M312 214L223 310L897 829L989 733L312 214ZM902 305L785 212L314 738L429 829L902 305Z" />
<glyph unicode="&#xd8;" horiz-adv-x="1423" d="M1402 1498L114 -91L12 -22L1299 1566L1402 1498ZM608 -21Q459 -21 346 44T170 237T106 546Q106 733 162 904T323 1208T574 1417T899 1494Q1049 1494 1162 1430T1338 1240T1401 933Q1401 745 1345 574T1183 268T933
57T608 -21ZM631 164Q764 164 867 231T1040 410T1146 658T1183 933Q1183 1062 1144 1145T1035 1268T874 1308Q741 1308 638 1242T466 1065T360 820T324 545Q324 349 409 257T631 164Z" />
<glyph unicode="&#xd9;" horiz-adv-x="1318" d="M1185 540Q1125 256 962 118T565 -21Q351 -21 237 74T123 364Q123 440 136 520T177 730L339 1475H557L391 706Q373 625 362 570T346 473T341 386Q341 264 400 214T579 164Q732 164 828 252T968 541L1166 1475H1383L1185
540ZM1019 1555H844L546 1745H740L1019 1555Z" />
<glyph unicode="&#xda;" horiz-adv-x="1318" d="M1185 540Q1125 256 962 118T565 -21Q351 -21 237 74T123 364Q123 440 136 520T177 730L339 1475H557L391 706Q373 625 362 570T346 473T341 386Q341 264 400 214T579 164Q732 164 828 252T968 541L1166 1475H1383L1185
540ZM750 1553L1029 1743H1223L926 1553H750Z" />
<glyph unicode="&#xdb;" horiz-adv-x="1318" d="M1185 540Q1125 256 962 118T565 -21Q351 -21 237 74T123 364Q123 440 136 520T177 730L339 1475H557L391 706Q373 625 362 570T346 473T341 386Q341 264 400 214T579 164Q732 164 828 252T968 541L1166 1475H1383L1185
540ZM600 1552L842 1740H998L1201 1552H1050L888 1706H949L753 1552H600Z" />
<glyph unicode="&#xdc;" horiz-adv-x="1318" d="M1185 540Q1125 256 962 118T565 -21Q351 -21 237 74T123 364Q123 440 136 520T177 730L339 1475H557L391 706Q373 625 362 570T346 473T341 386Q341 264 400 214T579 164Q732 164 828 252T968 541L1166 1475H1383L1185
540ZM695 1555Q646 1555 611 1581T576 1652Q576 1707 617 1737T712 1767Q760 1767 795 1742T830 1670Q830 1615 789 1585T695 1555ZM1115 1555Q1067 1555 1032 1581T997 1652Q997 1707 1038 1737T1132 1767Q1180 1767 1215 1742T1251 1670Q1251 1615 1210 1585T1115
1555Z" />
<glyph unicode="&#xdd;" horiz-adv-x="1191" d="M1323 1475L700 511L591 0H374L483 511L272 1475H496L657 634H566L1086 1475H1323ZM682 1553L961 1743H1155L858 1553H682Z" />
<glyph unicode="&#xde;" horiz-adv-x="1120" d="M22 0L336 1473H552L470 1090L433 1148H699Q887 1148 987 1063T1087 817Q1087 658 1013 544T811 370T525 310H251L316 364L238 0H22ZM327 418L289 490H537Q631 490 706 525T825 627T869 786Q869 880 812 923T646
967H396L461 1041L327 418Z" />
<glyph unicode="&#xdf;" horiz-adv-x="1225" d="M4 0L213 983Q245 1135 305 1235T446 1395T616 1479T797 1505Q900 1505 979 1470T1102 1370T1146 1217Q1146 1118 1096 1049T973 920Q944 896 918 867T891 807Q891 785 911 756T969 690Q1013 647 1054 587T1095
435Q1095 291 1022 192T823 40T541 -13Q497 -13 459 -10T392 0T348 12L419 196Q435 190 475 179T573 168Q661 168 729 192T836 267T875 396Q875 458 848 505T784 589Q743 630 710 681T676 787Q676 851 713 898T792 979Q853 1026 896 1076T940 1194Q940 1250 903
1287T768 1324Q634 1324 549 1240T422 959L219 0H4Z" />
<glyph unicode="&#xe0;" horiz-adv-x="1303" d="M513 -21Q396 -21 301 26T148 170T91 416Q91 557 138 677T269 888T469 1028T721 1079Q828 1079 912 1038T1045 916T1094 718Q1094 689 1090 648T1077 578L968 577Q973 593 975 619T978 662Q978 737 945 787T856
863T732 889Q636 889 560 856T431 761T349 619T320 441Q320 347 354 287T447 198T581 169Q661 169 737 204T869 309T947 476L1066 467Q1032 306 948 197T751 34T513 -21ZM1062 0H845L1070 1062H1287L1062 0ZM922 1222H762L499 1475H683L922 1222Z" />
<glyph unicode="&#xe1;" horiz-adv-x="1303" d="M513 -21Q396 -21 301 26T148 170T91 416Q91 557 138 677T269 888T469 1028T721 1079Q828 1079 912 1038T1045 916T1094 718Q1094 689 1090 648T1077 578L968 577Q973 593 975 619T978 662Q978 737 945 787T856
863T732 889Q636 889 560 856T431 761T349 619T320 441Q320 347 354 287T447 198T581 169Q661 169 737 204T869 309T947 476L1066 467Q1032 306 948 197T751 34T513 -21ZM1062 0H845L1070 1062H1287L1062 0ZM667 1222L906 1475H1090L828 1222H667Z" />
<glyph unicode="&#xe2;" horiz-adv-x="1303" d="M513 -21Q396 -21 301 26T148 170T91 416Q91 557 138 677T269 888T469 1028T721 1079Q828 1079 912 1038T1045 916T1094 718Q1094 689 1090 648T1077 578L968 577Q973 593 975 619T978 662Q978 737 945 787T856
863T732 889Q636 889 560 856T431 761T349 619T320 441Q320 347 354 287T447 198T581 169Q661 169 737 204T869 309T947 476L1066 467Q1032 306 948 197T751 34T513 -21ZM1062 0H845L1070 1062H1287L1062 0ZM519 1222L766 1475H916L1111 1222H965L809 1433H870L668
1222H519Z" />
<glyph unicode="&#xe3;" horiz-adv-x="1303" d="M513 -21Q396 -21 301 26T148 170T91 416Q91 557 138 677T269 888T469 1028T721 1079Q828 1079 912 1038T1045 916T1094 718Q1094 689 1090 648T1077 578L968 577Q973 593 975 619T978 662Q978 737 945 787T856
863T732 889Q636 889 560 856T431 761T349 619T320 441Q320 347 354 287T447 198T581 169Q661 169 737 204T869 309T947 476L1066 467Q1032 306 948 197T751 34T513 -21ZM1062 0H845L1070 1062H1287L1062 0ZM1135 1453Q1131 1416 1108 1374T1043 1301T940 1270Q892
1270 861 1289T807 1328Q788 1345 766 1359T712 1373Q673 1373 656 1349T634 1295H514Q521 1334 546 1377T616 1450T720 1480Q767 1480 796 1462T847 1425Q868 1406 891 1391T942 1376Q980 1376 996 1399T1017 1453H1135Z" />
<glyph unicode="&#xe4;" horiz-adv-x="1303" d="M513 -21Q396 -21 301 26T148 170T91 416Q91 557 138 677T269 888T469 1028T721 1079Q828 1079 912 1038T1045 916T1094 718Q1094 689 1090 648T1077 578L968 577Q973 593 975 619T978 662Q978 737 945 787T856
863T732 889Q636 889 560 856T431 761T349 619T320 441Q320 347 354 287T447 198T581 169Q661 169 737 204T869 309T947 476L1066 467Q1032 306 948 197T751 34T513 -21ZM1062 0H845L1070 1062H1287L1062 0ZM612 1279Q563 1279 528 1305T493 1376Q493 1431 534
1461T629 1491Q677 1491 712 1466T747 1394Q747 1339 706 1309T612 1279ZM1032 1279Q984 1279 949 1305T914 1376Q914 1431 955 1461T1049 1491Q1097 1491 1132 1466T1168 1394Q1168 1339 1127 1309T1032 1279Z" />
<glyph unicode="&#xe5;" horiz-adv-x="1303" d="M513 -21Q396 -21 301 26T148 170T91 416Q91 557 138 677T269 888T469 1028T721 1079Q828 1079 912 1038T1045 916T1094 718Q1094 689 1090 648T1077 578L968 577Q973 593 975 619T978 662Q978 737 945 787T856
863T732 889Q636 889 560 856T431 761T349 619T320 441Q320 347 354 287T447 198T581 169Q661 169 737 204T869 309T947 476L1066 467Q1032 306 948 197T751 34T513 -21ZM1062 0H845L1070 1062H1287L1062 0ZM823 1247Q867 1247 898 1278T929 1354Q929 1398 898
1429T823 1460Q778 1460 747 1429T716 1354Q716 1309 747 1278T823 1247ZM823 1149Q766 1149 720 1176T646 1250T618 1354Q618 1410 645 1456T719 1531T823 1559Q879 1559 925 1531T1000 1457T1028 1354Q1028 1297 1000 1251T926 1177T823 1149Z" />
<glyph unicode="&#xe6;" horiz-adv-x="2135" d="M464 -21Q268 -21 159 56T50 269Q50 366 95 431T216 537T389 594T590 612Q728 612 807 614T922 629T964 669Q969 694 971 713T974 745Q974 824 906 863T725 903Q636 903 562 881T438 814T373 700H159Q185 822 271
906T483 1035T753 1079Q895 1079 1003 1028T1150 873Q1154 866 1157 857T1162 839L1094 849Q1187 954 1317 1016T1598 1079Q1740 1079 1841 1026T1995 878T2049 659Q2049 613 2039 552T2017 454H1038L1141 525Q1138 498 1136 472T1134 420Q1134 337 1166 278T1262
185T1418 152Q1495 152 1555 170T1659 216T1728 275T1764 334H1978Q1959 275 1911 212T1788 96T1612 11T1387 -22Q1275 -22 1186 11T1036 107T947 255L1011 258Q952 153 862 92T669 5T464 -21ZM495 158Q557 158 624 173T752 229T862 341T935 529Q937 539 938 548T941
567L976 484Q902 467 802 462T594 457Q503 457 430 447T314 402T271 298Q271 226 332 192T495 158ZM1173 622H1836Q1838 631 1838 642T1838 668Q1838 733 1810 787T1724 874T1576 907Q1482 907 1403 870T1265 769T1173 622Z" />
<glyph unicode="&#xe7;" horiz-adv-x="1265" d="M619 -106Q666 -106 706 -136T746 -229Q746 -298 707 -344T607 -413T476 -437Q438 -437 400 -431T333 -415T291 -395L348 -310Q362 -320 401 -335T491 -351Q554 -351 599 -321T645 -235Q645 -203 627 -190T578 -176Q554
-176 526 -185T483 -212L397 -186L490 -15H594L512 -166L488 -161Q500 -140 538 -123T619 -106ZM552 -21Q339 -21 216 98T93 426Q93 570 143 689T284 896T497 1031T763 1079Q908 1079 1004 1026T1149 889T1197 718Q1197 699 1196 685T1193 663H977Q978 668 978
674T979 688Q979 750 952 796T871 867T734 892Q638 892 561 858T427 762T342 618T312 437Q312 304 383 235T578 166Q681 166 750 196T861 278T920 390H1135Q1122 314 1077 240T958 108T781 14T552 -21Z" />
<glyph unicode="&#xe8;" horiz-adv-x="1298" d="M203 455L238 624H1020L989 574Q994 595 997 615T1001 670Q1001 734 973 786T887 868T737 899Q636 899 556 864T418 764T330 613T300 426Q300 343 330 284T422 192T582 160Q662 160 722 175T823 217T889 273T924
334H1141Q1125 269 1078 206T956 91T780 9T554 -22Q408 -22 305 34T146 191T91 424Q91 565 142 684T285 892T496 1030T756 1079Q900 1079 1001 1024T1155 871T1209 649Q1209 605 1200 548T1179 455H203ZM919 1222H759L496 1475H680L919 1222Z" />
<glyph unicode="&#xe9;" horiz-adv-x="1298" d="M203 455L238 624H1020L989 574Q994 595 997 615T1001 670Q1001 734 973 786T887 868T737 899Q636 899 556 864T418 764T330 613T300 426Q300 343 330 284T422 192T582 160Q662 160 722 175T823 217T889 273T924
334H1141Q1125 269 1078 206T956 91T780 9T554 -22Q408 -22 305 34T146 191T91 424Q91 565 142 684T285 892T496 1030T756 1079Q900 1079 1001 1024T1155 871T1209 649Q1209 605 1200 548T1179 455H203ZM663 1222L902 1475H1086L824 1222H663Z" />
<glyph unicode="&#xea;" horiz-adv-x="1298" d="M203 455L238 624H1020L989 574Q994 595 997 615T1001 670Q1001 734 973 786T887 868T737 899Q636 899 556 864T418 764T330 613T300 426Q300 343 330 284T422 192T582 160Q662 160 722 175T823 217T889 273T924
334H1141Q1125 269 1078 206T956 91T780 9T554 -22Q408 -22 305 34T146 191T91 424Q91 565 142 684T285 892T496 1030T756 1079Q900 1079 1001 1024T1155 871T1209 649Q1209 605 1200 548T1179 455H203ZM515 1222L762 1475H912L1107 1222H961L805 1433H866L664
1222H515Z" />
<glyph unicode="&#xeb;" horiz-adv-x="1298" d="M203 455L238 624H1020L989 574Q994 595 997 615T1001 670Q1001 734 973 786T887 868T737 899Q636 899 556 864T418 764T330 613T300 426Q300 343 330 284T422 192T582 160Q662 160 722 175T823 217T889 273T924
334H1141Q1125 269 1078 206T956 91T780 9T554 -22Q408 -22 305 34T146 191T91 424Q91 565 142 684T285 892T496 1030T756 1079Q900 1079 1001 1024T1155 871T1209 649Q1209 605 1200 548T1179 455H203ZM608 1279Q559 1279 524 1305T489 1376Q489 1431 530 1461T625
1491Q673 1491 708 1466T743 1394Q743 1339 702 1309T608 1279ZM1028 1279Q980 1279 945 1305T910 1376Q910 1431 951 1461T1045 1491Q1093 1491 1128 1466T1164 1394Q1164 1339 1123 1309T1028 1279Z" />
<glyph unicode="&#xec;" horiz-adv-x="510" d="M34 0L259 1062H474L249 0H34ZM523 1222H363L100 1475H284L523 1222Z" />
<glyph unicode="&#xed;" horiz-adv-x="510" d="M34 0L259 1062H474L249 0H34ZM267 1222L506 1475H690L428 1222H267Z" />
<glyph unicode="&#xee;" horiz-adv-x="510" d="M34 0L259 1062H474L249 0H34ZM119 1222L366 1475H516L711 1222H565L409 1433H470L268 1222H119Z" />
<glyph unicode="&#xef;" horiz-adv-x="510" d="M34 0L259 1062H474L249 0H34ZM531 1284Q483 1284 448 1310T413 1382Q413 1436 454 1466T548 1497Q597 1497 632 1471T667 1399Q667 1345 626 1315T531 1284ZM838 1284Q790 1284 755 1310T720 1382Q720 1436 761
1466T856 1497Q904 1497 939 1471T974 1399Q974 1345 933 1315T838 1284Z" />
<glyph unicode="&#xf0;" horiz-adv-x="1350" d="M577 1275L923 1561L1075 1481L731 1197L577 1275ZM1007 647Q1007 837 970 974T866 1206T707 1358T506 1447L626 1565Q797 1521 931 1405T1142 1099T1219 642L1007 647ZM557 -21Q413 -21 309 34T148 189T91 419Q91
561 141 682T282 891T493 1029T753 1079Q898 1079 1002 1023T1163 869T1219 642Q1219 496 1168 375T1026 164T814 27T557 -21ZM574 162Q664 162 741 195T877 291T967 438T999 625Q999 710 970 771T882 864T737 896Q643 896 566 861T431 764T343 619T311 437Q311
307 378 235T574 162Z" />
<glyph unicode="&#xf1;" horiz-adv-x="1247" d="M785 0L892 490Q911 575 920 627T930 720Q930 794 880 838T723 883Q642 883 568 843T440 735T368 579L278 625Q299 722 352 804T482 948T647 1044T828 1079Q985 1079 1072 1005T1160 797Q1160 740 1146 663T1105
469L1002 0H785ZM29 0L255 1062H472L246 0H29ZM1140 1453Q1136 1416 1113 1374T1048 1301T945 1270Q897 1270 866 1289T812 1328Q793 1345 771 1359T717 1373Q678 1373 661 1349T639 1295H519Q526 1334 551 1377T621 1450T725 1480Q772 1480 801 1462T852 1425Q873
1406 896 1391T947 1376Q985 1376 1001 1399T1022 1453H1140Z" />
<glyph unicode="&#xf2;" horiz-adv-x="1311" d="M557 -21Q413 -21 309 34T148 189T91 419Q91 561 141 682T282 891T493 1029T753 1079Q898 1079 1002 1023T1163 869T1219 642Q1219 496 1168 375T1025 164T814 27T557 -21ZM577 162Q697 162 792 220T943 383T999
625Q999 709 969 770T880 863T734 896Q641 896 564 861T431 764T343 619T312 437Q312 307 379 235T577 162ZM921 1222H761L498 1475H682L921 1222Z" />
<glyph unicode="&#xf3;" horiz-adv-x="1311" d="M557 -21Q413 -21 309 34T148 189T91 419Q91 561 141 682T282 891T493 1029T753 1079Q898 1079 1002 1023T1163 869T1219 642Q1219 496 1168 375T1025 164T814 27T557 -21ZM577 162Q697 162 792 220T943 383T999
625Q999 709 969 770T880 863T734 896Q641 896 564 861T431 764T343 619T312 437Q312 307 379 235T577 162ZM665 1222L904 1475H1088L826 1222H665Z" />
<glyph unicode="&#xf4;" horiz-adv-x="1311" d="M557 -21Q413 -21 309 34T148 189T91 419Q91 561 141 682T282 891T493 1029T753 1079Q898 1079 1002 1023T1163 869T1219 642Q1219 496 1168 375T1025 164T814 27T557 -21ZM577 162Q697 162 792 220T943 383T999
625Q999 709 969 770T880 863T734 896Q641 896 564 861T431 764T343 619T312 437Q312 307 379 235T577 162ZM517 1222L764 1475H914L1109 1222H963L807 1433H868L666 1222H517Z" />
<glyph unicode="&#xf5;" horiz-adv-x="1311" d="M557 -21Q413 -21 309 34T148 189T91 419Q91 561 141 682T282 891T493 1029T753 1079Q898 1079 1002 1023T1163 869T1219 642Q1219 496 1168 375T1025 164T814 27T557 -21ZM577 162Q697 162 792 220T943 383T999
625Q999 709 969 770T880 863T734 896Q641 896 564 861T431 764T343 619T312 437Q312 307 379 235T577 162ZM1133 1453Q1129 1416 1106 1374T1041 1301T938 1270Q890 1270 859 1289T805 1328Q786 1345 764 1359T710 1373Q671 1373 654 1349T632 1295H512Q519 1334
544 1377T614 1450T718 1480Q765 1480 794 1462T845 1425Q866 1406 889 1391T940 1376Q978 1376 994 1399T1015 1453H1133Z" />
<glyph unicode="&#xf6;" horiz-adv-x="1311" d="M557 -21Q413 -21 309 34T148 189T91 419Q91 561 141 682T282 891T493 1029T753 1079Q898 1079 1002 1023T1163 869T1219 642Q1219 496 1168 375T1025 164T814 27T557 -21ZM577 162Q697 162 792 220T943 383T999
625Q999 709 969 770T880 863T734 896Q641 896 564 861T431 764T343 619T312 437Q312 307 379 235T577 162ZM611 1279Q562 1279 527 1305T492 1376Q492 1431 533 1461T628 1491Q676 1491 711 1466T746 1394Q746 1339 705 1309T611 1279ZM1031 1279Q983 1279 948
1305T913 1376Q913 1431 954 1461T1048 1491Q1096 1491 1131 1466T1167 1394Q1167 1339 1126 1309T1031 1279Z" />
<glyph unicode="&#xf7;" horiz-adv-x="1225" d="M245 452L274 591H981L952 452H245ZM685 764Q643 764 615 791T586 859Q586 900 614 927T685 954Q728 954 756 927T784 859Q784 818 756 791T685 764ZM541 95Q498 95 470 122T442 189Q442 230 470 257T541 284Q583
284 610 257T638 189Q638 149 611 122T541 95Z" />
<glyph unicode="&#xf8;" horiz-adv-x="1311" d="M1167 1042L205 -52L121 18L1082 1113L1167 1042ZM557 -21Q413 -21 309 34T148 189T91 419Q91 561 141 682T282 891T493 1029T753 1079Q898 1079 1002 1023T1163 869T1219 642Q1219 496 1168 375T1025 164T814 27T557
-21ZM577 162Q697 162 792 220T943 383T999 625Q999 709 969 770T880 863T734 896Q641 896 564 861T431 764T343 619T312 437Q312 307 379 235T577 162Z" />
<glyph unicode="&#xf9;" horiz-adv-x="1216" d="M422 -19Q304 -19 235 22T135 131T104 275Q104 328 113 384T142 531L255 1062H473L368 570Q350 486 340 431T330 333Q330 263 373 218T513 173Q598 173 672 223T799 351T867 507L960 456Q941 364 893 279T772 127T611
20T422 -19ZM758 0L984 1062H1201L975 0H758ZM878 1222H718L455 1475H639L878 1222Z" />
<glyph unicode="&#xfa;" horiz-adv-x="1216" d="M422 -19Q304 -19 235 22T135 131T104 275Q104 328 113 384T142 531L255 1062H473L368 570Q350 486 340 431T330 333Q330 263 373 218T513 173Q598 173 672 223T799 351T867 507L960 456Q941 364 893 279T772 127T611
20T422 -19ZM758 0L984 1062H1201L975 0H758ZM623 1222L862 1475H1046L784 1222H623Z" />
<glyph unicode="&#xfb;" horiz-adv-x="1216" d="M422 -19Q304 -19 235 22T135 131T104 275Q104 328 113 384T142 531L255 1062H473L368 570Q350 486 340 431T330 333Q330 263 373 218T513 173Q598 173 672 223T799 351T867 507L960 456Q941 364 893 279T772 127T611
20T422 -19ZM758 0L984 1062H1201L975 0H758ZM475 1222L722 1475H872L1067 1222H921L765 1433H826L624 1222H475Z" />
<glyph unicode="&#xfc;" horiz-adv-x="1216" d="M422 -19Q304 -19 235 22T135 131T104 275Q104 328 113 384T142 531L255 1062H473L368 570Q350 486 340 431T330 333Q330 263 373 218T513 173Q598 173 672 223T799 351T867 507L960 456Q941 364 893 279T772 127T611
20T422 -19ZM758 0L984 1062H1201L975 0H758ZM568 1279Q519 1279 484 1305T449 1376Q449 1431 490 1461T585 1491Q633 1491 668 1466T703 1394Q703 1339 662 1309T568 1279ZM988 1279Q940 1279 905 1305T870 1376Q870 1431 911 1461T1005 1491Q1053 1491 1088 1466T1124
1394Q1124 1339 1083 1309T988 1279Z" />
<glyph unicode="&#xfd;" horiz-adv-x="1059" d="M-12 -452Q-55 -452 -92 -448T-137 -440L-98 -261Q-87 -268 -58 -272T5 -276Q64 -276 111 -250T196 -182T261 -89L306 -9L166 1062H387L475 162H442L898 1062H1128L505 -79Q447 -186 381 -270T221 -403T-12 -452ZM557
1222L796 1475H980L718 1222H557Z" />
<glyph unicode="&#xfe;" horiz-adv-x="1286" d="M596 -21Q489 -21 403 27T266 160T216 356Q216 385 220 418T230 472L348 475Q344 465 342 442T340 407Q340 339 372 287T460 206T583 176Q676 176 748 213T870 314T945 462T971 639Q971 766 908 827T735 889Q657
889 581 852T448 750T374 602L242 607Q272 746 356 852T557 1019T797 1079Q912 1079 1001 1029T1142 883T1193 648Q1193 511 1150 390T1027 176T838 32T596 -21ZM-64 -437L363 1563H580L154 -437H-64Z" />
<glyph unicode="&#xff;" horiz-adv-x="1059" d="M-12 -452Q-55 -452 -92 -448T-137 -440L-98 -261Q-87 -268 -58 -272T5 -276Q64 -276 111 -250T196 -182T261 -89L306 -9L166 1062H387L475 162H442L898 1062H1128L505 -79Q447 -186 381 -270T221 -403T-12 -452ZM503
1279Q454 1279 419 1305T384 1376Q384 1431 425 1461T520 1491Q568 1491 603 1466T638 1394Q638 1339 597 1309T503 1279ZM923 1279Q875 1279 840 1305T805 1376Q805 1431 846 1461T940 1491Q988 1491 1023 1466T1059 1394Q1059 1339 1018 1309T923 1279Z" />
<glyph unicode="&#x2013;" horiz-adv-x="1031" d="M73 498L101 634H901L874 498H73Z" />
<glyph unicode="&#x2014;" horiz-adv-x="1238" d="M73 498L101 634H1108L1079 498H73Z" />
<glyph unicode="&#x2018;" horiz-adv-x="491" d="M433 1319Q482 1319 510 1295T538 1226Q538 1157 490 1110T364 1063Q303 1063 272 1097T240 1188Q240 1266 283 1331T394 1446T538 1523L553 1466Q514 1452 472 1425T398 1364T357 1294Q362 1302 383 1310T433 1319Z" />
<glyph unicode="&#x2019;" horiz-adv-x="491" d="M366 1261Q316 1261 289 1286T261 1354Q261 1424 309 1470T434 1517Q494 1517 526 1483T559 1392Q559 1314 516 1249T404 1134T259 1057L244 1114Q285 1129 327 1156T401 1217T441 1286Q436 1279 415 1270T366 1261Z" />
<glyph unicode="&#x201a;" horiz-adv-x="491" d="M92 -27Q42 -27 15 -2T-13 66Q-13 136 35 182T160 229Q220 229 252 195T285 104Q285 26 242 -39T130 -154T-15 -231L-30 -174Q11 -159 53 -132T127 -71T167 -2Q162 -9 141 -18T92 -27Z" />
<glyph unicode="&#x201c;" horiz-adv-x="800" d="M647 1319Q696 1319 724 1295T752 1226Q752 1157 704 1110T578 1063Q517 1063 486 1097T454 1188Q454 1266 497 1331T608 1446T752 1523L767 1466Q728 1452 686 1425T612 1364T571 1294Q576 1302 597 1310T647
1319ZM757 1319Q806 1319 834 1295T862 1226Q862 1157 814 1110T688 1063Q627 1063 596 1097T564 1188Q564 1266 607 1331T718 1446T862 1523L877 1466Q838 1452 796 1425T722 1364T681 1294Q686 1302 707 1310T757 1319Z" />
<glyph unicode="&#x201d;" horiz-adv-x="800" d="M697 1252Q648 1252 620 1276T592 1344Q592 1414 640 1461T766 1508Q827 1508 859 1474T891 1383Q891 1305 848 1239T736 1124T591 1047L577 1104Q617 1119 659 1146T733 1207T773 1276Q768 1270 747 1261T697
1252ZM332 1252Q283 1252 255 1276T227 1344Q227 1414 275 1461T400 1508Q461 1508 492 1474T524 1383Q524 1305 481 1239T370 1124T226 1047L210 1104Q250 1119 292 1146T367 1207T407 1276Q402 1270 382 1261T332 1252Z" />
<glyph unicode="&#x201e;" horiz-adv-x="857" d="M455 -37Q406 -37 378 -13T350 55Q350 125 398 172T524 219Q585 219 617 185T649 94Q649 16 606 -50T494 -165T349 -242L335 -185Q375 -170 417 -143T491 -82T531 -13Q526 -19 505 -28T455 -37ZM90 -37Q41 -37
13 -13T-15 55Q-15 125 33 172T158 219Q219 219 250 185T282 94Q282 16 239 -50T128 -165T-16 -242L-32 -185Q8 -170 50 -143T125 -82T165 -13Q160 -19 140 -28T90 -37Z" />
<glyph unicode="&#x2022;" horiz-adv-x="753" d="M371 533Q319 533 277 558T209 625T184 720Q184 772 209 814T276 881T371 906Q422 906 464 881T531 814T557 720Q557 668 532 626T464 558T371 533Z" />
<glyph unicode="&#x2039;" horiz-adv-x="541" d="M576 885L174 565L438 251H311L47 565L442 885H576Z" />
<glyph unicode="&#x203a;" horiz-adv-x="541" d="M116 885H245L509 565L113 251H-19L381 569L116 885Z" />
</font>
</defs>
</svg>
