<?xml version="1.0" standalone="no"?>
<!DOCTYPE svg PUBLIC "-//W3C//DTD SVG 1.1//EN" "http://www.w3.org/Graphics/SVG/1.1/DTD/svg11.dtd">
<svg xmlns="http://www.w3.org/2000/svg">
<defs >
<font id="Epilogue" horiz-adv-x="1033" ><font-face
    font-family="Epilogue Light"
    units-per-em="2000"
    panose-1="0 0 0 0 0 0 0 0 0 0"
    ascent="1580"
    descent="-470"
    alphabetic="0" />
<glyph unicode=" " horiz-adv-x="500" />
<glyph unicode="!" horiz-adv-x="578" d="M496 1473L228 325H144L370 1473H496ZM140 -25Q98 -25 69 4T40 75Q40 117 69 146T140 175Q182 175 211 146T240 75Q240 33 211 4T140 -25Z" />
<glyph unicode="&quot;" horiz-adv-x="730" d="M454 1475L353 1089H276L339 1475H454ZM732 1475L631 1089H554L618 1475H732Z" />
<glyph unicode="#" horiz-adv-x="1676" d="M863 1475H980L302 0H186L863 1475ZM1377 1475H1493L816 0H700L1377 1475ZM268 997H1627L1589 914H233L268 997ZM90 560H1447L1410 476H53L90 560Z" />
<glyph unicode="$" horiz-adv-x="1055" d="M668 1475H757L444 0H354L668 1475ZM464 200Q377 200 307 217T186 267T108 345T80 448Q80 470 84 495T92 535H217Q213 523 211 504T208 471Q208 395 278 354T480 312Q568 312 648 333T780 402T832 526Q832 603 765 639T555
700Q456 716 377 746T252 829T206 962Q206 1046 245 1108T352 1213T503 1275T677 1296Q777 1296 860 1267T992 1183T1042 1048Q1042 1023 1039 1002T1032 965H908Q912 979 914 992T916 1025Q916 1082 881 1117T790 1168T665 1185Q581 1185 505 1163T379 1096T330
982Q330 902 403 866T603 804Q680 789 745 770T857 721T930 649T956 545Q956 454 915 389T804 282T646 220T464 200Z" />
<glyph unicode="%" horiz-adv-x="1163" d="M1314 1401L-41 58L-85 103L1270 1446L1314 1401ZM470 971Q404 971 345 999T249 1081T212 1211Q212 1288 249 1341T345 1423T470 1451Q537 1451 597 1423T694 1342T732 1211Q732 1135 695 1081T597 999T470 971ZM470
1030Q518 1030 563 1050T637 1111T666 1211Q666 1271 637 1311T563 1372T470 1393Q423 1393 379 1373T307 1312T279 1211Q279 1151 307 1111T379 1051T470 1030ZM785 28Q719 28 660 56T564 138T527 268Q527 345 564 398T660 480T785 509Q852 509 912 481T1009 399T1047
268Q1047 192 1010 139T912 57T785 28ZM785 87Q833 87 878 107T952 168T981 268Q981 328 952 368T878 429T785 450Q738 450 694 430T622 369T594 268Q594 209 622 169T694 108T785 87Z" />
<glyph unicode="&amp;" horiz-adv-x="1391" d="M443 -18Q306 -18 215 23T79 133T33 288Q33 415 109 513T312 696T587 860Q685 913 766 974T897 1107T946 1261Q946 1329 899 1366T778 1403Q743 1403 698 1390T611 1350T542 1275T514 1158Q514 1114 525 1070T562
972T633 841L1028 160Q1055 114 1078 99T1120 84Q1135 84 1148 87T1167 92L1147 0Q1143 -2 1128 -5T1090 -8Q1051 -8 1017 10T949 84L539 785Q479 888 442 972T405 1146Q405 1235 440 1300T533 1407T656 1469T786 1489Q914 1489 985 1432T1056 1276Q1056 1170 994
1080T836 915T632 782Q498 709 390 637T218 485T154 310Q154 248 188 194T289 107T458 74Q606 74 727 114T929 226Q1025 311 1084 428T1170 669H1277Q1244 516 1169 383T988 157Q897 78 761 30T443 -18Z" />
<glyph unicode="&apos;" horiz-adv-x="292" d="M410 1475L307 1089H227L289 1475H410Z" />
<glyph unicode="(" horiz-adv-x="742" d="M329 -467Q307 -446 270 -386T196 -232T133 -12T107 265Q107 481 157 688T297 1075T506 1395T761 1614L819 1540Q697 1463 589 1334T397 1037T265 675T216 274Q216 142 237 29T289 -171T352 -315T407 -396L329 -467Z" />
<glyph unicode=")" horiz-adv-x="742" d="M-55 -467L-108 -396Q35 -302 147 -152T337 180T455 555T495 925Q495 1059 474 1165T422 1349T359 1475T305 1543L387 1614Q410 1596 446 1543T519 1404T580 1197T605 924Q605 771 577 608T495 286T361 -16T177 -276T-55 -467Z" />
<glyph unicode="*" horiz-adv-x="929" d="M633 1209L755 1012L690 972L570 1184L359 972L303 1012L510 1209L290 1292L335 1351L549 1263L593 1486H667L617 1263L868 1351L888 1292L633 1209Z" />
<glyph unicode="+" horiz-adv-x="1163" d="M939 484H610L554 216H469L525 484H197L213 567H541L600 835H685L627 567H955L939 484Z" />
<glyph unicode="," horiz-adv-x="505" d="M3 -252L-12 -213Q25 -197 70 -160T149 -77T186 8Q187 14 186 19T184 30H221Q204 2 183 -11T133 -25Q91 -25 63 -5T34 59Q34 116 70 144T159 173Q207 173 236 146T266 66Q266 -1 224 -66T121 -180T3 -252Z" />
<glyph unicode="-" horiz-adv-x="954" d="M87 526L104 606H789L773 526H87Z" />
<glyph unicode="." horiz-adv-x="476" d="M141 -25Q99 -25 70 4T41 75Q41 117 70 146T141 175Q183 175 212 146T241 75Q241 33 212 4T141 -25Z" />
<glyph unicode="/" horiz-adv-x="881" d="M1007 1563L8 -155H-104L898 1563H1007Z" />
<glyph unicode="0" horiz-adv-x="1118" d="M431 -19Q321 -19 252 34T151 183T119 403Q119 547 146 699T226 993T354 1247T525 1425T735 1491Q846 1491 914 1437T1015 1286T1047 1064Q1047 920 1020 768T940 476T812 224T641 47T431 -19ZM446 90Q533 90 607 154T740
324T840 560T903 824T925 1075Q925 1223 875 1301T720 1380Q632 1380 558 1316T425 1145T325 908T262 643T240 392Q240 245 290 168T446 90Z" />
<glyph unicode="1" horiz-adv-x="746" d="M681 1481L366 0H242L527 1342Q517 1331 475 1314T370 1280T238 1255L262 1367Q331 1378 392 1397T498 1439T560 1481H681Z" />
<glyph unicode="2" horiz-adv-x="1104" d="M15 0L38 107Q55 164 103 228T219 360T361 492T504 609Q611 693 706 777T862 959T923 1178Q923 1275 872 1327T715 1380Q611 1380 539 1335T421 1209T354 1025H229Q259 1162 322 1267T487 1432T731 1491Q840 1491 910
1454T1013 1348T1047 1185Q1047 1045 984 935T821 732T609 553Q510 476 421 399T269 248T185 113H848L824 0H15Z" />
<glyph unicode="3" horiz-adv-x="1108" d="M765 773Q830 770 868 740T924 660T942 546Q942 430 908 328T808 148T653 26T450 -18Q334 -18 259 17T148 120T111 286Q111 344 118 387T130 445H255Q252 437 245 393T237 304Q237 186 297 139T465 91Q549 91 614 127T725
225T793 366T816 532Q816 584 799 627T735 696T601 722H544L566 824H622Q728 824 802 869T915 995T954 1180Q954 1282 899 1331T742 1381Q609 1381 516 1306T383 1050H258Q288 1186 351 1285T515 1438T753 1492Q867 1492 939 1454T1046 1347T1080 1188Q1080 1077
1043 985T935 835T765 773Z" />
<glyph unicode="4" horiz-adv-x="1078" d="M535 0L608 348H33L54 448L804 1481H972L753 458H959L936 348H730L657 0H535ZM157 392L123 458H632L830 1389L867 1382L157 392Z" />
<glyph unicode="5" horiz-adv-x="1105" d="M1066 1366H503L328 806Q333 818 356 842T419 891T517 934T646 952Q787 952 856 866T926 626Q926 496 893 380T795 174T633 33T412 -19Q300 -19 227 18T117 125T81 288Q81 331 86 366T93 409H217Q215 398 211 367T206
304Q206 192 263 141T427 90Q521 90 591 135T707 255T777 424T801 615Q801 728 754 785T612 843Q533 843 466 811T351 733T279 647L165 678L416 1475H1089L1066 1366Z" />
<glyph unicode="6" horiz-adv-x="1114" d="M441 -19Q285 -19 213 87T141 372Q141 483 158 608T210 859T297 1098T419 1300T574 1440T763 1491Q845 1491 897 1465T979 1397T1019 1305T1031 1207Q1031 1188 1029 1161T1023 1124H906Q908 1135 910 1156T912 1192Q912
1238 898 1281T848 1353T745 1381Q673 1381 607 1334T481 1191T371 954T282 621L225 615Q249 711 312 785T465 900T654 942Q756 942 822 898T920 777T952 598Q952 475 916 364T813 167T652 31T441 -19ZM457 90Q546 90 614 132T730 244T801 403T826 584Q826 694
779 763T629 833Q508 833 424 772T295 604T251 363Q251 244 302 167T457 90Z" />
<glyph unicode="7" horiz-adv-x="989" d="M928 1365V1363H265L288 1475H1103L1081 1368Q942 1281 837 1159T653 893T518 596T421 290T350 0H225Q266 185 322 381T459 763T655 1105T928 1365Z" />
<glyph unicode="8" horiz-adv-x="1186" d="M481 -19Q364 -19 282 21T156 136T113 312Q113 428 159 527T288 695T480 786Q433 797 393 827T327 911T302 1043Q302 1144 339 1226T443 1368T597 1459T786 1491Q887 1491 964 1454T1085 1348T1129 1183Q1129 1087 1089
1000T978 851T818 773Q873 760 917 728T988 641T1015 505Q1015 391 976 296T864 130T695 20T481 -19ZM497 90Q611 90 698 139T835 276T885 475Q885 588 820 656T631 725Q520 725 432 672T293 528T241 327Q241 209 312 150T497 90ZM654 832Q753 832 832 876T958
997T1005 1171Q1005 1280 937 1330T771 1380Q671 1380 592 1339T468 1224T422 1048Q422 950 481 891T654 832Z" />
<glyph unicode="9" horiz-adv-x="1103" d="M427 -18Q346 -18 294 7T211 73T168 163T155 260Q155 280 158 310T165 349H282Q280 341 277 314T273 269Q273 225 288 185T340 118T443 92Q515 92 582 139T708 282T817 519T906 852L964 858Q940 763 877 689T724 573T534
531Q433 531 367 575T269 696T237 875Q237 998 273 1109T376 1306T536 1442T747 1492Q902 1492 978 1391T1054 1114Q1054 1006 1035 881T979 628T888 386T764 179T610 35T427 -18ZM559 640Q676 640 761 705T892 878T938 1116Q938 1233 887 1308T731 1383Q643 1383
575 1341T459 1229T388 1070T363 889Q363 779 409 710T559 640Z" />
<glyph unicode=":" horiz-adv-x="477" d="M141 -25Q99 -25 70 4T41 75Q41 117 70 146T141 175Q183 175 212 146T241 75Q241 33 212 4T141 -25ZM317 801Q275 801 246 830T217 901Q217 943 246 972T317 1001Q359 1001 388 972T417 901Q417 859 388 830T317 801Z" />
<glyph unicode=";" horiz-adv-x="509" d="M7 2L-8 41Q29 57 74 94T153 177T190 262Q191 268 190 273T188 284H225Q208 256 187 243T137 229Q95 229 67 249T38 313Q38 370 74 398T163 427Q211 427 240 400T270 320Q270 253 228 188T125 74T7 2ZM324 801Q282 801
253 830T224 901Q224 943 253 972T324 1001Q366 1001 395 972T424 901Q424 859 395 830T324 801Z" />
<glyph unicode="&lt;" horiz-adv-x="1163" d="M770 44L249 482L270 580L978 1019L951 898L319 517L323 533L793 153L770 44Z" />
<glyph unicode="=" horiz-adv-x="1163" d="M955 653H259L276 735H972L955 653ZM885 324H188L205 406H902L885 324Z" />
<glyph unicode="&gt;" horiz-adv-x="1163" d="M375 1019L896 580L875 482L167 44L194 166L826 548L821 526L351 908L375 1019Z" />
<glyph unicode="?" horiz-adv-x="1092" d="M396 324Q418 428 463 503T566 636T682 745Q745 800 800 858T890 990T925 1163Q925 1274 867 1328T691 1382Q545 1382 451 1296T323 1050H211Q242 1194 310 1291T478 1437T700 1486Q803 1486 879 1451T996 1347T1038
1174Q1038 1052 999 968T897 820T765 699Q707 651 653 599T558 480T499 324H396ZM407 -25Q365 -25 336 4T307 75Q307 117 336 146T407 175Q449 175 478 146T507 75Q507 33 478 4T407 -25Z" />
<glyph unicode="@" horiz-adv-x="1919" d="M1423 127Q1333 83 1225 53T998 8T752 -7Q543 -7 399 60T181 250T106 535Q106 741 192 914T428 1215T773 1412T1186 1482Q1333 1482 1448 1444T1644 1338T1767 1179T1810 980Q1810 840 1760 718T1621 502T1412 356T1155
303Q1118 303 1083 310T1026 341T1003 412Q1003 414 1003 415T1004 418Q965 365 899 338T749 310Q669 310 617 340T539 426T513 554Q513 670 556 777T676 968T854 1101T1072 1150Q1143 1150 1200 1122T1258 1037L1301 1128H1392L1100 483Q1096 476 1093 465T1089
444Q1089 399 1120 387T1193 374Q1307 374 1402 423T1567 557T1675 751T1714 979Q1714 1110 1648 1207T1461 1358T1173 1412Q977 1412 802 1347T491 1163T279 886T202 538Q202 317 347 190T756 63Q867 63 973 77T1178 119T1365 189L1423 127ZM771 381Q860 381 925
419T1027 533Q1029 537 1045 574T1086 664T1135 772T1177 866T1198 913Q1205 929 1210 949T1215 984Q1215 1028 1177 1054T1068 1081Q974 1081 891 1036T745 914T645 747T609 563Q609 479 648 430T771 381Z" />
<glyph unicode="A" horiz-adv-x="1206" d="M-23 0L711 1480H902L1003 0H880L793 1395H795L112 0H-23ZM259 411L280 520H925L904 411H259Z" />
<glyph unicode="B" horiz-adv-x="1206" d="M809 1475Q930 1475 1009 1445T1127 1357T1166 1214Q1166 1116 1134 1037T1045 900T915 810T760 775Q840 773 903 740T1004 641T1042 473Q1042 324 974 218T781 56T488 0H39L353 1475H809ZM326 781L278 819H596Q728 819
827 860T981 982T1037 1184Q1037 1289 966 1334T763 1379H398L466 1434L326 781ZM485 96Q679 96 797 192T916 471Q916 570 875 625T760 702T590 724H258L321 758L169 41L125 96H485Z" />
<glyph unicode="C" horiz-adv-x="1265" d="M1164 500Q1145 413 1096 322T968 154T784 29T548 -19Q398 -19 302 48T161 233T115 505Q115 691 165 867T310 1184T540 1408T848 1491Q1002 1491 1096 1428T1232 1268T1275 1065Q1275 1039 1272 1015T1264 975H1140Q1143
989 1146 1015T1150 1064Q1150 1148 1117 1219T1014 1335T835 1379Q692 1379 582 1303T395 1100T280 819T241 506Q241 311 318 202T559 93Q655 93 736 129T879 225T983 357T1039 500H1164Z" />
<glyph unicode="D" horiz-adv-x="1224" d="M39 0L353 1475H685Q872 1475 983 1406T1143 1218T1192 955Q1192 735 1123 559T938 258T678 67T381 0H39ZM174 41L130 96H381Q505 96 626 156T847 328T1005 597T1065 947Q1065 1067 1027 1164T899 1320T657 1379H403L471
1434L174 41Z" />
<glyph unicode="E" horiz-adv-x="1080" d="M398 1366L469 1435L324 751L300 795H893L870 685H277L319 729L173 40L131 109H838L815 0H39L353 1475H1129L1106 1366H398Z" />
<glyph unicode="F" horiz-adv-x="1019" d="M397 1366L468 1435L321 743L288 784H883L860 675H265L315 717L163 0H39L353 1475H1119L1096 1366H397Z" />
<glyph unicode="G" horiz-adv-x="1331" d="M564 -19Q431 -19 330 47T172 235T115 520Q115 706 170 879T326 1191T569 1410T882 1491Q994 1491 1071 1457T1196 1365T1266 1238T1288 1099Q1288 1073 1285 1040T1276 988H1155Q1160 1006 1163 1037T1166 1090Q1166
1163 1137 1229T1042 1336T868 1378Q722 1378 606 1304T408 1106T283 830T240 520Q240 387 282 292T402 145T581 93Q707 93 798 140T946 253T1029 375L1072 578H688L710 682H1207L1062 0H966L998 175Q982 149 929 103T786 19T564 -19Z" />
<glyph unicode="H" horiz-adv-x="1254" d="M1302 1475L988 0H864L1022 741L1066 680H253L321 741L163 0H39L353 1475H477L317 727L273 790H1087L1019 727L1178 1475H1302Z" />
<glyph unicode="I" horiz-adv-x="456" d="M51 0L364 1475H487L174 0H51Z" />
<glyph unicode="J" horiz-adv-x="1067" d="M401 -19Q229 -19 146 68T62 301Q62 352 71 409T92 512H214Q203 462 196 415T188 321Q188 211 242 152T413 92Q562 92 651 195T780 485L991 1475H1114L902 470Q879 363 839 274T739 119T595 17T401 -19Z" />
<glyph unicode="K" horiz-adv-x="1120" d="M507 757L529 854L933 0H799L438 756L493 748L258 507L289 590L164 0H40L353 1475H478L302 649L271 674L1061 1475H1207L507 757Z" />
<glyph unicode="L" horiz-adv-x="965" d="M40 0L353 1475H477L172 40L131 109H781L757 0H40Z" />
<glyph unicode="M" horiz-adv-x="1569" d="M1380 1475H1596L1282 0H1164L1455 1370L1459 1368L761 0H581L464 1370L469 1371L177 0H59L373 1475H581L688 95H684L1380 1475Z" />
<glyph unicode="N" horiz-adv-x="1306" d="M160 0H39L353 1475H555L945 72L934 66L1234 1475H1355L1041 0H836L448 1401L459 1407L160 0Z" />
<glyph unicode="O" horiz-adv-x="1367" d="M575 -19Q435 -19 332 45T173 231T117 524Q117 709 171 882T324 1193T564 1411T876 1491Q1017 1491 1120 1428T1278 1245T1334 954Q1334 768 1280 594T1126 282T887 62T575 -19ZM588 93Q734 93 849 167T1044 366T1167
643T1210 951Q1210 1090 1167 1185T1047 1329T861 1379Q716 1379 601 1305T406 1107T283 833T241 525Q241 316 334 205T588 93Z" />
<glyph unicode="P" horiz-adv-x="1124" d="M163 0H39L353 1475H728Q879 1475 970 1425T1102 1291T1143 1106Q1143 976 1100 872T977 691T787 575T545 535H277L163 0ZM287 581L245 644H543Q688 644 795 702T961 865T1020 1107Q1020 1186 988 1243T885 1333T697
1366H398L468 1435L287 581Z" />
<glyph unicode="Q" horiz-adv-x="1367" d="M510 7L621 4Q621 -64 648 -109T716 -182T794 -223T855 -242L801 -329Q784 -326 750 -316T674 -285T596 -226T534 -132T510 7ZM575 -19Q435 -19 332 45T173 231T117 524Q117 709 171 882T324 1193T564 1411T876 1491Q1017
1491 1120 1428T1278 1245T1334 954Q1334 768 1280 594T1126 282T887 62T575 -19ZM588 93Q734 93 849 167T1044 366T1167 643T1210 951Q1210 1090 1167 1185T1047 1329T861 1379Q716 1379 601 1305T406 1107T283 833T241 525Q241 316 334 205T588 93Z" />
<glyph unicode="R" horiz-adv-x="1172" d="M39 0L353 1475H825Q996 1475 1078 1398T1161 1189Q1161 1111 1136 1030T1065 880T954 764T814 710Q859 706 898 688T963 631T989 531Q989 505 980 456T958 347T931 227T908 116T898 39Q898 25 899 15T903 0H778Q774
11 774 36Q774 61 783 108T805 212T830 326T852 430T861 502Q861 583 803 618T645 653H245L309 697L161 0H39ZM314 720L266 763H669Q771 763 852 817T982 960T1030 1152Q1030 1251 973 1308T788 1366H398L466 1434L314 720Z" />
<glyph unicode="S" horiz-adv-x="1123" d="M452 -19Q328 -19 238 16T101 120T53 293Q53 342 60 385T82 486H206Q192 428 186 390T180 312Q180 196 252 145T462 93Q581 93 673 128T819 235T872 414Q872 516 794 581T580 692Q475 729 395 779T270 899T225 1063Q225
1167 264 1246T375 1380T540 1463T745 1491Q868 1491 957 1458T1095 1358T1143 1190Q1143 1146 1136 1101T1117 1001H992Q1005 1055 1011 1094T1017 1172Q1017 1285 943 1332T733 1379Q622 1379 535 1348T399 1251T349 1085Q349 971 433 906T659 791Q766 754 841
705T956 589T996 434Q996 290 925 189T731 34T452 -19Z" />
<glyph unicode="T" horiz-adv-x="1095" d="M1182 1366H731L801 1435L497 0H373L678 1435L719 1366H269L292 1475H1206L1182 1366Z" />
<glyph unicode="U" horiz-adv-x="1290" d="M1141 548Q1080 258 924 120T544 -19Q347 -19 244 73T140 356Q140 438 155 525T200 756L356 1475H480L324 750Q303 655 290 589T271 473T265 370Q265 220 337 157T551 93Q729 93 848 201T1019 553L1214 1475H1338L1141 548Z" />
<glyph unicode="V" horiz-adv-x="1179" d="M389 -10L291 1475H425L502 87H492L1151 1475H1291L567 -10H389Z" />
<glyph unicode="W" horiz-adv-x="1679" d="M232 0L293 1475H418L342 59L322 60L952 1475H1115L1141 60L1121 59L1649 1475H1782L1214 0H1026L1006 1365H1023L420 0H232Z" />
<glyph unicode="X" horiz-adv-x="1151" d="M593 781L586 686L293 1475H425L677 772L589 766L1133 1475H1279L660 679L680 787L973 0H841L585 701L664 694L108 0H-40L593 781Z" />
<glyph unicode="Y" horiz-adv-x="1111" d="M1222 1475L614 514L504 0H381L490 514L291 1475H419L593 595H539L1087 1475H1222Z" />
<glyph unicode="Z" horiz-adv-x="1091" d="M170 109H876L852 0H0L21 99L1008 1367L1010 1366H337L360 1475H1176L1156 1379L171 111L170 109Z" />
<glyph unicode="[" horiz-adv-x="784" d="M838 1626L818 1534H524L125 -345H419L400 -437H-8L430 1626H838Z" />
<glyph unicode="\" horiz-adv-x="1001" d="M264 1563H371L726 -155H621L264 1563Z" />
<glyph unicode="]" horiz-adv-x="784" d="M366 1626H773L335 -436H-73L-53 -344H242L641 1534H346L366 1626Z" />
<glyph unicode="^" horiz-adv-x="1163" d="M169 919L737 1533H835L1144 919H1034L770 1470H786L289 919H169Z" />
<glyph unicode="_" horiz-adv-x="1379" d="M-108 -196L-91 -111H1148L1131 -196H-108Z" />
<glyph unicode="`" horiz-adv-x="646" d="M660 1242H553L300 1475H430L660 1242Z" />
<glyph unicode="a" horiz-adv-x="1286" d="M531 -19Q416 -19 322 28T173 172T117 412Q117 553 164 673T295 885T495 1026T747 1077Q856 1077 938 1037T1067 920T1114 735Q1114 704 1110 670T1099 608H1022Q1028 628 1031 653T1034 701Q1034 782 997 841T895 933T745
965Q630 965 539 924T382 808T282 636T247 424Q247 314 287 240T399 130T559 93Q660 93 749 136T901 258T986 440L1073 435Q1043 290 963 189T772 34T531 -19ZM1017 0H892L1117 1062H1242L1017 0Z" />
<glyph unicode="b" horiz-adv-x="1250" d="M552 -19Q445 -19 360 27T227 153T178 337Q178 365 181 391T190 436L274 438Q271 426 269 406T266 367Q266 291 303 230T405 134T552 98Q660 98 744 142T887 265T976 443T1006 654Q1006 806 937 885T736 964Q643 964
554 919T400 799T315 633L219 636Q246 762 330 862T529 1019T767 1077Q938 1077 1035 968T1133 659Q1133 521 1092 399T973 182T789 35T552 -19ZM57 0L390 1563H514L182 0H57Z" />
<glyph unicode="c" horiz-adv-x="1257" d="M548 -19Q353 -19 235 96T117 420Q117 560 166 679T303 888T509 1027T764 1077Q899 1077 989 1027T1123 899T1168 741Q1168 725 1167 711T1164 690H1041Q1042 696 1043 704T1044 722Q1044 796 1009 850T907 934T748 964Q636
964 543 923T383 809T279 639T242 426Q242 262 329 178T563 94Q684 94 769 133T905 234T973 363H1096Q1083 293 1041 225T928 102T763 14T548 -19Z" />
<glyph unicode="d" horiz-adv-x="1239" d="M483 -19Q313 -19 214 90T115 396Q115 534 156 657T274 874T458 1022T696 1076Q804 1076 888 1031T1022 907T1071 725Q1071 698 1067 669T1058 622L973 620Q978 637 980 658T983 695Q983 771 946 832T844 928T697 963Q588
963 504 919T361 797T273 619T242 407Q242 258 313 178T516 98Q615 98 702 144T852 266T934 436L1032 434Q1005 308 925 205T730 42T483 -19ZM841 0L1173 1563H1297L965 0H841Z" />
<glyph unicode="e" horiz-adv-x="1288" d="M184 479L208 590H1068L1043 555Q1048 576 1052 604T1056 667Q1056 750 1023 817T921 925T748 965Q635 965 542 923T380 807T274 634T236 421Q236 324 271 250T380 135T564 94Q657 94 729 116T853 176T936 254T980 333H1105Q1090
274 1046 213T929 98T761 13T546 -20Q410 -20 314 35T167 189T116 417Q116 556 165 675T303 885T509 1026T760 1077Q894 1077 986 1022T1127 871T1175 657Q1175 615 1168 565T1150 479H184Z" />
<glyph unicode="f" horiz-adv-x="781" d="M174 0L376 953H142L165 1062H400L431 1209Q448 1290 483 1358T570 1475T690 1551T843 1578Q886 1578 912 1573T948 1562L925 1453Q913 1457 888 1462T831 1467Q738 1467 682 1427T596 1324T551 1189L523 1062H836L813
953H500L297 0H174Z" />
<glyph unicode="g" horiz-adv-x="1284" d="M458 -450Q381 -450 304 -434T163 -383T60 -296T21 -168Q21 -147 24 -129T32 -90H156Q152 -108 150 -121T148 -147Q148 -215 192 -259T309 -324T464 -346Q562 -346 649 -313T800 -200T895 20L1117 1062H1241L1020 20Q992
-112 937 -202T807 -347T643 -425T458 -450ZM537 -19Q423 -19 327 28T174 170T116 410Q116 550 163 670T295 882T496 1025T746 1077Q855 1077 939 1037T1071 920T1119 735Q1119 708 1115 670T1103 608H1021Q1026 625 1029 653T1033 701Q1033 782 996 841T894 933T744
965Q631 965 539 923T382 805T281 631T245 419Q245 309 286 237T399 129T559 93Q657 93 746 136T899 258T986 440L1073 435Q1043 291 964 190T774 35T537 -19Z" />
<glyph unicode="h" horiz-adv-x="1219" d="M821 0L921 454Q937 520 947 575T964 677T970 760Q970 800 957 836T916 899T842 943T733 960Q632 960 544 918T397 807T318 653L235 677Q258 784 337 875T531 1021T777 1077Q861 1077 922 1054T1023 992T1080 901T1099
791Q1099 729 1085 648T1042 443L944 0H821ZM57 0L389 1563H513L181 0H57Z" />
<glyph unicode="i" horiz-adv-x="483" d="M66 0L291 1062H414L189 0H66ZM424 1330Q387 1330 361 1351T334 1408Q334 1435 347 1454T384 1484T433 1495Q470 1495 496 1474T522 1418Q522 1391 509 1372T473 1341T424 1330Z" />
<glyph unicode="j" horiz-adv-x="511" d="M-217 -443Q-248 -443 -269 -439T-302 -429L-277 -337Q-264 -341 -246 -345T-198 -349Q-108 -349 -54 -309T28 -209T68 -91L314 1062H438L191 -100Q177 -165 152 -226T80 -336T-38 -414T-217 -443ZM445 1330Q408 1330
382 1351T355 1408Q355 1435 368 1454T405 1484T454 1495Q491 1495 517 1474T544 1418Q544 1391 530 1372T494 1341T445 1330Z" />
<glyph unicode="k" horiz-adv-x="1030" d="M57 0L389 1563H507L299 584L256 606L897 1062H1076L465 619L507 682L846 0H717L420 608L440 600L256 465L288 527L175 0H57Z" />
<glyph unicode="l" horiz-adv-x="479" d="M527 1563L195 0H72L404 1563H527Z" />
<glyph unicode="m" horiz-adv-x="1753" d="M707 0L821 530Q843 628 854 690T865 790Q865 833 850 871T796 935T683 960Q598 960 534 927T424 840T350 727T311 614L243 644Q268 758 335 857T501 1016T722 1077Q816 1077 876 1047T965 960T994 826Q994 795 988 752T970
651T941 519L830 0H707ZM57 0L283 1062H407L181 0H57ZM1355 0L1473 529Q1490 608 1498 657T1510 737T1513 794Q1513 836 1499 873T1444 935T1326 960Q1241 960 1177 927T1069 843T1000 735T964 632L896 659Q919 767 983 862T1145 1017T1366 1077Q1457 1077 1519
1048T1612 963T1643 827Q1643 793 1638 752T1623 656T1596 526L1478 0H1355Z" />
<glyph unicode="n" horiz-adv-x="1217" d="M821 0L943 567Q959 643 966 687T974 769Q974 858 912 909T729 960Q640 960 552 916T398 795T313 624L239 652Q259 744 312 821T441 956T603 1045T776 1077Q927 1077 1016 1007T1105 808Q1105 759 1094 698T1065 557L944
0H821ZM57 0L283 1062H407L181 0H57Z" />
<glyph unicode="o" horiz-adv-x="1308" d="M554 -19Q418 -19 320 35T169 187T116 413Q116 553 164 674T299 885T502 1026T755 1077Q892 1077 989 1021T1139 869T1191 650Q1191 502 1142 380T1005 168T803 30T554 -19ZM563 92Q704 92 817 160T998 351T1065 637Q1065
737 1028 810T921 925T747 966Q637 966 545 925T385 809T280 637T242 425Q242 271 325 182T563 92Z" />
<glyph unicode="p" horiz-adv-x="1250" d="M-35 -437L283 1062H407L88 -437H-35ZM552 -19Q445 -19 360 27T227 153T178 337Q178 371 182 399T189 436L274 438Q271 428 268 406T265 367Q265 291 302 230T405 134T552 98Q660 98 744 142T887 265T976 443T1006 654Q1006
806 937 885T736 964Q643 964 554 919T400 799T315 633L219 636Q246 762 330 862T529 1019T767 1077Q938 1077 1035 968T1133 659Q1133 521 1092 399T973 182T789 35T552 -19Z" />
<glyph unicode="q" horiz-adv-x="1239" d="M483 -19Q313 -19 214 90T115 396Q115 534 156 657T274 875T458 1023T696 1077Q804 1077 888 1032T1022 908T1071 725Q1071 698 1067 668T1058 622L973 620Q978 637 980 658T983 695Q983 771 946 832T844 928T697 964Q588
964 504 919T361 797T273 619T242 407Q242 258 313 178T516 98Q615 98 702 144T852 266T934 436L1032 434Q1006 308 925 206T729 42T483 -19ZM748 -437L1067 1062H1190L872 -437H748Z" />
<glyph unicode="r" horiz-adv-x="790" d="M58 0L283 1062H407L341 749L294 763Q311 813 346 867T434 970T557 1047T716 1077Q779 1077 817 1066T864 1049L805 929Q796 936 768 947T681 958Q597 958 533 926T424 841T352 730T313 618L181 0H58Z" />
<glyph unicode="s" horiz-adv-x="1119" d="M451 -19Q364 -19 294 -2T173 48T95 126T67 229Q67 251 71 276T79 316H204Q200 304 198 285T195 252Q195 176 265 135T467 93Q555 93 635 114T767 183T819 307Q819 384 752 420T542 481Q443 497 364 527T239 610T193
743Q193 827 232 889T339 994T490 1056T664 1077Q764 1077 847 1048T979 964T1029 829Q1029 804 1026 783T1019 746H895Q899 760 901 773T903 806Q903 863 868 898T777 949T652 966Q568 966 492 944T366 877T317 763Q317 683 390 647T590 585Q667 570 732 551T844
502T917 430T943 326Q943 235 902 170T791 63T633 1T451 -19Z" />
<glyph unicode="t" horiz-adv-x="836" d="M431 -16Q393 -16 358 -9T296 18T253 70T237 153Q237 188 244 230T265 331L397 953H142L165 1062H354Q379 1062 393 1065T415 1076T428 1103T440 1151L494 1405H618L545 1062H885L862 953H522L398 372Q384 307 376 263T368
188Q368 144 387 119T454 93Q484 93 515 98T562 110L540 1Q523 -5 495 -10T431 -16Z" />
<glyph unicode="u" horiz-adv-x="1183" d="M442 -18Q328 -18 260 22T161 127T130 264Q130 315 139 369T165 506L283 1062H408L293 520Q276 442 267 388T258 290Q258 207 310 152T478 96Q576 96 662 150T809 287T888 459L965 428Q948 348 902 270T787 126T631 21T442
-18ZM790 0L1016 1062H1139L914 0H790Z" />
<glyph unicode="v" horiz-adv-x="1050" d="M1091 1062L494 0H336L184 1062H312L437 73H417L957 1062H1091Z" />
<glyph unicode="w" horiz-adv-x="1495" d="M900 0L817 1062H924L1005 60H982L1402 1062H1535L1070 0H900ZM200 0L184 1062H309L305 60H281L786 1062H902L371 0H200Z" />
<glyph unicode="x" horiz-adv-x="1055" d="M489 571L464 522L189 1062H324L577 560L508 591L936 1062H1078L553 496L585 554L861 0H725L470 510L532 475L85 0H-56L489 571Z" />
<glyph unicode="y" horiz-adv-x="1018" d="M-29 -444Q-66 -444 -97 -440T-134 -432L-111 -321Q-100 -328 -72 -332T-16 -337Q53 -337 106 -303T201 -217T272 -110L331 -3L187 1062H313L434 112H412L925 1062H1058L410 -105Q362 -192 305 -269T167 -395T-29 -444Z" />
<glyph unicode="z" horiz-adv-x="973" d="M146 113H798L774 0H-23L1 109L822 952L823 949H211L235 1062H989L966 953L148 112L146 113Z" />
<glyph unicode="{" horiz-adv-x="801" d="M884 1517Q816 1517 757 1489T656 1407T599 1278L501 821Q485 745 456 694T380 612T269 570L270 576Q313 566 344 548T393 499T410 425Q410 383 392 297T350 113Q326 13 307 -81T287 -221Q287 -300 341 -336T482 -373L462
-467Q381 -467 313 -447T204 -381T163 -258Q163 -206 184 -107T229 94Q253 190 270 274T288 399Q288 452 262 481T173 531L191 613Q255 633 293 659T353 728T390 841L489 1309Q511 1412 572 1479T720 1579T904 1612L884 1517Z" />
<glyph unicode="|" horiz-adv-x="568" d="M15 -280L406 1554H507L115 -280H15Z" />
<glyph unicode="}" horiz-adv-x="801" d="M349 1517L369 1612Q452 1612 518 1587T624 1511T663 1381Q663 1345 645 1256T604 1067Q581 966 562 875T542 746Q542 693 569 664T658 613L640 531Q576 512 538 486T478 417T441 304L335 -191Q313 -294 253 -354T107
-440T-73 -467L-53 -373Q49 -373 125 -323T227 -159L329 323Q345 399 375 450T451 533T562 576L561 570Q518 581 487 599T438 646T420 720Q420 753 438 840T479 1027Q502 1128 520 1218T539 1344Q539 1426 487 1471T349 1517Z" />
<glyph unicode="~" horiz-adv-x="1163" d="M895 720Q891 696 874 664T822 607T734 582Q691 582 661 599T608 637Q589 653 567 667T512 681Q468 681 450 657T428 610H349Q354 638 375 670T432 727T520 751Q564 751 591 735T640 699Q661 680 685 666T738 652Q783
652 798 675T818 720H895Z" />
<glyph unicode="&#xa0;" horiz-adv-x="500" />
<glyph unicode="&#xa1;" horiz-adv-x="578" d="M35 -419L304 729H388L162 -419H35ZM392 1079Q434 1079 463 1050T492 979Q492 938 463 909T392 879Q350 879 321 908T292 979Q292 1021 321 1050T392 1079Z" />
<glyph unicode="&#xa2;" horiz-adv-x="1257" d="M813 1475H882L568 0H499L813 1475ZM593 193Q398 193 280 308T162 632Q162 772 211 891T348 1100T554 1239T809 1289Q944 1289 1034 1239T1168 1111T1213 953Q1213 937 1212 923T1209 902H1086Q1087 908 1088 916T1089
934Q1089 1008 1054 1062T952 1146T793 1176Q681 1176 588 1135T428 1021T324 851T287 638Q287 474 374 390T608 306Q729 306 814 345T950 446T1018 575H1141Q1128 505 1086 437T973 314T808 226T593 193Z" />
<glyph unicode="&#xa3;" horiz-adv-x="1059" d="M28 603L45 683H730L714 603H28ZM971 1201Q961 1252 932 1297T848 1370T705 1399Q595 1399 511 1349T379 1209T332 1004Q332 942 343 884T366 763T378 619Q378 523 354 427T281 243T162 89T-3 -17L-41 58Q34 88
91 145T187 276T247 431T268 589Q268 665 256 729T232 858T220 995Q220 1143 281 1254T452 1428T705 1491Q795 1491 858 1470T962 1414T1026 1337T1060 1253L971 1201ZM832 16Q811 6 752 -10T620 -26Q546 -26 492 -7T386 30T265 49Q207 49 151 36T54 6T-3 -17L12
17Q23 22 44 36T95 68T160 104T235 133T316 145Q370 145 409 134T481 108T551 82T639 71Q695 71 742 85T807 107L832 16Z" />
<glyph unicode="&#xa4;" horiz-adv-x="1307" d="M1392 1291L1443 1226L1179 1009L1128 1074L1392 1291ZM1152 112L980 330L1050 386L1221 169L1152 112ZM297 1291L469 1074L399 1017L227 1234L297 1291ZM53 104L0 171L266 390L317 322L53 104ZM626 152Q490 152
392 206T241 358T188 584Q188 724 236 845T371 1056T574 1197T827 1248Q964 1248 1061 1192T1210 1040T1262 821Q1262 673 1213 551T1077 339T874 201T626 152ZM635 263Q776 263 889 331T1069 522T1136 808Q1136 908 1100 981T993 1096T818 1137Q708 1137 616 1096T457
980T352 808T314 596Q314 442 397 353T635 263Z" />
<glyph unicode="&#xa5;" horiz-adv-x="1111" d="M165 509L186 590H936L915 509H165ZM113 281L134 362H884L864 281H113ZM1222 1475L614 514L504 0H381L490 514L291 1475H419L593 595H539L1087 1475H1222Z" />
<glyph unicode="&#xa6;" horiz-adv-x="568" d="M21 -258L183 507H284L122 -258H21ZM244 791L406 1554H507L345 791H244Z" />
<glyph unicode="&#xa7;" horiz-adv-x="1289" d="M755 201L672 236Q750 258 822 304T941 414T987 556Q987 623 945 672T835 762T686 840Q600 881 519 926T387 1027T335 1155Q335 1259 399 1333T564 1446T780 1486Q929 1486 1025 1430T1121 1256Q1121 1237 1117
1210T1108 1162H999Q1004 1184 1008 1209T1012 1251Q1012 1305 988 1337T927 1387T848 1410T771 1416Q686 1416 612 1385T491 1298T445 1166Q445 1109 484 1066T588 987T725 918Q813 878 895 832T1031 724T1085 577Q1085 487 1039 413T918 284T755 201ZM447 -304Q298
-304 202 -248T105 -73Q105 -54 109 -27T119 21H227Q222 -1 218 -27T214 -69Q214 -123 238 -155T300 -205T379 -228T455 -234Q541 -234 615 -203T736 -116T782 15Q782 74 742 118T638 197T501 265Q413 304 331 350T195 458T142 606Q142 695 188 769T309 898T472
981L554 946Q476 925 404 879T285 769T239 627Q239 560 281 510T391 420T541 342Q628 302 708 257T840 156T891 25Q891 -77 829 -151T667 -264T447 -304Z" />
<glyph unicode="&#xa8;" horiz-adv-x="707" d="M360 1329Q325 1329 300 1350T275 1404Q275 1441 303 1464T369 1487Q403 1487 428 1467T453 1412Q453 1375 425 1352T360 1329ZM718 1329Q684 1329 659 1350T634 1404Q634 1441 662 1464T727 1487Q761 1487 786 1467T812
1412Q812 1375 784 1352T718 1329Z" />
<glyph unicode="&#xa9;" horiz-adv-x="1772" d="M787 28Q610 28 476 94T268 282T193 573Q193 756 261 915T450 1194T732 1383T1075 1451Q1252 1451 1385 1385T1593 1198T1668 907Q1668 726 1600 567T1411 287T1130 97T787 28ZM792 83Q961 83 1109 147T1369 325T1544
585T1608 899Q1608 1053 1541 1164T1352 1336T1071 1397Q902 1397 754 1334T493 1158T317 898T253 584Q253 429 320 317T509 144T792 83ZM841 262Q739 262 661 301T540 419T496 611Q496 737 533 847T640 1040T808 1172T1029 1220Q1123 1220 1185 1190T1284 1113T1335
1017T1351 931Q1351 912 1350 900T1344 873H1248Q1250 880 1252 892T1254 921Q1254 947 1244 984T1208 1057T1136 1117T1018 1142Q884 1142 789 1068T643 874T592 615Q592 480 662 410T849 340Q936 340 1008 379T1129 481T1193 609H1289Q1267 513 1202 435T1044
309T841 262Z" />
<glyph unicode="&#xaa;" horiz-adv-x="652" d="M649 1017H584Q584 1035 586 1061T593 1111L640 1323Q641 1329 644 1343T647 1363Q647 1398 620 1416T528 1434Q453 1434 407 1407T349 1327H289Q305 1404 369 1446T533 1488Q612 1488 660 1459T709 1371Q709 1362
707 1348T703 1323L655 1086Q651 1069 650 1050T649 1017ZM402 1010Q323 1010 279 1040T234 1124Q234 1175 265 1206T348 1254T464 1281Q571 1297 605 1309T644 1340L685 1310Q678 1290 619 1269T465 1232Q388 1220 344 1200T300 1129Q300 1096 331 1081T419 1065Q459
1065 500 1080T573 1124T612 1190L651 1169Q636 1097 564 1054T402 1010Z" />
<glyph unicode="&#xab;" horiz-adv-x="725" d="M511 885L120 565L375 251H295L42 565L429 885H511ZM765 885L375 565L626 251H548L295 565L682 885H765Z" />
<glyph unicode="&#xac;" horiz-adv-x="1163" d="M790 351L858 672L903 615H231L248 696H944L870 351H790Z" />
<glyph unicode="&#xad;" horiz-adv-x="753" d="M87 526L105 606H589L572 526H87Z" />
<glyph unicode="&#xae;" horiz-adv-x="1238" d="M606 494Q479 494 383 542T233 677T179 882Q179 1007 228 1116T363 1308T563 1437T804 1484Q931 1484 1027 1436T1176 1302T1230 1097Q1230 972 1182 863T1047 671T847 541T606 494ZM610 541Q730 541 833 584T1013
704T1133 882T1177 1098Q1177 1256 1075 1346T800 1436Q681 1436 578 1393T398 1274T276 1097T232 881Q232 723 335 632T610 541ZM451 690L581 1303H783Q868 1303 913 1277T959 1189Q959 1110 911 1056T781 997Q835 993 858 972T881 913Q881 892 872 853T854 775T845
709Q845 693 848 690H789Q789 692 789 696T788 710Q788 736 796 771T812 840T820 894Q820 932 800 947T748 966T680 970H569L510 690H451ZM579 1019H693Q787 1019 844 1059T902 1178Q902 1224 871 1240T785 1257H630L579 1019Z" />
<glyph unicode="&#xaf;" horiz-adv-x="750" d="M300 1328L314 1388H797L783 1328H300Z" />
<glyph unicode="&#xb0;" horiz-adv-x="669" d="M453 1207Q502 1207 550 1246T598 1351Q598 1385 575 1414T503 1443Q452 1443 405 1403T357 1301Q357 1265 380 1236T453 1207ZM445 1144Q370 1144 331 1188T292 1292Q292 1353 325 1401T408 1477T511 1506Q585 1506
624 1461T663 1358Q663 1296 630 1248T546 1172T445 1144Z" />
<glyph unicode="&#xb1;" horiz-adv-x="1163" d="M147 211L164 294H888L871 211H147ZM977 664H648L592 397H507L563 664H235L251 748H579L638 1016H723L665 748H993L977 664Z" />
<glyph unicode="&#xb2;" horiz-adv-x="870" d="M122 590L141 680Q154 722 205 771T327 870T469 960Q541 1003 611 1050T729 1155T777 1281Q777 1339 736 1370T612 1401Q495 1401 435 1342T356 1195H248Q276 1325 368 1405T625 1486Q755 1486 820 1434T885 1293Q885
1206 836 1141T713 1023T560 925Q496 886 434 842T329 755T275 671H769L752 590H122Z" />
<glyph unicode="&#xb3;" horiz-adv-x="874" d="M679 1056Q762 1054 794 1014T827 916Q827 817 780 740T650 620T462 577Q366 577 305 602T215 673T186 782Q186 812 190 834T196 864H304Q302 857 299 840T295 796Q295 722 342 692T474 661Q548 661 603 694T689
784T721 909Q721 954 685 985T556 1016H516L531 1089H571Q637 1089 688 1112T770 1177T801 1278Q801 1340 757 1371T633 1402Q535 1402 468 1358T378 1214H270Q288 1294 334 1355T458 1451T643 1486Q734 1486 793 1462T881 1397T910 1299Q910 1197 847 1128T679
1056Z" />
<glyph unicode="&#xb4;" horiz-adv-x="601" d="M274 1242L503 1475H634L380 1242H274Z" />
<glyph unicode="&#xb5;" horiz-adv-x="1136" d="M745 0L970 1062H1094L869 0H745ZM835 419L878 388Q863 317 824 245T724 114T586 18T414 -18Q302 -18 254 27T194 137L73 -437H-52L266 1062H391L253 415Q247 383 243 349T238 284Q238 202 279 144T433 86Q531 86
615 132T758 255T835 419Z" />
<glyph unicode="&#xb6;" horiz-adv-x="1101" d="M486 -170L654 614H634Q484 614 399 665T277 799T241 974Q241 1132 313 1243T514 1414T811 1473H1149L799 -170H706L1039 1392H910L577 -170H486Z" />
<glyph unicode="&#xb7;" horiz-adv-x="476" d="M282 637Q240 637 211 666T182 737Q182 778 211 807T282 837Q324 837 353 808T382 737Q382 695 353 666T282 637Z" />
<glyph unicode="&#xb8;" horiz-adv-x="805" d="M299 -114Q344 -114 380 -142T416 -230Q416 -295 382 -339T293 -405T176 -428Q140 -428 108 -423T54 -409T23 -394L60 -337Q71 -345 103 -358T185 -371Q252 -371 301 -336T351 -234Q351 -198 331 -182T276 -166Q250
-166 221 -176T175 -205L117 -185L210 0H280L193 -173L175 -166Q186 -145 223 -130T299 -114Z" />
<glyph unicode="&#xb9;" horiz-adv-x="597" d="M544 1478L356 590H248L415 1373Q407 1367 373 1350T288 1316T184 1295L201 1374Q253 1381 302 1399T389 1440T440 1478H544Z" />
<glyph unicode="&#xba;" horiz-adv-x="794" d="M539 1017Q476 1017 419 1044T327 1123T291 1248Q291 1322 326 1373T419 1452T539 1480Q604 1480 661 1453T755 1374T792 1248Q792 1175 756 1123T662 1044T539 1017ZM539 1073Q586 1073 629 1093T700 1152T729 1248Q729
1306 701 1345T629 1404T539 1424Q494 1424 451 1404T381 1345T354 1248Q354 1191 381 1152T451 1093T539 1073Z" />
<glyph unicode="&#xbb;" horiz-adv-x="697" d="M336 885H415L670 565L283 251H200L592 567L336 885ZM111 885H189L444 565L60 251H-24L365 567L111 885Z" />
<glyph unicode="&#xbc;" horiz-adv-x="1623" d="M544 1478L356 590H248L415 1373Q407 1367 373 1350T288 1316T184 1295L201 1374Q253 1381 302 1399T389 1440T440 1478H544ZM37 0L1319 1475H1419L138 0H37ZM1155 0L1197 202H798L813 271L1313 888H1450L1320 277H1475L1459
202H1304L1262 0H1155ZM889 234L865 277H1213L1327 812L1349 806L889 234Z" />
<glyph unicode="&#xbd;" horiz-adv-x="1642" d="M544 1478L356 590H248L415 1373Q407 1367 373 1350T288 1316T184 1295L201 1374Q253 1381 302 1399T389 1440T440 1478H544ZM37 0L1319 1475H1419L138 0H37ZM764 0L783 90Q796 132 847 181T969 280T1111 370Q1183
413 1253 460T1371 565T1419 691Q1419 749 1378 780T1254 811Q1137 811 1077 752T998 605H890Q918 735 1010 815T1267 896Q1397 896 1462 844T1527 703Q1527 616 1478 551T1355 433T1202 335Q1138 296 1076 252T971 165T917 81H1411L1394 0H764Z" />
<glyph unicode="&#xbe;" horiz-adv-x="1900" d="M679 1056Q762 1054 794 1014T827 916Q827 817 780 740T650 620T462 577Q366 577 305 602T215 673T186 782Q186 812 190 834T196 864H304Q302 857 299 840T295 796Q295 722 342 692T474 661Q548 661 603 694T689
784T721 909Q721 954 685 985T556 1016H516L531 1089H571Q637 1089 688 1112T770 1177T801 1278Q801 1340 757 1371T633 1402Q535 1402 468 1358T378 1214H270Q288 1294 334 1355T458 1451T643 1486Q734 1486 793 1462T881 1397T910 1299Q910 1197 847 1128T679
1056ZM314 0L1596 1475H1696L415 0H314ZM1432 0L1474 202H1075L1090 271L1590 888H1727L1597 277H1752L1736 202H1581L1539 0H1432ZM1166 234L1142 277H1490L1604 812L1626 806L1166 234Z" />
<glyph unicode="&#xbf;" horiz-adv-x="1092" d="M674 730Q653 626 608 551T505 418T388 309Q325 255 270 198T180 68T145 -109Q145 -219 203 -273T379 -328Q525 -328 619 -242T747 4H859Q829 -140 760 -237T592 -383T370 -432Q268 -432 192 -397T74 -293T32 -120Q32
2 71 86T173 234T305 355Q363 404 417 456T512 574T571 730H674ZM663 1079Q705 1079 734 1050T763 979Q763 938 734 909T663 879Q621 879 592 908T563 979Q563 1021 592 1050T663 1079Z" />
<glyph unicode="&#xc0;" horiz-adv-x="1206" d="M-23 0L711 1480H902L1003 0H880L793 1395H795L112 0H-23ZM259 411L280 520H925L904 411H259ZM921 1550H797L507 1723H647L921 1550Z" />
<glyph unicode="&#xc1;" horiz-adv-x="1206" d="M-23 0L711 1480H902L1003 0H880L793 1395H795L112 0H-23ZM259 411L280 520H925L904 411H259ZM719 1548L993 1721H1134L843 1548H719Z" />
<glyph unicode="&#xc2;" horiz-adv-x="1206" d="M-23 0L711 1480H902L1003 0H880L793 1395H795L112 0H-23ZM259 411L280 520H925L904 411H259ZM574 1546L796 1716H906L1093 1546H988L831 1694H871L680 1546H574Z" />
<glyph unicode="&#xc3;" horiz-adv-x="1206" d="M-23 0L711 1480H902L1003 0H880L793 1395H795L112 0H-23ZM259 411L280 520H925L904 411H259ZM1111 1682Q1107 1657 1090 1625T1038 1568T950 1543Q907 1543 877 1561T824 1598Q805 1615 782 1628T727 1642Q684
1642 666 1619T643 1571H565Q570 1599 590 1632T647 1689T736 1713Q780 1713 807 1696T855 1660Q877 1642 901 1628T954 1613Q998 1613 1013 1636T1033 1682H1111Z" />
<glyph unicode="&#xc4;" horiz-adv-x="1206" d="M-23 0L711 1480H902L1003 0H880L793 1395H795L112 0H-23ZM259 411L280 520H925L904 411H259ZM662 1567Q627 1567 602 1588T577 1642Q577 1679 605 1702T670 1725Q705 1725 730 1705T755 1650Q755 1613 727 1590T662
1567ZM1020 1567Q985 1567 960 1588T935 1642Q935 1679 963 1702T1028 1725Q1063 1725 1088 1705T1113 1650Q1113 1613 1085 1590T1020 1567Z" />
<glyph unicode="&#xc5;" horiz-adv-x="1206" d="M-23 0L711 1480H902L1003 0H880L793 1395H795L112 0H-23ZM259 411L280 520H925L904 411H259ZM850 1585Q899 1585 933 1619T968 1703Q968 1752 934 1786T850 1821Q801 1821 767 1787T732 1703Q732 1654 766 1620T850
1585ZM850 1522Q800 1522 759 1546T694 1612T669 1703Q669 1753 693 1794T759 1859T850 1884Q901 1884 941 1860T1006 1794T1031 1703Q1031 1653 1007 1612T942 1547T850 1522Z" />
<glyph unicode="&#xc6;" horiz-adv-x="1816" d="M-97 0L1031 1475H1865L1841 1366H1142L1194 1409L1054 751L1025 795H1609L1586 685H1004L1049 727L909 71L879 109H1574L1551 0H775L1064 1360L1075 1353L45 0H-97ZM250 346L299 455H930L907 346H250Z" />
<glyph unicode="&#xc7;" horiz-adv-x="1265" d="M1164 500Q1145 413 1096 322T968 154T784 29T548 -19Q398 -19 302 48T161 233T115 505Q115 691 165 867T310 1184T540 1408T848 1491Q1002 1491 1096 1428T1232 1268T1275 1065Q1275 1039 1272 1015T1264 975H1140Q1143
989 1146 1015T1150 1064Q1150 1148 1117 1219T1014 1335T835 1379Q692 1379 582 1303T395 1100T280 819T241 506Q241 311 318 202T559 93Q655 93 736 129T879 225T983 357T1039 500H1164ZM598 -128Q644 -128 679 -155T715 -243Q715 -308 681 -352T593 -418T475
-441Q440 -441 408 -436T353 -422T322 -407L359 -350Q370 -358 402 -371T485 -384Q551 -384 600 -349T650 -248Q650 -211 630 -195T575 -179Q550 -179 521 -190T474 -218L419 -198L512 -13H576L490 -186L481 -179Q492 -159 526 -144T598 -128Z" />
<glyph unicode="&#xc8;" horiz-adv-x="1080" d="M398 1366L469 1435L324 751L300 795H893L870 685H277L319 729L173 40L131 109H838L815 0H39L353 1475H1129L1106 1366H398ZM882 1550H758L468 1723H608L882 1550Z" />
<glyph unicode="&#xc9;" horiz-adv-x="1080" d="M398 1366L469 1435L324 751L300 795H893L870 685H277L319 729L173 40L131 109H838L815 0H39L353 1475H1129L1106 1366H398ZM679 1548L953 1721H1094L803 1548H679Z" />
<glyph unicode="&#xca;" horiz-adv-x="1080" d="M398 1366L469 1435L324 751L300 795H893L870 685H277L319 729L173 40L131 109H838L815 0H39L353 1475H1129L1106 1366H398ZM535 1546L757 1716H867L1054 1546H949L792 1694H832L641 1546H535Z" />
<glyph unicode="&#xcb;" horiz-adv-x="1080" d="M398 1366L469 1435L324 751L300 795H893L870 685H277L319 729L173 40L131 109H838L815 0H39L353 1475H1129L1106 1366H398ZM623 1567Q588 1567 563 1588T538 1642Q538 1679 566 1702T631 1725Q666 1725 691 1705T716
1650Q716 1613 688 1590T623 1567ZM981 1567Q946 1567 921 1588T896 1642Q896 1679 924 1702T989 1725Q1024 1725 1049 1705T1074 1650Q1074 1613 1046 1590T981 1567Z" />
<glyph unicode="&#xcc;" horiz-adv-x="456" d="M51 0L364 1475H487L174 0H51ZM542 1550H418L128 1723H268L542 1550Z" />
<glyph unicode="&#xcd;" horiz-adv-x="456" d="M51 0L364 1475H487L174 0H51ZM340 1548L614 1721H755L464 1548H340Z" />
<glyph unicode="&#xce;" horiz-adv-x="456" d="M51 0L364 1475H487L174 0H51ZM195 1546L417 1716H527L714 1546H609L452 1694H492L301 1546H195Z" />
<glyph unicode="&#xcf;" horiz-adv-x="456" d="M51 0L364 1475H487L174 0H51ZM598 1572Q563 1572 538 1593T513 1647Q513 1684 541 1707T606 1730Q641 1730 666 1710T691 1655Q691 1618 663 1595T598 1572ZM839 1572Q804 1572 780 1593T755 1647Q755 1684 783
1707T848 1730Q882 1730 907 1710T933 1655Q933 1618 905 1595T839 1572Z" />
<glyph unicode="&#xd0;" horiz-adv-x="1224" d="M37 706L52 770H736L723 706H37ZM39 0L353 1475H685Q872 1475 983 1406T1143 1218T1192 955Q1192 735 1123 559T938 258T678 67T381 0H39ZM174 41L130 96H381Q505 96 626 156T847 328T1005 597T1065 947Q1065 1067
1027 1164T899 1320T657 1379H403L471 1434L174 41Z" />
<glyph unicode="&#xd1;" horiz-adv-x="1306" d="M160 0H39L353 1475H555L945 72L934 66L1234 1475H1355L1041 0H836L448 1401L459 1407L160 0ZM1176 1682Q1172 1657 1155 1625T1103 1568T1015 1543Q972 1543 942 1561T889 1598Q870 1615 847 1628T792 1642Q749
1642 731 1619T708 1571H630Q635 1599 655 1632T712 1689T801 1713Q845 1713 872 1696T920 1660Q942 1642 966 1628T1019 1613Q1063 1613 1078 1636T1098 1682H1176Z" />
<glyph unicode="&#xd2;" horiz-adv-x="1367" d="M575 -19Q435 -19 332 45T173 231T117 524Q117 709 171 882T324 1193T564 1411T876 1491Q1017 1491 1120 1428T1278 1245T1334 954Q1334 768 1280 594T1126 282T887 62T575 -19ZM588 93Q734 93 849 167T1044 366T1167
643T1210 951Q1210 1090 1167 1185T1047 1329T861 1379Q716 1379 601 1305T406 1107T283 833T241 525Q241 316 334 205T588 93ZM996 1550H872L582 1723H722L996 1550Z" />
<glyph unicode="&#xd3;" horiz-adv-x="1367" d="M575 -19Q435 -19 332 45T173 231T117 524Q117 709 171 882T324 1193T564 1411T876 1491Q1017 1491 1120 1428T1278 1245T1334 954Q1334 768 1280 594T1126 282T887 62T575 -19ZM588 93Q734 93 849 167T1044 366T1167
643T1210 951Q1210 1090 1167 1185T1047 1329T861 1379Q716 1379 601 1305T406 1107T283 833T241 525Q241 316 334 205T588 93ZM794 1548L1068 1721H1209L918 1548H794Z" />
<glyph unicode="&#xd4;" horiz-adv-x="1367" d="M575 -19Q435 -19 332 45T173 231T117 524Q117 709 171 882T324 1193T564 1411T876 1491Q1017 1491 1120 1428T1278 1245T1334 954Q1334 768 1280 594T1126 282T887 62T575 -19ZM588 93Q734 93 849 167T1044 366T1167
643T1210 951Q1210 1090 1167 1185T1047 1329T861 1379Q716 1379 601 1305T406 1107T283 833T241 525Q241 316 334 205T588 93ZM649 1546L871 1716H981L1168 1546H1063L906 1694H946L755 1546H649Z" />
<glyph unicode="&#xd5;" horiz-adv-x="1367" d="M575 -19Q435 -19 332 45T173 231T117 524Q117 709 171 882T324 1193T564 1411T876 1491Q1017 1491 1120 1428T1278 1245T1334 954Q1334 768 1280 594T1126 282T887 62T575 -19ZM588 93Q734 93 849 167T1044 366T1167
643T1210 951Q1210 1090 1167 1185T1047 1329T861 1379Q716 1379 601 1305T406 1107T283 833T241 525Q241 316 334 205T588 93ZM1185 1682Q1181 1657 1164 1625T1112 1568T1024 1543Q981 1543 951 1561T898 1598Q879 1615 856 1628T801 1642Q758 1642 740 1619T717
1571H639Q644 1599 664 1632T721 1689T810 1713Q854 1713 881 1696T929 1660Q951 1642 975 1628T1028 1613Q1072 1613 1087 1636T1107 1682H1185Z" />
<glyph unicode="&#xd6;" horiz-adv-x="1367" d="M575 -19Q435 -19 332 45T173 231T117 524Q117 709 171 882T324 1193T564 1411T876 1491Q1017 1491 1120 1428T1278 1245T1334 954Q1334 768 1280 594T1126 282T887 62T575 -19ZM588 93Q734 93 849 167T1044 366T1167
643T1210 951Q1210 1090 1167 1185T1047 1329T861 1379Q716 1379 601 1305T406 1107T283 833T241 525Q241 316 334 205T588 93ZM737 1567Q702 1567 677 1588T652 1642Q652 1679 680 1702T745 1725Q780 1725 805 1705T830 1650Q830 1613 802 1590T737 1567ZM1095
1567Q1060 1567 1035 1588T1010 1642Q1010 1679 1038 1702T1103 1725Q1138 1725 1163 1705T1188 1650Q1188 1613 1160 1590T1095 1567Z" />
<glyph unicode="&#xd7;" horiz-adv-x="1163" d="M274 240L219 298L877 803L933 745L274 240ZM839 295L769 240L314 748L383 803L839 295Z" />
<glyph unicode="&#xd8;" horiz-adv-x="1367" d="M1347 1504L77 -73L13 -28L1282 1548L1347 1504ZM575 -19Q435 -19 332 45T173 231T117 524Q117 709 171 882T324 1193T564 1411T876 1491Q1017 1491 1120 1428T1278 1245T1334 954Q1334 768 1280 594T1126 282T887
62T575 -19ZM588 93Q734 93 849 167T1044 366T1167 643T1210 951Q1210 1090 1167 1185T1047 1329T861 1379Q716 1379 601 1305T406 1107T283 833T241 525Q241 316 334 205T588 93Z" />
<glyph unicode="&#xd9;" horiz-adv-x="1290" d="M1141 548Q1080 258 924 120T544 -19Q347 -19 244 73T140 356Q140 438 155 525T200 756L356 1475H480L324 750Q303 655 290 589T271 473T265 370Q265 220 337 157T551 93Q729 93 848 201T1019 553L1214 1475H1338L1141
548ZM971 1550H847L557 1723H697L971 1550Z" />
<glyph unicode="&#xda;" horiz-adv-x="1290" d="M1141 548Q1080 258 924 120T544 -19Q347 -19 244 73T140 356Q140 438 155 525T200 756L356 1475H480L324 750Q303 655 290 589T271 473T265 370Q265 220 337 157T551 93Q729 93 848 201T1019 553L1214 1475H1338L1141
548ZM769 1548L1043 1721H1184L893 1548H769Z" />
<glyph unicode="&#xdb;" horiz-adv-x="1290" d="M1141 548Q1080 258 924 120T544 -19Q347 -19 244 73T140 356Q140 438 155 525T200 756L356 1475H480L324 750Q303 655 290 589T271 473T265 370Q265 220 337 157T551 93Q729 93 848 201T1019 553L1214 1475H1338L1141
548ZM624 1546L846 1716H956L1143 1546H1038L881 1694H921L730 1546H624Z" />
<glyph unicode="&#xdc;" horiz-adv-x="1290" d="M1141 548Q1080 258 924 120T544 -19Q347 -19 244 73T140 356Q140 438 155 525T200 756L356 1475H480L324 750Q303 655 290 589T271 473T265 370Q265 220 337 157T551 93Q729 93 848 201T1019 553L1214 1475H1338L1141
548ZM712 1567Q677 1567 652 1588T627 1642Q627 1679 655 1702T720 1725Q755 1725 780 1705T805 1650Q805 1613 777 1590T712 1567ZM1070 1567Q1035 1567 1010 1588T985 1642Q985 1679 1013 1702T1078 1725Q1113 1725 1138 1705T1163 1650Q1163 1613 1135 1590T1070
1567Z" />
<glyph unicode="&#xdd;" horiz-adv-x="1111" d="M1222 1475L614 514L504 0H381L490 514L291 1475H419L593 595H539L1087 1475H1222ZM671 1548L945 1721H1086L795 1548H671Z" />
<glyph unicode="&#xde;" horiz-adv-x="1067" d="M39 0L353 1473H477L399 1110L374 1146H646Q828 1146 924 1060T1020 817Q1020 663 948 550T753 374T476 312H196L237 346L163 0H39ZM242 374L218 422H484Q600 422 693 469T842 602T897 803Q897 920 825 978T621
1036H353L394 1085L242 374Z" />
<glyph unicode="&#xdf;" horiz-adv-x="1185" d="M27 0L240 1002Q269 1136 321 1231T442 1386T595 1474T769 1502Q862 1502 930 1470T1035 1379T1073 1242Q1073 1134 1019 1065T885 936Q852 911 823 880T793 814Q793 786 818 755T886 687Q936 645 981 584T1027
427Q1027 291 956 193T766 41T500 -13Q455 -13 418 -9T353 2T312 14L359 129Q375 122 419 111T521 99Q627 99 713 134T849 237T900 403Q900 478 865 529T786 618Q740 656 703 704T666 804Q666 861 702 903T779 975Q855 1029 905 1088T955 1235Q955 1302 910 1347T751
1392Q603 1392 505 1297T361 992L150 0H27Z" />
<glyph unicode="&#xe0;" horiz-adv-x="1286" d="M531 -19Q416 -19 322 28T173 172T117 412Q117 553 164 673T295 885T495 1026T747 1077Q856 1077 938 1037T1067 920T1114 735Q1114 704 1110 670T1099 608H1022Q1028 628 1031 653T1034 701Q1034 782 997 841T895
933T745 965Q630 965 539 924T382 808T282 636T247 424Q247 314 287 240T399 130T559 93Q660 93 749 136T901 258T986 440L1073 435Q1043 290 963 189T772 34T531 -19ZM1017 0H892L1117 1062H1242L1017 0ZM890 1242H783L530 1475H660L890 1242Z" />
<glyph unicode="&#xe1;" horiz-adv-x="1286" d="M531 -19Q416 -19 322 28T173 172T117 412Q117 553 164 673T295 885T495 1026T747 1077Q856 1077 938 1037T1067 920T1114 735Q1114 704 1110 670T1099 608H1022Q1028 628 1031 653T1034 701Q1034 782 997 841T895
933T745 965Q630 965 539 924T382 808T282 636T247 424Q247 314 287 240T399 130T559 93Q660 93 749 136T901 258T986 440L1073 435Q1043 290 963 189T772 34T531 -19ZM1017 0H892L1117 1062H1242L1017 0ZM710 1242L939 1475H1070L816 1242H710Z" />
<glyph unicode="&#xe2;" horiz-adv-x="1286" d="M531 -19Q416 -19 322 28T173 172T117 412Q117 553 164 673T295 885T495 1026T747 1077Q856 1077 938 1037T1067 920T1114 735Q1114 704 1110 670T1099 608H1022Q1028 628 1031 653T1034 701Q1034 782 997 841T895
933T745 965Q630 965 539 924T382 808T282 636T247 424Q247 314 287 240T399 130T559 93Q660 93 749 136T901 258T986 440L1073 435Q1043 290 963 189T772 34T531 -19ZM1017 0H892L1117 1062H1242L1017 0ZM569 1242L796 1475H896L1073 1242H976L825 1449H866L668
1242H569Z" />
<glyph unicode="&#xe3;" horiz-adv-x="1286" d="M531 -19Q416 -19 322 28T173 172T117 412Q117 553 164 673T295 885T495 1026T747 1077Q856 1077 938 1037T1067 920T1114 735Q1114 704 1110 670T1099 608H1022Q1028 628 1031 653T1034 701Q1034 782 997 841T895
933T745 965Q630 965 539 924T382 808T282 636T247 424Q247 314 287 240T399 130T559 93Q660 93 749 136T901 258T986 440L1073 435Q1043 290 963 189T772 34T531 -19ZM1017 0H892L1117 1062H1242L1017 0ZM1105 1449Q1101 1425 1084 1393T1032 1336T944 1311Q901
1311 871 1328T818 1366Q799 1382 777 1396T722 1410Q678 1410 660 1386T638 1339H559Q564 1367 585 1399T642 1456T730 1480Q774 1480 801 1464T850 1428Q871 1409 895 1395T948 1381Q993 1381 1008 1404T1028 1449H1105Z" />
<glyph unicode="&#xe4;" horiz-adv-x="1286" d="M531 -19Q416 -19 322 28T173 172T117 412Q117 553 164 673T295 885T495 1026T747 1077Q856 1077 938 1037T1067 920T1114 735Q1114 704 1110 670T1099 608H1022Q1028 628 1031 653T1034 701Q1034 782 997 841T895
933T745 965Q630 965 539 924T382 808T282 636T247 424Q247 314 287 240T399 130T559 93Q660 93 749 136T901 258T986 440L1073 435Q1043 290 963 189T772 34T531 -19ZM1017 0H892L1117 1062H1242L1017 0ZM654 1329Q619 1329 594 1350T569 1404Q569 1441 597 1464T663
1487Q697 1487 722 1467T747 1412Q747 1375 719 1352T654 1329ZM1012 1329Q978 1329 953 1350T928 1404Q928 1441 956 1464T1021 1487Q1055 1487 1080 1467T1106 1412Q1106 1375 1078 1352T1012 1329Z" />
<glyph unicode="&#xe5;" horiz-adv-x="1286" d="M531 -19Q416 -19 322 28T173 172T117 412Q117 553 164 673T295 885T495 1026T747 1077Q856 1077 938 1037T1067 920T1114 735Q1114 704 1110 670T1099 608H1022Q1028 628 1031 653T1034 701Q1034 782 997 841T895
933T745 965Q630 965 539 924T382 808T282 636T247 424Q247 314 287 240T399 130T559 93Q660 93 749 136T901 258T986 440L1073 435Q1043 290 963 189T772 34T531 -19ZM1017 0H892L1117 1062H1242L1017 0ZM822 1219Q872 1219 906 1253T940 1336Q940 1386 906 1420T822
1454Q773 1454 739 1420T705 1336Q705 1287 739 1253T822 1219ZM823 1155Q773 1155 732 1179T666 1245T641 1336Q641 1386 665 1427T731 1493T822 1517Q872 1517 913 1493T979 1428T1003 1337Q1003 1287 979 1246T914 1180T823 1155Z" />
<glyph unicode="&#xe6;" horiz-adv-x="2145" d="M462 -19Q278 -19 177 54T75 263Q75 357 117 422T233 527T401 584T597 602Q751 602 838 605T965 621T1010 665Q1017 698 1020 724T1024 767Q1024 868 947 919T735 970Q628 970 539 940T390 852T312 710H188Q213
826 293 908T491 1033T750 1077Q898 1077 1003 1019T1130 838Q1132 830 1132 818T1131 789L1100 798Q1188 923 1324 1000T1620 1077Q1753 1077 1845 1023T1986 876T2034 663Q2034 621 2026 569T2007 479H1039L1097 516Q1094 492 1093 467T1091 417Q1091 320 1128
246T1238 129T1420 87Q1511 87 1583 112T1709 175T1796 256T1840 333H1962Q1945 279 1900 218T1784 103T1616 15T1402 -20Q1286 -20 1199 21T1056 137T983 309L1016 310Q958 186 869 114T675 12T462 -19ZM478 91Q554 91 630 109T776 175T899 311T982 535Q985 547
987 558T991 580L1006 531Q944 511 842 506T603 500Q491 500 400 483T256 418T202 279Q202 184 275 138T478 91ZM1119 590H1908Q1911 604 1912 625T1913 665Q1913 749 1880 818T1778 930T1607 972Q1490 972 1391 922T1222 785T1119 590Z" />
<glyph unicode="&#xe7;" horiz-adv-x="1257" d="M591 -129Q636 -129 672 -157T708 -245Q708 -310 674 -354T585 -420T468 -443Q432 -443 400 -438T346 -424T314 -409L352 -352Q362 -360 394 -373T477 -386Q544 -386 593 -351T642 -249Q642 -213 622 -197T568 -181Q542
-181 513 -191T467 -220L409 -200L502 -15H571L485 -188L466 -181Q478 -160 515 -145T591 -129ZM548 -19Q353 -19 235 96T117 420Q117 560 166 679T303 888T509 1027T764 1077Q899 1077 989 1027T1123 899T1168 741Q1168 725 1167 711T1164 690H1041Q1042 696 1043
704T1044 722Q1044 796 1009 850T907 934T748 964Q636 964 543 923T383 809T279 639T242 426Q242 262 329 178T563 94Q684 94 769 133T905 234T973 363H1096Q1083 293 1041 225T928 102T763 14T548 -19Z" />
<glyph unicode="&#xe8;" horiz-adv-x="1288" d="M184 479L208 590H1068L1043 555Q1048 576 1052 604T1056 667Q1056 750 1023 817T921 925T748 965Q635 965 542 923T380 807T274 634T236 421Q236 324 271 250T380 135T564 94Q657 94 729 116T853 176T936 254T980
333H1105Q1090 274 1046 213T929 98T761 13T546 -20Q410 -20 314 35T167 189T116 417Q116 556 165 675T303 885T509 1026T760 1077Q894 1077 986 1022T1127 871T1175 657Q1175 615 1168 565T1150 479H184ZM886 1242H779L526 1475H656L886 1242Z" />
<glyph unicode="&#xe9;" horiz-adv-x="1288" d="M184 479L208 590H1068L1043 555Q1048 576 1052 604T1056 667Q1056 750 1023 817T921 925T748 965Q635 965 542 923T380 807T274 634T236 421Q236 324 271 250T380 135T564 94Q657 94 729 116T853 176T936 254T980
333H1105Q1090 274 1046 213T929 98T761 13T546 -20Q410 -20 314 35T167 189T116 417Q116 556 165 675T303 885T509 1026T760 1077Q894 1077 986 1022T1127 871T1175 657Q1175 615 1168 565T1150 479H184ZM706 1242L935 1475H1066L812 1242H706Z" />
<glyph unicode="&#xea;" horiz-adv-x="1288" d="M184 479L208 590H1068L1043 555Q1048 576 1052 604T1056 667Q1056 750 1023 817T921 925T748 965Q635 965 542 923T380 807T274 634T236 421Q236 324 271 250T380 135T564 94Q657 94 729 116T853 176T936 254T980
333H1105Q1090 274 1046 213T929 98T761 13T546 -20Q410 -20 314 35T167 189T116 417Q116 556 165 675T303 885T509 1026T760 1077Q894 1077 986 1022T1127 871T1175 657Q1175 615 1168 565T1150 479H184ZM565 1242L792 1475H892L1069 1242H972L821 1449H862L664
1242H565Z" />
<glyph unicode="&#xeb;" horiz-adv-x="1288" d="M184 479L208 590H1068L1043 555Q1048 576 1052 604T1056 667Q1056 750 1023 817T921 925T748 965Q635 965 542 923T380 807T274 634T236 421Q236 324 271 250T380 135T564 94Q657 94 729 116T853 176T936 254T980
333H1105Q1090 274 1046 213T929 98T761 13T546 -20Q410 -20 314 35T167 189T116 417Q116 556 165 675T303 885T509 1026T760 1077Q894 1077 986 1022T1127 871T1175 657Q1175 615 1168 565T1150 479H184ZM650 1329Q615 1329 590 1350T565 1404Q565 1441 593 1464T659
1487Q693 1487 718 1467T743 1412Q743 1375 715 1352T650 1329ZM1008 1329Q974 1329 949 1350T924 1404Q924 1441 952 1464T1017 1487Q1051 1487 1076 1467T1102 1412Q1102 1375 1074 1352T1008 1329Z" />
<glyph unicode="&#xec;" horiz-adv-x="483" d="M66 0L291 1062H414L189 0H66ZM476 1242H369L116 1475H246L476 1242Z" />
<glyph unicode="&#xed;" horiz-adv-x="483" d="M66 0L291 1062H414L189 0H66ZM295 1242L524 1475H655L401 1242H295Z" />
<glyph unicode="&#xee;" horiz-adv-x="483" d="M66 0L291 1062H414L189 0H66ZM155 1242L382 1475H482L659 1242H562L411 1449H452L254 1242H155Z" />
<glyph unicode="&#xef;" horiz-adv-x="483" d="M66 0L291 1062H414L189 0H66ZM562 1332Q527 1332 502 1352T477 1406Q477 1444 505 1466T570 1489Q605 1489 630 1469T655 1415Q655 1377 627 1355T562 1332ZM804 1332Q769 1332 744 1352T719 1406Q719 1444 747
1466T812 1489Q847 1489 872 1469T897 1415Q897 1377 869 1355T804 1332Z" />
<glyph unicode="&#xf0;" horiz-adv-x="1346" d="M685 1312L982 1545L1082 1492L787 1260L685 1312ZM1072 649Q1072 835 1038 977T941 1222T793 1389T607 1484L687 1559Q834 1519 948 1402T1128 1096T1194 650L1072 649ZM550 -19Q415 -19 318 35T169 187T116 413Q116
553 164 674T300 885T505 1026T758 1077Q895 1077 992 1021T1142 869T1194 650Q1194 502 1144 380T1006 168T800 30T550 -19ZM559 92Q665 92 757 131T919 243T1028 416T1068 639Q1068 738 1032 811T925 925T750 966Q640 966 548 925T387 809T280 637T242 425Q242
271 323 182T559 92Z" />
<glyph unicode="&#xf1;" horiz-adv-x="1217" d="M821 0L943 567Q959 643 966 687T974 769Q974 858 912 909T729 960Q640 960 552 916T398 795T313 624L239 652Q259 744 312 821T441 956T603 1045T776 1077Q927 1077 1016 1007T1105 808Q1105 759 1094 698T1065
557L944 0H821ZM57 0L283 1062H407L181 0H57ZM1097 1449Q1093 1425 1076 1393T1024 1336T936 1311Q893 1311 863 1328T810 1366Q791 1382 769 1396T714 1410Q670 1410 652 1386T630 1339H551Q556 1367 577 1399T634 1456T722 1480Q766 1480 793 1464T842 1428Q863
1409 887 1395T940 1381Q985 1381 1000 1404T1020 1449H1097Z" />
<glyph unicode="&#xf2;" horiz-adv-x="1308" d="M554 -19Q418 -19 320 35T169 187T116 413Q116 553 164 674T299 885T502 1026T755 1077Q892 1077 989 1021T1139 869T1191 650Q1191 502 1142 380T1005 168T803 30T554 -19ZM563 92Q704 92 817 160T998 351T1065
637Q1065 737 1028 810T921 925T747 966Q637 966 545 925T385 809T280 637T242 425Q242 271 325 182T563 92ZM891 1242H784L531 1475H661L891 1242Z" />
<glyph unicode="&#xf3;" horiz-adv-x="1308" d="M554 -19Q418 -19 320 35T169 187T116 413Q116 553 164 674T299 885T502 1026T755 1077Q892 1077 989 1021T1139 869T1191 650Q1191 502 1142 380T1005 168T803 30T554 -19ZM563 92Q704 92 817 160T998 351T1065
637Q1065 737 1028 810T921 925T747 966Q637 966 545 925T385 809T280 637T242 425Q242 271 325 182T563 92ZM711 1242L940 1475H1071L817 1242H711Z" />
<glyph unicode="&#xf4;" horiz-adv-x="1308" d="M554 -19Q418 -19 320 35T169 187T116 413Q116 553 164 674T299 885T502 1026T755 1077Q892 1077 989 1021T1139 869T1191 650Q1191 502 1142 380T1005 168T803 30T554 -19ZM563 92Q704 92 817 160T998 351T1065
637Q1065 737 1028 810T921 925T747 966Q637 966 545 925T385 809T280 637T242 425Q242 271 325 182T563 92ZM570 1242L797 1475H897L1074 1242H977L826 1449H867L669 1242H570Z" />
<glyph unicode="&#xf5;" horiz-adv-x="1308" d="M554 -19Q418 -19 320 35T169 187T116 413Q116 553 164 674T299 885T502 1026T755 1077Q892 1077 989 1021T1139 869T1191 650Q1191 502 1142 380T1005 168T803 30T554 -19ZM563 92Q704 92 817 160T998 351T1065
637Q1065 737 1028 810T921 925T747 966Q637 966 545 925T385 809T280 637T242 425Q242 271 325 182T563 92ZM1106 1449Q1102 1425 1085 1393T1033 1336T945 1311Q902 1311 872 1328T819 1366Q800 1382 778 1396T723 1410Q679 1410 661 1386T639 1339H560Q565 1367
586 1399T643 1456T731 1480Q775 1480 802 1464T851 1428Q872 1409 896 1395T949 1381Q994 1381 1009 1404T1029 1449H1106Z" />
<glyph unicode="&#xf6;" horiz-adv-x="1308" d="M554 -19Q418 -19 320 35T169 187T116 413Q116 553 164 674T299 885T502 1026T755 1077Q892 1077 989 1021T1139 869T1191 650Q1191 502 1142 380T1005 168T803 30T554 -19ZM563 92Q704 92 817 160T998 351T1065
637Q1065 737 1028 810T921 925T747 966Q637 966 545 925T385 809T280 637T242 425Q242 271 325 182T563 92ZM655 1329Q620 1329 595 1350T570 1404Q570 1441 598 1464T664 1487Q698 1487 723 1467T748 1412Q748 1375 720 1352T655 1329ZM1013 1329Q979 1329 954
1350T929 1404Q929 1441 957 1464T1022 1487Q1056 1487 1081 1467T1107 1412Q1107 1375 1079 1352T1013 1329Z" />
<glyph unicode="&#xf7;" horiz-adv-x="1163" d="M231 480L248 563H933L916 480H231ZM653 783Q621 783 600 803T578 853Q578 884 599 904T653 924Q684 924 705 904T726 853Q726 824 705 804T653 783ZM511 127Q479 127 458 147T436 197Q436 228 457 248T511 268Q543
268 563 248T584 197Q584 167 564 147T511 127Z" />
<glyph unicode="&#xf8;" horiz-adv-x="1308" d="M1124 1054L228 -40L167 7L1064 1100L1124 1054ZM554 -19Q418 -19 320 35T169 187T116 413Q116 553 164 674T299 885T502 1026T755 1077Q892 1077 989 1021T1139 869T1191 650Q1191 502 1142 380T1005 168T803 30T554
-19ZM563 92Q704 92 817 160T998 351T1065 637Q1065 737 1028 810T921 925T747 966Q637 966 545 925T385 809T280 637T242 425Q242 271 325 182T563 92Z" />
<glyph unicode="&#xf9;" horiz-adv-x="1183" d="M442 -18Q328 -18 260 22T161 127T130 264Q130 315 139 369T165 506L283 1062H408L293 520Q276 442 267 388T258 290Q258 207 310 152T478 96Q576 96 662 150T809 287T888 459L965 428Q948 348 902 270T787 126T631
21T442 -18ZM790 0L1016 1062H1139L914 0H790ZM827 1242H720L467 1475H597L827 1242Z" />
<glyph unicode="&#xfa;" horiz-adv-x="1183" d="M442 -18Q328 -18 260 22T161 127T130 264Q130 315 139 369T165 506L283 1062H408L293 520Q276 442 267 388T258 290Q258 207 310 152T478 96Q576 96 662 150T809 287T888 459L965 428Q948 348 902 270T787 126T631
21T442 -18ZM790 0L1016 1062H1139L914 0H790ZM647 1242L876 1475H1007L753 1242H647Z" />
<glyph unicode="&#xfb;" horiz-adv-x="1183" d="M442 -18Q328 -18 260 22T161 127T130 264Q130 315 139 369T165 506L283 1062H408L293 520Q276 442 267 388T258 290Q258 207 310 152T478 96Q576 96 662 150T809 287T888 459L965 428Q948 348 902 270T787 126T631
21T442 -18ZM790 0L1016 1062H1139L914 0H790ZM506 1242L733 1475H833L1010 1242H913L762 1449H803L605 1242H506Z" />
<glyph unicode="&#xfc;" horiz-adv-x="1183" d="M442 -18Q328 -18 260 22T161 127T130 264Q130 315 139 369T165 506L283 1062H408L293 520Q276 442 267 388T258 290Q258 207 310 152T478 96Q576 96 662 150T809 287T888 459L965 428Q948 348 902 270T787 126T631
21T442 -18ZM790 0L1016 1062H1139L914 0H790ZM591 1329Q556 1329 531 1350T506 1404Q506 1441 534 1464T600 1487Q634 1487 659 1467T684 1412Q684 1375 656 1352T591 1329ZM949 1329Q915 1329 890 1350T865 1404Q865 1441 893 1464T958 1487Q992 1487 1017 1467T1043
1412Q1043 1375 1015 1352T949 1329Z" />
<glyph unicode="&#xfd;" horiz-adv-x="1018" d="M-29 -444Q-66 -444 -97 -440T-134 -432L-111 -321Q-100 -328 -72 -332T-16 -337Q53 -337 106 -303T201 -217T272 -110L331 -3L187 1062H313L434 112H412L925 1062H1058L410 -105Q362 -192 305 -269T167 -395T-29
-444ZM570 1242L799 1475H930L676 1242H570Z" />
<glyph unicode="&#xfe;" horiz-adv-x="1251" d="M553 -19Q446 -19 362 27T228 153T179 336Q179 360 183 390T191 436L276 438Q273 430 271 406T268 367Q268 291 305 230T406 134T553 98Q661 98 745 142T888 265T977 443T1007 654Q1007 806 938 885T737 964Q644
964 555 919T401 799T316 633L220 636Q247 762 329 862T526 1019T762 1077Q876 1077 959 1028T1088 885T1134 657Q1134 520 1092 398T974 182T790 35T553 -19ZM-36 -437L392 1563H516L90 -437H-36Z" />
<glyph unicode="&#xff;" horiz-adv-x="1018" d="M-29 -444Q-66 -444 -97 -440T-134 -432L-111 -321Q-100 -328 -72 -332T-16 -337Q53 -337 106 -303T201 -217T272 -110L331 -3L187 1062H313L434 112H412L925 1062H1058L410 -105Q362 -192 305 -269T167 -395T-29
-444ZM514 1329Q479 1329 454 1350T429 1404Q429 1441 457 1464T523 1487Q557 1487 582 1467T607 1412Q607 1375 579 1352T514 1329ZM872 1329Q838 1329 813 1350T788 1404Q788 1441 816 1464T881 1487Q915 1487 940 1467T966 1412Q966 1375 938 1352T872 1329Z"
/>
<glyph unicode="&#x2013;" horiz-adv-x="1055" d="M87 526L105 606H889L872 526H87Z" />
<glyph unicode="&#x2014;" horiz-adv-x="1250" d="M87 526L105 606H1084L1067 526H87Z" />
<glyph unicode="&#x2018;" horiz-adv-x="463" d="M413 1343Q451 1343 471 1324T492 1273Q492 1223 458 1188T365 1153Q319 1153 296 1179T272 1248Q272 1308 304 1360T389 1452T500 1511L509 1472Q476 1460 443 1437T384 1384T351 1320Q356 1328 373 1335T413 1343Z" />
<glyph unicode="&#x2019;" horiz-adv-x="463" d="M368 1323Q330 1323 310 1342T289 1393Q289 1443 323 1478T416 1513Q462 1513 485 1487T509 1418Q509 1358 477 1306T392 1214T281 1155L272 1194Q305 1207 339 1230T398 1283T431 1346Q425 1339 408 1331T368 1323Z" />
<glyph unicode="&#x201a;" horiz-adv-x="464" d="M83 -15Q45 -15 25 4T4 55Q4 105 38 140T131 175Q177 175 200 149T224 80Q224 20 192 -32T107 -124T-4 -183L-13 -144Q20 -131 54 -108T113 -55T146 8Q140 1 123 -7T83 -15Z" />
<glyph unicode="&#x201c;" horiz-adv-x="700" d="M636 1343Q674 1343 694 1324T715 1273Q715 1223 681 1188T588 1153Q542 1153 519 1179T495 1248Q495 1308 527 1360T612 1452T723 1511L732 1472Q699 1460 666 1437T607 1384T574 1320Q579 1328 596 1335T636
1343ZM667 1343Q705 1343 725 1324T746 1273Q746 1223 712 1188T619 1153Q573 1153 550 1179T526 1248Q526 1308 558 1360T643 1452T754 1511L763 1472Q730 1460 697 1437T638 1384T605 1320Q610 1328 627 1335T667 1343Z" />
<glyph unicode="&#x201d;" horiz-adv-x="700" d="M621 1308Q584 1308 563 1327T542 1378Q542 1428 576 1463T670 1498Q716 1498 739 1472T763 1403Q763 1343 731 1291T646 1200T535 1140L525 1180Q559 1191 592 1214T651 1268T684 1332Q678 1324 661 1316T621
1308ZM334 1308Q297 1308 276 1327T255 1378Q255 1428 289 1463T382 1498Q429 1498 452 1472T476 1403Q476 1343 443 1291T359 1200T248 1140L238 1180Q272 1191 305 1214T364 1268T397 1332Q392 1324 375 1316T334 1308Z" />
<glyph unicode="&#x201e;" horiz-adv-x="751" d="M369 -19Q332 -19 311 0T290 51Q290 101 324 136T418 171Q464 171 487 145T511 76Q511 16 479 -36T394 -127T283 -187L273 -147Q307 -136 340 -113T399 -59T432 5Q426 -3 409 -11T369 -19ZM82 -19Q45 -19 24 0T3
51Q3 101 37 136T130 171Q177 171 200 145T224 76Q224 16 191 -36T107 -127T-4 -187L-14 -147Q20 -136 53 -113T112 -59T145 5Q140 -3 123 -11T82 -19Z" />
<glyph unicode="&#x2022;" horiz-adv-x="722" d="M341 569Q299 569 265 589T210 643T189 720Q189 762 209 796T264 850T341 870Q382 870 416 850T470 796T491 720Q491 678 471 644T416 589T341 569Z" />
<glyph unicode="&#x2039;" horiz-adv-x="501" d="M530 885L130 565L394 251H315L52 565L448 885H530Z" />
<glyph unicode="&#x203a;" horiz-adv-x="501" d="M122 885H201L463 565L69 251H-15L385 569L122 885Z" />
</font>
</defs>
</svg>
