<?xml version="1.0" standalone="no"?>
<!DOCTYPE svg PUBLIC "-//W3C//DTD SVG 1.1//EN" "http://www.w3.org/Graphics/SVG/1.1/DTD/svg11.dtd">
<svg xmlns="http://www.w3.org/2000/svg">
<defs >
<font id="Epilogue" horiz-adv-x="1168" ><font-face
    font-family="Epilogue Black"
    units-per-em="2000"
    panose-1="0 0 0 0 0 0 0 0 0 0"
    ascent="1580"
    descent="-470"
    alphabetic="0" />
<glyph unicode=" " horiz-adv-x="500" />
<glyph unicode="!" horiz-adv-x="622" d="M489 1473L407 457H170L87 1473H489ZM291 -32Q209 -32 152 25T94 165Q94 246 151 303T291 361Q372 361 429 304T487 165Q487 83 430 26T291 -32Z" />
<glyph unicode="&quot;" horiz-adv-x="889" d="M364 1475L337 919H121L94 1475H364ZM776 1475L748 919H533L506 1475H776Z" />
<glyph unicode="#" horiz-adv-x="1701" d="M548 1475H891L526 0H182L548 1475ZM1145 1475H1488L1123 0H780L1145 1475ZM188 1095H1645L1586 848H129L188 1095ZM101 625H1558L1499 378H42L101 625Z" />
<glyph unicode="$" horiz-adv-x="1184" d="M518 1475H663V0H518V1475ZM590 193Q496 193 404 215T237 283T116 398T70 560Q70 562 70 565T70 570H469Q469 568 469 565T469 560Q469 518 505 501T602 484Q624 484 653 489T703 508T725 544Q725 577 680 590T521 622Q453
633 377 654T234 713T125 809T83 952Q83 1068 153 1146T340 1263T595 1303Q726 1303 841 1259T1028 1132T1100 938Q1100 936 1100 933T1100 928H705Q705 930 705 933T705 938Q705 966 688 982T644 1007T592 1015Q572 1015 545 1011T497 994T477 959Q477 939 502
925T572 902T672 884Q729 876 804 858T950 805T1067 709T1114 554Q1114 453 1068 384T944 273T774 212T590 193Z" />
<glyph unicode="%" horiz-adv-x="1350" d="M1316 1348L191 26L54 142L1179 1464L1316 1348ZM342 956Q265 956 198 988T89 1080T48 1221Q48 1303 89 1363T197 1455T342 1488Q422 1488 490 1456T600 1363T642 1221Q642 1140 601 1080T491 988T342 956ZM342 1117Q372
1117 399 1127T443 1160T461 1221Q461 1260 444 1283T399 1316T342 1326Q314 1326 288 1316T246 1283T229 1221Q229 1183 245 1160T288 1127T342 1117ZM1002 -1Q925 -1 858 31T749 123T708 264Q708 346 749 406T857 498T1002 531Q1082 531 1150 499T1261 406T1303
264Q1303 183 1261 123T1151 31T1002 -1ZM1002 160Q1032 160 1059 170T1103 203T1121 264Q1121 303 1104 326T1059 359T1002 369Q974 369 948 359T906 326T889 264Q889 226 905 203T948 170T1002 160Z" />
<glyph unicode="&amp;" horiz-adv-x="1525" d="M640 -26Q480 -26 350 21T144 161T68 391Q68 498 124 579T289 733T555 891Q682 959 735 1014T789 1126Q789 1158 776 1181T738 1217T680 1230Q648 1230 623 1217T583 1181T569 1126Q569 1077 606 1015T693 894L1184
320Q1221 277 1255 267T1313 257Q1339 257 1369 264T1413 277V0Q1406 -3 1366 -14T1259 -25Q1192 -25 1117 2T994 85L449 718Q406 768 357 835T274 981T239 1145Q239 1236 293 1314T445 1440T677 1489Q812 1489 907 1441T1054 1316T1105 1149Q1105 1043 1060 962T928
811T714 669Q576 590 507 536T437 410Q437 366 466 332T542 278T645 259Q749 259 825 294T959 388Q1012 442 1048 506T1085 695H1411Q1411 563 1378 468T1293 303T1183 178Q1086 85 947 30T640 -26Z" />
<glyph unicode="&apos;" horiz-adv-x="386" d="M332 1475L302 919H83L54 1475H332Z" />
<glyph unicode="(" horiz-adv-x="923" d="M675 -467Q652 -451 596 -406T471 -278T336 -73T229 220T186 612Q186 835 228 1005T336 1298T470 1503T596 1630T675 1692L883 1473Q856 1451 800 1395T683 1239T580 984T537 612Q537 395 579 242T682 -13T799 -170T883
-248L675 -467Z" />
<glyph unicode=")" horiz-adv-x="943" d="M274 -467L66 -248Q93 -226 149 -170T266 -13T369 241T412 612Q412 830 370 984T267 1238T150 1395T66 1473L274 1692Q297 1676 353 1631T478 1503T613 1298T720 1005T763 612Q763 390 721 221T613 -72T479 -278T353 -405T274
-467Z" />
<glyph unicode="*" horiz-adv-x="897" d="M596 1175L723 1043L564 938L447 1108L331 938L172 1043L299 1175L109 1233L191 1390L358 1321L347 1486H548L537 1321L704 1390L786 1233L596 1175Z" />
<glyph unicode="+" horiz-adv-x="1350" d="M1075 402H796V184H547V402H267V649H547V868H796V649H1075V402Z" />
<glyph unicode="," horiz-adv-x="651" d="M190 -359L137 -267Q199 -238 249 -192T329 -98T359 -18Q359 0 353 17T339 45H427Q417 21 389 -6T291 -33Q223 -33 166 17T108 160Q108 246 165 303T311 361Q411 361 472 288T533 111Q533 4 485 -87T358 -247T190 -359Z" />
<glyph unicode="-" horiz-adv-x="906" d="M66 444V689H816V444H66Z" />
<glyph unicode="." horiz-adv-x="629" d="M315 -32Q233 -32 176 25T118 165Q118 246 175 303T315 361Q396 361 453 304T511 165Q511 83 454 26T315 -32Z" />
<glyph unicode="/" horiz-adv-x="851" d="M849 1563L341 -155H20L528 1563H849Z" />
<glyph unicode="0" horiz-adv-x="1231" d="M608 -26Q454 -26 347 36T173 206T76 449T45 734Q45 882 75 1019T172 1265T346 1437T608 1500Q762 1500 869 1437T1043 1266T1140 1020T1171 734Q1171 586 1141 450T1044 206T870 37T608 -26ZM608 275Q657 275 692 315T746
455T765 734Q765 914 746 1013T692 1153T608 1193Q560 1193 525 1153T470 1014T451 734Q451 554 470 455T524 315T608 275Z" />
<glyph unicode="1" horiz-adv-x="960" d="M783 1475V0H383V1115Q368 1106 325 1092T223 1066T106 1050V1354Q166 1359 226 1378T330 1424T390 1475H783Z" />
<glyph unicode="2" horiz-adv-x="1299" d="M66 0V326Q75 332 122 365T237 448T378 551T512 651Q582 704 647 761T755 881T798 1017Q798 1093 761 1145T637 1198Q567 1198 528 1166T472 1078T456 946H52Q52 1120 122 1244T325 1434T643 1500Q829 1500 953 1434T1140
1258T1202 1013Q1202 920 1167 844T1075 705T955 592T834 501Q737 432 674 388T578 320T535 291H1181V0H66Z" />
<glyph unicode="3" horiz-adv-x="1319" d="M902 778Q988 775 1057 730T1167 609T1208 435Q1208 316 1150 211T968 40T647 -26Q476 -26 365 18T191 136T103 302T77 490Q77 491 77 492T77 494H480Q480 493 480 492T480 490Q480 405 501 359T561 294T652 275Q717
275 760 312T804 446Q804 496 792 531T756 588T694 620T603 630H554V900H603Q656 900 694 913T756 949T792 1004T804 1070Q804 1136 762 1167T658 1198Q585 1198 533 1156T480 1003H77Q77 1097 108 1185T206 1345T383 1458T650 1500Q849 1500 971 1438T1151 1282T1208
1092Q1208 1006 1168 936T1058 824T902 778Z" />
<glyph unicode="4" horiz-adv-x="1277" d="M665 0V251H19V518L545 1475H1058V540H1220V251H1058V0H665ZM310 380L208 540H665V1224L742 1202L310 380Z" />
<glyph unicode="5" horiz-adv-x="1284" d="M1138 1185H549L495 866Q498 875 516 890T565 920T643 945T750 956Q962 956 1073 827T1184 490Q1184 321 1122 206T936 33T625 -26Q471 -26 367 19T199 138T109 296T81 460Q81 462 81 463T81 465H480Q480 464 480 463T480
460Q487 383 517 329T632 275Q685 275 717 297T765 366T780 481Q780 574 749 629T638 685Q595 685 563 669T510 629T481 580L99 679L229 1475H1138V1185Z" />
<glyph unicode="6" horiz-adv-x="1325" d="M655 -26Q456 -26 333 61T153 313T96 707Q96 878 130 1022T234 1274T413 1440T670 1500Q821 1500 918 1450T1070 1325T1147 1175T1169 1049Q1169 1046 1169 1045T1169 1040H795Q795 1043 795 1044T795 1049Q795 1067
790 1092T772 1142T733 1183T669 1200Q604 1200 566 1141T513 976T497 731L456 729Q462 765 495 810T599 888T788 922Q933 922 1027 861T1168 701T1214 490Q1214 344 1152 227T966 42T655 -26ZM660 275Q710 275 743 295T792 357T809 463Q809 527 792 568T743 631T668
652Q623 652 590 631T538 568T519 463Q519 403 537 361T586 297T660 275Z" />
<glyph unicode="7" horiz-adv-x="1135" d="M687 1187V1185H57V1475H1105V1208Q1014 1141 946 1046T830 832T752 578T709 296T695 0H291Q291 161 304 309T347 588T423 831T535 1033T687 1187Z" />
<glyph unicode="8" horiz-adv-x="1365" d="M680 -26Q487 -26 360 36T170 202T107 427Q107 538 156 612T273 727T396 776Q350 787 291 823T188 930T144 1115Q144 1227 212 1314T401 1450T680 1500Q838 1500 958 1451T1147 1314T1215 1115Q1215 1002 1172 931T1069
824T963 776Q1018 768 1085 728T1202 613T1252 427Q1252 305 1189 202T999 37T680 -26ZM680 275Q726 275 762 298T818 362T839 455Q839 508 819 547T763 609T680 632Q633 632 597 610T540 547T520 455Q520 403 540 363T597 299T680 275ZM680 922Q748 922 787 960T826
1061Q826 1104 808 1134T757 1181T680 1198Q636 1198 603 1182T552 1135T533 1061Q533 999 572 961T680 922Z" />
<glyph unicode="9" horiz-adv-x="1282" d="M626 -27Q475 -27 378 23T226 148T149 298T127 424Q127 427 127 428T127 433H501Q501 430 501 429T501 424Q501 406 506 381T524 331T563 290T627 273Q693 273 730 332T783 497T799 742L840 744Q834 709 801 664T698
585T508 551Q363 551 269 612T128 772T82 983Q82 1129 144 1246T330 1431T641 1499Q840 1499 963 1412T1143 1160T1200 766Q1200 595 1166 451T1062 199T883 33T626 -27ZM628 821Q673 821 706 842T758 905T777 1010Q777 1071 760 1112T710 1176T636 1198Q586 1198
553 1178T504 1117T487 1010Q487 947 504 905T553 842T628 821Z" />
<glyph unicode=":" horiz-adv-x="630" d="M315 -32Q233 -32 176 25T118 165Q118 246 175 303T315 361Q396 361 453 304T511 165Q511 83 454 26T315 -32ZM316 687Q234 687 177 744T119 884Q119 965 176 1022T316 1080Q397 1080 454 1023T512 884Q512 802 455 745T316 687Z" />
<glyph unicode=";" horiz-adv-x="661" d="M200 -111L147 -19Q209 10 259 56T339 150T369 230Q369 248 363 265T349 293H437Q427 269 399 242T301 215Q233 215 176 265T118 408Q118 494 175 551T321 609Q421 609 482 536T543 359Q543 252 495 161T368 1T200 -111ZM324
686Q242 686 185 743T127 883Q127 964 184 1021T324 1079Q405 1079 462 1022T520 883Q520 801 463 744T324 686Z" />
<glyph unicode="&lt;" horiz-adv-x="1350" d="M1023 44L327 400V662L1023 1019V691L473 481V581L1023 372V44Z" />
<glyph unicode="=" horiz-adv-x="1350" d="M1069 593H275V840H1069V593ZM1069 218H275V465H1069V218Z" />
<glyph unicode="&gt;" horiz-adv-x="1350" d="M327 1019L1023 662V400L327 44V372L877 581V481L327 691V1019Z" />
<glyph unicode="?" horiz-adv-x="1159" d="M432 445Q432 541 461 616T534 753T623 866Q655 904 682 940T725 1013T741 1088Q741 1152 706 1186T605 1220Q531 1220 487 1167T443 1001H90Q90 1176 160 1282T346 1437T599 1486Q736 1486 847 1440T1025 1301T1091
1065Q1091 981 1062 917T986 801T892 704Q829 644 781 585T733 445H432ZM599 -32Q517 -32 460 25T402 165Q402 246 459 303T599 361Q680 361 737 304T795 165Q795 83 738 26T599 -32Z" />
<glyph unicode="@" horiz-adv-x="2014" d="M1622 98Q1562 63 1445 35T1181 -11T886 -28Q635 -28 448 44T158 261T55 628Q55 829 134 990T355 1266T683 1442T1085 1504Q1297 1504 1450 1453T1701 1316T1846 1125T1894 913Q1894 780 1845 669T1706 476T1499 349T1244
304Q1201 304 1161 314T1094 349T1065 414Q1065 415 1065 417T1065 420Q1048 379 994 345T853 310Q733 310 659 356T549 479T514 650Q514 792 572 905T734 1084T972 1150Q1052 1150 1100 1124T1149 1062L1168 1128H1432L1299 601Q1298 594 1296 583T1294 570Q1294
537 1301 522T1340 507Q1411 507 1462 540T1546 630T1595 761T1611 915Q1611 1033 1552 1120T1373 1256T1068 1305Q903 1305 769 1258T539 1123T391 908T339 623Q339 454 412 355T612 213T899 170Q1010 170 1124 184T1333 221T1484 269L1622 98ZM895 507Q945 507
972 526T1009 574Q1011 579 1017 603T1032 661T1050 734T1068 805T1082 860Q1088 886 1088 896Q1088 914 1079 937T1017 960Q947 960 899 912T825 789T800 638Q800 576 824 542T895 507Z" />
<glyph unicode="A" horiz-adv-x="1405" d="M40 0L383 1475H1024L1365 0H952L703 1234H705L453 0H40ZM340 310V613H1068V310H340Z" />
<glyph unicode="B" horiz-adv-x="1328" d="M755 1475Q921 1475 1023 1428T1172 1300T1219 1115Q1219 1010 1178 934T1076 814T952 765Q1014 763 1085 730T1207 623T1258 424Q1258 310 1212 214T1057 59T755 0H110V1475H755ZM494 797L362 903H650Q740 903 778 944T817
1045Q817 1086 801 1115T747 1159T650 1175H312L494 1357V797ZM676 301Q766 301 806 344T847 449Q847 479 837 507T807 557T754 592T676 605H362L494 711V119L312 301H676Z" />
<glyph unicode="C" horiz-adv-x="1469" d="M1399 557Q1399 456 1361 354T1244 165T1045 27T759 -26Q542 -26 388 71T152 341T70 738Q70 963 151 1134T387 1403T759 1500Q939 1500 1066 1439T1271 1279T1379 1067Q1399 990 1399 918H994Q994 950 990 974Q981 1039
951 1087T873 1161T759 1188Q681 1188 618 1142T518 997T480 738Q480 579 517 479T618 332T759 285Q815 285 858 305T932 363T978 449T994 557H1399Z" />
<glyph unicode="D" horiz-adv-x="1403" d="M110 0V1475H658Q807 1475 931 1420T1145 1266T1284 1033T1333 741Q1333 583 1284 448T1145 213T931 56T658 0H110ZM514 118L332 300H604Q690 300 762 353T879 506T923 741Q923 878 879 975T763 1123T604 1175H332L514
1357V118Z" />
<glyph unicode="E" horiz-adv-x="1177" d="M334 1175L516 1357V782L426 890H956V590H426L516 697V118L334 300H1067V0H110V1475H1067V1175H334Z" />
<glyph unicode="F" horiz-adv-x="1176" d="M330 1175L512 1357V771L389 866H997V565H389L512 668V0H110V1475H1086V1175H330Z" />
<glyph unicode="G" horiz-adv-x="1482" d="M725 -26Q543 -26 394 59T158 313T70 732Q70 982 164 1153T416 1412T770 1500Q935 1500 1049 1449T1235 1319T1339 1152T1372 993Q1372 990 1372 987T1372 981H980Q980 984 980 987T980 993Q980 1031 966 1066T924 1128T857
1172T770 1188Q704 1188 637 1149T525 1012T480 732Q480 596 505 509T572 373T664 305T765 285Q837 285 888 308T970 366T1009 434V490H763V769H1366V0H1178L1137 163Q1130 141 1104 109T1028 46T904 -5T725 -26Z" />
<glyph unicode="H" horiz-adv-x="1479" d="M1369 1475V0H965V682L1147 583H332L514 676V0H110V1475H514V789L332 884H1147L965 790V1475H1369Z" />
<glyph unicode="I" horiz-adv-x="608" d="M105 0V1475H503V0H105Z" />
<glyph unicode="J" horiz-adv-x="1222" d="M579 -26Q379 -26 261 39T92 222T40 492Q40 511 40 529T40 567H441Q441 560 441 549T441 527Q441 473 450 417T488 323T579 285Q642 285 669 324T702 424T709 551V1475H1112V493Q1112 390 1088 297T1006 131T843 16T579 -26Z" />
<glyph unicode="K" horiz-adv-x="1420" d="M783 695L795 1003L1385 0H947L577 695L750 671L481 304L513 555V0H110V1475H513V739L439 769L936 1475H1359L783 695Z" />
<glyph unicode="L" horiz-adv-x="1105" d="M110 0V1475H514V119L332 321H1040V0H110Z" />
<glyph unicode="M" horiz-adv-x="1972" d="M1173 1475H1852V0H1469V1260L1476 1256L1247 0H733L497 1259L504 1263V0H120V1475H799L1005 154H964L1173 1475Z" />
<glyph unicode="N" horiz-adv-x="1558" d="M503 0H110V1475H726L1133 121L1055 105V1475H1448V0H827L420 1349L503 1365V0Z" />
<glyph unicode="O" horiz-adv-x="1564" d="M782 -26Q639 -26 511 23T283 169T127 409T70 739Q70 927 126 1069T281 1307T508 1451T782 1500Q927 1500 1056 1452T1283 1307T1438 1069T1494 739Q1494 552 1437 409T1281 169T1053 23T782 -26ZM782 286Q856 286 925
326T1039 466T1084 739Q1084 914 1039 1011T925 1148T782 1188Q709 1188 640 1149T525 1012T480 739Q480 564 525 466T639 327T782 286Z" />
<glyph unicode="P" horiz-adv-x="1295" d="M514 0H110V1475H675Q843 1475 968 1409T1162 1227T1231 967Q1231 822 1162 704T968 515T675 444H514V0ZM514 561L332 743H634Q684 743 727 767T798 842T825 967Q825 1042 798 1088T728 1154T634 1175H332L514 1357V561Z" />
<glyph unicode="Q" horiz-adv-x="1564" d="M598 22H938Q938 -18 970 -43T1048 -83T1133 -103T1188 -111L1076 -378Q1062 -378 1010 -371T889 -342T753 -277T642 -160T598 22ZM782 -26Q639 -26 511 23T283 169T127 409T70 739Q70 927 126 1069T281 1307T508 1451T782
1500Q927 1500 1056 1452T1283 1307T1438 1069T1494 739Q1494 552 1437 409T1281 169T1053 23T782 -26ZM782 286Q856 286 925 326T1039 466T1084 739Q1084 914 1039 1011T925 1148T782 1188Q709 1188 640 1149T525 1012T480 739Q480 564 525 466T639 327T782 286Z"
/>
<glyph unicode="R" horiz-adv-x="1331" d="M110 0V1475H764Q1016 1475 1136 1364T1257 1053Q1257 941 1214 862T1107 740T980 692Q1045 688 1101 661T1191 575T1226 414Q1226 350 1226 292T1226 170Q1226 117 1234 70T1261 0H857Q841 25 833 71T824 170Q824 225
824 269T824 368Q824 448 790 494T667 541H399L504 664V0H110ZM504 700L399 841H671Q722 841 760 862T820 922T842 1015Q842 1080 796 1128T669 1176H389L504 1296V700Z" />
<glyph unicode="S" horiz-adv-x="1296" d="M645 -26Q481 -26 351 26T146 183T70 441Q70 454 70 467T70 493H473Q473 482 473 471T473 449Q473 379 516 332T649 285Q735 285 784 310T834 394Q834 437 788 474T663 544T488 607Q384 640 291 696T138 841T79 1064Q79
1201 155 1298T359 1448T645 1500Q808 1500 936 1449T1140 1299T1215 1054Q1215 1041 1215 1029T1215 1004H812Q812 1009 812 1019T812 1035Q812 1100 776 1145T650 1190Q562 1190 515 1158T467 1065Q467 1022 507 990T617 929T777 869Q911 822 1012 766T1169 624T1226
406Q1226 267 1151 171T945 24T645 -26Z" />
<glyph unicode="T" horiz-adv-x="1214" d="M1154 1175H626L808 1357V0H405V1357L587 1175H60V1475H1154V1175Z" />
<glyph unicode="U" horiz-adv-x="1388" d="M1278 525Q1278 250 1121 112T693 -26Q423 -26 267 112T110 525Q110 560 110 598T110 678V1475H514V615Q514 587 514 562T514 515Q514 403 552 344T693 285Q795 285 834 344T874 515V1475H1278V525Z" />
<glyph unicode="V" horiz-adv-x="1366" d="M380 0L40 1475H487L691 231H676L879 1475H1326L988 0H380Z" />
<glyph unicode="W" horiz-adv-x="1998" d="M264 0L60 1475H475L603 63L546 66L753 1475H1246L1452 66L1395 63L1523 1475H1938L1734 0H1117L980 1213H1020L882 0H264Z" />
<glyph unicode="X" horiz-adv-x="1418" d="M534 892L530 566L48 1475H501L772 833H645L913 1475H1367L889 566L886 892L1381 0H927L638 625H778L489 0H36L534 892Z" />
<glyph unicode="Y" horiz-adv-x="1355" d="M1315 1475L877 505V0H475V505L40 1475H467L756 692H598L887 1475H1315Z" />
<glyph unicode="Z" horiz-adv-x="1212" d="M528 301H1126V0H77V257L686 1177L688 1175H122V1475H1135V1221L528 303V301Z" />
<glyph unicode="[" horiz-adv-x="930" d="M801 1663V1374H490V-148H801V-437H131V1663H801Z" />
<glyph unicode="\" horiz-adv-x="855" d="M20 1563H341L849 -155H528L20 1563Z" />
<glyph unicode="]" horiz-adv-x="930" d="M131 1663H801V-437H131V-148H442V1374H131V1663Z" />
<glyph unicode="^" horiz-adv-x="1350" d="M170 837L525 1533H788L1145 837H817L607 1387H707L498 837H170Z" />
<glyph unicode="_" horiz-adv-x="1312" d="M22 -376V-111H1310V-376H22Z" />
<glyph unicode="`" horiz-adv-x="759" d="M650 1184H403L122 1475H413L650 1184Z" />
<glyph unicode="a" horiz-adv-x="1281" d="M453 -24Q339 -24 249 12T107 118T55 288Q55 406 122 478T295 587T514 634Q675 649 731 660T787 699Q787 699 787 699T787 700Q787 737 743 763T624 790Q544 790 505 761T466 675H69Q69 809 144 900T345 1037T627 1084Q774
1084 902 1040T1111 906T1191 674Q1191 653 1191 632T1191 590V261Q1191 217 1193 176T1205 100Q1216 63 1234 37T1263 0H869Q860 9 843 33T815 88Q800 133 794 172T787 269L875 208Q848 135 784 83T633 4T453 -24ZM573 262Q625 262 675 285T760 361T794 507V545L897
462Q831 439 750 424T595 400Q526 393 493 378T459 328Q459 294 489 278T573 262Z" />
<glyph unicode="b" horiz-adv-x="1365" d="M818 -25Q691 -25 588 46T423 237T362 505Q362 510 362 515T362 525L504 528Q504 525 504 522T504 515Q504 449 533 404T608 337T702 314Q778 314 841 367T904 538Q904 656 842 706T702 757Q655 757 610 736T534 671T504
561L362 571Q362 719 423 834T587 1016T818 1083Q947 1083 1061 1020T1248 836T1320 538Q1320 352 1250 227T1066 39T818 -25ZM100 0V1563H504V0H100Z" />
<glyph unicode="c" horiz-adv-x="1272" d="M656 -26Q465 -26 328 47T118 247T45 536Q45 699 118 822T328 1014T656 1084Q797 1084 904 1044T1082 939T1190 795T1227 640Q1227 638 1227 636T1227 631H828Q828 637 828 642T825 652Q817 678 800 706T749 753T652
773Q591 773 547 745T478 664T454 536Q454 463 478 406T546 317T652 285Q712 285 748 303T803 352T827 424H1227Q1227 348 1191 269T1083 123T904 15T656 -26Z" />
<glyph unicode="d" horiz-adv-x="1361" d="M547 -26Q414 -26 300 37T115 226T45 538Q45 714 117 836T304 1021T547 1084Q675 1084 778 1017T942 835T1003 571Q1003 565 1003 560T1003 548H861Q861 551 861 554T861 561Q861 628 831 671T756 735T663 757Q587 757
524 707T461 538Q461 420 524 367T663 314Q711 314 756 336T831 404T861 515L1003 505Q1003 358 942 238T778 46T547 -26ZM861 0V1563H1265V0H861Z" />
<glyph unicode="e" horiz-adv-x="1308" d="M262 421V661H888L858 609Q858 617 858 626T858 643Q858 677 839 713T776 775T659 800Q588 800 540 770T468 682T444 539Q444 451 467 389T540 295T671 262Q719 262 753 269T807 287T838 311T851 336H1249Q1242 266 1199
201T1079 85T896 4T654 -26Q467 -26 330 44T119 240T45 529Q45 696 121 821T334 1015T654 1084Q842 1084 978 1014T1189 814T1263 506Q1263 476 1262 455T1259 421H262Z" />
<glyph unicode="f" horiz-adv-x="930" d="M227 0V762H13V1062H227V1093Q227 1221 264 1307T361 1447T494 1529T637 1567T766 1577Q843 1577 878 1569T925 1555V1252Q913 1256 881 1261T812 1267Q761 1267 726 1256T669 1221T639 1165T629 1089V1062H898V762H629V0H227Z" />
<glyph unicode="g" horiz-adv-x="1290" d="M869 166Q975 154 1054 125T1177 39T1221 -117Q1221 -231 1147 -308T935 -424T608 -463Q322 -463 159 -382T-5 -165Q-5 -131 3 -102T25 -51L386 -103Q383 -107 379 -116T375 -143Q375 -178 447 -199T617 -220Q683 -220
735 -211T817 -183T847 -142Q847 -110 811 -97T733 -78L332 -30Q214 -16 135 35T56 186Q56 247 92 295T173 375T247 416L421 323Q406 321 389 307T371 272Q371 250 398 233T496 208L869 166ZM946 1062H1295L1154 660Q1114 545 1050 457T883 320T619 270Q450 270
324 316T129 452T60 669Q60 797 129 890T318 1033T585 1084Q685 1084 774 1054T920 969T977 842L925 820L946 1062ZM617 548Q663 548 699 562T757 605T779 673Q779 714 758 741T700 783T617 797Q572 797 535 783T476 741T454 671Q454 631 476 604T535 562T617 548Z"
/>
<glyph unicode="h" horiz-adv-x="1332" d="M839 0V366Q839 382 839 414T839 480T839 532Q839 633 809 692T680 751Q616 751 577 725T521 650T503 532L425 612Q425 758 480 863T634 1026T866 1084Q1063 1084 1152 970T1242 651Q1242 600 1242 525T1242 340V0H839ZM100
0V1563H503V0H100Z" />
<glyph unicode="i" horiz-adv-x="544" d="M73 0V1062H472V0H73ZM272 1187Q183 1187 117 1233T50 1364Q50 1450 116 1495T272 1541Q361 1541 427 1496T494 1364Q494 1278 428 1233T272 1187Z" />
<glyph unicode="j" horiz-adv-x="559" d="M-40 -464Q-70 -464 -99 -463T-150 -460V-165Q-130 -168 -101 -170T-40 -173Q-4 -173 19 -165T56 -142T76 -112T82 -81V1062H484V-89Q484 -155 465 -221T392 -342T234 -430T-40 -464ZM286 1187Q197 1187 131 1233T64 1364Q64
1450 130 1495T286 1541Q375 1541 441 1496T508 1364Q508 1279 442 1233T286 1187Z" />
<glyph unicode="k" horiz-adv-x="1221" d="M100 0V1563H482V710L413 748L749 1062H1236L699 577L779 716L1218 0H797L514 507L622 510L445 345L482 514V0H100Z" />
<glyph unicode="l" horiz-adv-x="617" d="M512 1563V0H115V1563H512Z" />
<glyph unicode="m" horiz-adv-x="1928" d="M770 0V373Q770 429 770 471T770 542Q770 583 766 620T750 687T712 734T645 751Q610 751 584 735T539 688T512 616T503 522L426 612Q426 758 474 863T612 1026T829 1084Q969 1084 1042 1023T1143 864T1170 651Q1170 606
1170 526T1170 330V0H770ZM100 0V1062H503V0H100ZM1435 0V371Q1435 427 1435 470T1435 542Q1435 589 1430 627T1412 693T1375 736T1311 751Q1276 751 1250 735T1206 688T1179 616T1170 522L1093 612Q1093 758 1141 863T1279 1026T1495 1084Q1635 1084 1709 1023T1810
864T1838 651Q1838 604 1838 527T1838 333V0H1435Z" />
<glyph unicode="n" horiz-adv-x="1332" d="M839 0V413Q839 445 839 477T839 532Q839 587 830 637T787 719T680 751Q617 751 578 725T521 650T503 532L425 612Q425 758 484 863T645 1026T875 1084Q1011 1084 1091 1029T1206 875T1242 651Q1242 596 1242 525T1242
375V0H839ZM100 0V1062H503V0H100Z" />
<glyph unicode="o" horiz-adv-x="1302" d="M651 -25Q471 -25 335 45T122 240T45 530Q45 695 121 820T334 1014T651 1084Q831 1084 967 1015T1180 820T1257 530Q1257 365 1181 240T968 45T651 -25ZM651 280Q713 280 757 311T824 398T848 530Q848 606 825 661T757
747T651 778Q590 778 546 748T478 662T454 530Q454 454 477 398T545 311T651 280Z" />
<glyph unicode="p" horiz-adv-x="1365" d="M100 -437V1062H504V-437H100ZM818 -26Q691 -26 588 45T423 237T362 505Q362 510 362 515T362 525L504 528Q504 525 504 522T504 515Q504 449 533 404T608 337T702 314Q778 314 841 367T904 538Q904 656 842 706T702
757Q655 757 610 736T534 671T504 561L362 571Q362 719 423 834T587 1017T818 1084Q947 1084 1061 1021T1248 836T1320 538Q1320 352 1250 227T1066 38T818 -26Z" />
<glyph unicode="q" horiz-adv-x="1361" d="M547 -26Q414 -26 300 37T115 226T45 538Q45 714 117 836T304 1021T547 1084Q675 1084 778 1017T942 835T1003 571Q1003 565 1003 560T1003 548H861Q861 551 861 554T861 561Q861 628 831 671T756 735T663 757Q587 757
524 707T461 538Q461 420 524 367T663 314Q711 314 756 336T831 404T861 515L1003 505Q1003 358 942 238T778 46T547 -26ZM861 -437V1062H1265V-437H861Z" />
<glyph unicode="r" horiz-adv-x="996" d="M100 0V1062H504V669L435 723Q450 808 482 875T562 988T674 1059T816 1084Q881 1084 914 1076T956 1062L901 710Q892 715 861 725T786 736Q708 736 654 712T567 646T519 553T504 448V0H100Z" />
<glyph unicode="s" horiz-adv-x="1134" d="M565 -26Q471 -26 379 -4T212 64T91 179T45 341Q45 343 45 346T45 351H444Q444 349 444 346T444 341Q444 299 480 282T577 265Q599 265 628 270T678 289T700 325Q700 358 655 371T496 403Q428 414 352 435T209 494T100
590T58 733Q58 849 128 927T315 1044T570 1084Q701 1084 816 1040T1003 913T1075 719Q1075 717 1075 714T1075 709H680Q680 711 680 714T680 719Q680 747 663 763T619 788T567 796Q547 796 520 792T472 775T452 740Q452 720 477 706T547 683T647 665Q704 657 779
639T925 586T1042 490T1089 335Q1089 234 1043 165T919 54T749 -7T565 -26Z" />
<glyph unicode="t" horiz-adv-x="1014" d="M690 -26Q621 -26 545 -16T401 28T292 127T250 306Q250 329 250 352T250 397V762H13V1062H18Q96 1062 142 1069T212 1103T242 1188T250 1348V1410H654V1062H947V762H654V469Q654 454 654 440T654 410Q654 352 668 312T743
272Q779 272 811 279T859 293V2Q836 -8 793 -17T690 -26Z" />
<glyph unicode="u" horiz-adv-x="1312" d="M467 -21Q355 -21 284 14T172 110T116 248T100 411Q100 446 100 485T100 567V1062H503V635Q503 602 503 573T503 520Q503 463 512 416T552 340T642 311Q702 311 741 343T799 428T819 540L897 450Q897 341 868 254T783
106T648 12T467 -21ZM819 0V1062H1222V0H819Z" />
<glyph unicode="v" horiz-adv-x="1163" d="M1158 1062L859 0H311L5 1062H421L617 96H554L741 1062H1158Z" />
<glyph unicode="w" horiz-adv-x="1709" d="M957 0L785 1062H1061L1244 96L1181 94L1288 1062H1704L1503 0H957ZM205 0L5 1062H421L527 94L465 96L647 1062H923L753 0H205Z" />
<glyph unicode="x" horiz-adv-x="1244" d="M476 599L473 421L12 1062H451L749 594H507L809 1062H1239L801 468L768 670L1241 0H801L489 476H765L422 0H-8L476 599Z" />
<glyph unicode="y" horiz-adv-x="1178" d="M225 -467Q168 -467 125 -464T70 -456V-164Q83 -170 117 -173T192 -176Q232 -176 268 -161T331 -118T373 -47L382 -20L16 1062H436L624 220H580L759 1062H1173L825 -27Q778 -173 709 -271T526 -418T225 -467Z" />
<glyph unicode="z" horiz-adv-x="1069" d="M476 301H1017V0H50V283L572 778L583 762H67V1062H1003V779L487 286L476 301Z" />
<glyph unicode="{" horiz-adv-x="882" d="M792 1408Q714 1408 685 1370T656 1229V872Q656 772 609 718T495 644T371 623V643Q428 643 494 623T608 548T656 393Q656 348 656 287T656 164Q656 118 656 75T656 -2Q656 -104 685 -140T792 -176V-467Q638 -467 523 -437T343
-333T278 -126Q278 -86 278 -33T278 75Q278 132 278 186T278 281Q278 354 261 401T204 474T94 509V756Q163 765 203 791T261 864T278 984V1358Q278 1491 342 1565T522 1669T792 1699V1408Z" />
<glyph unicode="|" horiz-adv-x="664" d="M164 -280V1554H477V-280H164Z" />
<glyph unicode="}" horiz-adv-x="882" d="M94 1408V1699Q248 1699 363 1669T543 1565T608 1358Q608 1311 608 1264T608 1169Q608 1123 608 1077T608 984Q608 911 625 864T683 791T792 756V509Q723 500 683 474T626 401T608 281V-126Q608 -258 544 -332T364 -437T94
-467V-176Q172 -176 201 -140T230 -2V393Q230 494 277 548T391 622T515 643V623Q458 623 392 643T278 718T230 872Q230 923 230 973T230 1075Q230 1113 230 1152T230 1229Q230 1331 201 1369T94 1408Z" />
<glyph unicode="~" horiz-adv-x="1350" d="M1018 730Q1018 665 994 603T920 501T794 460Q735 460 697 482T639 525Q617 548 599 562T554 577Q524 577 508 552T491 477H295Q295 542 320 604T396 708T526 749Q578 749 616 726T677 682Q699 661 721 647T766 632Q791
632 806 656T822 730H1018Z" />
<glyph unicode="&#xa0;" horiz-adv-x="500" />
<glyph unicode="&#xa1;" horiz-adv-x="622" d="M132 -419L214 597H451L534 -419H132ZM330 1086Q412 1086 469 1029T527 889Q527 808 470 751T330 693Q249 693 192 750T134 889Q134 971 191 1028T330 1086Z" />
<glyph unicode="&#xa2;" horiz-adv-x="1272" d="M569 1475H744V0H569V1475ZM656 186Q465 186 328 259T118 459T45 748Q45 911 118 1034T328 1226T656 1296Q797 1296 904 1256T1082 1151T1190 1007T1227 852Q1227 850 1227 848T1227 843H828Q828 849 828 854T825
864Q817 890 800 918T749 965T652 985Q591 985 547 957T478 876T454 748Q454 675 478 618T546 529T652 497Q712 497 748 515T803 564T827 636H1227Q1227 560 1191 481T1083 335T904 227T656 186Z" />
<glyph unicode="&#xa3;" horiz-adv-x="1277" d="M64 544V789H814V544H64ZM906 1072Q894 1095 868 1125T798 1179T691 1202Q629 1202 582 1183T510 1128T484 1042Q484 984 502 939T543 843T585 718T603 524Q603 431 571 351T488 205T384 93T285 17T219 -17L63 213Q79
221 112 246T182 311T243 403T269 518Q269 582 248 643T198 769T147 903T125 1055Q125 1177 192 1275T378 1432T656 1491Q775 1491 860 1464T1003 1396T1095 1312T1147 1238L906 1072ZM1176 33Q1157 23 1084 -1T907 -26Q828 -26 764 -8T639 29T504 47Q438 47 378
34T276 5T219 -17L229 17Q244 22 268 57T328 140T408 235T508 313T631 345Q703 345 742 329T813 298T898 282Q955 282 992 299T1040 323L1176 33Z" />
<glyph unicode="&#xa4;" horiz-adv-x="1383" d="M1210 1313L1385 1138L1125 878L950 1052L1210 1313ZM1210 76L950 337L1125 511L1385 251L1210 76ZM217 1313L477 1052L302 878L42 1138L217 1313ZM217 76L42 251L302 511L477 337L217 76ZM703 146Q523 146 387
216T174 411T97 701Q97 866 173 991T386 1185T703 1255Q883 1255 1019 1186T1232 991T1309 701Q1309 536 1233 411T1020 216T703 146ZM703 451Q765 451 809 482T876 569T900 701Q900 777 877 832T809 918T703 949Q642 949 598 919T530 833T506 701Q506 625 529
569T597 482T703 451Z" />
<glyph unicode="&#xa5;" horiz-adv-x="1355" d="M191 497V742H1203V497H191ZM192 155V400H1204V155H192ZM1315 1475L877 505V0H475V505L40 1475H467L756 692H598L887 1475H1315Z" />
<glyph unicode="&#xa6;" horiz-adv-x="664" d="M164 -258V507H477V-258H164ZM164 791V1554H477V791H164Z" />
<glyph unicode="&#xa7;" horiz-adv-x="1284" d="M891 201L650 286Q682 301 731 330T819 405T858 514Q858 558 827 598T738 676T600 752Q494 802 395 861T233 995T169 1168Q169 1263 223 1334T380 1446T628 1486Q773 1486 872 1446T1023 1328T1075 1139Q1075 1132
1075 1126T1075 1113H737Q737 1120 737 1126T737 1139Q737 1180 730 1207T708 1252T671 1277T619 1285Q565 1285 535 1262T505 1189Q505 1141 547 1100T654 1025T784 961Q859 928 924 893T1038 811T1115 702T1143 551Q1143 487 1116 430T1048 326T965 247T891 201ZM624
-303Q479 -303 380 -263T229 -144T177 44Q177 51 177 57T177 70H515Q515 63 515 57T515 44Q515 4 522 -24T544 -69T581 -94T633 -102Q687 -102 717 -79T747 -6Q747 42 705 83T599 158T468 222Q393 255 328 290T214 372T137 481T109 632Q109 696 136 753T204 857T287
936T361 982L602 897Q570 883 521 853T433 778T394 669Q394 625 425 585T514 507T652 431Q758 382 857 323T1019 188T1083 15Q1083 -80 1029 -151T872 -263T624 -303Z" />
<glyph unicode="&#xa8;" horiz-adv-x="949" d="M202 1178Q121 1178 61 1219T0 1339Q0 1418 60 1459T202 1500Q282 1500 343 1459T404 1339Q404 1260 343 1219T202 1178ZM747 1178Q666 1178 606 1219T545 1339Q545 1418 605 1459T747 1500Q827 1500 888 1459T949
1339Q949 1260 888 1219T747 1178Z" />
<glyph unicode="&#xa9;" horiz-adv-x="1655" d="M804 28Q599 28 436 115T178 362T83 741Q83 959 177 1118T435 1364T804 1451Q1008 1451 1170 1364T1427 1118T1522 741Q1522 523 1428 363T1171 115T804 28ZM804 160Q968 160 1101 231T1312 432T1390 741Q1390 918
1312 1048T1101 1249T804 1320Q639 1320 506 1249T294 1048T215 741Q215 563 293 433T505 231T804 160ZM806 262Q686 262 579 314T404 472T336 738Q336 884 395 992T560 1160T806 1220Q915 1220 998 1187T1139 1099T1226 979T1256 851Q1256 844 1256 838T1256 824H967Q967
830 967 832T967 840Q967 868 958 895T928 945T878 981T806 995Q715 995 671 931T627 740Q627 656 647 600T707 515T806 487Q862 487 897 511T950 574T967 658H1256Q1256 534 1197 445T1035 309T806 262Z" />
<glyph unicode="&#xaa;" horiz-adv-x="728" d="M628 1021H469Q461 1035 455 1062T448 1115V1295Q448 1303 448 1311T448 1326Q448 1346 428 1359T367 1372Q321 1372 295 1358T268 1314H115Q115 1397 188 1441T368 1485Q466 1485 537 1446T609 1315Q609 1311 609
1307T609 1298V1145Q609 1095 614 1065T628 1021ZM278 1015Q197 1015 149 1049T100 1148Q100 1199 133 1226T216 1266T319 1284Q390 1291 419 1299T448 1326L483 1251Q479 1235 443 1222T344 1200Q304 1195 284 1188T263 1163Q263 1145 282 1137T334 1129Q375 1129
413 1154T451 1238L494 1182Q494 1131 464 1094T384 1036T278 1015Z" />
<glyph unicode="&#xab;" horiz-adv-x="1002" d="M574 885L247 565L574 251H343L20 565L343 885H574ZM982 885L656 565L980 251H750L428 565L752 885H982Z" />
<glyph unicode="&#xac;" horiz-adv-x="1350" d="M824 271V706L1006 524H279V769H1069V271H824Z" />
<glyph unicode="&#xad;" horiz-adv-x="686" d="M66 444V689H596V444H66Z" />
<glyph unicode="&#xae;" horiz-adv-x="1179" d="M580 499Q437 499 319 565T131 742T61 988Q61 1123 131 1234T319 1411T580 1477Q724 1477 841 1411T1029 1234T1099 988Q1099 853 1029 742T842 565T580 499ZM580 611Q702 611 791 660T928 794T976 988Q976 1097
928 1182T791 1316T580 1365Q458 1365 369 1316T232 1182T184 988Q184 879 232 794T369 660T580 611ZM384 713V1266H595Q686 1266 734 1226T782 1113Q782 1052 758 1023T702 990Q725 987 742 968T759 917Q759 890 759 848T759 778Q759 752 764 735T773 713H631Q629
718 626 736T622 778Q622 801 622 824T622 870Q622 896 615 908T592 923T554 927H525V713H384ZM525 1045H578Q616 1045 631 1065T647 1108Q647 1126 634 1141T581 1156H525V1045Z" />
<glyph unicode="&#xaf;" horiz-adv-x="900" d="M101 1266V1429H794V1266H101Z" />
<glyph unicode="&#xb0;" horiz-adv-x="648" d="M326 1240Q361 1240 385 1264T410 1324Q410 1359 386 1383T326 1408Q292 1408 267 1384T242 1324Q242 1289 266 1265T326 1240ZM326 1071Q257 1071 200 1105T108 1197T73 1324Q73 1394 107 1451T199 1542T326 1577Q396
1577 453 1543T544 1451T579 1325Q579 1255 545 1198T453 1106T326 1071Z" />
<glyph unicode="&#xb1;" horiz-adv-x="1350" d="M274 96V343H1068V96H274ZM1075 609H796V391H547V609H267V856H547V1075H796V856H1075V609Z" />
<glyph unicode="&#xb2;" horiz-adv-x="1060" d="M63 590V853Q77 858 135 879T271 931T421 993Q479 1018 531 1046T616 1106T649 1170Q649 1204 619 1227T520 1250Q435 1250 405 1219T375 1134H52Q52 1307 177 1400T525 1493Q673 1493 772 1449T922 1333T972 1177Q972
1098 925 1045T810 955T678 890Q638 873 597 859T525 835T486 824H955V590H63Z" />
<glyph unicode="&#xb3;" horiz-adv-x="1076" d="M782 1057Q886 1054 931 998T977 851Q977 783 931 719T785 614T528 572Q391 572 302 603T163 683T93 789T72 899Q72 900 72 900T72 901H394Q394 900 394 900T394 899Q394 844 432 829T532 814Q584 814 619 830T654
881Q654 907 634 920T583 939T526 944H497V1150H526Q554 1150 583 1155T633 1172T654 1206Q654 1231 621 1242T537 1253Q479 1253 437 1239T394 1178H72Q72 1250 116 1322T262 1444T530 1493Q689 1493 787 1456T931 1362T977 1243Q977 1171 931 1116T782 1057Z"
/>
<glyph unicode="&#xb4;" horiz-adv-x="608" d="M32 1184L269 1475H560L279 1184H32Z" />
<glyph unicode="&#xb5;" horiz-adv-x="1302" d="M809 0V1062H1212V0H809ZM809 540L921 450Q921 354 901 269T842 119T745 18T612 -19Q554 -19 528 -2T493 31V-437H90V1062H493V565Q493 554 493 543T493 520Q493 463 502 416T542 340T632 311Q692 311 731 343T789
428T809 540Z" />
<glyph unicode="&#xb6;" horiz-adv-x="1491" d="M674 -170V560H650Q502 560 400 599T234 704T143 852T114 1021Q114 1103 140 1183T227 1328T391 1433T650 1473H1350V-170H1077V1228H945V-170H674Z" />
<glyph unicode="&#xb7;" horiz-adv-x="629" d="M315 548Q233 548 176 605T118 745Q118 826 175 883T315 941Q396 941 453 884T511 745Q511 663 454 606T315 548Z" />
<glyph unicode="&#xb8;" horiz-adv-x="969" d="M602 -56Q638 -56 676 -70T740 -118T767 -207Q767 -278 722 -323T607 -389T460 -410Q393 -410 319 -393T213 -353L289 -212Q312 -225 366 -245T473 -265Q526 -265 561 -249T596 -199Q596 -173 579 -162T539 -150Q516
-150 494 -157T460 -182L314 -143L388 0H554L496 -107H486Q496 -83 524 -70T602 -56Z" />
<glyph unicode="&#xb9;" horiz-adv-x="789" d="M587 1473V590H267V1187Q259 1178 225 1165T144 1142T45 1132V1360Q97 1364 144 1380T226 1422T272 1473H587Z" />
<glyph unicode="&#xba;" horiz-adv-x="800" d="M389 1018Q322 1018 264 1046T169 1126T133 1249Q133 1320 169 1372T263 1452T389 1481Q459 1481 518 1453T613 1372T650 1249Q650 1178 614 1126T518 1046T389 1018ZM389 1158Q415 1158 438 1167T477 1196T492 1249Q492
1283 477 1302T439 1331T389 1340Q365 1340 342 1331T305 1303T290 1249Q290 1216 304 1196T342 1167T389 1158Z" />
<glyph unicode="&#xbb;" horiz-adv-x="975" d="M399 885H629L955 565L629 251H399L728 565L399 885ZM20 885H250L576 565L251 251H21L347 565L20 885Z" />
<glyph unicode="&#xbc;" horiz-adv-x="2209" d="M587 1473V590H267V1187Q259 1178 225 1165T144 1142T45 1132V1360Q97 1364 144 1380T226 1422T272 1473H587ZM269 0L1402 1475H1687L554 0H269ZM1693 0V138H1216V336L1605 883H2015V353H2145V138H2015V0H1693ZM1449
224L1367 353H1693V685L1754 667L1449 224Z" />
<glyph unicode="&#xbd;" horiz-adv-x="2227" d="M587 1473V590H267V1187Q259 1178 225 1165T144 1142T45 1132V1360Q97 1364 144 1380T226 1422T272 1473H587ZM269 0L1402 1475H1687L554 0H269ZM1230 0V263Q1244 268 1302 289T1438 341T1588 403Q1646 428 1698
456T1783 516T1816 580Q1816 614 1786 637T1687 660Q1602 660 1572 629T1542 544H1219Q1219 717 1344 810T1692 903Q1840 903 1939 859T2089 743T2139 587Q2139 508 2092 455T1977 365T1845 300Q1805 283 1764 269T1692 245T1653 234H2122V0H1230Z" />
<glyph unicode="&#xbe;" horiz-adv-x="2496" d="M782 1057Q886 1054 931 998T977 851Q977 783 931 719T785 614T528 572Q391 572 302 603T163 683T93 789T72 899Q72 900 72 900T72 901H394Q394 900 394 900T394 899Q394 844 432 829T532 814Q584 814 619 830T654
881Q654 907 634 920T583 939T526 944H497V1150H526Q554 1150 583 1155T633 1172T654 1206Q654 1231 621 1242T537 1253Q479 1253 437 1239T394 1178H72Q72 1250 116 1322T262 1444T530 1493Q689 1493 787 1456T931 1362T977 1243Q977 1171 931 1116T782 1057ZM556
0L1689 1475H1974L841 0H556ZM1980 0V138H1503V336L1892 883H2302V353H2432V138H2302V0H1980ZM1736 224L1654 353H1980V685L2041 667L1736 224Z" />
<glyph unicode="&#xbf;" horiz-adv-x="1159" d="M726 609Q726 514 697 438T624 301T535 188Q503 151 476 115T433 42T417 -34Q417 -98 452 -132T553 -166Q627 -166 671 -113T715 53H1068Q1068 -121 998 -228T812 -383T559 -432Q422 -432 311 -386T133 -247T67
-11Q67 73 96 137T172 253T266 350Q329 410 377 470T425 609H726ZM559 1086Q641 1086 698 1029T756 889Q756 808 699 751T559 693Q478 693 421 750T363 889Q363 971 420 1028T559 1086Z" />
<glyph unicode="&#xc0;" horiz-adv-x="1405" d="M40 0L383 1475H1024L1365 0H952L703 1234H705L453 0H40ZM340 310V613H1068V310H340ZM898 1563H641L330 1787H631L898 1563Z" />
<glyph unicode="&#xc1;" horiz-adv-x="1405" d="M40 0L383 1475H1024L1365 0H952L703 1234H705L453 0H40ZM340 310V613H1068V310H340ZM507 1563L774 1787H1075L764 1563H507Z" />
<glyph unicode="&#xc2;" horiz-adv-x="1405" d="M40 0L383 1475H1024L1365 0H952L703 1234H705L453 0H40ZM340 310V613H1068V310H340ZM321 1562L580 1787H829L1087 1562H841L651 1731H754L566 1562H321Z" />
<glyph unicode="&#xc3;" horiz-adv-x="1405" d="M40 0L383 1475H1024L1365 0H952L703 1234H705L453 0H40ZM340 310V613H1068V310H340ZM1075 1816Q1075 1751 1051 1689T977 1587T851 1546Q792 1546 754 1568T696 1611Q674 1634 656 1648T611 1663Q581 1663 565
1638T548 1563H352Q352 1628 377 1690T453 1794T583 1835Q635 1835 673 1812T734 1768Q756 1747 778 1733T823 1718Q848 1718 863 1742T879 1816H1075Z" />
<glyph unicode="&#xc4;" horiz-adv-x="1405" d="M40 0L383 1475H1024L1365 0H952L703 1234H705L453 0H40ZM340 310V613H1068V310H340ZM432 1530Q351 1530 291 1571T230 1691Q230 1770 290 1811T432 1852Q512 1852 573 1811T634 1691Q634 1612 573 1571T432 1530ZM977
1530Q896 1530 836 1571T775 1691Q775 1770 835 1811T977 1852Q1057 1852 1118 1811T1179 1691Q1179 1612 1118 1571T977 1530Z" />
<glyph unicode="&#xc5;" horiz-adv-x="1405" d="M40 0L383 1475H1024L1365 0H952L703 1234H705L453 0H40ZM340 310V613H1068V310H340ZM704 1684Q739 1684 763 1708T788 1768Q788 1803 764 1827T704 1852Q669 1852 645 1828T620 1768Q620 1733 644 1709T704 1684ZM704
1515Q635 1515 578 1549T486 1641T451 1768Q451 1838 485 1895T577 1986T704 2021Q774 2021 831 1987T922 1895T957 1769Q957 1699 923 1642T831 1550T704 1515Z" />
<glyph unicode="&#xc6;" horiz-adv-x="2067" d="M0 0L837 1475H1957V1175H1255L1386 1306V776L1272 890H1846V590H1282L1386 694V186L1272 300H1957V0H999V1151L1029 1127L437 0H0ZM458 260L537 544H1182V260H458Z" />
<glyph unicode="&#xc7;" horiz-adv-x="1469" d="M1399 557Q1399 456 1361 354T1244 165T1045 27T759 -26Q592 -26 464 33T248 198T115 442T70 738Q70 896 115 1034T247 1276T463 1440T759 1500Q939 1500 1066 1439T1271 1279T1379 1067Q1399 990 1399 918H994Q994
950 990 974Q981 1039 951 1087T873 1161T759 1188Q681 1188 618 1142T518 997T480 738Q480 579 517 479T618 332T759 285Q815 285 858 305T932 363T978 449T994 557H1399ZM881 -56Q917 -56 955 -70T1019 -118T1046 -207Q1046 -278 1001 -323T886 -389T739 -410Q672
-410 598 -393T492 -353L568 -212Q591 -225 645 -245T752 -265Q805 -265 840 -249T875 -199Q875 -173 858 -162T818 -150Q795 -150 773 -157T739 -182L593 -143L667 0H833L775 -107H765Q775 -83 803 -70T881 -56Z" />
<glyph unicode="&#xc8;" horiz-adv-x="1177" d="M334 1175L516 1357V782L426 890H956V590H426L516 697V118L334 300H1067V0H110V1475H1067V1175H334ZM797 1563H540L229 1787H530L797 1563Z" />
<glyph unicode="&#xc9;" horiz-adv-x="1177" d="M334 1175L516 1357V782L426 890H956V590H426L516 697V118L334 300H1067V0H110V1475H1067V1175H334ZM406 1563L673 1787H974L663 1563H406Z" />
<glyph unicode="&#xca;" horiz-adv-x="1177" d="M334 1175L516 1357V782L426 890H956V590H426L516 697V118L334 300H1067V0H110V1475H1067V1175H334ZM220 1562L479 1787H728L986 1562H740L550 1731H653L465 1562H220Z" />
<glyph unicode="&#xcb;" horiz-adv-x="1177" d="M334 1175L516 1357V782L426 890H956V590H426L516 697V118L334 300H1067V0H110V1475H1067V1175H334ZM331 1530Q250 1530 190 1571T129 1691Q129 1770 189 1811T331 1852Q411 1852 472 1811T533 1691Q533 1612 472
1571T331 1530ZM876 1530Q795 1530 735 1571T674 1691Q674 1770 734 1811T876 1852Q956 1852 1017 1811T1078 1691Q1078 1612 1017 1571T876 1530Z" />
<glyph unicode="&#xcc;" horiz-adv-x="608" d="M105 0V1475H503V0H105ZM499 1563H242L-69 1787H232L499 1563Z" />
<glyph unicode="&#xcd;" horiz-adv-x="608" d="M105 0V1475H503V0H105ZM108 1563L375 1787H676L365 1563H108Z" />
<glyph unicode="&#xce;" horiz-adv-x="608" d="M105 0V1475H503V0H105ZM-78 1562L181 1787H430L688 1562H442L252 1731H355L167 1562H-78Z" />
<glyph unicode="&#xcf;" horiz-adv-x="608" d="M105 0V1475H503V0H105ZM344 1536Q263 1536 203 1577T142 1697Q142 1776 202 1817T344 1858Q424 1858 485 1817T546 1697Q546 1618 485 1577T344 1536ZM783 1536Q702 1536 642 1577T581 1697Q581 1776 641 1817T783
1858Q863 1858 924 1817T985 1697Q985 1618 924 1577T783 1536Z" />
<glyph unicode="&#xd0;" horiz-adv-x="1403" d="M16 645V824H766V645H16ZM110 0V1475H658Q807 1475 931 1420T1145 1266T1284 1033T1333 741Q1333 583 1284 448T1145 213T931 56T658 0H110ZM514 118L332 300H604Q690 300 762 353T879 506T923 741Q923 878 879
975T763 1123T604 1175H332L514 1357V118Z" />
<glyph unicode="&#xd1;" horiz-adv-x="1558" d="M503 0H110V1475H726L1133 121L1055 105V1475H1448V0H827L420 1349L503 1365V0ZM1173 1816Q1173 1751 1149 1689T1075 1587T949 1546Q890 1546 852 1568T794 1611Q772 1634 754 1648T709 1663Q679 1663 663 1638T646
1563H450Q450 1628 475 1690T551 1794T681 1835Q733 1835 771 1812T832 1768Q854 1747 876 1733T921 1718Q946 1718 961 1742T977 1816H1173Z" />
<glyph unicode="&#xd2;" horiz-adv-x="1564" d="M782 -26Q639 -26 511 23T283 169T127 409T70 739Q70 927 126 1069T281 1307T508 1451T782 1500Q927 1500 1056 1452T1283 1307T1438 1069T1494 739Q1494 552 1437 409T1281 169T1053 23T782 -26ZM782 286Q856 286
925 326T1039 466T1084 739Q1084 914 1039 1011T925 1148T782 1188Q709 1188 640 1149T525 1012T480 739Q480 564 525 466T639 327T782 286ZM976 1563H719L408 1787H709L976 1563Z" />
<glyph unicode="&#xd3;" horiz-adv-x="1564" d="M782 -26Q639 -26 511 23T283 169T127 409T70 739Q70 927 126 1069T281 1307T508 1451T782 1500Q927 1500 1056 1452T1283 1307T1438 1069T1494 739Q1494 552 1437 409T1281 169T1053 23T782 -26ZM782 286Q856 286
925 326T1039 466T1084 739Q1084 914 1039 1011T925 1148T782 1188Q709 1188 640 1149T525 1012T480 739Q480 564 525 466T639 327T782 286ZM585 1563L852 1787H1153L842 1563H585Z" />
<glyph unicode="&#xd4;" horiz-adv-x="1564" d="M782 -26Q639 -26 511 23T283 169T127 409T70 739Q70 927 126 1069T281 1307T508 1451T782 1500Q927 1500 1056 1452T1283 1307T1438 1069T1494 739Q1494 552 1437 409T1281 169T1053 23T782 -26ZM782 286Q856 286
925 326T1039 466T1084 739Q1084 914 1039 1011T925 1148T782 1188Q709 1188 640 1149T525 1012T480 739Q480 564 525 466T639 327T782 286ZM399 1562L658 1787H907L1165 1562H919L729 1731H832L644 1562H399Z" />
<glyph unicode="&#xd5;" horiz-adv-x="1564" d="M782 -26Q639 -26 511 23T283 169T127 409T70 739Q70 927 126 1069T281 1307T508 1451T782 1500Q927 1500 1056 1452T1283 1307T1438 1069T1494 739Q1494 552 1437 409T1281 169T1053 23T782 -26ZM782 286Q856 286
925 326T1039 466T1084 739Q1084 914 1039 1011T925 1148T782 1188Q709 1188 640 1149T525 1012T480 739Q480 564 525 466T639 327T782 286ZM1153 1816Q1153 1751 1129 1689T1055 1587T929 1546Q870 1546 832 1568T774 1611Q752 1634 734 1648T689 1663Q659 1663
643 1638T626 1563H430Q430 1628 455 1690T531 1794T661 1835Q713 1835 751 1812T812 1768Q834 1747 856 1733T901 1718Q926 1718 941 1742T957 1816H1153Z" />
<glyph unicode="&#xd6;" horiz-adv-x="1564" d="M782 -26Q639 -26 511 23T283 169T127 409T70 739Q70 927 126 1069T281 1307T508 1451T782 1500Q927 1500 1056 1452T1283 1307T1438 1069T1494 739Q1494 552 1437 409T1281 169T1053 23T782 -26ZM782 286Q856 286
925 326T1039 466T1084 739Q1084 914 1039 1011T925 1148T782 1188Q709 1188 640 1149T525 1012T480 739Q480 564 525 466T639 327T782 286ZM510 1530Q429 1530 369 1571T308 1691Q308 1770 368 1811T510 1852Q590 1852 651 1811T712 1691Q712 1612 651 1571T510
1530ZM1055 1530Q974 1530 914 1571T853 1691Q853 1770 913 1811T1055 1852Q1135 1852 1196 1811T1257 1691Q1257 1612 1196 1571T1055 1530Z" />
<glyph unicode="&#xd7;" horiz-adv-x="1350" d="M456 160L281 334L892 883L1069 710L456 160ZM1069 334L892 157L281 708L456 883L1069 334Z" />
<glyph unicode="&#xd8;" horiz-adv-x="1564" d="M1375 1484L392 -125L189 -8L1170 1601L1375 1484ZM782 -26Q639 -26 511 23T283 169T127 409T70 739Q70 927 126 1069T281 1307T508 1451T782 1500Q927 1500 1056 1452T1283 1307T1438 1069T1494 739Q1494 552 1437
409T1281 169T1053 23T782 -26ZM782 286Q856 286 925 326T1039 466T1084 739Q1084 914 1039 1011T925 1148T782 1188Q709 1188 640 1149T525 1012T480 739Q480 564 525 466T639 327T782 286Z" />
<glyph unicode="&#xd9;" horiz-adv-x="1388" d="M1278 525Q1278 250 1121 112T693 -26Q423 -26 267 112T110 525Q110 560 110 598T110 678V1475H514V615Q514 587 514 562T514 515Q514 403 552 344T693 285Q795 285 834 344T874 515V1475H1278V525ZM888 1563H631L320
1787H621L888 1563Z" />
<glyph unicode="&#xda;" horiz-adv-x="1388" d="M1278 525Q1278 250 1121 112T693 -26Q423 -26 267 112T110 525Q110 560 110 598T110 678V1475H514V615Q514 587 514 562T514 515Q514 403 552 344T693 285Q795 285 834 344T874 515V1475H1278V525ZM497 1563L764
1787H1065L754 1563H497Z" />
<glyph unicode="&#xdb;" horiz-adv-x="1388" d="M1278 525Q1278 250 1121 112T693 -26Q423 -26 267 112T110 525Q110 560 110 598T110 678V1475H514V615Q514 587 514 562T514 515Q514 403 552 344T693 285Q795 285 834 344T874 515V1475H1278V525ZM311 1562L570
1787H819L1077 1562H831L641 1731H744L556 1562H311Z" />
<glyph unicode="&#xdc;" horiz-adv-x="1388" d="M1278 525Q1278 250 1121 112T693 -26Q423 -26 267 112T110 525Q110 560 110 598T110 678V1475H514V615Q514 587 514 562T514 515Q514 403 552 344T693 285Q795 285 834 344T874 515V1475H1278V525ZM422 1530Q341
1530 281 1571T220 1691Q220 1770 280 1811T422 1852Q502 1852 563 1811T624 1691Q624 1612 563 1571T422 1530ZM967 1530Q886 1530 826 1571T765 1691Q765 1770 825 1811T967 1852Q1047 1852 1108 1811T1169 1691Q1169 1612 1108 1571T967 1530Z" />
<glyph unicode="&#xdd;" horiz-adv-x="1355" d="M1315 1475L877 505V0H475V505L40 1475H467L756 692H598L887 1475H1315ZM482 1563L749 1787H1050L739 1563H482Z" />
<glyph unicode="&#xde;" horiz-adv-x="1250" d="M110 0V1473H513V1032L392 1153H680Q830 1153 942 1106T1117 965T1180 728Q1180 586 1117 492T942 352T680 305H392L513 426V0H110ZM513 511L419 605H638Q681 605 712 620T761 662T779 729Q779 770 762 797T712
838T638 852H411L513 954V511Z" />
<glyph unicode="&#xdf;" horiz-adv-x="1302" d="M72 0V933Q72 1080 111 1179T214 1340T358 1434T520 1477T675 1489Q808 1489 920 1444T1101 1312T1170 1104Q1170 1018 1141 969T1079 887Q1055 863 1039 843T1022 796Q1022 770 1049 743T1114 684Q1149 656 1182
617T1236 525T1257 405Q1257 276 1206 183T1039 38T727 -13Q681 -13 633 -7T558 7L607 302Q624 296 656 287T729 278Q800 278 830 303T861 397Q861 424 849 449T815 499T770 550Q725 599 685 656T645 789Q645 857 671 896T728 965Q755 991 775 1016T795 1078Q795
1105 783 1130T743 1171T663 1188Q559 1188 515 1121T471 881V0H72Z" />
<glyph unicode="&#xe0;" horiz-adv-x="1281" d="M453 -24Q339 -24 249 12T107 118T55 288Q55 406 122 478T295 587T514 634Q675 649 731 660T787 699Q787 699 787 699T787 700Q787 737 743 763T624 790Q544 790 505 761T466 675H69Q69 809 144 900T345 1037T627
1084Q774 1084 902 1040T1111 906T1191 674Q1191 653 1191 632T1191 590V261Q1191 217 1193 176T1205 100Q1216 63 1234 37T1263 0H869Q860 9 843 33T815 88Q800 133 794 172T787 269L875 208Q848 135 784 83T633 4T453 -24ZM573 262Q625 262 675 285T760 361T794
507V545L897 462Q831 439 750 424T595 400Q526 393 493 378T459 328Q459 294 489 278T573 262ZM842 1175H595L314 1466H605L842 1175Z" />
<glyph unicode="&#xe1;" horiz-adv-x="1281" d="M453 -24Q339 -24 249 12T107 118T55 288Q55 406 122 478T295 587T514 634Q675 649 731 660T787 699Q787 699 787 699T787 700Q787 737 743 763T624 790Q544 790 505 761T466 675H69Q69 809 144 900T345 1037T627
1084Q774 1084 902 1040T1111 906T1191 674Q1191 653 1191 632T1191 590V261Q1191 217 1193 176T1205 100Q1216 63 1234 37T1263 0H869Q860 9 843 33T815 88Q800 133 794 172T787 269L875 208Q848 135 784 83T633 4T453 -24ZM573 262Q625 262 675 285T760 361T794
507V545L897 462Q831 439 750 424T595 400Q526 393 493 378T459 328Q459 294 489 278T573 262ZM450 1184L687 1475H978L697 1184H450Z" />
<glyph unicode="&#xe2;" horiz-adv-x="1281" d="M453 -24Q339 -24 249 12T107 118T55 288Q55 406 122 478T295 587T514 634Q675 649 731 660T787 699Q787 699 787 699T787 700Q787 737 743 763T624 790Q544 790 505 761T466 675H69Q69 809 144 900T345 1037T627
1084Q774 1084 902 1040T1111 906T1191 674Q1191 653 1191 632T1191 590V261Q1191 217 1193 176T1205 100Q1216 63 1234 37T1263 0H869Q860 9 843 33T815 88Q800 133 794 172T787 269L875 208Q848 135 784 83T633 4T453 -24ZM573 262Q625 262 675 285T760 361T794
507V545L897 462Q831 439 750 424T595 400Q526 393 493 378T459 328Q459 294 489 278T573 262ZM264 1184L523 1475H772L1030 1184H784L594 1403H697L509 1184H264Z" />
<glyph unicode="&#xe3;" horiz-adv-x="1281" d="M453 -24Q339 -24 249 12T107 118T55 288Q55 406 122 478T295 587T514 634Q675 649 731 660T787 699Q787 699 787 699T787 700Q787 737 743 763T624 790Q544 790 505 761T466 675H69Q69 809 144 900T345 1037T627
1084Q774 1084 902 1040T1111 906T1191 674Q1191 653 1191 632T1191 590V261Q1191 217 1193 176T1205 100Q1216 63 1234 37T1263 0H869Q860 9 843 33T815 88Q800 133 794 172T787 269L875 208Q848 135 784 83T633 4T453 -24ZM573 262Q625 262 675 285T760 361T794
507V545L897 462Q831 439 750 424T595 400Q526 393 493 378T459 328Q459 294 489 278T573 262ZM1008 1459Q1008 1394 984 1332T910 1230T784 1189Q725 1189 687 1211T629 1254Q607 1277 589 1291T544 1306Q514 1306 498 1281T481 1206H285Q285 1271 310 1333T386
1437T516 1478Q568 1478 606 1455T667 1411Q689 1390 711 1376T756 1361Q781 1361 796 1385T812 1459H1008Z" />
<glyph unicode="&#xe4;" horiz-adv-x="1281" d="M453 -24Q339 -24 249 12T107 118T55 288Q55 406 122 478T295 587T514 634Q675 649 731 660T787 699Q787 699 787 699T787 700Q787 737 743 763T624 790Q544 790 505 761T466 675H69Q69 809 144 900T345 1037T627
1084Q774 1084 902 1040T1111 906T1191 674Q1191 653 1191 632T1191 590V261Q1191 217 1193 176T1205 100Q1216 63 1234 37T1263 0H869Q860 9 843 33T815 88Q800 133 794 172T787 269L875 208Q848 135 784 83T633 4T453 -24ZM573 262Q625 262 675 285T760 361T794
507V545L897 462Q831 439 750 424T595 400Q526 393 493 378T459 328Q459 294 489 278T573 262ZM373 1178Q292 1178 232 1219T171 1339Q171 1418 231 1459T373 1500Q453 1500 514 1459T575 1339Q575 1260 514 1219T373 1178ZM918 1178Q837 1178 777 1219T716 1339Q716
1418 776 1459T918 1500Q998 1500 1059 1459T1120 1339Q1120 1260 1059 1219T918 1178Z" />
<glyph unicode="&#xe5;" horiz-adv-x="1281" d="M453 -24Q339 -24 249 12T107 118T55 288Q55 406 122 478T295 587T514 634Q675 649 731 660T787 699Q787 699 787 699T787 700Q787 737 743 763T624 790Q544 790 505 761T466 675H69Q69 809 144 900T345 1037T627
1084Q774 1084 902 1040T1111 906T1191 674Q1191 653 1191 632T1191 590V261Q1191 217 1193 176T1205 100Q1216 63 1234 37T1263 0H869Q860 9 843 33T815 88Q800 133 794 172T787 269L875 208Q848 135 784 83T633 4T453 -24ZM573 262Q625 262 675 285T760 361T794
507V545L897 462Q831 439 750 424T595 400Q526 393 493 378T459 328Q459 294 489 278T573 262ZM647 1304Q682 1304 706 1328T731 1388Q731 1423 707 1447T647 1472Q612 1472 588 1448T563 1388Q563 1353 587 1329T647 1304ZM647 1135Q578 1135 521 1169T429 1261T394
1388Q394 1458 428 1515T520 1606T647 1641Q717 1641 774 1607T865 1515T900 1389Q900 1319 866 1262T774 1170T647 1135Z" />
<glyph unicode="&#xe6;" horiz-adv-x="2125" d="M576 -26Q323 -26 189 77T55 338Q55 426 98 484T213 576T377 624T564 639Q683 639 744 642T826 656T847 690Q847 692 847 695T847 700Q847 737 798 763T674 790Q621 790 576 779T503 745T476 685H79Q79 786 128
860T261 985T453 1059T677 1084Q796 1084 902 1053T1085 958Q1104 942 1120 926T1151 890L993 894Q1073 984 1195 1034T1471 1084Q1659 1084 1795 1014T2006 814T2080 506Q2080 476 2079 455T2076 421H1080L1249 560Q1249 538 1250 518T1253 477Q1260 411 1283
363T1355 288T1482 262Q1530 262 1564 269T1621 287T1655 311T1668 336H2066Q2059 266 2016 201T1896 85T1713 4T1471 -26Q1353 -26 1254 3T1079 86T953 215L1079 234Q1047 138 966 81T781 -1T576 -26ZM593 272Q632 272 677 285T762 326T829 402T855 520Q855 529
855 537T855 555L969 445Q880 430 782 425T611 420Q529 420 494 399T459 343Q459 309 491 291T593 272ZM1266 651H1675Q1675 656 1675 661T1672 671Q1666 702 1644 731T1580 780T1476 800Q1423 800 1381 783T1310 733T1266 651Z" />
<glyph unicode="&#xe7;" horiz-adv-x="1272" d="M787 -56Q823 -56 861 -70T925 -118T952 -207Q952 -278 907 -323T792 -389T645 -410Q578 -410 504 -393T398 -353L474 -212Q497 -225 551 -245T658 -265Q711 -265 746 -249T781 -199Q781 -173 764 -162T724 -150Q701
-150 679 -157T645 -182L499 -143L573 0H739L681 -107H671Q681 -83 709 -70T787 -56ZM656 -26Q465 -26 328 47T118 247T45 536Q45 699 118 822T328 1014T656 1084Q797 1084 904 1044T1082 939T1190 795T1227 640Q1227 638 1227 636T1227 631H828Q828 637 828 642T825
652Q817 678 800 706T749 753T652 773Q591 773 547 745T478 664T454 536Q454 463 478 406T546 317T652 285Q712 285 748 303T803 352T827 424H1227Q1227 348 1191 269T1083 123T904 15T656 -26Z" />
<glyph unicode="&#xe8;" horiz-adv-x="1308" d="M262 421V661H888L858 609Q858 617 858 626T858 643Q858 677 839 713T776 775T659 800Q588 800 540 770T468 682T444 539Q444 451 467 389T540 295T671 262Q719 262 753 269T807 287T838 311T851 336H1249Q1242
266 1199 201T1079 85T896 4T654 -26Q467 -26 330 44T119 240T45 529Q45 696 121 821T334 1015T654 1084Q842 1084 978 1014T1189 814T1263 506Q1263 476 1262 455T1259 421H262ZM847 1175H600L319 1466H610L847 1175Z" />
<glyph unicode="&#xe9;" horiz-adv-x="1308" d="M262 421V661H888L858 609Q858 617 858 626T858 643Q858 677 839 713T776 775T659 800Q588 800 540 770T468 682T444 539Q444 451 467 389T540 295T671 262Q719 262 753 269T807 287T838 311T851 336H1249Q1242
266 1199 201T1079 85T896 4T654 -26Q467 -26 330 44T119 240T45 529Q45 696 121 821T334 1015T654 1084Q842 1084 978 1014T1189 814T1263 506Q1263 476 1262 455T1259 421H262ZM455 1184L692 1475H983L702 1184H455Z" />
<glyph unicode="&#xea;" horiz-adv-x="1308" d="M262 421V661H888L858 609Q858 617 858 626T858 643Q858 677 839 713T776 775T659 800Q588 800 540 770T468 682T444 539Q444 451 467 389T540 295T671 262Q719 262 753 269T807 287T838 311T851 336H1249Q1242
266 1199 201T1079 85T896 4T654 -26Q467 -26 330 44T119 240T45 529Q45 696 121 821T334 1015T654 1084Q842 1084 978 1014T1189 814T1263 506Q1263 476 1262 455T1259 421H262ZM269 1184L528 1475H777L1035 1184H789L599 1403H702L514 1184H269Z" />
<glyph unicode="&#xeb;" horiz-adv-x="1308" d="M262 421V661H888L858 609Q858 617 858 626T858 643Q858 677 839 713T776 775T659 800Q588 800 540 770T468 682T444 539Q444 451 467 389T540 295T671 262Q719 262 753 269T807 287T838 311T851 336H1249Q1242
266 1199 201T1079 85T896 4T654 -26Q467 -26 330 44T119 240T45 529Q45 696 121 821T334 1015T654 1084Q842 1084 978 1014T1189 814T1263 506Q1263 476 1262 455T1259 421H262ZM378 1178Q297 1178 237 1219T176 1339Q176 1418 236 1459T378 1500Q458 1500 519
1459T580 1339Q580 1260 519 1219T378 1178ZM923 1178Q842 1178 782 1219T721 1339Q721 1418 781 1459T923 1500Q1003 1500 1064 1459T1125 1339Q1125 1260 1064 1219T923 1178Z" />
<glyph unicode="&#xec;" horiz-adv-x="545" d="M73 0V1062H472V0H73ZM469 1175H222L-59 1466H232L469 1175Z" />
<glyph unicode="&#xed;" horiz-adv-x="545" d="M73 0V1062H472V0H73ZM77 1184L314 1475H605L324 1184H77Z" />
<glyph unicode="&#xee;" horiz-adv-x="545" d="M73 0V1062H472V0H73ZM-109 1184L150 1475H399L657 1184H411L221 1403H324L136 1184H-109Z" />
<glyph unicode="&#xef;" horiz-adv-x="545" d="M73 0V1062H472V0H73ZM52 1178Q-29 1178 -89 1219T-150 1339Q-150 1418 -90 1459T52 1500Q132 1500 193 1459T254 1339Q254 1260 193 1219T52 1178ZM491 1178Q410 1178 350 1219T289 1339Q289 1418 349 1459T491
1500Q571 1500 632 1459T693 1339Q693 1260 632 1219T491 1178Z" />
<glyph unicode="&#xf0;" horiz-adv-x="1353" d="M379 1222L769 1591L984 1468L596 1103L379 1222ZM879 530Q879 771 837 925T717 1170T533 1311T299 1394L468 1576Q632 1538 775 1461T1026 1259T1196 954T1257 530H879ZM651 -26Q471 -26 335 44T122 239T45 530Q45
695 121 820T334 1014T651 1084Q831 1084 967 1015T1180 820T1257 530Q1257 365 1181 240T968 44T651 -26ZM651 280Q713 280 758 311T827 398T852 530Q852 606 828 661T758 747T651 778Q590 778 545 748T475 662T450 530Q450 454 474 398T544 311T651 280Z" />
<glyph unicode="&#xf1;" horiz-adv-x="1332" d="M839 0V413Q839 445 839 477T839 532Q839 587 830 637T787 719T680 751Q617 751 578 725T521 650T503 532L425 612Q425 758 484 863T645 1026T875 1084Q1011 1084 1091 1029T1206 875T1242 651Q1242 596 1242 525T1242
375V0H839ZM100 0V1062H503V0H100ZM1045 1459Q1045 1394 1021 1332T947 1230T821 1189Q762 1189 724 1211T666 1254Q644 1277 626 1291T581 1306Q551 1306 535 1281T518 1206H322Q322 1271 347 1333T423 1437T553 1478Q605 1478 643 1455T704 1411Q726 1390 748
1376T793 1361Q818 1361 833 1385T849 1459H1045Z" />
<glyph unicode="&#xf2;" horiz-adv-x="1302" d="M651 -25Q471 -25 335 45T122 240T45 530Q45 695 121 820T334 1014T651 1084Q831 1084 967 1015T1180 820T1257 530Q1257 365 1181 240T968 45T651 -25ZM651 280Q713 280 757 311T824 398T848 530Q848 606 825 661T757
747T651 778Q590 778 546 748T478 662T454 530Q454 454 477 398T545 311T651 280ZM846 1175H599L318 1466H609L846 1175Z" />
<glyph unicode="&#xf3;" horiz-adv-x="1302" d="M651 -25Q471 -25 335 45T122 240T45 530Q45 695 121 820T334 1014T651 1084Q831 1084 967 1015T1180 820T1257 530Q1257 365 1181 240T968 45T651 -25ZM651 280Q713 280 757 311T824 398T848 530Q848 606 825 661T757
747T651 778Q590 778 546 748T478 662T454 530Q454 454 477 398T545 311T651 280ZM454 1184L691 1475H982L701 1184H454Z" />
<glyph unicode="&#xf4;" horiz-adv-x="1302" d="M651 -25Q471 -25 335 45T122 240T45 530Q45 695 121 820T334 1014T651 1084Q831 1084 967 1015T1180 820T1257 530Q1257 365 1181 240T968 45T651 -25ZM651 280Q713 280 757 311T824 398T848 530Q848 606 825 661T757
747T651 778Q590 778 546 748T478 662T454 530Q454 454 477 398T545 311T651 280ZM268 1184L527 1475H776L1034 1184H788L598 1403H701L513 1184H268Z" />
<glyph unicode="&#xf5;" horiz-adv-x="1302" d="M651 -25Q471 -25 335 45T122 240T45 530Q45 695 121 820T334 1014T651 1084Q831 1084 967 1015T1180 820T1257 530Q1257 365 1181 240T968 45T651 -25ZM651 280Q713 280 757 311T824 398T848 530Q848 606 825 661T757
747T651 778Q590 778 546 748T478 662T454 530Q454 454 477 398T545 311T651 280ZM1012 1459Q1012 1394 988 1332T914 1230T788 1189Q729 1189 691 1211T633 1254Q611 1277 593 1291T548 1306Q518 1306 502 1281T485 1206H289Q289 1271 314 1333T390 1437T520 1478Q572
1478 610 1455T671 1411Q693 1390 715 1376T760 1361Q785 1361 800 1385T816 1459H1012Z" />
<glyph unicode="&#xf6;" horiz-adv-x="1302" d="M651 -25Q471 -25 335 45T122 240T45 530Q45 695 121 820T334 1014T651 1084Q831 1084 967 1015T1180 820T1257 530Q1257 365 1181 240T968 45T651 -25ZM651 280Q713 280 757 311T824 398T848 530Q848 606 825 661T757
747T651 778Q590 778 546 748T478 662T454 530Q454 454 477 398T545 311T651 280ZM377 1178Q296 1178 236 1219T175 1339Q175 1418 235 1459T377 1500Q457 1500 518 1459T579 1339Q579 1260 518 1219T377 1178ZM922 1178Q841 1178 781 1219T720 1339Q720 1418 780
1459T922 1500Q1002 1500 1063 1459T1124 1339Q1124 1260 1063 1219T922 1178Z" />
<glyph unicode="&#xf7;" horiz-adv-x="1350" d="M298 398V645H1049V398H298ZM669 726Q605 726 563 767T521 870Q521 932 563 973T669 1014Q732 1014 774 973T816 870Q816 808 774 767T669 726ZM669 30Q605 30 563 71T521 174Q521 236 563 277T669 318Q732 318
774 277T816 174Q816 112 774 71T669 30Z" />
<glyph unicode="&#xf8;" horiz-adv-x="1302" d="M1144 1031L286 -67L157 31L1014 1129L1144 1031ZM651 -25Q471 -25 335 45T122 240T45 530Q45 695 121 820T334 1014T651 1084Q831 1084 967 1015T1180 820T1257 530Q1257 365 1181 240T968 45T651 -25ZM651 280Q713
280 757 311T824 398T848 530Q848 606 825 661T757 747T651 778Q590 778 546 748T478 662T454 530Q454 454 477 398T545 311T651 280Z" />
<glyph unicode="&#xf9;" horiz-adv-x="1312" d="M467 -21Q355 -21 284 14T172 110T116 248T100 411Q100 446 100 485T100 567V1062H503V635Q503 602 503 573T503 520Q503 463 512 416T552 340T642 311Q702 311 741 343T799 428T819 540L897 450Q897 341 868 254T783
106T648 12T467 -21ZM819 0V1062H1222V0H819ZM851 1175H604L323 1466H614L851 1175Z" />
<glyph unicode="&#xfa;" horiz-adv-x="1312" d="M467 -21Q355 -21 284 14T172 110T116 248T100 411Q100 446 100 485T100 567V1062H503V635Q503 602 503 573T503 520Q503 463 512 416T552 340T642 311Q702 311 741 343T799 428T819 540L897 450Q897 341 868 254T783
106T648 12T467 -21ZM819 0V1062H1222V0H819ZM459 1184L696 1475H987L706 1184H459Z" />
<glyph unicode="&#xfb;" horiz-adv-x="1312" d="M467 -21Q355 -21 284 14T172 110T116 248T100 411Q100 446 100 485T100 567V1062H503V635Q503 602 503 573T503 520Q503 463 512 416T552 340T642 311Q702 311 741 343T799 428T819 540L897 450Q897 341 868 254T783
106T648 12T467 -21ZM819 0V1062H1222V0H819ZM273 1184L532 1475H781L1039 1184H793L603 1403H706L518 1184H273Z" />
<glyph unicode="&#xfc;" horiz-adv-x="1312" d="M467 -21Q355 -21 284 14T172 110T116 248T100 411Q100 446 100 485T100 567V1062H503V635Q503 602 503 573T503 520Q503 463 512 416T552 340T642 311Q702 311 741 343T799 428T819 540L897 450Q897 341 868 254T783
106T648 12T467 -21ZM819 0V1062H1222V0H819ZM382 1178Q301 1178 241 1219T180 1339Q180 1418 240 1459T382 1500Q462 1500 523 1459T584 1339Q584 1260 523 1219T382 1178ZM927 1178Q846 1178 786 1219T725 1339Q725 1418 785 1459T927 1500Q1007 1500 1068 1459T1129
1339Q1129 1260 1068 1219T927 1178Z" />
<glyph unicode="&#xfd;" horiz-adv-x="1178" d="M225 -467Q168 -467 125 -464T70 -456V-164Q83 -170 117 -173T192 -176Q232 -176 268 -161T331 -118T373 -47L382 -20L16 1062H436L624 220H580L759 1062H1173L825 -27Q778 -173 709 -271T526 -418T225 -467ZM399
1184L636 1475H927L646 1184H399Z" />
<glyph unicode="&#xfe;" horiz-adv-x="1365" d="M818 -25Q691 -25 588 46T423 237T362 505Q362 510 362 515T362 525L504 528Q504 525 504 522T504 515Q504 449 533 404T608 337T702 314Q778 314 841 367T904 538Q904 656 842 706T702 757Q655 757 610 736T534
671T504 561L362 571Q362 719 423 834T587 1016T818 1083Q947 1083 1061 1020T1248 836T1320 538Q1320 352 1250 227T1066 39T818 -25ZM100 -437V1563H504V-437H100Z" />
<glyph unicode="&#xff;" horiz-adv-x="1178" d="M225 -467Q168 -467 125 -464T70 -456V-164Q83 -170 117 -173T192 -176Q232 -176 268 -161T331 -118T373 -47L382 -20L16 1062H436L624 220H580L759 1062H1173L825 -27Q778 -173 709 -271T526 -418T225 -467ZM322
1178Q241 1178 181 1219T120 1339Q120 1418 180 1459T322 1500Q402 1500 463 1459T524 1339Q524 1260 463 1219T322 1178ZM867 1178Q786 1178 726 1219T665 1339Q665 1418 725 1459T867 1500Q947 1500 1008 1459T1069 1339Q1069 1260 1008 1219T867 1178Z" />
<glyph unicode="&#x2013;" horiz-adv-x="989" d="M66 444V689H899V444H66Z" />
<glyph unicode="&#x2014;" horiz-adv-x="1216" d="M66 444V689H1127V444H66Z" />
<glyph unicode="&#x2018;" horiz-adv-x="564" d="M329 1271Q414 1271 467 1222T521 1084Q521 996 462 939T295 882Q187 882 129 953T70 1137Q70 1245 124 1325T259 1460T415 1548L461 1456Q413 1436 361 1401T272 1325T234 1243Q238 1248 263 1259T329 1271Z" />
<glyph unicode="&#x2019;" horiz-adv-x="564" d="M235 1137Q150 1137 97 1186T43 1324Q43 1413 102 1469T269 1526Q377 1526 435 1455T494 1271Q494 1164 440 1084T305 948T149 860L103 952Q152 973 204 1007T292 1083T330 1165Q326 1161 301 1149T235 1137Z" />
<glyph unicode="&#x201a;" horiz-adv-x="564" d="M235 -102Q150 -102 97 -53T43 85Q43 174 102 230T269 287Q377 287 435 216T494 32Q494 -75 440 -155T305 -291T149 -379L103 -287Q152 -266 204 -232T292 -156T330 -74Q326 -78 301 -90T235 -102Z" />
<glyph unicode="&#x201c;" horiz-adv-x="1000" d="M525 1271Q610 1271 663 1222T717 1084Q717 996 658 939T491 882Q383 882 325 953T266 1137Q266 1245 320 1325T455 1460T611 1548L657 1456Q609 1436 557 1401T468 1325T430 1243Q434 1248 459 1259T525 1271ZM793
1271Q878 1271 931 1222T985 1084Q985 996 926 939T759 882Q651 882 593 953T534 1137Q534 1245 588 1325T723 1460T879 1548L925 1456Q877 1436 825 1401T736 1325T698 1243Q702 1248 727 1259T793 1271Z" />
<glyph unicode="&#x201d;" horiz-adv-x="1000" d="M731 1138Q646 1138 593 1187T539 1325Q539 1414 598 1470T765 1527Q873 1527 931 1456T990 1272Q990 1165 936 1085T801 949T645 861L599 953Q648 974 700 1008T788 1084T826 1166Q822 1162 797 1150T731 1138ZM207
1138Q122 1138 69 1187T15 1325Q15 1414 74 1470T241 1527Q349 1527 407 1456T466 1272Q466 1165 412 1085T277 949T121 861L75 953Q124 974 176 1008T264 1084T302 1166Q298 1162 273 1150T207 1138Z" />
<glyph unicode="&#x201e;" horiz-adv-x="1000" d="M731 -98Q646 -98 593 -49T539 89Q539 178 598 234T765 291Q873 291 931 220T990 36Q990 -71 936 -151T801 -287T645 -375L599 -283Q648 -262 700 -228T788 -152T826 -70Q822 -74 797 -86T731 -98ZM207 -98Q122
-98 69 -49T15 89Q15 178 74 234T241 291Q349 291 407 220T466 36Q466 -71 412 -151T277 -287T121 -375L75 -283Q124 -262 176 -228T264 -152T302 -70Q298 -74 273 -86T207 -98Z" />
<glyph unicode="&#x2022;" horiz-adv-x="812" d="M382 462Q311 462 252 496T159 590T124 720Q124 791 158 849T252 942T382 977Q453 977 511 943T604 850T639 720Q639 649 605 590T512 497T382 462Z" />
<glyph unicode="&#x2039;" horiz-adv-x="627" d="M597 885L257 565L597 251H367L30 565L367 885H597Z" />
<glyph unicode="&#x203a;" horiz-adv-x="627" d="M30 885H260L597 565L260 251H30L370 565L30 885Z" />
</font>
</defs>
</svg>
