<?xml version="1.0" encoding="UTF-8"?>
<svg width="160px" height="63px" enable-background="new 0 0 160 63" preserveAspectRatio="xMinYMin meet" version="1.1"
    viewBox="0 0 160 64" xml:space="preserve" xmlns="http://www.w3.org/2000/svg">
    <style type="text/css">
        .st0 {
            fill: #000000;
        }
    </style>

    <path class="st0"
        d="m20.2 62.9h2.4c1.4 0 2.9-0.6 2.9-2.8 0-1.8-1.1-2.6-2.8-2.6h-2.5v5.4zm0.7-5h1.9c1.1 0 2.1 0.4 2.1 2.1 0 2.2-1.7 2.2-2.2 2.2h-1.8v-4.3zm7.6 5h4.7v-0.6h-4v-1.9h3.3v-0.7h-3.3v-1.8h4v-0.6h-4.6v5.6h-0.1zm6.7-5.6 2.6 5.6h0.7l2.6-5.6h-0.7l-2.2 4.7-2.2-4.7h-0.8zm8.6 5.6h4.7v-0.6h-4v-1.9h3.3v-0.7h-3.3v-1.8h4v-0.6h-4.5v5.6h-0.2zm7.5 0h4.7v-0.6h-4v-4.9h-0.7v5.5zm7.1-2.8c0 1.9 1.5 2.9 3.1 2.9 1.5 0 3.1-0.8 3.1-2.9 0-1.8-1.3-2.9-3.1-2.9s-3.1 1.1-3.1 2.9m0.6-0.1c0-1.3 0.8-2.2 2.4-2.2 1.5 0 2.4 1 2.4 2.2 0 1.7-1.1 2.4-2.4 2.4-1.3-0.1-2.4-0.8-2.4-2.4m8.3 2.9h0.7v-2.4h2.4c1.1 0 1.9-0.3 1.9-1.5 0-1.3-1-1.5-1.9-1.5h-3.1v5.4zm0.7-5h2.2c1 0 1.5 0.3 1.5 1s-0.6 1-1.5 1h-2.2v-2zm7.3 5h0.6v-4.9l2.1 4.9h0.6l2.1-4.9v4.9h0.6v-5.6h-1l-1.9 4.6-1.9-4.6h-1v5.6zm9 0h4.7v-0.6h-4v-1.9h3.3v-0.7h-3.3v-1.8h4v-0.6h-4.6v5.6h-0.1zm7.5 0h0.6v-4.9l4.2 4.9h0.7v-5.6h-0.7v4.6l-3.9-4.6h-0.8v5.6zm10.6 0h0.7v-4.9h2.5v-0.6h-5.6v0.6h2.5v4.9h-0.1zm5.4-1.3c0.4 0.6 1.1 1.3 2.8 1.3 1.8 0 2.6-0.8 2.6-1.7 0-2.5-4.5-0.8-4.5-2.5 0-0.7 0.7-1 1.8-1 1.4 0 1.9 0.7 2.1 1l0.4-0.4c-0.4-0.6-1.3-1.1-2.5-1.1-1.4 0-2.4 0.4-2.4 1.7 0 2.2 4.5 0.8 4.5 2.5 0 0.8-1.1 1.1-1.9 1.1-1.5 0-2.1-0.7-2.4-1.1l-0.5 0.2zm12.8 1.3h4.7v-0.6h-4v-4.9h-0.7v5.5zm8.1 0h0.7v-4.9h2.4v-0.6h-5.6v0.6h2.5v4.9zm5.8 0h2.4c1.4 0 2.9-0.6 2.9-2.8 0-1.8-1.1-2.6-2.8-2.6h-2.5v5.4zm0.6-5h1.9c1.1 0 2.1 0.4 2.1 2.1 0 2.2-1.7 2.2-2.2 2.2h-1.8v-4.3z" />
    <path class="st0" d="M80.4,3.8V0.6l22.1,8.9v2.2L80.4,3.8z M80,0L57.2,9.2v3.1L80,4l22.8,8.2V9.2L80,0z" />
    <path class="st0"
        d="M102.5,15.9L80.4,9V6.3l22.1,7.7V15.9z M80,5.7L80,5.7l-22.8,7.9v2.8L80,9.3l22.8,7.1v-2.8L80,5.7z" />
    <path class="st0"
        d="m102.5 20-22.1-5.8v-2.2l22.1 6.4v1.6zm-22.5-8.6-22.8 6.7v2.4l22.8-6.2 22.8 6.1v-2.4l-22.8-6.6z" />
    <path class="st0"
        d="m102.5 24.5-22.1-5.1v-1.8l22.1 5.4v1.5zm-22.5-7.5-22.8 5.6v2.4l22.8-5.4 22.8 5.3v-2.4l-22.8-5.5z" />
    <path class="st0"
        d="m102.5 28.4-22.1-4.2v-1.2l22.1 4.5v0.9zm-22.5-6-22.8 4.7v1.7l22.8-4.3 22.8 4.3v-1.7l-22.8-4.7z" />
    <path class="st0"
        d="m0 49.4h8.2c3.1 0 5-1.3 5-3.8 0-1.7-1.1-2.8-1.9-3.2 0.7-0.4 1.5-1 1.5-2.6 0-2.4-1.9-3.2-5-3.2h-7.8v12.8zm2.5-2.1v-3.6h5.4c1.7 0 2.8 0.4 2.8 1.8 0 1.5-1.3 1.8-2.8 1.8h-5.4zm0-5.7v-2.9h5.4c1.7 0 2.4 0.4 2.4 1.5 0 1-0.8 1.4-2.4 1.4h-5.4zm19.3 0.7v-3.6h4.9c2.1 0 3.1 0.3 3.1 1.8s-1 1.8-3.1 1.8h-4.9zm-2.5 7.1h2.5v-5h3.9l3.8 5h3.1l-3.9-5.1c1.9-0.1 3.6-1.4 3.6-3.8 0-3.1-2.2-3.8-5.1-3.8h-7.7v12.7h-0.2zm19.5 0h2.5v-12.8h-2.5v12.8zm11.8-2.1v-8.5h2.5c4.2 0 5.8 1.1 5.8 4.2 0 2.9-1.7 4.3-5.8 4.3h-2.5zm-2.5 2.1h6.3c4.2 0 7.1-2.1 7.1-6.4 0-4.6-3.2-6.3-7.2-6.3h-6.1c-0.1 0-0.1 12.7-0.1 12.7zm46.6 0h2.5v-5.6h8.6v5.6h2.5v-12.8h-2.5v5h-8.6v-5h-2.5v12.8zm24-5.2 2.6-5.7 2.6 5.7h-5.2zm-5 5.2h2.6l1.4-2.9h7.4l1.4 2.9h2.5l-6.3-12.8h-2.8l-6.2 12.8zm20.7 0h10.7v-2.2h-8.2v-10.6h-2.5v12.8z" />
    <polygon class="st0"
        points="70 38.8 78.9 38.8 78.9 36.6 67.5 36.6 67.5 49.4 79.2 49.4 79.2 47.3 70 47.3 70 43.8 74.3 43.8 74.3 41.7 70 41.7" />
    <polygon class="st0" points="149.4 36.6 149.4 49.4 160 49.4 160 47.2 151.9 47.2 151.9 36.6" />

</svg>