<?xml version="1.0" encoding="UTF-8"?>
<svg version="1.0" viewBox="0 0 744.09 403.23" xmlns="http://www.w3.org/2000/svg">
    <g transform="translate(-649.9 -406.27)">
        <g transform="translate(17.717 17.668)" fill="#0078c1">
            <path
                d="m1129.3 547.46c-4.412-3.2442-11.42-5.3204-18.167-5.1908-7.3968 0.12979-14.404 2.4656-19.336 6.3586v-46.457h-22.969v151.57h22.969v-79.158c0-5.4502 4.6716-11.549 13.236-11.939 3.7632-0.12978 9.0837 1.5572 11.809 5.58 2.8548 4.1525 2.725 9.8623 2.725 15.961l-0.1298 69.555h22.969v-70.334c0-20.763-2.5953-28.16-13.106-35.946" />
            <path
                d="m942.39 599.49c0 14.794-0.51914 18.946-0.64882 20.244-0.77861 8.3051-4.2824 17-13.885 17-9.473 0-13.366-9.3433-13.755-17.389-0.12968 0-0.64882-5.0609-0.64882-19.854 0-14.793 0.51914-21.022 0.64882-21.022 0-8.435 4.4122-16.74 13.755-16.74 9.473 0 13.755 8.3051 13.885 16.61 0 0.12978 0.64882 6.3586 0.64882 21.152zm22.19-17.908c-3.2442-32.312-21.671-39.32-36.724-39.32-21.412 0-34.388 13.626-36.724 39.32-0.25947 2.0762-0.51904 5.8395-0.64882 17.908-0.12979 8.8242 0.51914 16.091 0.64882 17.908 1.4275 24.007 15.183 38.671 36.724 38.671s35.297-14.923 36.854-38.671c0.12968-1.687 0.51903-9.0838 0.51903-17.908 0-4.0228-0.25957-14.793-0.64882-17.908" />
            <path
                d="m1180.8 585.87c0.1298-5.0609 0.1298-6.099 0.2596-7.5265 0.6488-9.0838 4.6716-16.61 14.015-16.61 11.03-0.12978 13.626 10.641 14.015 16.61 0.2596 3.2442 0.3894 5.3204 0.3894 7.5265h-28.679zm28.419 30.366s0 1.687-0.2596 3.7632c-0.6488 5.3206-2.725 16.74-13.885 16.74-9.6028 0-13.236-8.6944-13.885-17.259-0.1298-2.4656-0.5192-5.1907-0.5192-14.534h51.258s0-7.6563-0.1298-12.198c0-1.8168-0.1297-4.8014-0.5191-11.16-0.7786-9.7326-4.4121-20.374-9.9921-27.121-6.3586-8.0456-15.442-12.198-26.213-12.198-20.763 0-33.74 13.496-36.205 39.32-0.2596 2.3358-0.6489 5.58-0.6489 17.908 0 8.8242 0.5191 16.221 0.6489 17.908 1.2976 23.618 15.312 38.671 36.205 38.671 20.763 0 34.648-14.664 36.205-39.839h-22.06" />
            <path
                d="m817.82 424.82h373.47l142.74 167.14-142.74 164.8h-373.47l-143.39-165.32 143.39-166.62zm382.43-18.557h-391.51l-158.84 184.53 158.97 183.36h391.38l158.32-182.71-158.32-185.18" />
            <path
                d="m822.49 522.8h10.771c11.809 0 18.297 6.2288 18.557 17.389 0 0.90839 0.12978 1.8168 0.12978 3.5038 0 2.0762 0 2.7251-0.12978 3.6334-0.64882 6.6182-3.6335 18.167-17.389 18.167h-11.939v-42.694zm54.373 121.46s-2.3358-37.114-2.3358-37.114c-1.0381-16.61-5.3204-26.473-14.015-31.534 6.2288-3.7632 14.274-12.977 14.145-32.312 0-29.328-18.297-39.709-39.839-39.968h-35.037v150.4h22.58l0.12978-68.777h12.587c7.267 0 15.442 6.3586 16.74 24.267l2.3358 35.167c0.25957 5.0609 1.168 9.3432 1.168 9.3432h22.709s-1.0382-4.1526-1.168-9.473" />
            <path
                d="m1031.7 615.19c0 1.687-0.1298 3.1145-0.2596 4.1526-0.6488 8.435-3.5036 17.389-13.885 17.389-9.473 0-13.236-9.7325-14.015-16.87-0.3894-4.2824-0.2596-7.6564-0.3894-20.374-0.1298-14.793 0.3894-18.687 0.6488-21.022 0.7786-9.473 4.4122-16.74 13.755-16.74 9.7326-0.12978 13.755 8.3051 13.885 16.61 0 0.12978 0.2596 2.0762 0.3894 6.4884h22.709c0-1.5572-0.1298-2.855-0.1298-3.5038-2.5953-31.404-21.801-39.06-36.854-39.06-21.412 0-34.388 13.626-36.724 39.32-0.25946 2.0762-0.51903 5.8395-0.64882 17.908-0.12978 8.8242 0.51904 16.091 0.64882 17.908 1.4274 24.007 15.183 38.671 36.724 38.671 22.32 0.12979 34.648-13.496 36.854-38.671 0-0.90839 0.1298-1.5572 0.1298-2.2061h-22.839" />
        </g>
    </g>
</svg>