<?xml version="1.0" encoding="UTF-8"?>
<svg enable-background="new 0 0 722.6 197.4" version="1.1" viewBox="0 0 722.6 197.4" xml:space="preserve"
    xmlns="http://www.w3.org/2000/svg">
    <style type="text/css">
        .st0 {
            fill: #1E3282;
        }
    </style>
    <path class="st0"
        d="m222.9 1.7-73.2 190.9h17.6l27.4-71.2s74.6 11.3 98.6 71.2h30.9l-73.2-190.9h-28.1zm-22.4 104.6 30.6-81.3 42.2 117.6c-26.5-26.5-72.8-36.3-72.8-36.3z" />
    <path class="st0"
        d="m649.4 1.7h-28.1l-73.3 190.9h17.6c11.2-26.8 35.6-51.5 62.3-62.8 12.1-5.1 22.7-8.4 35.7-9.4l29 72.1h30l-73.2-190.8zm-36.4 118.9c-8.5 4.5-19.6 12.7-26.9 19.4l43.3-114.3 28.9 80.6c-16.3 1.8-30.5 6.6-45.3 14.3z" />
    <path class="st0"
        d="m440.9 122.1h50v55.7c-11 5.8-24.5 8.2-35.8 8.2-48.2 0-83.3-44.9-83.3-87.8 0-45.6 27.8-87.1 75.7-87.1 0 0 43.3-1.6 57.9 41.3h5.8v-31.8s-2.6-1.9-7.2-4.6c-3.3-2.1-6.7-3.9-10.2-5.6-15.3-7.1-32.7-10.4-53-10.4h-0.1c-65 0-102.4 41.7-102.4 101 0 60.2 43.8 96.4 104.9 96.4 28 0 59.7-7 77.9-19.8v-71.2h-80.2v15.7z" />
    <path class="st0"
        d="m78.3 81.9-21-7.3c-24.1-9.5-31.1-21.6-31.1-36.4 0-16.5 15.1-27.2 38.2-27.2 2.9 0 5.7 0.2 8.5 0.7 0 0 29.6 2.7 39.2 36.5l1.2 4.1h5.8v-35.2s-24.6-17.1-57.8-17.1c-33 1.1-61.3 18.9-61.3 49.7 0 24 11.6 38.9 44.6 51.3l22.2 8c23.6 8.7 36.5 22.7 36.5 43.1 0 32.1-42.2 34-42.2 34-2.8 0.2-5.5 0-8.2-0.4-13-1.8-37.6-9.2-45.1-37.5l-1.3-4.7h-5.9v36.5s26.2 17.4 60.1 17.4c39.1 0 69.5-19.6 69.5-57.2 0.1-36.4-28.3-49.3-51.9-58.3z" />
</svg>