<?xml version="1.0" encoding="UTF-8"?>
<svg version="1.1" viewBox="0 0 400 73.457" xmlns="http://www.w3.org/2000/svg" xmlns:cc="http://creativecommons.org/ns#"
    xmlns:dc="http://purl.org/dc/elements/1.1/" xmlns:rdf="http://www.w3.org/1999/02/22-rdf-syntax-ns#">
    <metadata>
        <rdf:RDF>
            <cc:Work rdf:about="">
                <dc:format>image/svg+xml</dc:format>
                <dc:type rdf:resource="http://purl.org/dc/dcmitype/StillImage" />
                <dc:title />
            </cc:Work>
        </rdf:RDF>
    </metadata>
    <g transform="translate(-388.48 -473.89)">
        <g transform="matrix(1.6442 0 0 -1.6442 504.28 511.39)" fill="#4d4d4d">
            <path d="m0 0h-12.976v13.112h-7.278v-29.544h7.278v14.376h12.976v-14.376h7.279v29.544h-7.279z"
                fill="#c80421" />
        </g>
        <path d="m530.03 538.41h11.968v-48.575h-11.968z" fill="#c80421" />
        <g transform="matrix(1.6442 0 0 -1.6442 553.18 536.94)" fill="#4d4d4d">
            <path
                d="m0 0c-1.266 0-2.844 0.527-3.952 1.476l-1.107-1.897c1.425-1.106 3.679-1.896 6.33-1.896 7.106 0 12.674 4.522 16.154 16.53 3.008 10.426 5.05 13.014 9.164 13.014 1.208 0 2.533-0.317 3.483-0.948l0.791 2.053c-1.286 0.71-3.383 1.107-5.441 1.107-6.963 0-12.545-3.958-15.871-14.913-3.631-11.966-5.393-14.526-9.551-14.526"
                fill="#c80421" />
        </g>
        <g transform="matrix(1.6442 0 0 -1.6442 772.26 514.26)" fill="#4d4d4d">
            <path
                d="m0 0c0-7.899-3.164-13.427-9.493-13.427-6.331 0-9.655 5.528-9.655 13.427 0 7.9 3.324 13.587 9.655 13.587 6.329 0 9.493-5.687 9.493-13.587m7.436 0c0 11.532-9.652 15.325-16.929 15.325-7.282 0-17.092-3.793-17.092-15.325s9.81-15.166 17.092-15.166c7.277 0 16.929 3.634 16.929 15.166"
                fill="#c80421" />
        </g>
        <g transform="matrix(1.6442 0 0 -1.6442 684.84 492.95)" fill="#4d4d4d">
            <path
                d="m0 0h1.899c7.438 0 12.977-3.161 12.977-12.956 0-9.634-5.539-12.795-12.977-12.795h-1.899zm-7.278-27.648h10.126c9.654 0 19.463 3.318 19.463 14.692 0 11.532-9.809 14.852-19.463 14.852h-10.126z"
                fill="#c80421" />
        </g>
        <g transform="matrix(1.6442 0 0 -1.6442 618.75 535.03)" fill="#4d4d4d">
            <path d="m0 0v12.321h11.078v2.056h-11.078v11.057h11.869v2.055h-19.147v-29.544h19.623v2.055z"
                fill="#c80421" />
        </g>
        <path d="m647.11 538.41h11.966v-48.575h-11.966z" fill="#c80421" />
        <g transform="matrix(1.6442 0 0 -1.6442 434.55 508.8)" fill="#4d4d4d">
            <path
                d="m0 0c-5.063-13.268-8.23-18.324-14.875-18.324-3.896 0-7.245 2.158-8.931 4.293l-1.781-1.856c2.042-2.543 6.552-5.123 12.275-5.123 10.444 0 16.319 5.531 21.541 19.908 4.588 12.638 7.911 17.534 14.874 17.534 2.374 0 4.748-0.788 6.33-2.212l1.267 2.055c-2.216 1.738-5.856 2.527-8.863 2.527-9.337 0-16.615-4.897-21.837-18.802"
                fill="#c80421" />
        </g>
    </g>
</svg>