<?xml version="1.0" encoding="UTF-8"?>
<svg width="92.693" height="80.458" version="1.1" viewBox="0 0 24.525 21.288" xmlns="http://www.w3.org/2000/svg"
    xmlns:cc="http://creativecommons.org/ns#" xmlns:dc="http://purl.org/dc/elements/1.1/"
    xmlns:rdf="http://www.w3.org/1999/02/22-rdf-syntax-ns#" xmlns:xlink="http://www.w3.org/1999/xlink">
    <defs>
        <symbol id="a" overflow="visible"></symbol>
    </defs>
    <metadata>
        <rdf:RDF>
            <cc:Work rdf:about="">
                <dc:format>image/svg+xml</dc:format>
                <dc:type rdf:resource="http://purl.org/dc/dcmitype/StillImage" />
                <dc:title />
            </cc:Work>
        </rdf:RDF>
    </metadata>
    <g transform="translate(25.602 -406.79)">
        <path
            d="m-2.9929 420.37h0.24805c0.11713 0 0.19844-0.0179 0.24116-0.0524 0.044097-0.0358 0.064766-0.0827 0.064766-0.14056 0-0.0372-0.011007-0.0717-0.03168-0.1006-0.020673-0.0303-0.048232-0.051-0.085439-0.0661-0.037208-0.0152-0.10473-0.0221-0.20533-0.0221h-0.23151zm-0.20395 0.71107v-1.2637h0.43408c0.14883 0 0.25631 0.011 0.32246 0.0358 0.066146 0.022 0.11851 0.0634 0.15847 0.12127 0.039963 0.0579 0.059256 0.11989 0.059256 0.18466 0 0.0923-0.033055 0.17363-0.099219 0.24115-0.064767 0.0689-0.15296 0.10749-0.26183 0.11576 0.044097 0.0179 0.079929 0.04 0.10749 0.0661 0.050987 0.051 0.113 0.13367 0.18603 0.2508l0.15434 0.24805h-0.24942l-0.11162-0.19981c-0.088194-0.1571-0.15847-0.25494-0.21222-0.29353-0.037204-0.0303-0.092326-0.0441-0.16399-0.0441h-0.11989v0.53743zm0.51539-1.6288c-0.16536 0-0.32522 0.0427-0.48093 0.12678-0.1571 0.0841-0.27836 0.20533-0.36656 0.36242-0.088194 0.1571-0.13229 0.31971-0.13229 0.49058 0 0.1695 0.042718 0.33073 0.12953 0.48645 0.086819 0.15434 0.20809 0.27561 0.3638 0.36105 0.15434 0.0868 0.31695 0.13091 0.48645 0.13091 0.1695 0 0.33073-0.0441 0.48645-0.13091 0.15572-0.0854 0.27698-0.20671 0.36242-0.36105 0.086815-0.15572 0.12954-0.31695 0.12954-0.48645 0-0.17087-0.044097-0.33348-0.13229-0.49058-0.086819-0.15709-0.20946-0.27836-0.36518-0.36242-0.1571-0.0841-0.31695-0.12678-0.48093-0.12678m0-0.1943c0.19706 0 0.38999 0.0496 0.5774 0.15158 0.18741 0.1006 0.33348 0.24529 0.43822 0.43409 0.10473 0.18741 0.1571 0.38447 0.1571 0.58841 0 0.20258-0.052366 0.3955-0.15434 0.58292-0.10335 0.18741-0.24805 0.3321-0.43408 0.43408-0.18603 0.10473-0.38034 0.15572-0.58429 0.15572-0.20395 0-0.39825-0.051-0.58429-0.15572-0.18603-0.10198-0.33073-0.24667-0.43408-0.43408-0.10335-0.18742-0.15572-0.38034-0.15572-0.58292 0-0.20394 0.052366-0.401 0.1571-0.58841 0.10611-0.1888 0.25218-0.33349 0.43959-0.43409 0.18741-0.10197 0.38034-0.15158 0.5774-0.15158"
            fill="#e61e0a" />
        <path d="m-13.341 406.92 12.131 21.023h-24.26z" fill="#e61e0a" />
        <path
            d="m-15.146 421.52h-0.82545c-0.11575 0-0.226 0.0937-0.24667 0.20946l-0.69178 3.791c-0.02067 0.11438 0.0565 0.20809 0.17088 0.20809h0.82407c0.11576 0 0.226-0.0937 0.24667-0.20809l0.69178-3.791c0.02205-0.11576-0.05512-0.20808-0.1695-0.20946"
            fill="#fab500" />
        <path
            d="m-14.652 419.95 0.12953-0.71795c0.02067-0.11438-0.05512-0.20809-0.17088-0.20809h-0.82545c-0.11437 0-0.22462 0.0937-0.24529 0.20809l-0.12954 0.71795c-0.02067 0.11438 0.05512 0.20809 0.17088 0.20809h0.82407c0.11575 0 0.226-0.0937 0.24667-0.20809"
            fill="#fab500" />
        <path
            d="m-5.7407 425.53c0.056501-0.14194 0.097843-0.52503 0.097843-0.52503 0.00825-0.0565 0.022049-0.20671-0.11713-0.24943-0.13781-0.0413-0.46716 8e-3 -0.46716-0.2067 0-0.0758 0.25769-1.345 0.28388-1.7515 0.027552-0.40652 0.00282-0.94258-0.66422-1.2058-0.24253-0.0951-2.4088-0.0703-2.4088-0.0703-0.12816-1e-3 -0.24391 0.0799-0.26045 0.18327l-0.097843 0.45614c-0.016545 0.10335 0.075794 0.18741 0.20395 0.19016h1.4952c0.5333 0 0.7276 0.10198 0.73725 0.19293 0.011007 0.0923 0.0248 0.61323-0.19981 0.60358-0.19844-8e-3 -2.8925-0.53881-2.8925 1.2375 0 0.30868-0.52228 0.42306-0.6587 0.21497-0.1378-0.20946-0.83785-0.9095-0.84336-1.0335-0.0069-0.12403 1.1589-0.72761 1.407-1.7157 0.02342-0.0923 0.03996-0.33073-0.14332-0.33073-0.12954 0-0.61185 1e-3 -0.71107 0-0.09508-1e-3 -0.22049 0.0221-0.33073 0.24942-0.48094 1.1121-1.7363 1.367-1.6481 0.9536 0.0303-0.13504 1.4621-8.0546 1.4621-8.0546 0.02205-0.11438-0.05512-0.20808-0.17088-0.20808h-0.82406c-0.11576 0-0.226 0.0937-0.24667 0.20808l-1.9775 10.852c-0.02067 0.11576 0.05512 0.20809 0.17088 0.20809h0.82545c0.11438 0 0.22462-0.0923 0.24529-0.20809l0.23151-1.2264 0.0014 1e-3c0.06752-0.17639 0.1695-0.25356 0.3955-0.25356 0.81442 0 1.2292 1.746 2.0615 1.7611 0.50023 8e-3 1.0969-0.3707 1.2113-0.37345 0.23978-7e-3 0.37483 0.37345 1.1755 0.37345 0.71245 0 1.2292-0.26045 1.396-0.26045 0.14745 0 0.45751 0.15847 0.61185 0.19981 0.37896 0.1006 0.59393-0.0703 0.64905-0.21222m-2.3813-0.5898c-0.61323 0.0289-0.94947-0.26596-0.94947-0.55397 0-0.39549 0.60771-0.52227 1.0997-0.50436 0.49334 0.0179 0.83233 0.12402 0.81993 0.51125-0.00963 0.28801-0.44924 0.52228-0.97014 0.54708"
            fill="#fab500" />
        <path
            d="m-21.058 425.81c0.06063-0.0289 0.09922-0.0661 0.13229-0.0786 0.02618-8e-3 0.07579-5e-3 0.14469 7e-3l0.0083 3e-3c0.57188 0.16123 2.6417 0.7152 3.1502-1.6936 0 0 1.4056-7.7019 1.4084-7.7198 0.01101-0.091 0.17226-1.0694 1.5338-0.61047 0.45751 0.15434 0.49747-0.0744 0.50987-0.11576l0.20946-0.89986c0.0069-0.25631-0.19844-0.19706-0.59118-0.27285-0.30179-0.0565-0.38998 0.10473-0.45751 0.1378-0.07028 0.0317-0.31006-0.0262-0.66697-0.0427-0.20671-0.01-1.4525 0.14607-1.7033 1.3629l-1.3684 7.4001c-0.06201 0.22187-0.04134 2.3124-2.4419 1.1328-0.40928-0.20119-0.56362-0.0951-0.60083 0.11576-0.0248 0.1502-0.13918 0.9095-0.15848 1.0638-0.0083 0.0634 0.03859 0.16398 0.15848 0.1819 0.1254 0.0207 0.32659 0.0496 0.42581 0.0648 0.14194 0.0207 0.23014 4e-3 0.2949-0.0289l0.01242-7e-3"
            fill="#fab500" />
        <g transform="matrix(.35278 0 0 .35278 -204.03 137.92)" fill="#11110c">
            <use x="54.441799" y="590.40863" width="100%" height="100%" xlink:href="#a" />
        </g>
        <g transform="matrix(.35278 0 0 .35278 -204.03 137.92)" fill="#11110c">
            <use x="54.441799" y="607.40363" width="100%" height="100%" xlink:href="#a" />
        </g>
        <g transform="matrix(.35278 0 0 .35278 -204.03 137.92)" fill="#11110c">
            <use x="445.5448" y="686.7995" width="100%" height="100%" xlink:href="#a" />
        </g>
    </g>
</svg>