<?xml version="1.0" encoding="UTF-8"?>
<svg enable-background="new 0 0 425.7 77.2" version="1.1" viewBox="0 0 425.7 77.2" xml:space="preserve"
    xmlns="http://www.w3.org/2000/svg">
    <style type="text/css">
        *.uoh-st0 {
            fill: #1d1d1b;
        }
    </style>
    <path class="uoh-st0"
        d="m311.5 77.2c-5.9 0-11-0.8-15.3-2.4s-8-3.9-10.9-6.7-5.1-6.2-6.5-10c-1.4-3.9-2.1-8-2.1-12.5v-45.6h25.3v42.8c0 3.6 0.9 6.4 2.6 8.4s4.2 3 7.4 3 5.6-1 7.4-3c1.7-2 2.6-4.8 2.6-8.4v-42.8h25v45.6c0 4.5-0.8 8.6-2.3 12.5s-3.8 7.2-6.7 10c-3 2.8-6.7 5.1-11.1 6.7s-9.5 2.4-15.4 2.4z" />
    <path class="uoh-st0" d="M400.4,46.5h-20.6V75h-25.2V0h25.1v25.4h20.6V0h25.3v75h-25.2V46.5z" />
    <path class="uoh-st0"
        d="m23.8 29.7c-2.4 2.1-5.8 3.2-10.1 3.2-4.4 0-7.7-1-10.1-3.1s-3.6-5.4-3.6-9.8v-20h7.1v20c0 0.9 0.1 1.7 0.2 2.6s0.5 1.6 0.9 2.2c0.5 0.6 1.1 1.2 2 1.6s2 0.6 3.4 0.6c2.5 0 4.3-0.6 5.2-1.7s1.4-2.9 1.4-5.3v-20h7.1v20c0.1 4.3-1.1 7.6-3.5 9.7z" />
    <path class="uoh-st0"
        d="m37.3 8.9v3.2h0.1c0.8-1.3 1.9-2.3 3.2-2.9s2.6-0.9 4-0.9c1.7 0 3.1 0.2 4.2 0.7s2 1.1 2.6 1.9 1.1 1.8 1.3 3c0.3 1.2 0.4 2.5 0.4 3.9v14.3h-6.4v-13.1c0-1.9-0.3-3.4-0.9-4.3s-1.7-1.4-3.2-1.4c-1.7 0-3 0.5-3.8 1.6-0.8 1-1.2 2.7-1.2 5.1v12.2h-6.4v-23.3h6.1z" />
    <path class="uoh-st0" d="M56.6,5.3V0H63v5.3H56.6z M63,8.9v23.3h-6.4V8.9H63z" />
    <path class="uoh-st0" d="m72.3 32.1-8-23.3h6.7l4.9 15.9h0.1l4.9-15.9h6.3l-7.9 23.3h-7z" />
    <path class="uoh-st0"
        d="m95.2 26.6c1 0.9 2.3 1.4 4.1 1.4 1.3 0 2.4-0.3 3.3-1 0.9-0.6 1.5-1.3 1.7-2h5.6c-0.9 2.8-2.3 4.8-4.1 6-1.9 1.2-4.1 1.8-6.8 1.8-1.8 0-3.5-0.3-5-0.9s-2.7-1.4-3.7-2.5-1.8-2.4-2.4-3.9-0.8-3.1-0.8-5c0-1.7 0.3-3.4 0.9-4.9s1.4-2.8 2.4-3.9 2.3-2 3.8-2.6 3.1-0.9 4.8-0.9c2 0 3.7 0.4 5.2 1.1 1.5 0.8 2.7 1.8 3.6 3.1s1.6 2.8 2 4.4c0.4 1.7 0.6 3.4 0.5 5.2h-16.7c0.1 2.1 0.7 3.6 1.6 4.6zm7.2-12.3c-0.8-0.8-1.9-1.3-3.5-1.3-1 0-1.9 0.2-2.5 0.5-0.7 0.3-1.2 0.8-1.6 1.3s-0.7 1.1-0.9 1.6c-0.2 0.6-0.3 1.1-0.3 1.5h10.4c-0.3-1.5-0.8-2.7-1.6-3.6z" />
    <path class="uoh-st0"
        d="m118.8 8.9v4.3h0.1c0.3-0.7 0.7-1.4 1.2-2s1.1-1.1 1.8-1.6c0.7-0.4 1.4-0.8 2.1-1 0.8-0.2 1.5-0.4 2.3-0.4 0.4 0 0.9 0.1 1.4 0.2v5.9c-0.3-0.1-0.7-0.1-1.1-0.2-0.4 0-0.8-0.1-1.2-0.1-1.2 0-2.2 0.2-3 0.6s-1.5 0.9-2 1.6-0.8 1.5-1.1 2.4c-0.2 0.9-0.3 1.9-0.3 2.9v10.5h-6.4v-23.1h6.2z" />
    <path class="uoh-st0"
        d="m134 26.4c0.3 0.5 0.7 0.9 1.1 1.2s1 0.5 1.6 0.7 1.2 0.2 1.8 0.2c0.4 0 0.9-0.1 1.4-0.2s0.9-0.3 1.4-0.5c0.4-0.2 0.7-0.5 1-0.9s0.4-0.8 0.4-1.4c0-1-0.6-1.7-1.9-2.2s-3.1-1-5.3-1.4c-0.9-0.2-1.8-0.5-2.7-0.7s-1.7-0.7-2.4-1.1c-0.7-0.5-1.2-1-1.7-1.8-0.4-0.7-0.6-1.6-0.6-2.6 0-1.5 0.3-2.7 0.9-3.7s1.4-1.7 2.3-2.3c1-0.6 2-0.9 3.2-1.2 1.2-0.2 2.4-0.3 3.7-0.3s2.5 0.1 3.7 0.4c1.2 0.2 2.2 0.6 3.2 1.2 0.9 0.6 1.7 1.3 2.3 2.3 0.6 0.9 1 2.1 1.1 3.6h-6.1c-0.1-1.2-0.6-2.1-1.4-2.5s-1.8-0.7-3-0.7c-0.4 0-0.8 0-1.2 0.1-0.4 0-0.8 0.1-1.1 0.3s-0.6 0.4-0.9 0.7-0.4 0.7-0.4 1.1c0 0.6 0.2 1 0.6 1.4s1 0.7 1.6 0.9c0.7 0.2 1.4 0.4 2.3 0.6l2.7 0.6c0.9 0.2 1.8 0.5 2.7 0.8s1.7 0.7 2.4 1.2 1.2 1.1 1.7 1.8 0.6 1.6 0.6 2.7c0 1.5-0.3 2.8-0.9 3.8s-1.4 1.9-2.4 2.5-2.1 1.1-3.4 1.3c-1.3 0.3-2.6 0.4-3.9 0.4-1.4 0-2.7-0.1-4-0.4s-2.4-0.7-3.4-1.3-1.8-1.5-2.5-2.5c-0.6-1-1-2.3-1.1-3.9h6.1c0.1 0.7 0.2 1.3 0.5 1.8z" />
    <path class="uoh-st0" d="m151.5 5.3v-5.3h6.4v5.3h-6.4zm6.4 3.6v23.3h-6.4v-23.3h6.4z" />
    <path class="uoh-st0"
        d="m174.1 8.9v4.3h-4.7v11.5c0 1.1 0.2 1.8 0.5 2.2 0.4 0.4 1.1 0.5 2.2 0.5h1c0.3 0 0.6-0.1 0.9-0.1v5c-0.5 0.1-1.1 0.1-1.8 0.2h-1.9c-1 0-1.9-0.1-2.8-0.2s-1.7-0.4-2.3-0.8c-0.7-0.4-1.2-0.9-1.6-1.7-0.4-0.7-0.6-1.7-0.6-2.8v-13.9h-3.9v-4.2h3.9v-7h6.4v7h4.7z" />
    <path class="uoh-st0"
        d="m184.3 39.1c-1.2 0.8-2.9 1.2-5.1 1.2-0.7 0-1.3 0-2-0.1-0.6 0-1.3-0.1-2-0.2v-5.3c0.6 0.1 1.2 0.1 1.8 0.2s1.3 0.1 1.9 0c0.8-0.1 1.5-0.4 1.9-1s0.6-1.2 0.6-1.9c0-0.5-0.1-1-0.3-1.4l-8.1-21.7h6.8l5.3 15.9h0.1l5.1-15.9h6.6l-9.7 26.1c-0.7 1.9-1.7 3.3-2.9 4.1z" />
    <path class="uoh-st0"
        d="m208.6 15.5c0.6-1.5 1.4-2.8 2.4-3.9s2.3-1.9 3.8-2.5 3.1-0.9 5-0.9c1.8 0 3.5 0.3 5 0.9s2.8 1.4 3.8 2.5 1.9 2.4 2.4 3.9c0.6 1.5 0.9 3.2 0.9 5.1s-0.3 3.5-0.9 5-1.4 2.8-2.4 3.8c-1 1.1-2.3 1.9-3.8 2.5s-3.1 0.9-5 0.9c-1.8 0-3.5-0.3-5-0.9s-2.7-1.4-3.8-2.5-1.9-2.3-2.4-3.8c-0.6-1.5-0.9-3.2-0.9-5 0.1-1.9 0.3-3.6 0.9-5.1zm5.8 7.7c0.2 0.9 0.5 1.7 0.9 2.4s1 1.3 1.7 1.7 1.6 0.6 2.7 0.6 2-0.2 2.7-0.6 1.3-1 1.8-1.7c0.4-0.7 0.7-1.5 0.9-2.4s0.3-1.8 0.3-2.7-0.1-1.8-0.3-2.7-0.5-1.7-0.9-2.4-1-1.3-1.8-1.7c-0.7-0.4-1.6-0.7-2.7-0.7s-2 0.2-2.7 0.7c-0.7 0.4-1.3 1-1.7 1.7s-0.7 1.5-0.9 2.4-0.3 1.8-0.3 2.7c0.1 1 0.1 1.9 0.3 2.7z" />
    <path class="uoh-st0"
        d="m232 13.1v-4.2h3.8v-1.8c0-2.1 0.6-3.8 1.9-5.1s3.2-2 5.9-2c0.6 0 1.1 0 1.7 0.1 0.6 0 1.1 0.1 1.7 0.1v4.8c-0.8-0.1-1.5-0.1-2.3-0.1-0.9 0-1.5 0.2-1.9 0.6s-0.6 1.1-0.6 2v1.4h4.4v4.3h-4.4v19h-6.4v-19h-3.8z" />
    <path class="uoh-st0" d="M7.2,40v12.3h13V40h7.1v32.1h-7.1V58.3h-13v13.9H0.1V40H7.2z" />
    <path class="uoh-st0"
        d="m38.6 66.6c1 0.9 2.3 1.4 4.1 1.4 1.3 0 2.4-0.3 3.3-1 0.9-0.6 1.5-1.3 1.7-2h5.6c-0.9 2.8-2.3 4.8-4.1 6-1.9 1.2-4.1 1.8-6.8 1.8-1.8 0-3.5-0.3-5-0.9s-2.7-1.4-3.7-2.5-1.7-2.4-2.3-3.9-0.8-3.1-0.8-5c0-1.7 0.3-3.4 0.9-4.9s1.4-2.8 2.4-3.9 2.3-2 3.8-2.6 3.1-0.9 4.8-0.9c2 0 3.7 0.4 5.2 1.1 1.5 0.8 2.7 1.8 3.6 3.1s1.6 2.8 2 4.4c0.4 1.7 0.6 3.4 0.5 5.2h-16.8c0.1 2.1 0.6 3.6 1.6 4.6zm7.2-12.3c-0.8-0.8-1.9-1.3-3.5-1.3-1 0-1.9 0.2-2.5 0.5-0.7 0.3-1.2 0.8-1.6 1.3s-0.7 1.1-0.9 1.6c-0.2 0.6-0.3 1.2-0.3 1.6h10.4c-0.3-1.6-0.8-2.8-1.6-3.7z" />
    <path class="uoh-st0"
        d="m61.6 48.9v4.3h0.1c0.3-0.7 0.7-1.4 1.2-2s1.1-1.1 1.8-1.6c0.7-0.4 1.4-0.8 2.1-1s1.5-0.4 2.3-0.4c0.4 0 0.9 0.1 1.4 0.2v5.9c-0.3-0.1-0.7-0.1-1.1-0.2s-0.8-0.1-1.2-0.1c-1.2 0-2.2 0.2-3 0.6s-1.5 0.9-2 1.6-0.8 1.5-1.1 2.4c-0.2 0.9-0.3 1.9-0.3 2.9v10.5h-6.4v-23.1h6.2z" />
    <path class="uoh-st0"
        d="m86.6 48.9v4.3h-4.7v11.5c0 1.1 0.2 1.8 0.5 2.2 0.4 0.4 1.1 0.5 2.2 0.5h1c0.3 0 0.6-0.1 0.9-0.1v5c-0.5 0.1-1.1 0.1-1.8 0.2h-1.9c-1 0-1.9-0.1-2.8-0.2s-1.7-0.4-2.3-0.8c-0.7-0.4-1.2-0.9-1.6-1.7-0.4-0.7-0.6-1.7-0.6-2.8v-13.9h-3.9v-4.3h3.9v-7h6.4v7h4.7z" />
    <path class="uoh-st0"
        d="m86.1 53.1v-4.3h3.9v-1.8c0-2.1 0.6-3.8 1.9-5.1s3.2-2 5.9-2c0.6 0 1.1 0 1.7 0.1 0.6 0 1.1 0.1 1.7 0.1v4.9c-0.8-0.1-1.5-0.1-2.3-0.1-0.9 0-1.5 0.2-1.9 0.6s-0.6 1.1-0.6 2v1.4h4.4v4.3h-4.4v19h-6.4v-19h-3.9z" />
    <path class="uoh-st0"
        d="m102.6 55.5c0.6-1.5 1.4-2.8 2.4-3.9s2.3-1.9 3.8-2.5 3.1-0.9 5-0.9 3.5 0.3 5 0.9 2.8 1.4 3.8 2.5 1.9 2.4 2.4 3.9c0.6 1.5 0.9 3.2 0.9 5.1s-0.3 3.5-0.9 5-1.4 2.8-2.4 3.8c-1.1 1.1-2.3 1.9-3.8 2.5s-3.1 0.9-5 0.9-3.5-0.3-5-0.9-2.7-1.4-3.8-2.5-1.9-2.3-2.4-3.8c-0.6-1.5-0.9-3.2-0.9-5 0-1.9 0.3-3.6 0.9-5.1zm5.8 7.7c0.2 0.9 0.5 1.7 0.9 2.4s1 1.3 1.7 1.7 1.6 0.6 2.7 0.6 2-0.2 2.7-0.6 1.3-1 1.8-1.7c0.4-0.7 0.7-1.5 0.9-2.4s0.3-1.8 0.3-2.7-0.1-1.8-0.3-2.7-0.5-1.7-0.9-2.4-1-1.3-1.8-1.7c-0.7-0.4-1.6-0.7-2.7-0.7s-2 0.2-2.7 0.7c-0.7 0.4-1.3 1-1.7 1.7s-0.7 1.5-0.9 2.4-0.3 1.8-0.3 2.7c0 1 0.1 1.9 0.3 2.7z" />
    <path class="uoh-st0"
        d="m135 48.9v4.3h0.1c0.3-0.7 0.7-1.4 1.2-2s1.1-1.1 1.8-1.6c0.7-0.4 1.4-0.8 2.1-1s1.5-0.4 2.3-0.4c0.4 0 0.9 0.1 1.4 0.2v5.9c-0.3-0.1-0.7-0.1-1.1-0.2s-0.8-0.1-1.2-0.1c-1.2 0-2.2 0.2-3 0.6s-1.5 0.9-2 1.6-0.8 1.5-1.1 2.4c-0.2 0.9-0.3 1.9-0.3 2.9v10.5h-6.4v-23.1h6.2z" />
    <path class="uoh-st0"
        d="m161 69.2c-0.8 1.3-1.7 2.2-2.9 2.7-1.2 0.6-2.6 0.8-4.1 0.8-1.7 0-3.3-0.3-4.6-1s-2.4-1.6-3.3-2.7c-0.9-1.2-1.5-2.5-1.9-4s-0.7-3.1-0.7-4.7 0.2-3.1 0.7-4.5c0.4-1.5 1.1-2.7 1.9-3.8 0.9-1.1 1.9-2 3.2-2.7s2.8-1 4.5-1c1.4 0 2.7 0.3 3.9 0.9s2.2 1.4 2.9 2.6h0.1v-11.8h6.4v32.1h-6.1v-2.9zm-0.3-11.5c-0.2-0.9-0.5-1.7-0.9-2.3-0.4-0.7-1-1.2-1.7-1.6s-1.6-0.6-2.6-0.6c-1.1 0-1.9 0.2-2.7 0.6-0.7 0.4-1.3 1-1.7 1.7s-0.8 1.5-0.9 2.4c-0.2 0.9-0.3 1.8-0.3 2.8 0 0.9 0.1 1.8 0.3 2.7s0.5 1.7 1 2.4 1 1.3 1.8 1.7c0.7 0.4 1.6 0.7 2.5 0.7 1 0 1.9-0.2 2.6-0.6s1.3-1 1.7-1.7 0.7-1.5 0.9-2.4 0.3-1.8 0.3-2.8c0-1.2-0.1-2.1-0.3-3z" />
    <path class="uoh-st0"
        d="m176.3 66.4c0.3 0.5 0.7 0.9 1.1 1.2s1 0.5 1.6 0.7 1.2 0.2 1.8 0.2c0.4 0 0.9-0.1 1.4-0.2s0.9-0.3 1.4-0.5c0.4-0.2 0.7-0.5 1-0.9s0.4-0.8 0.4-1.4c0-1-0.6-1.7-1.9-2.2s-3.1-1-5.3-1.4c-0.9-0.2-1.8-0.5-2.7-0.7s-1.7-0.7-2.4-1.1c-0.7-0.5-1.2-1-1.7-1.8-0.4-0.7-0.6-1.6-0.6-2.6 0-1.5 0.3-2.7 0.9-3.7s1.4-1.7 2.3-2.3c1-0.6 2-0.9 3.2-1.2 1.2-0.2 2.4-0.3 3.7-0.3s2.5 0.1 3.7 0.4c1.2 0.2 2.2 0.6 3.2 1.2 0.9 0.6 1.7 1.3 2.3 2.3 0.6 0.9 1 2.1 1.1 3.6h-6.1c-0.1-1.2-0.6-2.1-1.4-2.5s-1.8-0.7-3-0.7c-0.4 0-0.8 0-1.2 0.1-0.4 0-0.8 0.1-1.1 0.3s-0.6 0.4-0.9 0.7-0.4 0.7-0.4 1.1c0 0.6 0.2 1 0.6 1.4s1 0.7 1.6 0.9c0.7 0.2 1.4 0.4 2.3 0.6l2.7 0.6c0.9 0.2 1.8 0.5 2.7 0.8s1.7 0.7 2.4 1.2 1.2 1.1 1.7 1.8 0.6 1.6 0.6 2.7c0 1.5-0.3 2.8-0.9 3.8s-1.4 1.9-2.4 2.5-2.1 1.1-3.4 1.3c-1.3 0.3-2.6 0.4-3.9 0.4-1.4 0-2.7-0.1-4-0.4s-2.4-0.7-3.4-1.3-1.8-1.5-2.5-2.5c-0.6-1-1-2.3-1.1-3.9h6.1c0.1 0.7 0.2 1.3 0.5 1.8z" />
    <path class="uoh-st0"
        d="m199.5 40v12.1h0.1c0.8-1.3 1.8-2.3 3.1-2.9s2.5-0.9 3.7-0.9c1.7 0 3.1 0.2 4.2 0.7s2 1.1 2.6 1.9 1.1 1.8 1.3 3c0.3 1.2 0.4 2.5 0.4 3.9v14.3h-6.4v-13.1c0-1.9-0.3-3.4-0.9-4.3s-1.7-1.4-3.2-1.4c-1.7 0-3 0.5-3.8 1.6-0.8 1-1.2 2.7-1.2 5.1v12.2h-6.4v-32.2h6.5z" />
    <path class="uoh-st0" d="m218.9 45.3v-5.3h6.4v5.3h-6.4zm6.4 3.6v23.3h-6.4v-23.3h6.4z" />
    <path class="uoh-st0"
        d="m235.3 48.9v4.3h0.1c0.3-0.7 0.7-1.4 1.2-2s1.1-1.1 1.8-1.6c0.7-0.4 1.4-0.8 2.1-1 0.8-0.2 1.5-0.4 2.3-0.4 0.4 0 0.9 0.1 1.4 0.2v5.9c-0.3-0.1-0.7-0.1-1.1-0.2-0.4 0-0.8-0.1-1.2-0.1-1.2 0-2.2 0.2-3 0.6s-1.5 0.9-2 1.6-0.8 1.5-1.1 2.4c-0.2 0.9-0.3 1.9-0.3 2.9v10.5h-6.4v-23.1h6.2z" />
    <path class="uoh-st0"
        d="m251.7 66.6c1 0.9 2.3 1.4 4.1 1.4 1.3 0 2.4-0.3 3.3-1 0.9-0.6 1.5-1.3 1.7-2h5.6c-0.9 2.8-2.3 4.8-4.1 6-1.9 1.2-4.1 1.8-6.8 1.8-1.8 0-3.5-0.3-5-0.9s-2.7-1.4-3.7-2.5-1.8-2.4-2.4-3.9-0.8-3.1-0.8-5c0-1.7 0.3-3.4 0.9-4.9s1.4-2.8 2.4-3.9 2.3-2 3.8-2.6 3.1-0.9 4.8-0.9c2 0 3.7 0.4 5.2 1.1 1.5 0.8 2.7 1.8 3.6 3.1s1.6 2.8 2 4.4c0.4 1.7 0.6 3.4 0.5 5.2h-16.8c0.2 2.1 0.7 3.6 1.7 4.6zm7.2-12.3c-0.8-0.8-1.9-1.3-3.5-1.3-1 0-1.9 0.2-2.5 0.5-0.7 0.3-1.2 0.8-1.6 1.3s-0.7 1.1-0.9 1.6c-0.2 0.6-0.3 1.1-0.3 1.5h10.4c-0.3-1.5-0.8-2.7-1.6-3.6z" />
</svg>